<?xml version="1.0" encoding="iso-8859-1"?>
<!-- Generator: Adobe Illustrator 19.1.0, SVG Export Plug-In . SVG Version: 6.00 Build 0)  -->
<svg version="1.1" id="Capa_1" xmlns="http://www.w3.org/2000/svg" xmlns:xlink="http://www.w3.org/1999/xlink" x="0px" y="0px"
	 viewBox="0 0 451.519 451.519" style="enable-background:new 0 0 451.519 451.519;" xml:space="preserve">
<g>
	<g>
		<g>
			<path style="fill:#009eff;" d="M283.876,309.577H79.467c-6.264,0-11.399-5.135-11.399-11.399l0,0
				c0-6.264,5.135-11.399,11.399-11.399h204.39c6.264,0,11.399,5.135,11.399,11.399l0,0
				C295.257,304.442,290.14,309.577,283.876,309.577z"/>
			<path style="fill:#009eff;" d="M283.876,258.651H79.467c-6.264,0-11.399-5.135-11.399-11.399l0,0
				c0-6.264,5.135-11.399,11.399-11.399h204.39c6.264,0,11.399,5.135,11.399,11.399l0,0
				C295.257,253.534,290.14,258.651,283.876,258.651z"/>
			<path style="fill:#009eff;" d="M283.876,202.749H79.467c-6.264,0-11.399-5.135-11.399-11.399l0,0
				c0-6.264,5.135-11.399,11.399-11.399h204.39c6.264,0,11.399,5.135,11.399,11.399l0,0
				C295.257,197.632,290.14,202.749,283.876,202.749z"/>
		</g>
		<path style="fill:#009eff;" d="M85.202,451.519c-10.658,0-19.34-8.646-19.34-19.287v-46.055
			c-35.344-9.899-60.278-42.173-60.278-79.335V177.798c0-45.508,37.021-82.529,82.511-82.529h190.133
			c45.508,0,82.511,37.021,82.511,82.529v129.043c0,45.508-37.021,82.529-82.511,82.529H160.514l-62.378,57.084
			C94.572,449.719,89.967,451.519,85.202,451.519z M88.096,112.897c-35.768,0-64.866,29.098-64.866,64.883v129.043
			c0,31.162,22.322,57.931,53.078,63.666l7.199,1.341v60.384c0,1.57,1.676,1.641,1.694,1.641c0.371,0,0.688-0.141,1.023-0.423
			l67.442-61.725h124.579c35.768,0,64.866-29.098,64.866-64.883V177.781c0-35.768-29.098-64.883-64.866-64.883
			C278.247,112.897,88.096,112.897,88.096,112.897z"/>
		<path style="fill:#009eff;" d="M363.44,0H173.29c-43.814,0-79.406,34.427-82.017,77.606c3.794-0.529,7.57-1.165,11.523-1.165
			h6.247c3.123-32.892,30.562-58.796,64.248-58.796h190.133c35.768,0,64.866,29.098,64.866,64.883v129.043
			c0,31.656-22.816,58.001-52.849,63.666v12.775c0,1.676-0.388,3.264-0.494,4.923c40.02-5.664,70.989-39.791,70.989-81.364V82.529
			C445.952,37.021,408.931,0,363.44,0z"/>
	</g>
	<g>
	</g>
	<g>
	</g>
	<g>
	</g>
	<g>
	</g>
	<g>
	</g>
	<g>
	</g>
	<g>
	</g>
	<g>
	</g>
	<g>
	</g>
	<g>
	</g>
	<g>
	</g>
	<g>
	</g>
	<g>
	</g>
	<g>
	</g>
	<g>
	</g>
</g>
<g>
</g>
<g>
</g>
<g>
</g>
<g>
</g>
<g>
</g>
<g>
</g>
<g>
</g>
<g>
</g>
<g>
</g>
<g>
</g>
<g>
</g>
<g>
</g>
<g>
</g>
<g>
</g>
<g>
</g>
</svg>
