<?xml version="1.0" encoding="iso-8859-1"?>
<!-- Generator: Adobe Illustrator 18.1.1, SVG Export Plug-In . SVG Version: 6.00 Build 0)  -->
<svg version="1.1" id="Capa_1" xmlns="http://www.w3.org/2000/svg" xmlns:xlink="http://www.w3.org/1999/xlink" x="0px" y="0px"
	 viewBox="0 0 32 32" style="enable-background:new 0 0 32 32;" xml:space="preserve">
<g>
	<g>
		<path fill="#333" style="fill:#010002;" d="M8,3v6L0,3v20l8-6v6h6.523c1.236,3.493,4.558,5.998,8.477,6c3.917-0.002,7.238-2.507,8.477-6H32V3
			H8z M23,26.883c-3.801-0.009-6.876-3.084-6.885-6.883c0.009-3.801,3.084-6.876,6.885-6.885c3.799,0.009,6.874,3.084,6.883,6.885
			C29.874,23.799,26.799,26.874,23,26.883z"/>
		<polygon style="fill:#010002;" points="24.002,15 22,15 22,19 18,19 18,21 22,21 22,25 24.002,25 24.002,21 28,21 28,19 
			24.002,19 		"/>
	</g>
</g>
<g>
</g>
<g>
</g>
<g>
</g>
<g>
</g>
<g>
</g>
<g>
</g>
<g>
</g>
<g>
</g>
<g>
</g>
<g>
</g>
<g>
</g>
<g>
</g>
<g>
</g>
<g>
</g>
<g>
</g>
</svg>
