<?xml version="1.0" encoding="UTF-8"?>
<!DOCTYPE svg PUBLIC "-//W3C//DTD SVG 1.1//EN" "http://www.w3.org/Graphics/SVG/1.1/DTD/svg11.dtd">
<!-- Creator: CorelDRAW 2017 -->
<svg xmlns="http://www.w3.org/2000/svg" xml:space="preserve" width="7.11806in" height="6.93087in" version="1.1" style="shape-rendering:geometricPrecision; text-rendering:geometricPrecision; image-rendering:optimizeQuality; fill-rule:evenodd; clip-rule:evenodd"
viewBox="0 0 7118.06 6930.87"
 xmlns:xlink="http://www.w3.org/1999/xlink">
 <defs>
  <style type="text/css">
   <![CDATA[
    .str0 {stroke:#525252;stroke-width:6.94;stroke-miterlimit:2.61313}
    .fil0 {fill:#5E5E5E}
   ]]>
  </style>
 </defs>
 <g id="Layer_x0020_1">
  <metadata id="CorelCorpID_0Corel-Layer"/>
  <path class="fil0 str0" d="M7114.58 5538.51c0,153.43 -124.35,277.78 -277.78,277.78l-833.33 0 0 833.33c0,153.43 -124.35,277.78 -277.78,277.78 -153.43,0 -277.78,-124.35 -277.78,-277.78l0 -833.33 -833.33 0c-153.43,0 -277.78,-124.35 -277.78,-277.78 0,-153.43 124.35,-277.78 277.78,-277.78l833.33 0 0 -833.33c0,-153.43 124.35,-277.78 277.78,-277.78 153.43,0 277.78,124.35 277.78,277.78l0 833.33 833.33 0c153.43,0 277.78,124.35 277.78,277.78l0 -0zm-2222.22 1111.11c0,153.43 -124.35,277.78 -277.78,277.78l-3777.78 0c-459.53,0 -833.33,-373.81 -833.33,-833.33l0 -513.89c0,-479.38 205.62,-934.9 564.07,-1249.84 290.2,-255.05 1084.21,-633.03 1977.66,-829.48 -488.28,-376.14 -837.52,-949.4 -837.52,-1612 0,-1133.41 786.01,-1885.39 1919.42,-1885.39 1133.41,0 1817.31,751.97 1817.31,1885.38 0,1133.41 -751.97,1834.33 -1885.38,1834.33 -1526.42,0 -2531.32,692.74 -2811.97,939.38 -238.44,209.53 -392.24,598 -392.24,917.61l34.04 650.03c0,153.16 294.8,328.83 447.95,328.83l3726.72 -17.02c153.43,0 328.83,-45.82 328.83,107.61l0 -0zm-1333.33 -3277.78c827.09,0 1500,-672.91 1500,-1500 0,-827.09 -672.91,-1500 -1500,-1500 -827.09,0 -1500,672.91 -1500,1500 0,827.09 672.91,1500 1500,1500zm0 0z"/>
 </g>
</svg>
