<svg width="155" height="520" xmlns="http://www.w3.org/2000/svg">

 <g>
  <title>background</title>
  <rect fill="none" id="canvas_background" height="522" width="157" y="-1" x="-1"/>
 </g>
 <g>
  <title>Layer 1</title>
  <g id="svg_1">
   <g id="svg_2">
    <path id="svg_3" fill="#b3b1b1" d="m77.666667,3.333333c-41.355,0 -75,33.645 -75,75s33.645,75 75,75s75,-33.645 75,-75s-33.645,-75 -75,-75zm0,120c-24.813,0 -45,-20.187 -45,-45s20.187,-45 45,-45s45,20.187 45,45s-20.187,45 -45,45z"/>
   </g>
  </g>
  <g id="svg_4">
   <g id="svg_5">
    <path id="svg_6" fill="#b3b1b1" d="m77.666667,184.333333c-41.355,0 -75,33.645 -75,75s33.645,75 75,75s75,-33.645 75,-75c0,-41.355 -33.645,-75 -75,-75zm0,120c-24.813,0 -45,-20.187 -45,-45s20.187,-45 45,-45s45,20.187 45,45s-20.187,45 -45,45z"/>
   </g>
  </g>
  <g id="svg_7">
   <g id="svg_8">
    <path id="svg_9" fill="#b3b1b1" d="m77.666667,365.333333c-41.355,0 -75,33.645 -75,75c0,41.355 33.645,75 75,75s75,-33.645 75,-75c0,-41.355 -33.645,-75 -75,-75zm0,120c-24.813,0 -45,-20.187 -45,-45s20.187,-45 45,-45s45,20.187 45,45s-20.187,45 -45,45z"/>
   </g>
  </g>
  <g id="svg_19"/>
  <g id="svg_20"/>
  <g id="svg_21"/>
  <g id="svg_22"/>
  <g id="svg_23"/>
  <g id="svg_24"/>
  <g id="svg_25"/>
  <g id="svg_26"/>
  <g id="svg_27"/>
  <g id="svg_28"/>
  <g id="svg_29"/>
  <g id="svg_30"/>
  <g id="svg_31"/>
  <g id="svg_32"/>
  <g id="svg_33"/>
 </g>
</svg>