<?xml version="1.0" encoding="UTF-8"?>
<!DOCTYPE svg PUBLIC "-//W3C//DTD SVG 1.1//EN" "http://www.w3.org/Graphics/SVG/1.1/DTD/svg11.dtd">
<!-- Creator: CorelDRAW 2017 -->
<svg xmlns="http://www.w3.org/2000/svg" xml:space="preserve" width="11.2in" height="11.2in" version="1.1" style="shape-rendering:geometricPrecision; text-rendering:geometricPrecision; image-rendering:optimizeQuality; fill-rule:evenodd; clip-rule:evenodd"
viewBox="0 0 9265.48 9265.48"
 xmlns:xlink="http://www.w3.org/1999/xlink">
 <defs>
  <style type="text/css">
   <![CDATA[
    .str1 {stroke:#373435;stroke-width:234.39;stroke-miterlimit:2.61313}
    .str2 {stroke:#373435;stroke-width:234.39;stroke-miterlimit:2.61313}
    .str0 {stroke:#373435;stroke-width:68.94;stroke-miterlimit:2.61313}
    .fil1 {fill:none}
    .fil0 {fill:#373435}
   ]]>
  </style>
 </defs>
 <g id="Layer_x0020_1">
  <metadata id="CorelCorpID_0Corel-Layer"/>
  <g id="_2315943905616">
   <path class="fil0 str0" d="M4791.6 5198.95c-135.05,-94.18 -280.82,-172.15 -434.3,-231.79l-166.13 -64.55 131.89 -119.88c198.89,-180.78 322.21,-429.12 343.93,-697.3l3.34 -41.23 29.63 -28.87c345.3,-336.46 797.66,-519.61 1279.81,-519.61 376.83,0 740.03,113.44 1049.12,329 53.95,37.62 128.1,24.45 165.73,-29.51 37.59,-53.91 24.39,-128.09 -29.51,-165.69 -135.06,-94.21 -280.88,-172.11 -434.37,-231.8l-166.07 -64.58 131.86 -119.84c221.5,-201.32 347.51,-484.1 347.51,-783.73 0,-584.03 -475.22,-1059.25 -1059.25,-1059.25 -584.01,0 -1059.21,475.25 -1059.21,1059.25 0,298.42 124.98,580.14 344.95,781.36l131.55 120.34 -166.41 64c-30.47,11.72 -60.69,24.1 -90.57,37.25 -135.33,59.56 -263.89,133.37 -383.49,220.3l-114.38 83.14 -52.8 -131.17c-161.15,-400.35 -550.12,-665.03 -983.1,-665.03 -583.98,0 -1059.25,475.22 -1059.25,1059.21 0,297.56 124.25,578.48 343.09,779.67l132.17 121.5 -168.12 62.99c-591.84,221.74 -1070.9,697.56 -1265.49,1302.55 -57.19,177.82 -26.92,366.28 83.09,517.24 110.2,151.22 279.74,237.45 466.85,237.45l1995.12 0c65.78,0 119,-53.28 119,-119.05 0,-65.75 -53.25,-119 -119,-119l-1995.12 0c-109.4,0 -210.08,-51.22 -274.51,-139.63 -64.33,-88.27 -82.31,-200.14 -48.87,-304.11 245.52,-763.47 989.55,-1273.41 1786.02,-1273.41 376.81,0 740.06,113.44 1049.13,329 53.92,37.61 128.12,24.4 165.73,-29.52 37.61,-53.92 24.36,-128.08 -29.56,-165.68zm-1180.28 -378.79c-452.88,0 -821.2,-368.32 -821.2,-821.2 0,-452.86 368.34,-821.2 821.2,-821.2 452.86,0 821.2,368.34 821.2,821.2 0,452.88 -368.32,821.2 -821.2,821.2zm2373.46 -1569.39c-452.84,0 -821.2,-368.36 -821.2,-821.2 0,-452.86 368.34,-821.2 821.2,-821.2 452.88,0 821.2,368.32 821.2,821.2 0,452.86 -368.34,821.2 -821.2,821.2z"/>
   <path class="fil0 str0" d="M6118.02 5181.41l0 740.92 -740.93 0c-65.78,0 -119,53.28 -119,119.05 0,65.75 53.25,119 119,119l740.93 0 0 740.92c0,65.8 53.25,119.05 119.05,119.05 65.78,0 119,-53.28 119,-119.05l0 -740.92 740.92 0c65.77,0 119.05,-53.22 119.05,-119 0,-65.8 -53.25,-119.05 -119.05,-119.05l-740.92 0 0 -740.92c0,-65.75 -53.25,-119 -119,-119 -65.77,0 -119.05,53.22 -119.05,119z"/>
  </g>
  <circle class="fil1 str1" cx="4632.74" cy="4632.74" r="4515.54"/>
  <g id="_2315943907280">
   <path class="fil1 str2" d="M4632.74 321.26c2381.17,0 4311.48,1930.32 4311.48,4311.48 0,2381.17 -1930.32,4311.48 -4311.48,4311.48 -2381.17,0 -4311.48,-1930.32 -4311.48,-4311.48 0,-2381.17 1930.32,-4311.48 4311.48,-4311.48z"/>
  </g>
 </g>
</svg>
