<?xml version="1.0" encoding="UTF-8"?>
<!DOCTYPE svg PUBLIC "-//W3C//DTD SVG 1.1//EN" "http://www.w3.org/Graphics/SVG/1.1/DTD/svg11.dtd">
<!-- Creator: CorelDRAW 2017 -->
<svg xmlns="http://www.w3.org/2000/svg" xml:space="preserve" width="0.225795in" height="0.226539in" version="1.1" style="shape-rendering:geometricPrecision; text-rendering:geometricPrecision; image-rendering:optimizeQuality; fill-rule:evenodd; clip-rule:evenodd"
viewBox="0 0 224.82 225.56"
 xmlns:xlink="http://www.w3.org/1999/xlink">
 <defs>
  <style type="text/css">
   <![CDATA[
    .fil0 {fill:#A2ACB3}
   ]]>
  </style>
 </defs>
 <g id="Layer_x0020_1">
  <metadata id="CorelCorpID_0Corel-Layer"/>
  <g id="_2468790699344">
   <g>
    <path class="fil0" d="M10.38 122.85c-5.74,0 -10.38,-4.64 -10.38,-10.36 0,-5.74 4.64,-10.37 10.37,-10.37l204.07 0.01c5.73,0.01 10.37,4.64 10.37,10.37 0,5.73 -4.64,10.38 -10.38,10.38l-204.06 -0.02 0 0zm0 0l0 0 0 0z"/>
   </g>
   <path class="fil0" d="M101.93 11.42c0,-6.31 4.65,-11.41 10.36,-11.42 5.73,0 10.36,5.11 10.37,11.41l0 202.73c0,6.29 -4.64,11.41 -10.37,11.41 -5.73,-0.01 -10.38,-5.13 -10.37,-11.41l0.01 -202.73z"/>
  </g>
 </g>
</svg>
