<?xml version="1.0" encoding="UTF-8"?>
<!DOCTYPE svg PUBLIC "-//W3C//DTD SVG 1.1//EN" "http://www.w3.org/Graphics/SVG/1.1/DTD/svg11.dtd">
<!-- Creator: CorelDRAW 2017 -->
<svg xmlns="http://www.w3.org/2000/svg" xml:space="preserve" width="0.2455in" height="0.252839in" version="1.1" style="shape-rendering:geometricPrecision; text-rendering:geometricPrecision; image-rendering:optimizeQuality; fill-rule:evenodd; clip-rule:evenodd"
viewBox="0 0 4.49 4.62"
 xmlns:xlink="http://www.w3.org/1999/xlink">
 <defs>
  <style type="text/css">
   <![CDATA[
    .fil0 {fill:#1b67b1}
   ]]>
  </style>
 </defs>
 <g id="Layer_x0020_1">
  <metadata id="CorelCorpID_0Corel-Layer"/>
  <path class="fil0" d="M3.24 3.59l-2 0 0 -0.63 2 0 0 0.63 0 0zm-0.5 -2.7l-1 0c-0.05,0 -0.09,0.04 -0.09,0.09 0,0.05 0.04,0.09 0.09,0.09l1 -0c0.05,0 0.09,-0.04 0.09,-0.09 0,-0.05 -0.04,-0.09 -0.09,-0.09zm0.57 0.65l-2.14 0c-0.05,0 -0.09,0.04 -0.09,0.09 0,0.05 0.04,0.09 0.09,0.09l2.14 -0c0.05,0 0.09,-0.04 0.09,-0.09 0,-0.05 -0.04,-0.09 -0.09,-0.09zm0 0.61l-2.14 0c-0.05,0 -0.09,0.04 -0.09,0.09 0,0.05 0.04,0.09 0.09,0.09l2.14 -0c0.05,0 0.09,-0.04 0.09,-0.09 0,-0.05 -0.04,-0.09 -0.09,-0.09zm-2.92 -2.15l3.73 0c0.05,0 0.1,0.01 0.14,0.03 0.05,0.02 0.09,0.04 0.12,0.08 0.03,0.03 0.06,0.07 0.08,0.12 0.02,0.04 0.03,0.09 0.03,0.14l0 3.87c0,0.05 -0.01,0.1 -0.03,0.15 -0.02,0.05 -0.04,0.09 -0.08,0.13 -0.03,0.04 -0.07,0.07 -0.12,0.09 -0.04,0.02 -0.09,0.03 -0.14,0.03l-3.73 0c-0.05,0 -0.1,-0.01 -0.15,-0.03 -0.05,-0.02 -0.09,-0.05 -0.13,-0.09 -0.04,-0.04 -0.07,-0.08 -0.09,-0.13 -0.02,-0.05 -0.03,-0.1 -0.03,-0.15l0 -3.87c0,-0.05 0.01,-0.1 0.03,-0.14 0.02,-0.05 0.05,-0.09 0.09,-0.12 0.04,-0.03 0.08,-0.06 0.13,-0.08 0.05,-0.02 0.1,-0.03 0.15,-0.03zm3.69 4.22l0 -3.82 -3.68 0 0 3.81 0.01 0.01 3.68 0zm-0.74 -1.45l-2.19 0c-0.05,0 -0.11,0.03 -0.11,0.08l0 0.82c0,0.05 0.05,0.1 0.11,0.1l2.19 0c0.05,0 0.08,-0.05 0.08,-0.1l0 -0.82c0,-0.05 -0.03,-0.08 -0.08,-0.08z"/>
 </g>
</svg>
