<?xml version="1.0" encoding="UTF-8"?>
<!DOCTYPE svg PUBLIC "-//W3C//DTD SVG 1.1//EN" "http://www.w3.org/Graphics/SVG/1.1/DTD/svg11.dtd">
<!-- Creator: CorelDRAW 2017 -->
<svg xmlns="http://www.w3.org/2000/svg" xml:space="preserve" width="0.316559in" height="0.287748in" version="1.1" style="shape-rendering:geometricPrecision; text-rendering:geometricPrecision; image-rendering:optimizeQuality; fill-rule:evenodd; clip-rule:evenodd"
viewBox="0 0 316.56 287.75"
 xmlns:xlink="http://www.w3.org/1999/xlink">
 <defs>
  <style type="text/css">
   <![CDATA[
    .fil0 {fill:#1b67b1}
   ]]>
  </style>
 </defs>
 <g id="Layer_x0020_1">
  <metadata id="CorelCorpID_0Corel-Layer"/>
  <path class="fil0" d="M67.18 134.91c-2.23,6.68 -9.46,10.28 -16.14,8.05 -6.68,-2.23 -10.28,-9.46 -8.05,-16.14 8.36,-24.81 24.18,-45.58 44.43,-60.13 4.66,-3.34 9.56,-6.37 14.65,-9.03l-0.02 -1.13c0,-15.6 6.33,-29.74 16.56,-39.96 10.23,-10.22 24.37,-16.56 39.97,-16.56 15.6,0 29.75,6.33 39.98,16.56 10.23,10.23 16.56,24.37 16.56,39.96 0,15.6 -6.33,29.75 -16.56,39.98 -10.23,10.23 -24.38,16.56 -39.98,16.56 -15.6,0 -29.74,-6.33 -39.97,-16.56 -3.91,-3.91 -7.26,-8.41 -9.9,-13.33 -2.19,1.31 -4.31,2.73 -6.39,4.22 -16.02,11.52 -28.55,27.93 -35.15,47.52zm113.29 -100.26c-5.58,-5.59 -13.34,-9.06 -21.89,-9.06 -8.54,0 -16.3,3.47 -21.89,9.06 -5.58,5.58 -9.05,13.33 -9.05,21.87 0,8.55 3.47,16.3 9.05,21.89 5.59,5.58 13.34,9.05 21.89,9.05 8.55,0 16.3,-3.47 21.89,-9.05 5.59,-5.59 9.06,-13.34 9.06,-21.89 0,-8.54 -3.47,-16.29 -9.06,-21.87zm-124.41 121.91c15.43,0 29.44,6.28 39.59,16.42 10.18,10.14 16.46,24.16 16.46,39.63 0,11.67 -3.59,22.53 -9.72,31.51 6.17,4.42 12.84,8.09 19.83,10.94 11.41,4.64 23.76,7.11 36.36,7.11 6.29,0 12.54,-0.61 18.62,-1.81l0.24 -0.05c6.24,-1.24 12.32,-3.08 18.12,-5.49 6.51,-2.7 14,0.39 16.7,6.9 2.7,6.51 -0.39,14 -6.9,16.7 -7.46,3.09 -15.15,5.43 -22.92,6.98l-0.66 0.11c-7.65,1.49 -15.42,2.24 -23.2,2.24 -15.88,0 -31.5,-3.12 -45.96,-9.01 -10.5,-4.27 -20.42,-10.01 -29.44,-17.11 -8.06,4.48 -17.3,7.03 -27.13,7.03 -15.47,0 -29.5,-6.28 -39.63,-16.42 -10.14,-10.19 -16.42,-24.21 -16.42,-39.64 0,-15.47 6.28,-29.5 16.42,-39.63 10.14,-10.14 24.16,-16.42 39.63,-16.42zm21.56 34.49c-5.49,-5.5 -13.14,-8.89 -21.56,-8.89 -8.42,0 -16.05,3.41 -21.55,8.91 -5.5,5.5 -8.91,13.13 -8.91,21.55 0,8.43 3.4,16.07 8.88,21.57 5.52,5.48 13.15,8.89 21.57,8.89 8.41,0 16.04,-3.39 21.55,-8.87 5.52,-5.55 8.91,-13.19 8.91,-21.59 0,-8.42 -3.42,-16.05 -8.9,-21.56zm202.29 -38.27c7.65,2.85 14.51,7.31 20.18,12.98 10.15,10.2 16.48,24.26 16.48,39.75 0,15.51 -6.3,29.57 -16.48,39.75 -10.17,10.17 -24.24,16.48 -39.75,16.48 -15.49,0 -29.55,-6.33 -39.72,-16.5 -10.2,-10.15 -16.51,-24.22 -16.51,-39.72 0,-15.48 6.32,-29.54 16.48,-39.71 8.71,-8.72 20.25,-14.6 33.07,-16.13 -1.11,-6.59 -2.89,-13.02 -5.3,-19.18 -4.37,-11.12 -10.81,-21.45 -19.07,-30.34 -4.8,-5.16 -4.51,-13.24 0.65,-18.04 5.16,-4.8 13.24,-4.51 18.04,0.65 10.48,11.29 18.65,24.37 24.17,38.43 3.96,10.1 6.59,20.74 7.76,31.6zm2.11 31.06c-5.55,-5.53 -13.22,-8.97 -21.68,-8.97 -8.49,0 -16.16,3.43 -21.67,8.93 -5.55,5.55 -8.97,13.21 -8.97,21.71 0,8.46 3.44,16.13 8.97,21.66 5.51,5.55 13.17,8.97 21.67,8.97 8.46,0 16.13,-3.44 21.66,-8.97 5.53,-5.53 8.98,-13.2 8.98,-21.66 0,-8.5 -3.43,-16.16 -8.96,-21.67z"/>
 </g>
</svg>
