<svg width="64" height="64" xmlns="http://www.w3.org/2000/svg">
	<g>
		<title>background</title>
		<rect x="-1" y="-1" width="66" height="66" id="canvas_background" fill="none"/>
	</g>

	<g>
		<title>Layer 1</title>
		<g stroke="null" id="svg_114">
			<g stroke="null" id="svg_93" transform="matrix(0.12238058788108826,0,0,0.12238058788108826,11.179933624440224,182.78108938282006) ">
				<g stroke="null" id="svg_94">
					<path fill="#b3b1b1" stroke="null" d="m340.07925,-1405.05664c-45.10003,-45.09998 -105.00004,-70 -168.8,-70s-123.70011,24.90002 -168.80012,70c-87.00005,87 -93.30011,226 -15.80005,320.20007c-10.69997,21.90003 -23.30001,36.5 -37.60001,43.5c-8.70002,4.29993 -13.59998,13.69995 -12.20002,23.29987c1.5,9.70007 8.90003,17.20007 18.60006,18.70007c5.29998,0.79993 11,1.29993 16.89997,1.29993l0,0c29.30001,0 60.10008,-10.09998 85.80005,-27.79987c34.60006,18.59992 73.50007,28.39984 113.10012,28.39984c63.79996,0 123.69997,-24.79992 168.8,-69.89984s69.89997,-105.09997 69.89997,-168.80005s-24.79993,-123.79992 -69.89997,-168.90002zm-19.10003,318.50012c-40,40 -93.19994,61.99988 -149.69997,61.99988c-37.80006,0 -74.90008,-10.09998 -107.2001,-29.09998c-2.10004,-1.19995 -4.49999,-1.8999 -6.79999,-1.8999c-2.90002,0 -5.90003,1 -8.29999,2.79993c-30.60006,23.69995 -61.40007,27.19995 -74.90008,27.5c16.09999,-12 29.6,-30.59998 40.90006,-56.5c2.09998,-4.79993 1.19995,-10.40003 -2.30008,-14.40003c-73.99997,-83.59997 -70.1,-211 8.90006,-290c40.00002,-40 93.20009,-62 149.70012,-62s109.69997,22 149.69997,62c82.60004,82.70008 82.60004,217.09998 0,299.6001z"  id="svg_95"/>
					<path fill="#b3b1b1" stroke="null" d="m271.2792,-1315.05664l-200.00007,0c-7.50003,0 -13.50003,6 -13.50003,13.5s6,13.5 13.50003,13.5l200.00007,0c7.5,0 13.5,-6 13.5,-13.5s-6.09997,-13.5 -13.5,-13.5z" id="svg_96"/>
					<path fill="#b3b1b1" stroke="null" d="m271.2792,-1249.75659l-200.00007,0c-7.50003,0 -13.50003,6 -13.50003,13.5s6,13.5 13.50003,13.5l200.00007,0c7.5,0 13.5,-6 13.5,-13.5s-6.09997,-13.5 -13.5,-13.5z" id="svg_97"/>
					<path fill="#b3b1b1" stroke="null" d="m271.2792,-1184.45654l-200.00007,0c-7.50003,0 -13.50003,6 -13.50003,13.5s6,13.5 13.50003,13.5l200.00007,0c7.5,0 13.5,-6 13.5,-13.5s-6.09997,-13.5 -13.5,-13.5z" id="svg_98"/>
				</g>
			</g>
			<g stroke="null" id="svg_99" transform="matrix(0.12238058788108826,0,0,0.12238058788108826,11.179933624440224,182.78108938282006) "/>
			<g stroke="null" id="svg_100" transform="matrix(0.12238058788108826,0,0,0.12238058788108826,11.179933624440224,182.78108938282006) "/>
			<g stroke="null" id="svg_101" transform="matrix(0.12238058788108826,0,0,0.12238058788108826,11.179933624440224,182.78108938282006) "/>
			<g stroke="null" id="svg_102" transform="matrix(0.12238058788108826,0,0,0.12238058788108826,11.179933624440224,182.78108938282006) "/>
			<g stroke="null" id="svg_103" transform="matrix(0.12238058788108826,0,0,0.12238058788108826,11.179933624440224,182.78108938282006) "/>
			<g stroke="null" id="svg_104" transform="matrix(0.12238058788108826,0,0,0.12238058788108826,11.179933624440224,182.78108938282006) "/>
			<g stroke="null" id="svg_105" transform="matrix(0.12238058788108826,0,0,0.12238058788108826,11.179933624440224,182.78108938282006) "/>
			<g stroke="null" id="svg_106" transform="matrix(0.12238058788108826,0,0,0.12238058788108826,11.179933624440224,182.78108938282006) "/>
			<g stroke="null" id="svg_107" transform="matrix(0.12238058788108826,0,0,0.12238058788108826,11.179933624440224,182.78108938282006) "/>
			<g stroke="null" id="svg_108" transform="matrix(0.12238058788108826,0,0,0.12238058788108826,11.179933624440224,182.78108938282006) "/>
			<g stroke="null" id="svg_109" transform="matrix(0.12238058788108826,0,0,0.12238058788108826,11.179933624440224,182.78108938282006) "/>
			<g stroke="null" id="svg_110" transform="matrix(0.12238058788108826,0,0,0.12238058788108826,11.179933624440224,182.78108938282006) "/>
			<g stroke="null" id="svg_111" transform="matrix(0.12238058788108826,0,0,0.12238058788108826,11.179933624440224,182.78108938282006) "/>
			<g stroke="null" id="svg_112" transform="matrix(0.12238058788108826,0,0,0.12238058788108826,11.179933624440224,182.78108938282006) "/>
			<g stroke="null" id="svg_113" transform="matrix(0.12238058788108826,0,0,0.12238058788108826,11.179933624440224,182.78108938282006) "/>
		</g>
	</g>
</svg>