<svg width="64" height="64" xmlns="http://www.w3.org/2000/svg">
 <g>
  <title>background</title>
  <rect x="-1" y="-1" width="66" height="66" id="canvas_background" fill="none"/>
 </g>

 <g>
  <title>Layer 1</title>
  <g stroke="null" id="svg_88">
   <g stroke="null" id="svg_20" transform="matrix(0.1217419525959015,0,0,0.1217419525959015,54.19265693659258,27.37342041147695) ">
    <path stroke="null" d="m31.60758,116.29414c9.79999,-12.49999 14.50001,-25.90003 13.90003,-39.70002c-0.60004,-15.20003 -7.40003,-27.10005 -13.00001,-34.40004c6.50001,-16.20002 9.00001,-41.70003 -12.70001,-61.50003c-15.90002,-14.5 -42.90002,-21.00001 -80.3,-19.20001c-26.29999,1.20001 -48.3,6.09997 -49.19999,6.30005l-0.10001,0c-5,0.89996 -10.30001,2 -15.70001,3.19995c-0.39999,-6.40003 0.70001,-22.30001 12.5,-58.10001c14.00001,-42.60001 13.20002,-75.20006 -2.6,-96.99999c-16.59998,-22.8998 -43.09998,-24.69972 -50.9,-24.69972c-7.5,0 -14.39999,3.09997 -19.3,8.79992c-11.09999,12.89985 -9.79999,36.69973 -8.4,47.69974c-13.19999,35.39998 -50.20002,122.20008 -81.50012,146.30007c-0.6,0.40002 -1.1,0.90002 -1.6,1.40002c-9.20002,9.69996 -15.4,20.19997 -19.59998,29.40004c-5.90002,-3.20007 -12.60001,-5 -19.80002,-5l-61,0c-23,0 -41.6,18.69994 -41.6,41.59998l0,162.50009c0,23.00003 18.70001,41.60005 41.6,41.60005l61,0c8.9,0 17.20001,-2.79999 24,-7.59998l23.5,2.79999c3.60001,0.5 67.60013,8.59998 133.30013,7.29999c11.89999,0.90002 23.1,1.40002 33.5,1.40002c17.9,0 33.5,-1.40002 46.5,-4.20001c30.6,-6.5 51.49999,-19.50006 62.10003,-38.60005c8.09997,-14.60004 8.09997,-29.10005 6.79999,-38.3c19.89996,-18.00002 23.39996,-37.90006 22.70001,-51.90006c-0.40003,-8.09997 -2.20002,-15.00001 -4.10004,-20.09999zm-409.30015,122.20003c-8.09997,0 -14.59997,-6.60005 -14.59997,-14.60005l0,-162.6c0,-8.10004 6.59997,-14.60004 14.59997,-14.60004l61,0c8.10004,0 14.60004,6.60004 14.60004,14.60004l0,162.50002c0,8.10004 -6.60001,14.60005 -14.60004,14.60005l-61,0l0,0.09998zm383.70018,-133.90009c-4.20002,4.40002 -5,11.10002 -1.79999,16.30004c0,0.09997 4.09998,7.09999 4.59998,16.69996c0.70001,13.10004 -5.59998,24.70003 -18.8,34.60005c-4.70001,3.59998 -6.60003,9.80001 -4.60003,15.40004c0,0.09998 4.30005,13.29993 -2.69995,25.79995c-6.70004,12 -21.60003,20.60003 -44.20003,25.40004c-18.10001,3.90002 -42.69998,4.59997 -72.9,2.20001c-0.40003,0 -0.90003,0 -1.40003,0c-64.29999,1.39996 -129.30009,-7.00002 -130.0001,-7.10005l-0.10001,0l-10.10001,-1.19996c0.60001,-2.80004 0.90003,-5.80004 0.90003,-8.80004l0,-162.6c0,-4.30005 -0.70002,-8.5 -1.90003,-12.40003c1.79999,-6.70001 6.79999,-21.59998 18.60001,-34.30005c44.90013,-35.6 88.80012,-155.70005 90.70012,-160.90006c0.80002,-2.10004 1,-4.39996 0.6,-6.70001c-1.70001,-11.19997 -1.1,-24.90004 1.29999,-29.00002c5.30002,0.09998 19.60001,1.59998 28.20001,13.5c10.20002,14.1 9.79999,39.30007 -1.20001,72.70006c-16.79999,50.89998 -18.19998,77.70005 -4.89999,89.50005c6.6,5.89997 15.39999,6.20001 21.80002,3.89997c6.09997,-1.39997 11.89999,-2.59998 17.39999,-3.5c0.4,-0.09998 0.9,-0.19996 1.3,-0.29993c30.70001,-6.70007 85.70003,-10.80006 104.8,6.59997c16.20001,14.80001 4.70001,34.40003 3.40003,36.50001c-3.70002,5.59999 -2.60004,12.90004 2.39996,17.40004c0.10004,0.09997 10.60003,10 11.10003,23.3c0.39997,8.89996 -3.80004,17.99994 -12.49999,26.99996z" fill="#1b67b1" id="svg_19"/>
   </g>
   <g stroke="null" id="svg_21" transform="matrix(0.1217419525959015,0,0,0.1217419525959015,54.19265693659258,27.37342041147695) "/>
   <g stroke="null" id="svg_22" transform="matrix(0.1217419525959015,0,0,0.1217419525959015,54.19265693659258,27.37342041147695) "/>
   <g stroke="null" id="svg_23" transform="matrix(0.1217419525959015,0,0,0.1217419525959015,54.19265693659258,27.37342041147695) "/>
   <g stroke="null" id="svg_24" transform="matrix(0.1217419525959015,0,0,0.1217419525959015,54.19265693659258,27.37342041147695) "/>
   <g stroke="null" id="svg_25" transform="matrix(0.1217419525959015,0,0,0.1217419525959015,54.19265693659258,27.37342041147695) "/>
   <g stroke="null" id="svg_26" transform="matrix(0.1217419525959015,0,0,0.1217419525959015,54.19265693659258,27.37342041147695) "/>
   <g stroke="null" id="svg_27" transform="matrix(0.1217419525959015,0,0,0.1217419525959015,54.19265693659258,27.37342041147695) "/>
   <g stroke="null" id="svg_28" transform="matrix(0.1217419525959015,0,0,0.1217419525959015,54.19265693659258,27.37342041147695) "/>
   <g stroke="null" id="svg_29" transform="matrix(0.1217419525959015,0,0,0.1217419525959015,54.19265693659258,27.37342041147695) "/>
   <g stroke="null" id="svg_30" transform="matrix(0.1217419525959015,0,0,0.1217419525959015,54.19265693659258,27.37342041147695) "/>
   <g stroke="null" id="svg_31" transform="matrix(0.1217419525959015,0,0,0.1217419525959015,54.19265693659258,27.37342041147695) "/>
   <g stroke="null" id="svg_32" transform="matrix(0.1217419525959015,0,0,0.1217419525959015,54.19265693659258,27.37342041147695) "/>
   <g stroke="null" id="svg_33" transform="matrix(0.1217419525959015,0,0,0.1217419525959015,54.19265693659258,27.37342041147695) "/>
   <g stroke="null" id="svg_34" transform="matrix(0.1217419525959015,0,0,0.1217419525959015,54.19265693659258,27.37342041147695) "/>
   <g stroke="null" id="svg_35" transform="matrix(0.1217419525959015,0,0,0.1217419525959015,54.19265693659258,27.37342041147695) "/>
  </g>
 </g>
</svg>