<?xml version="1.0" encoding="UTF-8"?>
<!DOCTYPE svg PUBLIC "-//W3C//DTD SVG 1.1//EN" "http://www.w3.org/Graphics/SVG/1.1/DTD/svg11.dtd">
<!-- Creator: CorelDRAW 2017 -->
<svg xmlns="http://www.w3.org/2000/svg" xml:space="preserve" width="0.304248in" height="0.288917in" version="1.1" style="shape-rendering:geometricPrecision; text-rendering:geometricPrecision; image-rendering:optimizeQuality; fill-rule:evenodd; clip-rule:evenodd"
viewBox="0 0 304.25 288.92"
 xmlns:xlink="http://www.w3.org/1999/xlink">
 <defs>
  <style type="text/css">
   <![CDATA[
    .fil0 {fill:#666}
   ]]>
  </style>
 </defs>
 <g id="Layer_x0020_1">
  <metadata id="CorelCorpID_0Corel-Layer"/>
  <path class="fil0" d="M53.55 288.63c0.99,0.18 2.02,0.29 3.04,0.29 14.43,-0.52 42.6,-33.51 51.17,-41.35l2.28 -0.9 77.74 0c3.9,0 7.73,-0.39 11.41,-1.12 3.83,-0.76 7.52,-1.89 10.98,-3.32 3.53,-1.46 6.93,-3.3 10.09,-5.42 3.19,-2.13 6.19,-4.61 8.91,-7.33 2.71,-2.7 5.18,-5.69 7.31,-8.89 2.11,-3.16 3.95,-6.57 5.43,-10.13 1.42,-3.44 2.55,-7.13 3.32,-10.95 0.73,-3.7 1.12,-7.52 1.12,-11.41l0 -64.29c0,-3.89 -0.39,-7.73 -1.12,-11.41 -0.76,-3.82 -1.89,-7.5 -3.31,-10.95 -1.48,-3.54 -3.32,-6.96 -5.44,-10.15 -2.14,-3.2 -4.6,-6.2 -7.3,-8.92 -2.7,-2.7 -5.7,-5.17 -8.89,-7.3 -3.16,-2.11 -6.56,-3.94 -10.13,-5.41 -3.46,-1.44 -7.13,-2.56 -10.94,-3.32 -3.7,-0.73 -7.52,-1.12 -11.43,-1.12l-129.23 0c-3.89,0 -7.71,0.39 -11.41,1.12 -3.82,0.76 -7.52,1.89 -10.96,3.31 -3.57,1.49 -6.97,3.33 -10.13,5.44 -3.19,2.13 -6.18,4.6 -8.9,7.32 -2.72,2.72 -5.17,5.7 -7.31,8.89 -2.12,3.18 -3.95,6.6 -5.42,10.14 -1.43,3.44 -2.55,7.13 -3.32,10.96 -0.73,3.68 -1.12,7.51 -1.12,11.4l0 64.29c0,3.2 0.26,6.36 0.76,9.38 0.51,3.15 1.29,6.24 2.29,9.19 0.98,2.95 2.27,5.88 3.75,8.68 1.49,2.83 3.23,5.53 5.12,8.03 1.72,2.27 3.65,4.44 5.74,6.48 2.07,2.02 4.3,3.91 6.65,5.59 2.18,1.57 4.52,3.02 6.96,4.32 2.4,1.26 4.92,2.4 7.46,3.32l2.25 0.82 0 29.4c0,1.07 0.11,2.11 0.29,3.02 0.19,0.98 0.52,1.97 0.89,2.91 0.4,0.94 0.9,1.86 1.46,2.7 0.59,0.88 1.26,1.7 1.93,2.38 0.74,0.73 1.55,1.4 2.39,1.96 0.84,0.56 1.77,1.06 2.69,1.44 0.94,0.38 1.94,0.7 2.93,0.9zm70.08 -152.68c7.52,0 13.61,6.09 13.61,13.61 0,7.51 -6.09,13.61 -13.61,13.61 -7.52,0 -13.61,-6.09 -13.61,-13.61 0,-7.52 6.09,-13.61 13.61,-13.61zm-45.96 0c7.52,0 13.61,6.09 13.61,13.61 0,7.51 -6.09,13.61 -13.61,13.61 -7.51,0 -13.61,-6.09 -13.61,-13.61 0,-7.52 6.09,-13.61 13.61,-13.61zm91.01 0c7.52,0 13.61,6.09 13.61,13.61 0,7.51 -6.09,13.61 -13.61,13.61 -7.52,0 -13.61,-6.09 -13.61,-13.61 0,-7.52 6.09,-13.61 13.61,-13.61zm77.02 -135.96l-129.24 0.01c-3.2,0 -6.33,0.25 -9.3,0.72 -3.06,0.49 -6.11,1.24 -9.06,2.2 -3,0.97 -5.88,2.19 -8.59,3.57 -2.73,1.39 -5.41,3.07 -7.91,4.9 -1.63,1.19 -3.12,2.41 -4.46,3.62 -1.48,1.34 -2.85,2.72 -4.08,4.07 -1.21,1.33 -2.43,2.83 -3.62,4.46 -1.17,1.58 -2.24,3.2 -3.18,4.78 -1.49,2.54 -2.25,4.95 -2.4,7.1 -0.16,2.22 0.3,4.14 1.17,5.62l1.13 1.43 1.39 1.09 1.65 0.67 1.78 0.22c1.57,0 3.3,-0.57 4.96,-1.78 1.65,-1.19 3.26,-3.04 4.65,-5.61l2.23 -3.56 2.68 -3.29c0.95,-1.07 2,-2.09 3.09,-3.04l3.47 -2.7c1.71,-1.19 3.58,-2.27 5.53,-3.21 1.96,-0.93 3.98,-1.73 6.02,-2.35 2.12,-0.64 4.26,-1.14 6.35,-1.44 2.13,-0.31 4.32,-0.48 6.51,-0.48l129.23 0c2.77,0 5.5,0.28 8.11,0.79 2.64,0.52 5.26,1.32 7.77,2.37 2.54,1.05 4.95,2.35 7.2,3.85 2.28,1.53 4.41,3.29 6.31,5.19 1.91,1.9 3.67,4.06 5.19,6.33 1.5,2.22 2.8,4.65 3.84,7.19 1.04,2.49 1.85,5.11 2.37,7.77 0.52,2.61 0.79,5.33 0.79,8.1l0 54.92c0,1.8 -0.13,3.65 -0.36,5.47 -0.25,1.87 -0.61,3.69 -1.08,5.43 -0.46,1.72 -1.07,3.46 -1.8,5.19 -0.69,1.65 -1.53,3.32 -2.48,4.93l-1.9 2.95 -2.19 2.8 -2.43 2.62 -4.85 4.53 -1.39 1.79 -0.76 1.61 -0.25 1.55c-0.02,0.94 0.06,1.85 0.25,2.69 0.18,0.79 0.48,1.54 0.86,2.2 0.38,0.66 0.87,1.27 1.44,1.79 0.57,0.52 1.29,1 2.11,1.41 0.81,0.39 1.62,0.63 2.39,0.71 0.81,0.08 1.7,0.01 2.54,-0.2 0.93,-0.22 1.89,-0.63 2.85,-1.16 1.06,-0.59 2.14,-1.38 3.22,-2.28l3.09 -2.84 2.93 -3.07 2.68 -3.21 2.44 -3.38c1.56,-2.36 2.98,-4.83 4.18,-7.35 1.2,-2.5 2.22,-5.11 3.03,-7.76 0.78,-2.56 1.4,-5.29 1.82,-8.11 0.4,-2.69 0.61,-5.47 0.61,-8.29l0 -54.95c0,-3.89 -0.39,-7.72 -1.12,-11.41 -0.75,-3.82 -1.89,-7.48 -3.3,-10.93 -1.49,-3.57 -3.33,-6.97 -5.44,-10.13 -2.12,-3.17 -4.59,-6.17 -7.3,-8.88 -2.71,-2.71 -5.69,-5.18 -8.88,-7.3 -3.19,-2.12 -6.59,-3.96 -10.1,-5.41 -3.47,-1.43 -7.15,-2.56 -10.96,-3.32 -3.74,-0.75 -7.59,-1.15 -11.45,-1.15zm-195.25 83c2.61,-0.52 5.33,-0.79 8.11,-0.79l129.24 0c2.77,0 5.5,0.28 8.12,0.79 2.66,0.52 5.28,1.34 7.78,2.37 2.54,1.05 4.96,2.35 7.19,3.84 2.26,1.5 4.39,3.27 6.3,5.19 1.93,1.92 3.68,4.06 5.21,6.33 1.49,2.22 2.8,4.66 3.85,7.2 1.04,2.51 1.84,5.11 2.36,7.76 0.52,2.61 0.79,5.35 0.79,8.12l0 64.27c0,2.78 -0.28,5.5 -0.79,8.11 -0.52,2.64 -1.32,5.26 -2.36,7.77 -1.06,2.58 -2.38,5.02 -3.87,7.24 -1.53,2.27 -3.28,4.39 -5.19,6.3 -1.91,1.91 -4.05,3.68 -6.3,5.19 -2.22,1.5 -4.66,2.79 -7.2,3.84 -2.5,1.03 -5.11,1.86 -7.77,2.37 -2.61,0.52 -5.35,0.79 -8.12,0.79l-84.34 0 -2.27 0.9 -43.25 39.58 0 -39.97 -6.93 -1.3c-2.38,-0.44 -4.7,-1.1 -6.93,-1.93 -2.3,-0.83 -4.49,-1.89 -6.53,-3.08 -2.08,-1.21 -4.07,-2.62 -5.91,-4.17 -1.82,-1.54 -3.53,-3.26 -5.06,-5.09 -1.52,-1.82 -2.92,-3.83 -4.12,-5.93 -1.19,-2.07 -2.2,-4.28 -3.02,-6.53 -0.81,-2.26 -1.45,-4.59 -1.86,-6.94 -0.4,-2.34 -0.62,-4.73 -0.62,-7.15l0 -64.27c0,-2.78 0.28,-5.5 0.79,-8.11 0.56,-2.69 1.36,-5.32 2.37,-7.78 1.05,-2.54 2.35,-4.98 3.84,-7.2 1.52,-2.28 3.28,-4.42 5.18,-6.32 1.91,-1.9 4.05,-3.67 6.32,-5.19 2.22,-1.48 4.65,-2.78 7.2,-3.83 2.49,-1.04 5.1,-1.85 7.77,-2.37z"/>
 </g>
</svg>
