<?xml version="1.0" encoding="UTF-8"?>
<!DOCTYPE svg PUBLIC "-//W3C//DTD SVG 1.1//EN" "http://www.w3.org/Graphics/SVG/1.1/DTD/svg11.dtd">
<!-- Creator: CorelDRAW 2017 -->
<svg xmlns="http://www.w3.org/2000/svg" xml:space="preserve" width="0.311028in" height="0.295681in" version="1.1" style="shape-rendering:geometricPrecision; text-rendering:geometricPrecision; image-rendering:optimizeQuality; fill-rule:evenodd; clip-rule:evenodd"
viewBox="0 0 311.03 295.68"
 xmlns:xlink="http://www.w3.org/1999/xlink">
 <defs>
  <style type="text/css">
   <![CDATA[
    .fil0 {fill:#0f827e}
   ]]>
  </style>
 </defs>
 <g id="Layer_x0020_1">
  <metadata id="CorelCorpID_0Corel-Layer"/>
  <path class="fil0" d="M59.98 295.68c-2.55,0 -5.01,-0.52 -7.25,-1.45 -2.34,-0.96 -4.44,-2.38 -6.19,-4.13 -1.74,-1.76 -3.16,-3.87 -4.12,-6.18 -0.93,-2.24 -1.45,-4.69 -1.45,-7.23l0 -27.04c-5.5,-1.99 -10.63,-4.72 -15.25,-8.07 -4.98,-3.59 -9.41,-7.92 -13.1,-12.78 -4.04,-5.31 -7.24,-11.29 -9.39,-17.67 -2.1,-6.22 -3.24,-12.84 -3.24,-19.65l0 -64.29c0,-8.36 1.68,-16.35 4.7,-23.65 3.14,-7.59 7.75,-14.42 13.46,-20.13 5.72,-5.72 12.56,-10.33 20.13,-13.48 7.3,-3.02 15.3,-4.7 23.66,-4.7l129.23 0c8.37,0 16.36,1.67 23.66,4.7 7.58,3.14 14.42,7.75 20.12,13.45 5.71,5.73 10.32,12.57 13.46,20.15 3.02,7.29 4.7,15.29 4.7,23.65l0 64.29c0,8.36 -1.68,16.36 -4.7,23.66 -3.15,7.59 -7.76,14.41 -13.46,20.11 -5.72,5.72 -12.54,10.33 -20.12,13.47 -7.3,3.02 -15.3,4.7 -23.66,4.7l-77.75 0 -40.71 37.24c-0.86,0.79 -1.79,1.5 -2.76,2.11 -1,0.63 -2.06,1.17 -3.13,1.59 -1.12,0.43 -2.27,0.77 -3.43,0.98 -1.13,0.21 -2.28,0.33 -3.43,0.33zm67.04 -156.35c7.52,0 13.61,6.09 13.61,13.61 0,7.51 -6.09,13.61 -13.61,13.61 -7.51,0 -13.61,-6.09 -13.61,-13.61 0,-7.52 6.09,-13.61 13.61,-13.61zm-45.96 0c7.51,0 13.61,6.09 13.61,13.61 0,7.51 -6.09,13.61 -13.61,13.61 -7.52,0 -13.61,-6.09 -13.61,-13.61 0,-7.52 6.09,-13.61 13.61,-13.61zm91 0c7.52,0 13.61,6.09 13.61,13.61 0,7.51 -6.09,13.61 -13.61,13.61 -7.51,0 -13.61,-6.09 -13.61,-13.61 0,-7.52 6.09,-13.61 13.61,-13.61zm-52.21 -139.34l129.23 0c8.39,0.02 16.4,1.7 23.69,4.73 7.57,3.14 14.4,7.76 20.09,13.45 5.71,5.71 10.32,12.54 13.46,20.11 3.02,7.3 4.7,15.27 4.7,23.64l0 54.95c0,6.06 -0.92,11.89 -2.6,17.37 -1.75,5.75 -4.35,11.12 -7.63,16.02 -1.63,2.44 -3.45,4.78 -5.41,6.96 -1.96,2.2 -4.09,4.3 -6.35,6.24 -2.41,2.05 -4.92,3.52 -7.43,4.14 -2.43,0.61 -4.87,0.42 -7.23,-0.74 -2.21,-1.09 -3.89,-2.64 -5,-4.54 -1.12,-1.92 -1.65,-4.19 -1.57,-6.65 0.05,-1.67 0.51,-3.25 1.5,-4.85 0.93,-1.51 2.35,-3.06 4.34,-4.74 1.67,-1.4 3.22,-2.95 4.63,-4.61 1.41,-1.67 2.67,-3.44 3.75,-5.29 1.69,-2.87 3.02,-6 3.92,-9.29 0.85,-3.19 1.33,-6.56 1.33,-10.02l0 -54.92c0,-5.16 -1.03,-10.09 -2.89,-14.57 -1.94,-4.68 -4.8,-8.9 -8.31,-12.43 -3.52,-3.53 -7.74,-6.37 -12.41,-8.32 -4.49,-1.86 -9.43,-2.89 -14.6,-2.89l-129.23 0c-4.1,0 -8.11,0.61 -11.87,1.76 -3.84,1.18 -7.44,2.93 -10.63,5.12 -2.2,1.52 -4.22,3.27 -5.98,5.22 -1.72,1.89 -3.22,3.98 -4.43,6.21 -3.48,6.43 -8.29,9.13 -12.59,9.16 -1.83,0 -3.57,-0.47 -5.09,-1.34 -1.5,-0.88 -2.81,-2.15 -3.75,-3.74 -2.3,-3.88 -2.55,-9.69 1.24,-16.15 2.06,-3.49 4.49,-6.78 7.2,-9.78 2.74,-3.02 5.77,-5.76 9.04,-8.17 5.24,-3.84 11.13,-6.9 17.46,-8.96 6.13,-2 12.67,-3.09 19.41,-3.09zm-57.91 88.98c-5.17,0 -10.1,1.03 -14.58,2.89 -4.68,1.93 -8.9,4.78 -12.43,8.31 -3.52,3.52 -6.37,7.74 -8.3,12.41 -1.86,4.49 -2.9,9.44 -2.9,14.61l0 64.27c0,4.53 0.8,8.9 2.27,12.95 1.51,4.18 3.76,8.06 6.56,11.43 2.8,3.36 6.22,6.26 10.07,8.51 3.74,2.19 7.93,3.78 12.38,4.61l9.69 1.81 0 35.1 37.85 -34.63 0.46 -0.28 2.93 -1.17 0.55 -0.11 84.68 0c5.18,0 10.12,-1.03 14.61,-2.9 4.67,-1.93 8.89,-4.78 12.39,-8.3 3.53,-3.52 6.37,-7.75 8.32,-12.43 1.86,-4.49 2.89,-9.44 2.89,-14.6l0 -64.27c0,-5.17 -1.02,-10.1 -2.89,-14.6 -1.94,-4.67 -4.8,-8.89 -8.32,-12.42 -3.5,-3.52 -7.71,-6.37 -12.38,-8.3 -4.5,-1.87 -9.44,-2.9 -14.62,-2.9l-129.24 0z"/>
 </g>
</svg>
