<?xml version="1.0" encoding="UTF-8"?>
<!DOCTYPE svg PUBLIC "-//W3C//DTD SVG 1.1//EN" "http://www.w3.org/Graphics/SVG/1.1/DTD/svg11.dtd">
<!-- Creator: CorelDRAW 2017 -->
<svg xmlns="http://www.w3.org/2000/svg" xml:space="preserve" width="0.238724in" height="0.246059in" version="1.1" style="shape-rendering:geometricPrecision; text-rendering:geometricPrecision; image-rendering:optimizeQuality; fill-rule:evenodd; clip-rule:evenodd"
viewBox="0 0 238.72 246.06"
 xmlns:xlink="http://www.w3.org/1999/xlink">
 <defs>
  <style type="text/css">
   <![CDATA[
    .fil0 {fill:#666}
   ]]>
  </style>
 </defs>
 <g id="Layer_x0020_1">
  <metadata id="CorelCorpID_0Corel-Layer"/>
  <path class="fil0" d="M174.05 193l-109.39 0 0 -34.54 109.39 0 0 34.54 0 0zm-27.24 -147.92l-54.89 0c-2.82,0 -5.11,2.28 -5.11,5.09 0,2.83 2.3,5.11 5.11,5.11l54.89 -0.02c2.82,0 5.1,-2.27 5.1,-5.09 0,-2.81 -2.28,-5.09 -5.1,-5.09zm31.01 35.7l-116.94 0c-2.82,0 -5.1,2.28 -5.1,5.11 0,2.8 2.28,5.09 5.1,5.09l116.94 -0.01c2.82,0 5.11,-2.28 5.11,-5.08 0,-2.83 -2.3,-5.11 -5.11,-5.11zm0 33.16l-116.94 0c-2.82,0 -5.1,2.29 -5.1,5.11 0,2.81 2.28,5.11 5.1,5.11l116.94 -0.01c2.82,0 5.11,-2.29 5.11,-5.1 0,-2.82 -2.3,-5.11 -5.11,-5.11zm44.16 -113.94l-203.99 0c-1.19,0 -2.38,0.11 -3.48,0.32 -1.19,0.21 -2.32,0.54 -3.36,0.94 -1.09,0.43 -2.15,0.95 -3.11,1.55 -0.96,0.58 -1.89,1.29 -2.74,2.07 -0.85,0.78 -1.63,1.63 -2.28,2.54 -0.66,0.9 -1.22,1.86 -1.67,2.87 -0.44,1 -0.8,2.05 -1.02,3.1 -0.22,1.05 -0.34,2.15 -0.34,3.29l0 211.42c0,1.17 0.12,2.29 0.34,3.36 0.23,1.11 0.61,2.24 1.06,3.32 0.47,1.1 1.06,2.15 1.7,3.09 0.67,0.98 1.47,1.93 2.33,2.79 0.81,0.81 1.77,1.6 2.79,2.3 0.97,0.67 2.04,1.24 3.12,1.71 1.09,0.46 2.2,0.83 3.31,1.06 1.06,0.22 2.19,0.33 3.35,0.33l203.99 0c1.15,0 2.26,-0.12 3.28,-0.33 1.08,-0.23 2.15,-0.59 3.15,-1.02 1.02,-0.45 2,-1.02 2.87,-1.65 0.91,-0.65 1.77,-1.43 2.54,-2.27 0.78,-0.85 1.48,-1.77 2.07,-2.73 0.61,-1.01 1.15,-2.06 1.56,-3.11 0.4,-1.03 0.73,-2.18 0.94,-3.35 0.2,-1.1 0.32,-2.3 0.32,-3.48l0 -211.42c0,-1.15 -0.11,-2.31 -0.31,-3.38 -0.21,-1.12 -0.54,-2.2 -0.93,-3.19 -0.39,-0.99 -0.91,-1.95 -1.48,-2.85 -0.61,-0.91 -1.31,-1.76 -2.07,-2.52 -0.77,-0.76 -1.61,-1.46 -2.47,-2.03 -0.91,-0.58 -1.89,-1.1 -2.88,-1.5 -0.98,-0.38 -2.06,-0.71 -3.18,-0.91 -1.07,-0.2 -2.22,-0.31 -3.41,-0.31zm1.52 18.53l-0.02 212.28 -204.43 0 -2.31 -0.93 -1.54 -1.45 0 -213.15c69.43,-0.18 138.88,-0.13 208.31,-0.13l-0.01 3.38zm-43.72 129.73l-119.58 0c-2.82,0 -5.75,1.65 -5.75,4.46l0 44.75c0,2.82 2.93,5.74 5.75,5.74l119.58 0c2.82,0 4.46,-2.92 4.46,-5.74l0 -44.75c0,-2.8 -1.65,-4.46 -4.46,-4.46z"/>
 </g>
</svg>
