<?xml version="1.0" encoding="UTF-8"?>
<!DOCTYPE svg PUBLIC "-//W3C//DTD SVG 1.1//EN" "http://www.w3.org/Graphics/SVG/1.1/DTD/svg11.dtd">
<!-- Creator: CorelDRAW 2017 -->
<svg xmlns="http://www.w3.org/2000/svg" xml:space="preserve" width="0.290705in" height="0.275886in" version="1.1" style="shape-rendering:geometricPrecision; text-rendering:geometricPrecision; image-rendering:optimizeQuality; fill-rule:evenodd; clip-rule:evenodd"
viewBox="0 0 290.71 275.89"
 xmlns:xlink="http://www.w3.org/1999/xlink">
 <defs>
  <style type="text/css">
   <![CDATA[
    .fil0 {fill:#0f827e}
   ]]>
  </style>
 </defs>
 <g id="Layer_x0020_1">
  <metadata id="CorelCorpID_0Corel-Layer"/>
  <path class="fil0" d="M26.91 262.64c-0.04,3.7 -1.63,7.06 -4.08,9.45 -2.46,2.39 -5.87,3.84 -9.58,3.79 -3.71,-0.05 -7.05,-1.63 -9.46,-4.08 -2.39,-2.46 -3.84,-5.89 -3.78,-9.6 0.18,-10.02 1.64,-19.88 4.25,-29.32 2.65,-9.56 6.53,-18.76 11.46,-27.33 4.92,-8.55 10.96,-16.5 17.92,-23.61 6.87,-7 14.71,-13.19 23.31,-18.37 2.86,-1.71 5.88,-3.35 8.97,-4.87l6.4 -2.91 -1.79 -1.71c-4.32,-4.34 -8.08,-9.26 -11.1,-14.62 -2.72,-4.83 -4.89,-10.07 -6.37,-15.55 -1.83,-7.89 -2.42,-16.6 -1.79,-26.16 1.79,-11.13 5.43,-20.87 10.99,-29.21l0.12 -0.17 0.09 -0.13 0.2 -0.3 0.2 -0.29 0.05 -0.08 0.16 -0.22 0.21 -0.3 0.2 -0.27 0.01 -0.02 0.22 -0.3 0.22 -0.29 0.87 -1.15 0.23 -0.28 0.21 -0.28 0 -0.01 0.22 -0.28 0.24 -0.28 0.15 -0.2 0.07 -0.07 0.22 -0.28 0.46 -0.55 0.23 -0.28 0.24 -0.28 0.03 -0.04 0.2 -0.23 0.24 -0.26 0.2 -0.24 0.04 -0.04 0.24 -0.26 0.24 -0.27 0.13 -0.15 0.11 -0.11 0.24 -0.26 0.24 -0.26 0.07 -0.07 0.19 -0.19 0.24 -0.26 0.26 -0.26 1.37 -1.37 0.03 -0.02c4.4,-4.24 9.49,-7.98 15.26,-11.19l0.13 -0.07 0.13 -0.07 0.13 -0.07c6.4,-3.82 13.75,-6.2 22.03,-7.13l3.89 -0.43 5.55 -0.22 5.92 0.26 4.26 0.5c1.89,-5.12 4.44,-9.91 7.56,-14.23 3.47,-4.87 7.66,-9.19 12.34,-12.78 5.2,-3.96 11.11,-7.14 17.43,-9.28 6.13,-2.09 12.66,-3.21 19.35,-3.21 8.15,0 15.99,1.64 23.11,4.58 7.39,3.08 14.07,7.58 19.63,13.14 5.56,5.56 10.06,12.24 13.13,19.62 2.94,7.13 4.58,14.97 4.58,23.11 0,8.15 -1.64,15.98 -4.58,23.11 -3.08,7.39 -7.57,14.07 -13.13,19.63l-5.08 4.54 6.94 2.92c3.39,1.59 6.7,3.35 9.83,5.23 7.58,4.56 14.5,10.03 20.6,16.18 6.21,6.26 11.6,13.27 16,20.77 4.43,7.51 7.93,15.62 10.39,24.04 2.42,8.31 3.85,17 4.15,25.84 0.11,3.17 -1.08,6.13 -3.09,8.28 -1.99,2.13 -4.86,3.56 -8.03,3.65 -3.18,0.11 -6.14,-1.08 -8.28,-3.09 -2.14,-2 -3.56,-4.86 -3.66,-8.03 -0.23,-6.9 -1.36,-13.71 -3.24,-20.2 -1.91,-6.57 -4.67,-12.93 -8.14,-18.82 -3.45,-5.84 -7.67,-11.33 -12.48,-16.19 -4.76,-4.78 -10.15,-9.05 -16.08,-12.6 -4.24,-2.54 -8.67,-4.71 -13.18,-6.42 -4.54,-1.73 -9.26,-3.06 -13.97,-3.95 -3.07,-0.57 -6.17,-1 -9.2,-1.21 -2.63,-0.2 -5.26,-0.26 -7.87,-0.22 -1.49,5.47 -3.66,10.71 -6.39,15.54 -3.01,5.32 -6.77,10.24 -11.09,14.57l-2.3 2.22 5.87 2.72c2.89,1.44 5.73,2.99 8.43,4.61 8.45,5.06 16.13,11.15 22.91,17.99 6.91,6.96 12.91,14.77 17.82,23.11 4.91,8.37 8.81,17.37 11.55,26.77 2.7,9.25 4.28,18.92 4.62,28.75 0.11,3.71 -1.31,7.14 -3.65,9.63 -2.33,2.52 -5.68,4.13 -9.39,4.25 -3.7,0.11 -7.13,-1.31 -9.62,-3.64 -2.52,-2.34 -4.15,-5.67 -4.25,-9.39 -0.26,-7.54 -1.48,-15 -3.56,-22.13 -2.09,-7.2 -5.11,-14.15 -8.91,-20.61 -3.77,-6.42 -8.39,-12.43 -13.68,-17.76 -5.21,-5.25 -11.13,-9.93 -17.65,-13.83 -6.73,-4.05 -13.88,-7.15 -21.2,-9.28 -7.47,-2.18 -15.22,-3.4 -22.94,-3.62l-4.37 -0.02c-7.83,0.14 -15.71,1.32 -23.3,3.51 -7.48,2.15 -14.75,5.3 -21.59,9.41 -6.63,3.96 -12.65,8.74 -17.91,14.11 -5.37,5.48 -10.04,11.61 -13.83,18.19 -3.8,6.59 -6.8,13.69 -8.84,21.06 -2.02,7.29 -3.15,14.91 -3.28,22.59zm89.17 -115.88l3.93 0.01c5.13,-0.2 10.06,-1.41 14.56,-3.38 4.64,-2.03 8.84,-4.93 12.36,-8.44 2.8,-2.78 5.21,-5.99 7.07,-9.51 1.8,-3.36 3.18,-7.06 3.96,-10.93l0.08 -2.47 0.61 -2.43 0.15 -3.32c-0.01,-5.52 -1.11,-10.79 -3.07,-15.54 -2.04,-4.93 -5.05,-9.41 -8.78,-13.12 -3.73,-3.72 -8.24,-6.75 -13.18,-8.81 -4.76,-1.97 -10.02,-3.07 -15.5,-3.07 -5.51,0 -10.78,1.09 -15.53,3.06 -4.94,2.03 -9.42,5.06 -13.13,8.76 -3.73,3.76 -6.75,8.25 -8.81,13.2 -1.95,4.76 -3.05,10.01 -3.05,15.51l0.1 2.89c0.36,0.88 0.61,1.82 0.74,2.72 0.13,0.94 0.13,1.91 0.03,2.87 0.8,3.77 2.16,7.4 3.96,10.73 1.87,3.47 4.25,6.67 7.03,9.43 6.84,6.85 16.14,11.26 26.47,11.81zm34.29 -99.9c2.62,1.42 5.16,3.02 7.55,4.76 2.86,2.08 5.59,4.42 8.09,6.92 5.43,5.43 9.96,11.82 13.28,18.82 2.99,6.32 5.06,13.2 5.97,20.41 5.01,-0.02 9.8,-1.03 14.14,-2.81 4.56,-1.9 8.68,-4.67 12.11,-8.1 6.72,-6.72 10.92,-16.06 10.92,-26.38 0,-5.05 -1.02,-9.89 -2.81,-14.28 -1.9,-4.56 -4.67,-8.68 -8.1,-12.11 -6.72,-6.72 -16.07,-10.91 -26.38,-10.91 -4.2,0 -8.29,0.68 -12.04,1.95 -3.89,1.3 -7.51,3.26 -10.7,5.71 -2.86,2.2 -5.44,4.87 -7.58,7.85 -1.79,2.49 -3.29,5.26 -4.43,8.17z"/>
 </g>
</svg>
