<?xml version="1.0" encoding="UTF-8"?>
<!DOCTYPE svg PUBLIC "-//W3C//DTD SVG 1.1//EN" "http://www.w3.org/Graphics/SVG/1.1/DTD/svg11.dtd">
<!-- Creator: CorelDRAW 2017 -->
<svg xmlns="http://www.w3.org/2000/svg" xml:space="preserve" width="0.283949in" height="0.269118in" version="1.1" style="shape-rendering:geometricPrecision; text-rendering:geometricPrecision; image-rendering:optimizeQuality; fill-rule:evenodd; clip-rule:evenodd"
viewBox="0 0 283.95 269.12"
 xmlns:xlink="http://www.w3.org/1999/xlink">
 <defs>
  <style type="text/css">
   <![CDATA[
    .fil0 {fill:#666}
   ]]>
  </style>
 </defs>
 <g id="Layer_x0020_1">
  <metadata id="CorelCorpID_0Corel-Layer"/>
  <path class="fil0" d="M19.35 263.02l-0.02 -0.01c0.5,-1.17 0.81,-2.48 0.81,-3.79l0 -0.03c0.06,-3.98 0.39,-7.93 0.94,-11.78 0.56,-3.89 1.41,-7.8 2.46,-11.65 1.06,-3.82 2.37,-7.57 3.87,-11.19l0.01 -0.01c1.55,-3.68 3.33,-7.26 5.29,-10.66l0.01 0.01c1.99,-3.46 4.17,-6.75 6.52,-9.85l0.02 0c2.42,-3.19 5.04,-6.21 7.79,-9.02 2.78,-2.83 5.75,-5.5 8.87,-7.95l0 0.01c3.08,-2.43 6.34,-4.69 9.73,-6.7 3.51,-2.11 7.18,-3.99 10.89,-5.61 3.76,-1.64 7.62,-3.03 11.49,-4.14 3.98,-1.15 8.02,-2.04 11.99,-2.63l0.02 0c3.98,-0.59 8.07,-0.93 12.18,-1l0.06 0 4.37 0.02 0.08 0c3.97,0.11 8,0.49 12,1.11 4,0.63 7.97,1.52 11.8,2.63 3.81,1.11 7.59,2.49 11.3,4.11 3.65,1.59 7.24,3.45 10.7,5.52 3.34,2 6.56,4.22 9.59,6.6l0.01 0c3.05,2.39 5.98,5.01 8.7,7.76 2.75,2.76 5.32,5.7 7.67,8.76 2.35,3.05 4.55,6.3 6.53,9.67 1.96,3.32 3.74,6.83 5.3,10.43 1.56,3.6 2.89,7.27 3.94,10.95 1.08,3.69 1.96,7.51 2.57,11.39 0.61,3.82 1,7.72 1.12,11.59l0 0.02c0.04,1.35 0.37,2.65 0.89,3.83 0.54,1.21 1.34,2.3 2.28,3.18 0.95,0.89 2.1,1.61 3.36,2.08l0.01 0c1.19,0.45 2.53,0.69 3.85,0.66 1.35,-0.04 2.67,-0.36 3.85,-0.9 1.21,-0.54 2.3,-1.33 3.17,-2.28 0.89,-0.95 1.61,-2.11 2.08,-3.36 0.44,-1.19 0.68,-2.53 0.65,-3.87 -0.16,-4.75 -0.62,-9.47 -1.36,-14.07 -0.76,-4.68 -1.81,-9.32 -3.12,-13.84 -1.34,-4.6 -2.95,-9.08 -4.8,-13.36l-0.02 0c-1.89,-4.4 -4.05,-8.65 -6.39,-12.65 -2.37,-4.01 -5.04,-7.97 -7.96,-11.76 -2.88,-3.74 -6.01,-7.33 -9.34,-10.68 -3.29,-3.33 -6.87,-6.5 -10.63,-9.46 -3.69,-2.9 -7.59,-5.59 -11.62,-8.01 -1.3,-0.78 -2.67,-1.57 -4.06,-2.32 -1.38,-0.75 -2.77,-1.48 -4.13,-2.15l-5.79 -2.69 -4.48 -2.07 3.56 -3.43 2.3 -2.21c2.03,-2.03 3.96,-4.24 5.72,-6.57 1.74,-2.28 3.33,-4.69 4.75,-7.21l0.02 -0.02c1.31,-2.31 2.49,-4.72 3.5,-7.18 0.98,-2.37 1.84,-4.92 2.56,-7.58l0.67 -2.44 2.54 -0.05c1.34,-0.03 2.73,-0.02 4.06,0.02 1.48,0.04 2.89,0.11 4.13,0.2 1.5,0.11 3.09,0.28 4.7,0.49 1.65,0.21 3.3,0.48 4.86,0.77 2.43,0.45 4.9,1.04 7.33,1.72l0.01 0c2.42,0.69 4.85,1.5 7.2,2.39 2.3,0.86 4.63,1.89 6.93,3l0.02 0.01c2.3,1.13 4.58,2.37 6.78,3.68 3.07,1.84 6,3.86 8.75,6.02 2.81,2.2 5.5,4.59 7.99,7.09l0.02 0c2.47,2.5 4.84,5.21 7.03,8.07 2.15,2.79 4.16,5.75 5.96,8.8 1.79,3.03 3.43,6.26 4.85,9.57l0.02 0c1.39,3.21 2.61,6.59 3.6,10.02 0.98,3.38 1.78,6.89 2.34,10.43 0.56,3.49 0.93,7.05 1.04,10.6l0 0.02c0.03,1.08 0.3,2.14 0.71,3.06l0.02 0.03c0.44,0.98 1.09,1.86 1.85,2.57 0.76,0.71 1.69,1.3 2.69,1.67l0.02 0c0.98,0.36 2.07,0.55 3.16,0.52l0.02 0c1.07,-0.03 2.13,-0.3 3.05,-0.71l0.02 -0.02c0.99,-0.44 1.9,-1.09 2.6,-1.85 0.7,-0.76 1.29,-1.7 1.66,-2.7 0.36,-0.97 0.54,-2.06 0.51,-3.17 -0.14,-4.24 -0.56,-8.45 -1.22,-12.57 -0.68,-4.19 -1.63,-8.35 -2.8,-12.42 -1.18,-4.05 -2.65,-8.09 -4.33,-12l0.02 -0.01c-1.67,-3.85 -3.6,-7.64 -5.74,-11.28 -2.12,-3.6 -4.5,-7.12 -7.11,-10.51 -2.59,-3.36 -5.4,-6.57 -8.38,-9.58 -2.95,-2.98 -6.15,-5.82 -9.51,-8.46 -3.32,-2.61 -6.82,-5.02 -10.43,-7.2l-0.01 0c-1.57,-0.94 -3.15,-1.83 -4.68,-2.65 -1.48,-0.78 -3.12,-1.61 -4.85,-2.41l0 -0.01 -6.81 -2.87 -4.92 -2.07 3.97 -3.56 4.94 -4.42c2.63,-2.63 5.02,-5.55 7.09,-8.64 2.07,-3.09 3.86,-6.43 5.31,-9.9l0.01 0c1.38,-3.35 2.48,-6.95 3.22,-10.69 0.71,-3.6 1.09,-7.33 1.09,-11.13 0,-3.78 -0.38,-7.5 -1.09,-11.11 -0.75,-3.74 -1.84,-7.35 -3.22,-10.7l-0.01 0c-1.44,-3.48 -3.24,-6.8 -5.3,-9.89 -2.06,-3.09 -4.46,-6 -7.1,-8.65l0 -0.01c-2.63,-2.62 -5.55,-5.02 -8.67,-7.11 -3.08,-2.06 -6.41,-3.86 -9.87,-5.3l0 -0.01c-3.35,-1.37 -6.96,-2.47 -10.69,-3.21 -3.6,-0.71 -7.33,-1.09 -11.12,-1.09 -3.16,0 -6.27,0.27 -9.26,0.76 -3.06,0.51 -6.09,1.28 -9,2.27 -2.96,1.01 -5.85,2.27 -8.58,3.72l-0.02 0.01c-2.74,1.45 -5.39,3.17 -7.85,5.04 -2.23,1.72 -4.34,3.59 -6.28,5.6 -1.92,1.99 -3.74,4.16 -5.36,6.46l-0.02 0.02c-1.48,2.05 -2.83,4.21 -4.01,6.43l0.01 0c-1.19,2.25 -2.24,4.59 -3.12,6.97l-0.92 2.51 -2.64 -0.31 -4.17 -0.49 -5.64 -0.24 -5.32 0.21 -3.74 0.41c-3.91,0.44 -7.6,1.23 -11.05,2.33l0 0.01c-3.44,1.11 -6.67,2.57 -9.61,4.32l-0.15 0.08 -0.04 0.02 -0.12 0.07 -0.16 0.08c-2.73,1.52 -5.33,3.19 -7.78,4.98 -2.44,1.77 -4.69,3.67 -6.74,5.65l-0.03 0.03 -1.37 1.37 -0.25 0.25 -0.17 0.18 -0.02 0.03 -0.19 0.2 -0.05 0.06 -0.06 0.06 -0.13 0.13 -0.24 0.27 -0.03 0.03 -0.11 0.11 -0.1 0.11 -0.02 0.03 -0.14 0.17 -0.13 0.13 -0.2 0.2 -0.13 0.17 -0.15 0.17 -0.19 0.2 -0.15 0.16 -0.02 0.04 -0.23 0.28 -0.02 0.02 -0.22 0.26 -0.45 0.54 -0.16 0.2 -0.18 0.2 -0.06 0.07 -0.04 0.05 -0.23 0.29 -0.03 0.03 -0.18 0.21 -0.01 0.03 -0.22 0.28 -0.16 0.19 0.01 0.01 -0.87 1.15 -0.18 0.24 -0.2 0.27 -0.01 0.02 -0.2 0.28 -0.02 0.03 -0.21 0.3 -0.04 0.04 -0.12 0.2 -0.2 0.3 -0.2 0.29 -0.06 0.08 -0.09 0.13 -0.13 0.17c-2.59,3.89 -4.76,8.17 -6.47,12.74 -1.72,4.59 -3.02,9.5 -3.87,14.71 -0.3,4.61 -0.31,9.04 -0.03,13.23 0.28,4.14 0.85,8.08 1.71,11.81 0.7,2.62 1.57,5.15 2.54,7.53 1,2.43 2.19,4.87 3.51,7.23l-0.02 0.01c1.39,2.46 3,4.89 4.78,7.24l0.02 0.02c1.76,2.33 3.69,4.54 5.69,6.56l1.79 1.71 3.63 3.46 -4.57 2.07 -6.41 2.91 0 -0.01c-1.38,0.68 -2.85,1.45 -4.35,2.26l0 -0.01c-1.41,0.76 -2.85,1.58 -4.26,2.44 -4.16,2.51 -8.15,5.27 -11.93,8.24 -3.81,3 -7.39,6.2 -10.71,9.59l-0.01 0.01c-3.41,3.48 -6.58,7.16 -9.47,10.96l0.01 0.01c-2.93,3.86 -5.59,7.87 -7.94,11.95 -2.36,4.12 -4.52,8.47 -6.4,12.96 -1.87,4.45 -3.46,9.01 -4.73,13.59 -1.26,4.56 -2.26,9.3 -2.95,14.14 -0.69,4.75 -1.09,9.56 -1.17,14.33l0 0.02c-0.02,1.34 0.24,2.69 0.7,3.88l0.01 0c0.5,1.26 1.24,2.4 2.13,3.32 0.93,0.94 2.04,1.72 3.24,2.23l0.01 -0.02c1.18,0.51 2.47,0.81 3.8,0.83l0.01 0c1.35,0.01 2.7,-0.25 3.89,-0.71l0 -0.01c1.26,-0.49 2.39,-1.24 3.32,-2.13 0.94,-0.92 1.72,-2.04 2.24,-3.24zm97.27 -116.26l-3.93 -0.01 -0.17 0c-5.5,-0.29 -10.75,-1.61 -15.52,-3.74 -4.93,-2.2 -9.41,-5.31 -13.17,-9.08l0 0.01c-1.51,-1.51 -2.93,-3.14 -4.18,-4.82 -1.25,-1.68 -2.42,-3.5 -3.43,-5.4 -0.98,-1.81 -1.85,-3.73 -2.57,-5.69l0 -0.02c-0.7,-1.93 -1.3,-3.94 -1.72,-5.92l-0.06 -1.06 0.04 -1.12 0.01 0 -0.07 -0.89 -0.2 -1.01 0 -0.01 -0.31 -0.92 -0.26 -1.19 -0.1 -2.9 -0.01 -0.11c0,-2.91 0.3,-5.78 0.83,-8.54l0 -0.03c0.55,-2.78 1.4,-5.56 2.49,-8.21l0 -0.02c1.1,-2.66 2.48,-5.22 4.06,-7.59l0.01 -0.01c1.59,-2.38 3.43,-4.64 5.47,-6.69l0 -0.01c2.01,-2.01 4.29,-3.88 6.68,-5.47 2.32,-1.55 4.86,-2.91 7.57,-4.02 2.64,-1.09 5.41,-1.95 8.21,-2.49 2.76,-0.54 5.65,-0.83 8.6,-0.83 2.92,0 5.81,0.3 8.56,0.83l0.01 0c2.8,0.55 5.55,1.41 8.2,2.5 2.69,1.1 5.25,2.48 7.61,4.06 2.39,1.59 4.65,3.45 6.68,5.47 2.03,2.02 3.87,4.26 5.46,6.63 1.57,2.35 2.94,4.9 4.05,7.57l0.01 0c1.09,2.63 1.94,5.41 2.49,8.23 0.54,2.76 0.85,5.67 0.85,8.61l-0.01 0.13 -0.14 3.33 -0.1 0.69 -0.52 2.09 -0.07 2.1 -0.07 0.55c-0.42,2.09 -1,4.12 -1.7,6.05 -0.74,2.04 -1.61,3.99 -2.59,5.82 -1.02,1.94 -2.2,3.76 -3.43,5.43l-0.01 -0.01c-1.28,1.73 -2.7,3.37 -4.22,4.87l-0.02 0.02c-1.89,1.91 -4.01,3.66 -6.24,5.18 -2.21,1.52 -4.61,2.85 -7.12,3.95 -2.49,1.09 -5.11,1.97 -7.76,2.59 -2.58,0.6 -5.28,0.98 -8.05,1.09l-0.12 0zm32.43 -98.18c-1.08,-0.67 -2.3,-1.39 -3.67,-2.13l-2.63 -1.41 1.08 -2.79c0.64,-1.65 1.37,-3.21 2.15,-4.63l0.02 0c0.81,-1.48 1.71,-2.93 2.67,-4.27 1.16,-1.62 2.46,-3.18 3.84,-4.61 1.39,-1.44 2.89,-2.78 4.44,-3.97 1.76,-1.36 3.65,-2.59 5.59,-3.62l0 0.01c1.91,-1.02 3.96,-1.91 6.09,-2.61l0 -0.01c2.06,-0.69 4.23,-1.24 6.43,-1.59 2.2,-0.36 4.46,-0.55 6.68,-0.55 5.48,0 10.74,1.1 15.54,3.08 4.99,2.06 9.49,5.09 13.22,8.82l0.01 0c1.87,1.87 3.57,3.95 5.06,6.17l0.01 0c1.46,2.19 2.73,4.56 3.76,7.04l0 0.02c1.02,2.47 1.81,5.04 2.31,7.64 0.5,2.55 0.77,5.21 0.77,7.91 0,5.5 -1.1,10.77 -3.09,15.58 -2.06,4.97 -5.09,9.47 -8.82,13.2l-0.01 -0.01c-1.87,1.87 -3.95,3.58 -6.15,5.07 -2.2,1.47 -4.57,2.75 -7.04,3.77l-0.02 0c-2.45,1 -4.99,1.79 -7.54,2.3l-0.01 0c-2.5,0.49 -5.15,0.76 -7.87,0.77l-2.99 0.02 -0.37 -2.99c-0.42,-3.39 -1.13,-6.7 -2.06,-9.87 -0.94,-3.26 -2.17,-6.46 -3.61,-9.5 -1.56,-3.29 -3.43,-6.46 -5.53,-9.45 -2.11,-3 -4.5,-5.83 -7.09,-8.42l0 -0.01c-1.08,-1.09 -2.35,-2.24 -3.72,-3.43l0.01 -0.01c-1.29,-1.09 -2.63,-2.16 -3.98,-3.13 -1.24,-0.9 -2.44,-1.72 -3.5,-2.39z"/>
 </g>
</svg>
