<?xml version="1.0" encoding="UTF-8"?>
<!DOCTYPE svg PUBLIC "-//W3C//DTD SVG 1.1//EN" "http://www.w3.org/Graphics/SVG/1.1/DTD/svg11.dtd">
<!-- Creator: CorelDRAW 2017 -->
<svg xmlns="http://www.w3.org/2000/svg" xml:space="preserve" width="0.310969in" height="0.282161in" version="1.1" style="shape-rendering:geometricPrecision; text-rendering:geometricPrecision; image-rendering:optimizeQuality; fill-rule:evenodd; clip-rule:evenodd"
viewBox="0 0 310.97 282.16"
 xmlns:xlink="http://www.w3.org/1999/xlink">
 <defs>
  <style type="text/css">
   <![CDATA[
    .fil0 {fill:#666}
   ]]>
  </style>
 </defs>
 <g id="Layer_x0020_1">
  <metadata id="CorelCorpID_0Corel-Layer"/>
  <path class="fil0" d="M61.74 131.23c-1.75,5.22 -7.4,8.04 -12.62,6.29 -5.22,-1.75 -8.04,-7.4 -6.29,-12.62 8.17,-24.24 23.63,-44.53 43.43,-58.74 5.02,-3.61 10.33,-6.83 15.87,-9.63 -0.05,-0.93 -0.07,-1.86 -0.07,-2.8 0,-14.8 6.02,-28.23 15.76,-37.97 9.7,-9.74 23.14,-15.76 37.97,-15.76 14.81,0 28.24,6.02 37.96,15.74 9.76,9.72 15.78,23.16 15.78,37.99 0,14.78 -6.02,28.22 -15.74,37.96l-0.04 0.04c-9.74,9.72 -23.18,15.74 -37.96,15.74 -14.83,0 -28.27,-6.02 -38,-15.74 -4.4,-4.4 -8.04,-9.56 -10.7,-15.26 -3.17,1.78 -6.24,3.74 -9.19,5.86 -16.48,11.84 -29.35,28.73 -36.16,48.91zm117.91 -101.37c-6.09,-6.1 -14.54,-9.87 -23.87,-9.87 -9.31,0 -17.75,3.78 -23.85,9.88 -6.12,6.07 -9.88,14.51 -9.88,23.85 0,9.31 3.78,17.76 9.88,23.86 6.1,6.1 14.54,9.88 23.85,9.88 9.34,0 17.78,-3.76 23.86,-9.84l0.04 -0.04c6.08,-6.07 9.84,-14.52 9.84,-23.86 0,-9.31 -3.78,-17.75 -9.87,-23.86zm-126.39 126.69c14.71,0 28.02,5.96 37.66,15.6 9.63,9.68 15.6,22.99 15.6,37.66 0,12.06 -4.02,23.2 -10.81,32.13 6.97,5.3 14.6,9.63 22.66,12.91 11.75,4.78 24.45,7.31 37.42,7.31 6.46,0 12.85,-0.62 19.1,-1.84l0.31 -0.07c6.42,-1.28 12.67,-3.17 18.64,-5.65 5.09,-2.11 10.93,0.3 13.04,5.39 2.11,5.09 -0.3,10.93 -5.39,13.04 -7.28,3.03 -14.79,5.31 -22.39,6.82l-0.37 0.07c-7.56,1.48 -15.26,2.24 -22.95,2.24 -15.52,0 -30.77,-3.04 -44.92,-8.8 -10.83,-4.41 -21.02,-10.42 -30.21,-17.89 -8,4.82 -17.38,7.59 -27.4,7.59 -14.67,0 -27.98,-5.97 -37.64,-15.62 -9.65,-9.61 -15.62,-22.93 -15.62,-37.64 0,-14.71 5.96,-28.03 15.6,-37.66 9.63,-9.63 22.95,-15.6 37.66,-15.6zm23.54 29.74c-6.04,-6.02 -14.35,-9.74 -23.54,-9.74 -9.18,0 -17.5,3.72 -23.52,9.74 -6.02,6.02 -9.74,14.33 -9.74,23.52 0,9.19 3.72,17.5 9.74,23.52 5.99,6.03 14.31,9.74 23.52,9.74 9.19,0 17.5,-3.72 23.52,-9.74 6.02,-6 9.74,-14.32 9.74,-23.52 0,-9.21 -3.71,-17.53 -9.72,-23.52zm197.71 -34.25c7.9,2.66 14.99,7.11 20.78,12.89l0.04 0.04c9.67,9.69 15.65,23.04 15.65,37.74 0,14.71 -5.99,28.07 -15.67,37.76 -9.65,9.69 -23.01,15.67 -37.76,15.67 -14.72,0 -28.07,-5.98 -37.74,-15.65 -9.7,-9.67 -15.69,-23.03 -15.69,-37.78 0,-14.72 5.98,-28.07 15.65,-37.74l0.04 -0.04c8.91,-8.91 20.94,-14.68 34.29,-15.54 -1.07,-7.82 -3.07,-15.45 -5.92,-22.72 -4.49,-11.45 -11.12,-22.07 -19.63,-31.23 -3.75,-4.03 -3.52,-10.35 0.51,-14.1 4.03,-3.75 10.35,-3.52 14.1,0.51 10.24,11.03 18.21,23.8 23.61,37.56 4.09,10.42 6.71,21.41 7.75,32.64zm6.67 26.99c-6.02,-6.02 -14.39,-9.76 -23.64,-9.76 -9.24,0 -17.6,3.73 -23.64,9.75l-0.04 0.04c-6.02,6.04 -9.75,14.41 -9.75,23.64 0,9.23 3.75,17.59 9.79,23.64 6.03,6.06 14.4,9.79 23.64,9.79 9.23,0 17.6,-3.75 23.64,-9.79 6.06,-6.02 9.8,-14.38 9.8,-23.64 0,-9.26 -3.73,-17.62 -9.76,-23.64l-0.04 -0.04z"/>
 </g>
</svg>
