<?xml version="1.0" encoding="UTF-8"?>
<!DOCTYPE svg PUBLIC "-//W3C//DTD SVG 1.1//EN" "http://www.w3.org/Graphics/SVG/1.1/DTD/svg11.dtd">
<!-- Creator: CorelDRAW 2017 -->
<svg xmlns="http://www.w3.org/2000/svg" xml:space="preserve" width="0.235925in" height="0.302524in" version="1.1" style="shape-rendering:geometricPrecision; text-rendering:geometricPrecision; image-rendering:optimizeQuality; fill-rule:evenodd; clip-rule:evenodd"
viewBox="0 0 235.93 302.53"
 xmlns:xlink="http://www.w3.org/1999/xlink">
 <defs>
  <style type="text/css">
   <![CDATA[
    .fil0 {fill:#666}
   ]]>
  </style>
 </defs>
 <g id="Layer_x0020_1">
  <metadata id="CorelCorpID_0Corel-Layer"/>
  <g id="notification.eps">
   <path class="fil0" d="M99.4 14.26c-39.92,9.34 -69.9,44.7 -70.34,86.9l-0.71 71.42 -26.91 52.13c-3.44,6.67 -1.26,19.17 12.79,19.31l44.05 -0.01 14.52 0 18.05 0 54.23 -0.01 0 0.01 18.07 0 0 -0.02 57.62 -0.01c19.59,0 15.73,-16.06 12.54,-22.51l-24.23 -48.92 0.72 -71.42c0.46,-43.91 -31.24,-80.4 -73.41,-87.88 -1.24,-3.78 -3.62,-7 -6.66,-9.3 -3.29,-2.48 -7.4,-3.94 -11.76,-3.94 -4.36,-0.01 -8.48,1.45 -11.76,3.94 -3.28,2.49 -5.82,6.08 -6.96,10.28l0.16 0.04zm-26.6 229.75l0 0zm118.93 -142.89l-0.72 71.44 26.54 53.56 -198.78 0.05 27.66 -53.59 0.72 -71.42c0.37,-35.16 26.37,-64.41 60.3,-70.34 0.51,-2.15 1.28,-4.06 2.23,-5.57 2.04,-3.17 4.91,-5.02 8.28,-5.02 3.39,-0.01 6.25,1.85 8.26,4.99 0.86,1.38 1.58,3.06 2.09,4.94 36.06,3.98 63.78,34.23 63.42,70.96z"/>
   <path class="fil0" d="M72.8 257.89c-0.26,24.65 19.76,44.64 44.71,44.64 24.95,-0.02 45.37,-19.99 45.64,-44.64l-18.06 0c-0.16,14.8 -12.43,26.78 -27.4,26.78 -14.95,-0.01 -26.97,-11.99 -26.83,-26.78l-18.05 0z"/>
  </g>
 </g>
</svg>
