<?xml version="1.0" standalone="no"?>
<!DOCTYPE svg PUBLIC "-//W3C//DTD SVG 20010904//EN"
 "http://www.w3.org/TR/2001/REC-SVG-20010904/DTD/svg10.dtd">
<svg version="1.0" xmlns="http://www.w3.org/2000/svg"
 width="96.000000pt" height="96.000000pt" viewBox="0 0 96.000000 96.000000"
 preserveAspectRatio="xMidYMid meet">
<metadata>
Created by potrace 1.14, written by Peter Selinger 2001-2017
</metadata>
<g transform="translate(0.000000,96.000000) scale(0.100000,-0.100000)"
fill="#000000" stroke="none">
<path fill="#6e7c91" d="M412 783 c-101 -49 -122 -175 -43 -254 112 -113 296 -12 267 146 -18
95 -135 152 -224 108z"/>
<path fill="#6e7c91" d="M381 389 c-65 -13 -130 -48 -178 -96 -38 -37 -43 -48 -43 -88 l0 -45
320 0 320 0 0 45 c0 40 -5 51 -43 88 -89 89 -229 125 -376 96z"/>
</g>
</svg>
