<?xml version="1.0" encoding="UTF-8"?>
<!DOCTYPE svg PUBLIC "-//W3C//DTD SVG 1.1//EN" "http://www.w3.org/Graphics/SVG/1.1/DTD/svg11.dtd">
<!-- Creator: CorelDRAW 2017 -->
<svg xmlns="http://www.w3.org/2000/svg" xml:space="preserve" width="0.289028in" height="0.283441in" version="1.1" style="shape-rendering:geometricPrecision; text-rendering:geometricPrecision; image-rendering:optimizeQuality; fill-rule:evenodd; clip-rule:evenodd"
viewBox="0 0 289.03 283.44"
 xmlns:xlink="http://www.w3.org/1999/xlink">
 <defs>
  <style type="text/css">
   <![CDATA[
    .fil0 {fill:#0f827e}
   ]]>
  </style>
 </defs>
 <g id="Layer_x0020_1">
  <metadata id="CorelCorpID_0Corel-Layer"/>
  <path class="fil0" d="M159.71 283.44l-29.19 0c-7.06,0 -9.62,-0.01 -25.22,-38.39l-7.11 -2.9c-14.57,6.57 -22.93,9.95 -27.82,11.69 -5.97,2.12 -7.85,2.13 -8.78,2.13l-2.4 0 -3.65 -1.37c-7.95,-6.82 -15.53,-14.92 -23.05,-22.28 -2.95,-2.94 -4.94,-4.93 -2.77,-13.29 1.39,-5.37 5.01,-14.5 12.55,-31.62l-2.8 -6.61c-17.82,-6.42 -27,-10.15 -31.8,-12.82 -7.66,-4.27 -7.67,-7.13 -7.67,-11.34l0 -28.63c0,-7.28 0.02,-9.67 39.3,-24.95l2.8 -6.63c-7.96,-16.82 -11.78,-25.83 -13.24,-31.16 -2.31,-8.43 -0.19,-10.46 2.97,-13.43l22.16 -21.73 3.77 -1.61 2.95 -0.12c2.3,0 6.92,1.26 13.76,3.75 5.7,2.07 13.49,5.2 23.33,9.33l7.11 -2.89c14.49,-38.55 17.33,-38.57 24.35,-38.57l29.2 0c4.06,0 6.8,0.01 11.27,7.38 2.83,4.65 6.87,13.61 13.93,31.04l7.13 2.87c14.54,-6.56 22.93,-9.95 27.82,-11.68 5.97,-2.11 7.85,-2.13 8.79,-2.13l2.4 0 3.64 1.35c7.9,6.7 15.76,14.94 23.1,22.28 2.91,2.93 4.88,4.94 2.72,13.28 -1.39,5.37 -5.02,14.51 -12.56,31.62l2.8 6.67c17.79,6.37 26.98,10.08 31.84,12.79 7.67,4.27 7.68,7.12 7.68,11.34l0 28.58c0,7.1 0,9.67 -39.32,24.96l-2.8 6.68c7.91,16.77 11.73,25.73 13.22,30.98 2.33,8.32 0.3,10.37 -2.66,13.35l-22.47 22 -3.82 1.61 -2.91 0.1c-2.29,0 -6.89,-1.26 -13.7,-3.75 -5.7,-2.07 -13.51,-5.21 -23.35,-9.35l-7.16 2.89c-6.54,17.43 -10.33,26.41 -13.04,31.1 -4.32,7.47 -7.17,7.48 -11.32,7.48zm-15.19 -190.17c-26.75,0 -48.45,21.7 -48.45,48.45 0,26.75 21.7,48.45 48.45,48.45 26.75,0 48.45,-21.7 48.45,-48.45 0,-26.75 -21.7,-48.45 -48.45,-48.45zm-7.48 167.06l15.95 0 3.88 -9.26c2.41,-5.93 5.06,-12.79 7.38,-19.02l1.79 -4.78 25.43 -10.27 4.39 1.88c6.13,2.61 13.21,5.52 19.66,8.07l9.7 3.7 11.05 -10.8 -3.94 -9.22 -10.69 -22.96 10.58 -25.26 4.61 -1.78c6.24,-2.39 13.37,-5.25 19.76,-7.9l9.33 -4 0 -15.01 -9.27 -3.71c-5.89,-2.27 -12.98,-4.89 -19.61,-7.24l-4.78 -1.7 -10.65 -25.28 2.03 -4.56c2.69,-6.03 5.64,-12.93 8.2,-19.15l3.68 -9.23 -11.08 -10.83 -9.49 3.93c-7.86,3.47 -15.75,6.89 -23.56,10.48l-25.43 -10.26 -1.84 -4.52c-2.6,-6.51 -5.47,-13.42 -7.96,-19.16l-4.2 -9.33 -15.93 0 -3.84 9.17c-2.28,5.63 -4.93,12.52 -7.36,19.08l-1.81 4.78 -25.34 10.29 -4.41 -1.87c-6.27,-2.67 -13.39,-5.59 -19.69,-8.06l-9.75 -3.7 -11.02 10.82 3.82 8.96c2.46,5.57 5.56,12.27 8.56,18.57l2.23 4.64 -10.65 25.26 -4.54 1.78c-6.22,2.37 -13.28,5.2 -19.65,7.85l-9.43 4.06 0 15.02 9.26 3.72c5.76,2.23 12.85,4.86 19.61,7.27l4.77 1.72 10.65 25.19 -2.02 4.53c-2.89,6.54 -5.88,13.47 -8.21,19.13l-3.69 9.24 11.13 10.88 9.65 -4c7.82,-3.45 15.65,-6.86 23.42,-10.43l25.36 10.31 1.84 4.58c2.52,6.28 5.4,13.17 7.99,19.14l4.16 9.3zm7.48 -148.74c-8.61,0 -16.41,3.41 -22.04,8.89 -5.57,5.43 -9.04,12.96 -9.04,21.24 0,8.3 3.46,15.83 9.04,21.27 5.61,5.48 13.42,8.89 22.04,8.89 8.6,0 16.4,-3.41 22.01,-8.89 5.56,-5.43 9.03,-12.97 9.03,-21.27 0.03,-8.26 -3.45,-15.8 -9.04,-21.26 -5.62,-5.48 -13.41,-8.87 -22,-8.87z"/>
 </g>
</svg>
