<?xml version="1.0" encoding="UTF-8"?>
<!DOCTYPE svg PUBLIC "-//W3C//DTD SVG 1.1//EN" "http://www.w3.org/Graphics/SVG/1.1/DTD/svg11.dtd">
<!-- Creator: CorelDRAW 2017 -->
<svg xmlns="http://www.w3.org/2000/svg" xml:space="preserve" width="0.284496in" height="0.278921in" version="1.1" style="shape-rendering:geometricPrecision; text-rendering:geometricPrecision; image-rendering:optimizeQuality; fill-rule:evenodd; clip-rule:evenodd"
viewBox="0 0 284.5 278.92"
 xmlns:xlink="http://www.w3.org/1999/xlink">
 <defs>
  <style type="text/css">
   <![CDATA[
    .fil0 {fill:#666}
   ]]>
  </style>
 </defs>
 <g id="Layer_x0020_1">
  <metadata id="CorelCorpID_0Corel-Layer"/>
  <path class="fil0" d="M157.44 278.92l-29.19 0c-6,0 -8.17,-0.01 -23.5,-37.86l-8.89 -3.62c-15.04,6.8 -23.59,10.26 -28.52,12.02 -5.56,1.97 -7.2,1.98 -8.02,1.98l-2.41 0 -2.22 -0.83c-7.89,-6.8 -15.41,-14.82 -22.9,-22.14 -4.32,-4.34 -5.86,-5.89 10.63,-43.29l-3.56 -8.45c-18.3,-6.57 -27.62,-10.33 -32.39,-12.98 -6.48,-3.62 -6.49,-5.95 -6.49,-9.37l0 -28.63c0,-6.17 0.02,-8.16 38.74,-23.18l3.57 -8.46c-8.2,-17.29 -12.09,-26.41 -13.54,-31.69 -1.94,-7.08 -0.24,-8.76 2.3,-11.15l22.26 -21.81 2.26 -0.97 2.86 -0.1c2.05,0 6.41,1.22 12.99,3.61 5.98,2.18 14.04,5.42 24.1,9.65l8.87 -3.61c14.23,-38.02 16.61,-38.03 22.6,-38.03l29.19 0c3.33,0 5.58,0.01 9.37,6.29 2.81,4.66 6.88,13.77 14.11,31.6l8.9 3.58c15.03,-6.8 23.58,-10.26 28.52,-12 5.57,-1.98 7.23,-1.98 8.05,-1.98l2.39 0 2.19 0.81c7.91,6.67 15.48,14.83 22.92,22.11 2.42,2.44 4.03,4.07 2.19,11.17 -1.38,5.3 -5.07,14.56 -12.83,32.17l3.58 8.48c18.25,6.53 27.59,10.27 32.42,12.96 6.49,3.61 6.5,5.94 6.5,9.37l0 28.59c0,6 0,8.19 -38.76,23.2l-3.56 8.47c8.16,17.23 12.03,26.31 13.51,31.54 1.98,7.07 0.33,8.73 -2.09,11.16l-22.44 21.98 -2.29 0.97 -2.78 0.07c-2.12,0.01 -6.46,-1.21 -13.02,-3.6 -5.98,-2.19 -14.03,-5.42 -24.08,-9.66l-8.94 3.61c-6.71,17.89 -10.54,27.02 -13.24,31.69 -3.67,6.33 -5.98,6.34 -9.37,6.34zm-15.19 -187.91c-26.75,0 -48.45,21.7 -48.45,48.45 0,26.75 21.7,48.45 48.45,48.45 26.75,0 48.45,-21.7 48.45,-48.45 0,-26.75 -21.7,-48.45 -48.45,-48.45zm-8.89 169.31l18.8 0 4.52 -10.68c2.42,-5.96 5.08,-12.84 7.4,-19.07l1.45 -3.86 22.35 -9.02 2.56 0.03 2.25 0.95c6.43,2.74 13.54,5.65 19.7,8.09l11.13 4.2 13.13 -12.83 -4.51 -10.6c-2.47,-5.6 -5.56,-12.26 -8.52,-18.47l-1.77 -3.76 9.81 -23.42 3.7 -1.42c6.48,-2.51 13.61,-5.35 19.81,-7.93l10.73 -4.63 0 -17.94 -10.72 -4.32c-5.8,-2.23 -12.91,-4.87 -19.67,-7.26l-3.86 -1.37 -9.89 -23.48c3.39,-7.55 6.59,-15.2 9.85,-22.81l4.24 -10.74 -13.17 -12.88 -11 4.54c-7.56,3.33 -15.13,6.62 -22.65,10.05l-23.64 -9.54 -1.48 -3.65c-2.64,-6.61 -5.52,-13.54 -7.98,-19.21l-4.85 -10.69 -18.79 0 -4.44 10.48c-2.43,6 -5.11,12.96 -7.45,19.26l-1.43 3.83 -23.59 9.59 -3.55 -1.52c-6.57,-2.8 -13.66,-5.7 -19.69,-8.07l-11.19 -4.21 -13.1 12.84 4.38 10.33c3.45,7.5 6.81,15.06 10.42,22.47l-9.87 23.43 -3.69 1.43c-6.41,2.46 -13.49,5.3 -19.65,7.85l-10.85 4.7 0 17.94 10.72 4.35c7.81,2.89 15.64,5.89 23.5,8.67l9.87 23.37 -9.89 22.91 -4.2 10.62 13.19 12.91 10.98 -4.53c7.57,-3.33 15.18,-6.61 22.68,-10.09l23.6 9.59 1.46 3.69c2.6,6.46 5.5,13.41 8.03,19.24l4.79 10.62zm8.89 -153.26c-9.21,0 -17.58,3.65 -23.61,9.52 -6.01,5.85 -9.74,13.95 -9.74,22.87 0,8.92 3.72,17.02 9.74,22.89 6.03,5.87 14.4,9.53 23.61,9.53 9.2,0 17.55,-3.66 23.57,-9.54 6,-5.85 9.73,-13.96 9.73,-22.88 0.01,-8.9 -3.72,-17.01 -9.73,-22.86 -6.02,-5.88 -14.36,-9.53 -23.57,-9.53z"/>
 </g>
</svg>
