<?xml version="1.0" encoding="iso-8859-1"?>
<!-- Generator: Adobe Illustrator 19.0.0, SVG Export Plug-In . SVG Version: 6.00 Build 0)  -->
<svg version="1.1" id="Capa_1" xmlns="http://www.w3.org/2000/svg" xmlns:xlink="http://www.w3.org/1999/xlink" x="0px" y="0px"
	 viewBox="0 0 512 512" style="enable-background:new 0 0 512 512;" xml:space="preserve">
<g>
	<g>
		<path d="M489.737,160.789h-63.253V55.677c0-12.276-9.987-22.262-22.263-22.262h-54.552c-4.025,0-7.287,3.262-7.287,7.287
			c0,4.025,3.262,7.287,7.287,7.287h54.552c4.24,0,7.69,3.449,7.69,7.689v112.398v260.466c0,13.85,5.658,26.402,14.781,35.472
			H49.816c-19.433,0-35.243-15.81-35.243-35.244V55.677c0-4.24,3.449-7.689,7.689-7.689h282.153c4.025,0,7.287-3.262,7.287-7.287
			c0-4.025-3.262-7.287-7.287-7.287H22.262C9.987,33.415,0,43.402,0,55.677v373.092c0,27.469,22.348,49.817,49.816,49.817h412.139
			c27.595,0,50.045-22.45,50.045-50.045v-245.49C512,170.776,502.013,160.789,489.737,160.789z M461.955,464.014
			c-19.559,0-35.472-15.913-35.472-35.472v-5.062h35.472c4.025,0,7.287-3.262,7.287-7.287c0-4.025-3.262-7.287-7.287-7.287h-35.472
			v-55.782h35.472c4.025,0,7.287-3.262,7.287-7.287c0-4.025-3.262-7.287-7.287-7.287h-35.472v-55.782h35.472
			c4.025,0,7.287-3.262,7.287-7.287c0-4.024-3.262-7.287-7.287-7.287h-35.472v-92.835h63.253c4.24,0,7.69,3.449,7.69,7.689v245.494
			h0.001C497.427,448.101,481.514,464.014,461.955,464.014z"/>
	</g>
</g>
<g>
	<g>
		<path d="M215.564,89.124H73.102c-10.754,0-19.504,8.75-19.504,19.504v94.948c0,10.754,8.75,19.503,19.504,19.503h142.462
			c10.754,0,19.503-8.749,19.503-19.503v-94.948C235.067,97.874,226.318,89.124,215.564,89.124z M220.494,203.576
			c0,2.719-2.212,4.93-4.93,4.93H73.102c-2.719,0-4.931-2.211-4.931-4.93v-94.948c0-2.719,2.212-4.931,4.931-4.931h142.462
			c2.719,0,4.93,2.212,4.93,4.931V203.576z"/>
	</g>
</g>
<g>
	<g>
		<path d="M367.018,118.97h-94.75c-4.025,0-7.287,3.262-7.287,7.287c0,4.024,3.262,7.287,7.287,7.287h94.75
			c4.025,0,7.287-3.262,7.287-7.287C374.305,122.232,371.043,118.97,367.018,118.97z"/>
	</g>
</g>
<g>
	<g>
		<path d="M367.018,178.661h-94.75c-4.025,0-7.287,3.262-7.287,7.287c0,4.024,3.262,7.287,7.287,7.287h94.75
			c4.025,0,7.287-3.262,7.287-7.287C374.305,181.923,371.043,178.661,367.018,178.661z"/>
	</g>
</g>
<g>
	<g>
		<path d="M367.018,268.197H155.707c-4.024,0-7.287,3.262-7.287,7.287c0,4.024,3.262,7.287,7.287,7.287h211.311
			c4.025,0,7.287-3.262,7.287-7.287C374.305,271.46,371.043,268.197,367.018,268.197z"/>
	</g>
</g>
<g>
	<g>
		<path d="M110.383,268.197H66.305c-4.024,0-7.287,3.262-7.287,7.287c0,4.024,3.262,7.287,7.287,7.287h44.078
			c4.024,0,7.287-3.262,7.287-7.287C117.67,271.46,114.408,268.197,110.383,268.197z"/>
	</g>
</g>
<g>
	<g>
		<path d="M367.018,338.552H66.305c-4.024,0-7.287,3.262-7.287,7.287c0,4.025,3.262,7.287,7.287,7.287h300.713
			c4.025,0,7.287-3.262,7.287-7.287C374.305,341.814,371.043,338.552,367.018,338.552z"/>
	</g>
</g>
<g>
	<g>
		<path d="M367.018,408.907H66.305c-4.024,0-7.287,3.262-7.287,7.287c0,4.025,3.262,7.287,7.287,7.287h300.713
			c4.025,0,7.287-3.262,7.287-7.287C374.305,412.169,371.043,408.907,367.018,408.907z"/>
	</g>
</g>
<g>
</g>
<g>
</g>
<g>
</g>
<g>
</g>
<g>
</g>
<g>
</g>
<g>
</g>
<g>
</g>
<g>
</g>
<g>
</g>
<g>
</g>
<g>
</g>
<g>
</g>
<g>
</g>
<g>
</g>
</svg>
