<?xml version="1.0" encoding="iso-8859-1"?>
<!-- Generator: Adobe Illustrator 19.0.0, SVG Export Plug-In . SVG Version: 6.00 Build 0)  -->
<svg version="1.1" id="Capa_1" xmlns="http://www.w3.org/2000/svg" xmlns:xlink="http://www.w3.org/1999/xlink" x="0px" y="0px"
	 viewBox="0 0 480 480" style="enable-background:new 0 0 480 480;" xml:space="preserve">
<g>
	<g>
		<path d="M106.904,376.368c12.48-9.821,20.159-24.515,21.096-40.368c0-52.896-30.456-64-56-64s-56,11.104-56,64
			c0.93,15.862,8.61,30.566,21.096,40.392C15.89,379.005-0.031,397.033,0,418.4V480h16v-61.6c0-14.58,11.82-26.4,26.4-26.4h17.76
			l-11.592,29.024c-1.189,2.973-0.49,6.369,1.776,8.632l16,16c3.124,3.123,8.188,3.123,11.312,0l16-16
			c2.266-2.263,2.965-5.659,1.776-8.632L83.816,392H101.6c14.58,0,26.4,11.82,26.4,26.4V480h16v-61.6
			C144.043,397.024,128.119,378.982,106.904,376.368z M32.416,327.536C34.584,300.728,47.2,288,72,288
			c22.704,0,35.2,10.736,38.776,33.136l-26.656-16c-3.789-2.273-8.703-1.044-10.976,2.745c-0.3,0.5-0.544,1.03-0.728,1.583
			C68.368,321.608,46.52,326.2,32.416,327.536z M72,428.664l-6.616-6.616L72,405.536l6.616,16.536L72,428.664z M72,376
			c-17.843-3.039-32.686-15.412-38.888-32.416c13.696-1.128,38.4-5.28,49.92-20.432l28.6,17.16C108.416,359.896,84.28,376,72,376z"
			/>
	</g>
</g>
<g>
	<g>
		<rect x="32" y="448" width="16" height="32"/>
	</g>
</g>
<g>
	<g>
		<rect x="96" y="448" width="16" height="32"/>
	</g>
</g>
<g>
	<g>
		<path d="M274.904,376.368c12.48-9.821,20.159-24.515,21.096-40.368c0-52.896-30.456-64-56-64s-56,11.104-56,64
			c0.93,15.862,8.61,30.566,21.096,40.392C183.89,379.005,167.969,397.033,168,418.4V480h16v-61.6c0-14.58,11.82-26.4,26.4-26.4
			h17.76l-11.608,29.024c-1.189,2.973-0.49,6.369,1.776,8.632l16,16c3.124,3.123,8.188,3.123,11.312,0l16-16
			c2.266-2.263,2.965-5.659,1.776-8.632L251.816,392H269.6c14.58,0,26.4,11.82,26.4,26.4V480h16v-61.6
			C312.043,397.024,296.119,378.982,274.904,376.368z M200.416,327.536C202.584,300.728,215.2,288,240,288
			c22.704,0,35.2,10.736,38.776,33.136l-26.656-16c-3.789-2.273-8.703-1.044-10.976,2.745c-0.3,0.5-0.544,1.03-0.728,1.583
			C236.368,321.608,214.52,326.2,200.416,327.536z M240,428.664l-6.616-6.616L240,405.536l6.616,16.536L240,428.664z M240,376
			c-17.843-3.039-32.686-15.412-38.888-32.416c13.696-1.128,38.4-5.28,49.92-20.432l28.6,17.16C276.416,359.896,252.28,376,240,376z
			"/>
	</g>
</g>
<g>
	<g>
		<rect x="200" y="448" width="16" height="32"/>
	</g>
</g>
<g>
	<g>
		<rect x="264" y="448" width="16" height="32"/>
	</g>
</g>
<g>
	<g>
		<path d="M461.112,383.128c-5.465-3.627-11.698-5.933-18.208-6.736C455.39,366.566,463.07,351.862,464,336
			c0-52.896-30.456-64-56-64s-56,11.104-56,64c0.93,15.862,8.61,30.566,21.096,40.392C351.89,379.005,335.969,397.033,336,418.4V480
			h16v-61.6c0-14.58,11.82-26.4,26.4-26.4h17.76l-11.608,29.024c-1.189,2.973-0.49,6.369,1.776,8.632l16,16
			c3.124,3.123,8.188,3.123,11.312,0l16-16c2.266-2.263,2.965-5.659,1.776-8.632L419.816,392H437.6c14.58,0,26.4,11.82,26.4,26.4
			V480h16v-61.6C480.006,404.222,472.916,390.982,461.112,383.128z M368.416,327.536C370.584,300.728,383.2,288,408,288
			c22.704,0,35.2,10.736,38.776,33.136l-26.656-16c-3.789-2.273-8.703-1.044-10.976,2.745c-0.3,0.5-0.544,1.03-0.728,1.583
			C404.368,321.608,382.52,326.2,368.416,327.536z M408,428.688l-6.616-6.616L408,405.536l6.616,16.536L408,428.688z M408,376
			c-17.843-3.039-32.686-15.412-38.888-32.416c13.696-1.128,38.4-5.28,49.92-20.432l28.6,17.16C444.416,359.896,420.28,376,408,376z
			"/>
	</g>
</g>
<g>
	<g>
		<rect x="368" y="448" width="16" height="32"/>
	</g>
</g>
<g>
	<g>
		<rect x="432" y="448" width="16" height="32"/>
	</g>
</g>
<g>
	<g>
		<path d="M456,80H328c-13.255,0-24,10.745-24,24v8h-64V48c0-13.255-10.745-24-24-24H24C10.745,24,0,34.745,0,48v96
			c0,13.255,10.745,24,24,24h17.6l24.272,29.12c2.83,3.393,7.874,3.85,11.268,1.02c0.37-0.309,0.712-0.65,1.02-1.02L102.4,168H136
			v32c0,13.255,10.745,24,24,24h49.6l24.272,29.12c2.83,3.393,7.874,3.85,11.268,1.02c0.37-0.309,0.712-0.65,1.02-1.02L270.4,224
			H320c13.255,0,24-10.745,24-24v-8h41.6l24.272,29.12c2.83,3.393,7.874,3.85,11.268,1.02c0.37-0.309,0.712-0.65,1.02-1.02
			L446.4,192h9.6c13.255,0,24-10.745,24-24v-64C480,90.745,469.255,80,456,80z M98.664,152c-2.374,0.001-4.625,1.056-6.144,2.88
			L72,179.504L51.48,154.88c-1.519-1.824-3.77-2.879-6.144-2.88H24c-4.418,0-8-3.582-8-8V48c0-4.418,3.582-8,8-8h192
			c4.418,0,8,3.582,8,8v96c0,4.418-3.582,8-8,8H98.664z M328,200c0,4.418-3.582,8-8,8h-53.336c-2.374,0.001-4.625,1.056-6.144,2.88
			L240,235.504l-20.52-24.624c-1.519-1.824-3.77-2.879-6.144-2.88H160c-4.418,0-8-3.582-8-8v-32h64c13.255,0,24-10.745,24-24v-16h80
			c4.418,0,8,3.582,8,8V200z M464,168c0,4.418-3.582,8-8,8h-13.336c-2.374,0.001-4.625,1.056-6.144,2.88L416,203.504l-20.52-24.624
			c-1.519-1.824-3.77-2.879-6.144-2.88H344v-40c0-13.255-10.745-24-24-24v-8c0-4.418,3.582-8,8-8h128c4.418,0,8,3.582,8,8V168z"/>
	</g>
</g>
<g>
	<g>
		<rect x="32" y="56" width="16" height="16"/>
	</g>
</g>
<g>
	<g>
		<rect x="64" y="56" width="16" height="16"/>
	</g>
</g>
<g>
	<g>
		<rect x="96" y="56" width="16" height="16"/>
	</g>
</g>
<g>
	<g>
		<rect x="256" y="144" width="16" height="16"/>
	</g>
</g>
<g>
	<g>
		<rect x="288" y="144" width="16" height="16"/>
	</g>
</g>
<g>
	<g>
		<rect x="368" y="112" width="16" height="16"/>
	</g>
</g>
<g>
	<g>
		<rect x="400" y="112" width="16" height="16"/>
	</g>
</g>
<g>
	<g>
		<rect x="432" y="112" width="16" height="16"/>
	</g>
</g>
<g>
	<g>
		<path d="M280,0v16c26.497,0.031,47.969,21.503,48,48h16C343.96,28.67,315.33,0.04,280,0z"/>
	</g>
</g>
<g>
	<g>
		<path d="M112,208H96c0.04,35.33,28.67,63.96,64,64v-16C133.503,255.969,112.031,234.497,112,208z"/>
	</g>
</g>
<g>
</g>
<g>
</g>
<g>
</g>
<g>
</g>
<g>
</g>
<g>
</g>
<g>
</g>
<g>
</g>
<g>
</g>
<g>
</g>
<g>
</g>
<g>
</g>
<g>
</g>
<g>
</g>
<g>
</g>
</svg>
