<?xml version="1.0" encoding="UTF-8"?>
<!DOCTYPE svg PUBLIC "-//W3C//DTD SVG 1.1//EN" "http://www.w3.org/Graphics/SVG/1.1/DTD/svg11.dtd">
<!-- Creator: CorelDRAW 2017 -->
<svg xmlns="http://www.w3.org/2000/svg" xml:space="preserve" width="5.33334in" height="5.33333in" version="1.1" style="shape-rendering:geometricPrecision; text-rendering:geometricPrecision; image-rendering:optimizeQuality; fill-rule:evenodd; clip-rule:evenodd"
viewBox="0 0 4968.7 4968.69"
 xmlns:xlink="http://www.w3.org/1999/xlink">
 <defs>
  <style type="text/css">
   <![CDATA[
    .fil0 {fill:#1F82E4}
   ]]>
  </style>
 </defs>
 <g id="Layer_x0020_1">
  <metadata id="CorelCorpID_0Corel-Layer"/>
  <g id="_1699804986496">
   <g id="Close">
    <path class="fil0" d="M3074.87 2484.36l1771.52 -1771.52c163.07,-163.07 163.07,-427.46 0,-590.51 -163.07,-163.07 -427.44,-163.07 -590.51,0l-1771.54 1771.55 -1771.55 -1771.57c-163.07,-163.07 -427.44,-163.07 -590.51,0 -163.05,163.07 -163.05,427.46 0,590.51l1771.55 1771.52 -1771.55 1771.55c-163.05,163.07 -163.05,427.46 0,590.51 163.07,163.07 427.44,163.07 590.51,0l1771.55 -1771.55 1771.54 1771.55c163.05,163.07 427.44,163.07 590.51,0 163.07,-163.07 163.07,-427.44 0,-590.51l-1771.52 -1771.52z"/>
   </g>
   <g>
   </g>
   <g>
   </g>
   <g>
   </g>
   <g>
   </g>
   <g>
   </g>
   <g>
   </g>
   <g>
   </g>
   <g>
   </g>
   <g>
   </g>
   <g>
   </g>
   <g>
   </g>
   <g>
   </g>
   <g>
   </g>
   <g>
   </g>
   <g>
   </g>
  </g>
 </g>
</svg>
