<svg width="20" height="40" xmlns="http://www.w3.org/2000/svg">

 <g>
  <title>background</title>
  <rect fill="none" id="canvas_background" height="402" width="582" y="-1" x="-1"/>
 </g>
 <g>
  <title>Layer 1</title>
  <g id="svg_1" fill="#c3cacf">
   <path fill="#ffffff" id="svg_2" d="m14.262,15.694c-0.012,-0.149 -0.03,-0.298 -0.055,-0.444c-0.007,-0.05 -0.019,-0.1 -0.027,-0.15c-0.018,-0.095 -0.034,-0.191 -0.057,-0.284c-0.014,-0.059 -0.031,-0.116 -0.047,-0.174c-0.021,-0.083 -0.042,-0.167 -0.067,-0.249c-0.02,-0.062 -0.043,-0.122 -0.063,-0.182c-0.026,-0.077 -0.052,-0.153 -0.081,-0.229c-0.025,-0.062 -0.051,-0.122 -0.077,-0.183c-0.03,-0.071 -0.062,-0.142 -0.095,-0.212c-0.028,-0.061 -0.059,-0.121 -0.091,-0.181c-0.034,-0.067 -0.068,-0.134 -0.106,-0.2c-0.034,-0.06 -0.068,-0.119 -0.104,-0.177c-0.04,-0.063 -0.078,-0.126 -0.118,-0.188c-0.039,-0.058 -0.078,-0.115 -0.116,-0.171c-0.044,-0.06 -0.086,-0.118 -0.13,-0.176c-0.043,-0.056 -0.086,-0.11 -0.13,-0.165c-0.046,-0.056 -0.092,-0.109 -0.139,-0.163c-0.048,-0.053 -0.095,-0.106 -0.144,-0.157c-0.048,-0.051 -0.098,-0.101 -0.148,-0.151c-0.05,-0.051 -0.102,-0.101 -0.154,-0.15c-0.052,-0.048 -0.104,-0.093 -0.156,-0.139c-0.055,-0.048 -0.109,-0.095 -0.166,-0.14c-0.054,-0.043 -0.11,-0.085 -0.165,-0.127c-0.059,-0.043 -0.116,-0.088 -0.177,-0.129c-0.057,-0.04 -0.113,-0.077 -0.173,-0.114c-0.061,-0.04 -0.122,-0.081 -0.186,-0.118c-0.06,-0.035 -0.12,-0.067 -0.181,-0.101c-0.064,-0.036 -0.129,-0.073 -0.195,-0.107c-0.062,-0.031 -0.125,-0.059 -0.188,-0.087c-0.068,-0.032 -0.134,-0.064 -0.203,-0.093c-0.002,-0.001 -0.004,-0.002 -0.006,-0.003c-0.128,-0.053 -0.259,-0.104 -0.392,-0.149c-0.619,-0.21 -1.283,-0.325 -1.973,-0.325c-3.386,0 -6.131,2.744 -6.131,6.131l0,0.694c1.956,0.522 4.01,0.801 6.131,0.801c2.121,0 4.175,-0.279 6.131,-0.801l0,-0.428l0,-0.267c0,-0.17 -0.007,-0.342 -0.021,-0.512"/>
   <path fill="#ffffff" id="svg_3" d="m17.961,14.823c-0.174,-2.101 -1.593,-3.85 -3.519,-4.503c-0.527,-0.179 -1.093,-0.277 -1.678,-0.277c-0.479,0 -0.941,0.066 -1.383,0.187c1.997,1.078 3.35,3.1 3.54,5.41c0.016,0.191 0.024,0.383 0.024,0.569l0,0.207c1.037,-0.112 2.051,-0.301 3.03,-0.564l0,-0.591c0.001,-0.148 -0.004,-0.294 -0.017,-0.438"/>
   <path fill="#ffffff" id="svg_4" d="m10.974,7.578c0.016,-0.021 0.032,-0.042 0.048,-0.063c0.057,-0.076 0.11,-0.155 0.16,-0.235c0.009,-0.014 0.019,-0.026 0.027,-0.041c0.055,-0.093 0.106,-0.189 0.154,-0.288c0.012,-0.023 0.021,-0.046 0.032,-0.069c0.037,-0.081 0.07,-0.164 0.101,-0.248c0.009,-0.025 0.019,-0.049 0.026,-0.074c0.036,-0.104 0.066,-0.209 0.091,-0.317c0.005,-0.019 0.008,-0.038 0.012,-0.057c0.019,-0.092 0.036,-0.185 0.048,-0.279c0.004,-0.03 0.008,-0.061 0.011,-0.091c0.011,-0.112 0.019,-0.226 0.019,-0.342c0,-0.444 -0.086,-0.866 -0.24,-1.255c-0.037,-0.095 -0.081,-0.188 -0.126,-0.278c-0.014,-0.026 -0.028,-0.051 -0.041,-0.077c-0.037,-0.067 -0.076,-0.134 -0.116,-0.199c-0.008,-0.013 -0.016,-0.027 -0.022,-0.041c0,0 -0.002,0 -0.002,0.001c-0.629,-0.975 -1.738,-1.625 -3,-1.625c-1.962,0 -3.551,1.555 -3.551,3.475c0,1.917 1.589,3.472 3.551,3.472c0.474,0 0.925,-0.09 1.338,-0.255c0.372,-0.148 0.71,-0.357 1.01,-0.612c0,0.001 0,0.001 0.001,0.002c0.009,-0.008 0.017,-0.016 0.025,-0.024c0.166,-0.146 0.317,-0.306 0.452,-0.48"/>
   <path fill="#ffffff" id="svg_5" d="m15.581,5.06c-0.438,-1.104 -1.533,-1.888 -2.816,-1.888c-0.353,0 -0.689,0.06 -1,0.168c0.123,0.201 0.23,0.414 0.319,0.636c0.19,0.479 0.286,0.983 0.286,1.5c0,0.839 -0.256,1.65 -0.739,2.34c-0.183,0.261 -0.396,0.499 -0.63,0.709c0.498,0.351 1.107,0.558 1.768,0.558c0.402,0 0.785,-0.078 1.138,-0.218c1.104,-0.44 1.882,-1.5 1.882,-2.738c-0.001,-0.377 -0.072,-0.736 -0.204,-1.067"/>
  </g>
  <g id="svg_6" fill="#5b646a">
   <path id="svg_7" d="m14.262,35.693c-0.012,-0.148 -0.03,-0.297 -0.055,-0.443c-0.007,-0.051 -0.019,-0.101 -0.027,-0.15c-0.018,-0.096 -0.034,-0.191 -0.057,-0.284c-0.014,-0.059 -0.031,-0.116 -0.047,-0.175c-0.021,-0.082 -0.042,-0.166 -0.067,-0.248c-0.02,-0.062 -0.043,-0.121 -0.063,-0.182c-0.026,-0.076 -0.052,-0.153 -0.081,-0.229c-0.025,-0.062 -0.051,-0.122 -0.077,-0.184c-0.03,-0.07 -0.062,-0.142 -0.095,-0.212c-0.028,-0.061 -0.059,-0.12 -0.091,-0.181c-0.034,-0.066 -0.068,-0.135 -0.106,-0.199c-0.034,-0.061 -0.068,-0.119 -0.104,-0.178c-0.04,-0.063 -0.078,-0.126 -0.118,-0.188c-0.039,-0.059 -0.078,-0.115 -0.116,-0.172c-0.044,-0.06 -0.086,-0.117 -0.13,-0.176c-0.043,-0.057 -0.086,-0.11 -0.13,-0.165c-0.046,-0.056 -0.092,-0.108 -0.139,-0.163c-0.048,-0.053 -0.095,-0.105 -0.144,-0.157c-0.048,-0.052 -0.098,-0.101 -0.148,-0.151c-0.05,-0.051 -0.102,-0.101 -0.154,-0.149c-0.052,-0.048 -0.104,-0.093 -0.156,-0.139c-0.055,-0.048 -0.109,-0.095 -0.166,-0.14c-0.054,-0.043 -0.11,-0.085 -0.165,-0.127c-0.059,-0.043 -0.116,-0.088 -0.177,-0.129c-0.057,-0.04 -0.113,-0.076 -0.173,-0.114c-0.061,-0.04 -0.122,-0.081 -0.186,-0.118c-0.06,-0.035 -0.12,-0.067 -0.181,-0.101c-0.064,-0.036 -0.129,-0.073 -0.195,-0.106c-0.062,-0.031 -0.125,-0.059 -0.188,-0.088c-0.068,-0.031 -0.134,-0.064 -0.203,-0.094c-0.002,0 -0.004,-0.002 -0.006,-0.002c-0.128,-0.053 -0.259,-0.104 -0.392,-0.148c-0.619,-0.211 -1.283,-0.325 -1.973,-0.325c-3.386,0 -6.131,2.744 -6.131,6.132l0,0.693c1.956,0.522 4.01,0.802 6.131,0.802c2.121,0 4.175,-0.279 6.131,-0.802l0,-0.428l0,-0.266c0,-0.172 -0.007,-0.344 -0.021,-0.514"/>
   <path id="svg_8" d="m17.961,34.822c-0.174,-2.101 -1.593,-3.85 -3.519,-4.502c-0.527,-0.18 -1.093,-0.277 -1.678,-0.277c-0.479,0 -0.941,0.066 -1.383,0.187c1.997,1.077 3.35,3.101 3.54,5.41c0.016,0.19 0.024,0.383 0.024,0.569l0,0.206c1.037,-0.112 2.051,-0.302 3.03,-0.563l0,-0.592c0.001,-0.147 -0.004,-0.293 -0.017,-0.438"/>
   <path id="svg_9" d="m10.974,27.578c0.016,-0.021 0.032,-0.043 0.048,-0.063c0.057,-0.076 0.11,-0.155 0.16,-0.235c0.009,-0.014 0.019,-0.025 0.027,-0.04c0.055,-0.093 0.106,-0.189 0.154,-0.288c0.012,-0.023 0.021,-0.046 0.032,-0.068c0.037,-0.082 0.07,-0.164 0.101,-0.248c0.009,-0.025 0.019,-0.049 0.026,-0.074c0.036,-0.104 0.066,-0.209 0.091,-0.317c0.005,-0.019 0.008,-0.038 0.012,-0.057c0.019,-0.092 0.036,-0.185 0.048,-0.279c0.004,-0.03 0.008,-0.061 0.011,-0.091c0.011,-0.113 0.019,-0.227 0.019,-0.342c0,-0.444 -0.086,-0.867 -0.24,-1.256c-0.037,-0.095 -0.081,-0.188 -0.126,-0.278c-0.014,-0.026 -0.028,-0.051 -0.041,-0.077c-0.037,-0.066 -0.076,-0.134 -0.116,-0.199c-0.008,-0.013 -0.016,-0.027 -0.022,-0.04c0,0.001 -0.002,0.001 -0.002,0.001c-0.629,-0.977 -1.738,-1.627 -3,-1.627c-1.962,0 -3.551,1.555 -3.551,3.475c0,1.917 1.589,3.472 3.551,3.472c0.474,0 0.925,-0.091 1.338,-0.255c0.372,-0.148 0.71,-0.357 1.01,-0.613c0,0.002 0,0.002 0.001,0.002c0.009,-0.008 0.017,-0.016 0.025,-0.023c0.166,-0.147 0.317,-0.306 0.452,-0.48"/>
   <path id="svg_10" d="m15.581,25.06c-0.438,-1.104 -1.533,-1.888 -2.816,-1.888c-0.353,0 -0.689,0.06 -1,0.168c0.123,0.2 0.23,0.414 0.319,0.636c0.19,0.479 0.286,0.983 0.286,1.5c0,0.839 -0.256,1.649 -0.739,2.34c-0.183,0.262 -0.396,0.498 -0.63,0.709c0.498,0.352 1.107,0.559 1.768,0.559c0.402,0 0.785,-0.078 1.138,-0.218c1.104,-0.44 1.882,-1.501 1.882,-2.738c-0.001,-0.377 -0.072,-0.736 -0.204,-1.068"/>
  </g>
 </g>
</svg>