<svg width="20" height="40" xmlns="http://www.w3.org/2000/svg">

 <g>
  <title>background</title>
  <rect fill="none" id="canvas_background" height="402" width="582" y="-1" x="-1"/>
 </g>
 <g>
  <title>Layer 1</title>
  <g id="svg_1" fill="#c3cacf">
   <ellipse fill="#ffffff" id="svg_2" ry="3.533" rx="3.611" cy="5.532" cx="9.917"/>
   <path fill="#ffffff" id="svg_3" d="m9.916,10.213c-3.443,0 -6.234,2.792 -6.234,6.235l0,0.707c1.988,0.531 4.078,0.814 6.235,0.814c2.155,0 4.245,-0.283 6.234,-0.814l0,-0.707c0,-3.443 -2.792,-6.235 -6.235,-6.235"/>
  </g>
  <g id="svg_4" fill="#5b646a">
   <ellipse id="svg_5" ry="3.532" rx="3.611" cy="25.532" cx="9.917"/>
   <path id="svg_6" d="m9.916,30.21c-3.443,0 -6.234,2.792 -6.234,6.235l0,0.706c1.988,0.531 4.078,0.814 6.235,0.814c2.155,0 4.245,-0.283 6.234,-0.814l0,-0.706c0,-3.443 -2.792,-6.235 -6.235,-6.235"/>
  </g>
 </g>
</svg>