<svg width="64" height="64" xmlns="http://www.w3.org/2000/svg">

 <g>
  <title>background</title>
  <rect fill="none" id="canvas_background" height="402" width="582" y="-1" x="-1"/>
 </g>
 <g>
  <title>Layer 1</title>
  <g id="svg_52">
   <g transform="matrix(0.0445283, 0, 0, 0.0445283, 21.9308, 48.2876)" id="svg_35">
    <path id="svg_36" fill="#b3b1b1" d="m33.074379,-713.171082c9.799992,-12.5 14.500008,-25.900024 13.900032,-39.700012c-0.600037,-15.200012 -7.400032,-27.100037 -13.000008,-34.400024c6.500004,-16.200012 9.000004,-41.700012 -12.70001,-61.5c-15.900023,-14.5 -42.900019,-21 -80.300005,-19.200012c-26.299988,1.200012 -48.299995,6.099976 -49.199989,6.300049l-0.100006,0c-5,0.899963 -10.300018,2 -15.700012,3.199951c-0.399994,-6.400024 0.700012,-22.299988 12.5,-58.099976c14.000008,-42.599976 13.20002,-75.200012 -2.600006,-96.999939c-16.599976,-22.89978 -43.099976,-24.699707 -50.899994,-24.699707c-7.5,0 -14.399994,3.099976 -19.300003,8.799927c-11.099991,12.899841 -9.799988,36.699707 -8.399994,47.699707c-13.199997,35.399963 -50.200027,122.200012 -81.500122,146.299988c-0.600006,0.400024 -1.100006,0.900024 -1.600006,1.400024c-9.200012,9.699951 -15.399994,20.199951 -19.599976,29.400024c-5.900024,-3.200073 -12.600006,-5 -19.800018,-5l-61,0c-23,0 -41.600006,18.699951 -41.600006,41.599976l0,162.5c0,23 18.700012,41.599976 41.600006,41.599976l61,0c8.899994,0 17.200012,-2.799988 24,-7.599976l23.5,2.799988c3.600006,0.5 67.600128,8.599976 133.300125,7.299988c11.899994,0.900024 23.100006,1.400024 33.500008,1.400024c17.899994,0 33.5,-1.400024 46.5,-4.200012c30.6,-6.5 51.499985,-19.5 62.100025,-38.599976c8.099975,-14.600037 8.099975,-29.100037 6.799987,-38.299988c19.899961,-18 23.399964,-37.900024 22.700009,-51.900024c-0.400024,-8.099976 -2.200012,-15 -4.100037,-20.099976zm-409.300148,122.199951c-8.099976,0 -14.599976,-6.600037 -14.599976,-14.600037l0,-162.599915c0,-8.100037 6.599976,-14.600037 14.599976,-14.600037l61,0c8.100037,0 14.600037,6.600037 14.600037,14.600037l0,162.499939c0,8.100037 -6.600006,14.600037 -14.600037,14.600037l-61,0l0,0.099976zm383.700176,-133.900024c-4.200014,4.400024 -5.000002,11.100037 -1.799989,16.300049c0,0.099976 4.099977,7.099976 4.599977,16.699951c0.700012,13.100037 -5.599977,24.700012 -18.799991,34.600037c-4.70001,3.599976 -6.600035,9.799988 -4.600034,15.400024c0,0.099976 4.300046,13.299927 -2.69995,25.799927c-6.70004,12 -21.600026,20.600037 -44.200032,25.400024c-18.100006,3.900024 -42.699982,4.599976 -72.900002,2.200012c-0.400024,0 -0.900024,0 -1.400024,0c-64.299988,1.399963 -129.300095,-7 -130.000107,-7.100037l-0.100006,0l-10.100006,-1.199951c0.600006,-2.800049 0.900024,-5.800049 0.900024,-8.800049l0,-162.599915c0,-4.300049 -0.700012,-8.5 -1.900024,-12.400024c1.799988,-6.700012 6.799988,-21.599976 18.600006,-34.300049c44.900131,-35.599976 88.800125,-155.699951 90.700119,-160.899963c0.800018,-2.100037 1,-4.399963 0.600006,-6.700012c-1.700012,-11.199951 -1.100006,-24.900024 1.299988,-29c5.300018,0.099976 19.600006,1.599976 28.200012,13.5c10.200012,14.099976 9.799988,39.300049 -1.200012,72.700012c-16.799988,50.899963 -18.199982,77.700012 -4.899994,89.5c6.600006,5.899963 15.399994,6.200012 21.800018,3.899963c6.099976,-1.399963 11.899994,-2.599976 17.399994,-3.5c0.400002,-0.099976 0.900002,-0.199951 1.299995,-0.299927c30.700012,-6.700073 85.700031,-10.800049 104.800005,6.599976c16.200012,14.799988 4.700014,34.400024 3.400026,36.5c-3.700014,5.599976 -2.600037,12.900024 2.399963,17.400024c0.100037,0.099976 10.600035,10 11.100035,23.299988c0.399963,8.899963 -3.800047,17.999939 -12.499998,26.999939z"/>
   </g>
   <g transform="matrix(0.0445283, 0, 0, 0.0445283, 21.9308, 48.2876)" id="svg_37"/>
   <g transform="matrix(0.0445283, 0, 0, 0.0445283, 21.9308, 48.2876)" id="svg_38"/>
   <g transform="matrix(0.0445283, 0, 0, 0.0445283, 21.9308, 48.2876)" id="svg_39"/>
   <g transform="matrix(0.0445283, 0, 0, 0.0445283, 21.9308, 48.2876)" id="svg_40"/>
   <g transform="matrix(0.0445283, 0, 0, 0.0445283, 21.9308, 48.2876)" id="svg_41"/>
   <g transform="matrix(0.0445283, 0, 0, 0.0445283, 21.9308, 48.2876)" id="svg_42"/>
   <g transform="matrix(0.0445283, 0, 0, 0.0445283, 21.9308, 48.2876)" id="svg_43"/>
   <g transform="matrix(0.0445283, 0, 0, 0.0445283, 21.9308, 48.2876)" id="svg_44"/>
   <g transform="matrix(0.0445283, 0, 0, 0.0445283, 21.9308, 48.2876)" id="svg_45"/>
   <g transform="matrix(0.0445283, 0, 0, 0.0445283, 21.9308, 48.2876)" id="svg_46"/>
   <g transform="matrix(0.0445283, 0, 0, 0.0445283, 21.9308, 48.2876)" id="svg_47"/>
   <g transform="matrix(0.0445283, 0, 0, 0.0445283, 21.9308, 48.2876)" id="svg_48"/>
   <g transform="matrix(0.0445283, 0, 0, 0.0445283, 21.9308, 48.2876)" id="svg_49"/>
   <g transform="matrix(0.0445283, 0, 0, 0.0445283, 21.9308, 48.2876)" id="svg_50"/>
   <g transform="matrix(0.0445283, 0, 0, 0.0445283, 21.9308, 48.2876)" id="svg_51"/>
  </g>
  <g id="svg_88">
   <g transform="matrix(0.0445283, 0, 0, 0.0445283, 21.9308, 48.2876)" id="svg_72">
    <path id="svg_71" fill="#1b95e0" d="m33.074379,117.760941c9.799992,-12.499992 14.500008,-25.900032 13.900032,-39.70002c-0.600037,-15.200027 -7.400032,-27.100052 -13.000008,-34.40004c6.500004,-16.200024 9.000004,-41.700031 -12.70001,-61.500032c-15.900023,-14.499998 -42.900019,-21.000006 -80.300005,-19.20001c-26.299988,1.200012 -48.299995,6.099974 -49.199989,6.300047l-0.100006,0c-5,0.899963 -10.300018,2 -15.700012,3.199951c-0.399994,-6.400023 0.700012,-22.300009 12.5,-58.100012c14.000008,-42.600006 13.20002,-75.200058 -2.600006,-96.999985c-16.599976,-22.899796 -43.099976,-24.699722 -50.899994,-24.699722c-7.5,0 -14.399994,3.099976 -19.300003,8.799927c-11.099991,12.899841 -9.799988,36.699722 -8.399994,47.699738c-13.199997,35.399979 -50.200027,122.200079 -81.500122,146.300068c-0.600006,0.400024 -1.100006,0.900024 -1.600006,1.400024c-9.200012,9.699951 -15.399994,20.199965 -19.599976,29.400034c-5.900024,-3.200071 -12.600006,-4.999998 -19.800018,-4.999998l-61,0c-23,0 -41.600006,18.699944 -41.600006,41.599983l0,162.500084c0,23.000031 18.700012,41.600052 41.600006,41.600052l61,0c8.899994,0 17.200012,-2.799988 24,-7.599976l23.5,2.799988c3.600006,0.5 67.600128,8.599976 133.300125,7.299988c11.899994,0.900024 23.100006,1.400024 33.500008,1.400024c17.899994,0 33.5,-1.400024 46.5,-4.200012c30.6,-6.5 51.499985,-19.500061 62.100025,-38.600052c8.099975,-14.600037 8.099975,-29.100052 6.799987,-38.300003c19.899961,-18.000015 23.399964,-37.900055 22.700009,-51.900055c-0.400024,-8.099976 -2.200012,-15.000015 -4.100037,-20.099991zm-409.300148,122.200027c-8.099976,0 -14.599976,-6.600052 -14.599976,-14.600052l0,-162.599998c0,-8.100037 6.599976,-14.600037 14.599976,-14.600037l61,0c8.100037,0 14.600037,6.600037 14.600037,14.600037l0,162.500023c0,8.100037 -6.600006,14.600052 -14.600037,14.600052l-61,0l0,0.099976zm383.700176,-133.900093c-4.200014,4.400024 -5.000002,11.100029 -1.799989,16.300041c0,0.099976 4.099977,7.099991 4.599977,16.699966c0.700012,13.100037 -5.599977,24.700027 -18.799991,34.600052c-4.70001,3.599976 -6.600035,9.800003 -4.600034,15.40004c0,0.099976 4.300046,13.299927 -2.69995,25.799942c-6.70004,12 -21.600026,20.600037 -44.200032,25.40004c-18.100006,3.900024 -42.699982,4.599976 -72.900002,2.200012c-0.400024,0 -0.900024,0 -1.400024,0c-64.299988,1.399963 -129.300095,-7.000015 -130.000107,-7.100052l-0.100006,0l-10.100006,-1.199951c0.600006,-2.800049 0.900024,-5.800049 0.900024,-8.800049l0,-162.599998c0,-4.300049 -0.700012,-8.5 -1.900024,-12.400024c1.799988,-6.700012 6.799988,-21.599987 18.600006,-34.300055c44.900131,-35.600002 88.800125,-155.700045 90.700119,-160.900057c0.800018,-2.100037 1,-4.399963 0.600006,-6.700012c-1.700012,-11.199966 -1.100006,-24.90004 1.299988,-29.000015c5.300018,0.099976 19.600006,1.599976 28.200012,13.5c10.200012,14.099991 9.799988,39.300064 -1.200012,72.700058c-16.799988,50.899979 -18.199982,77.700048 -4.899994,89.50005c6.600006,5.899963 15.399994,6.200012 21.800018,3.899963c6.099976,-1.399963 11.899994,-2.599976 17.399994,-3.5c0.400002,-0.099976 0.900002,-0.199951 1.299995,-0.299927c30.700012,-6.700073 85.700031,-10.800062 104.800005,6.599976c16.200012,14.800001 4.700014,34.400028 3.400026,36.500004c-3.700014,5.599991 -2.600037,12.90004 2.399963,17.40004c0.100037,0.099976 10.600035,10 11.100035,23.300003c0.399963,8.899963 -3.800047,17.999939 -12.499998,26.999954z"/>
   </g>
   <g transform="matrix(0.0445283, 0, 0, 0.0445283, 21.9308, 48.2876)" id="svg_73"/>
   <g transform="matrix(0.0445283, 0, 0, 0.0445283, 21.9308, 48.2876)" id="svg_74"/>
   <g transform="matrix(0.0445283, 0, 0, 0.0445283, 21.9308, 48.2876)" id="svg_75"/>
   <g transform="matrix(0.0445283, 0, 0, 0.0445283, 21.9308, 48.2876)" id="svg_76"/>
   <g transform="matrix(0.0445283, 0, 0, 0.0445283, 21.9308, 48.2876)" id="svg_77"/>
   <g transform="matrix(0.0445283, 0, 0, 0.0445283, 21.9308, 48.2876)" id="svg_78"/>
   <g transform="matrix(0.0445283, 0, 0, 0.0445283, 21.9308, 48.2876)" id="svg_79"/>
   <g transform="matrix(0.0445283, 0, 0, 0.0445283, 21.9308, 48.2876)" id="svg_80"/>
   <g transform="matrix(0.0445283, 0, 0, 0.0445283, 21.9308, 48.2876)" id="svg_81"/>
   <g transform="matrix(0.0445283, 0, 0, 0.0445283, 21.9308, 48.2876)" id="svg_82"/>
   <g transform="matrix(0.0445283, 0, 0, 0.0445283, 21.9308, 48.2876)" id="svg_83"/>
   <g transform="matrix(0.0445283, 0, 0, 0.0445283, 21.9308, 48.2876)" id="svg_84"/>
   <g transform="matrix(0.0445283, 0, 0, 0.0445283, 21.9308, 48.2876)" id="svg_85"/>
   <g transform="matrix(0.0445283, 0, 0, 0.0445283, 21.9308, 48.2876)" id="svg_86"/>
   <g transform="matrix(0.0445283, 0, 0, 0.0445283, 21.9308, 48.2876)" id="svg_87"/>
  </g>
  <g id="svg_114">
   <g transform="matrix(0.043594, 0, 0, 0.043594, 43.4808, 66.5664)" id="svg_93">
    <g id="svg_94">
     <path id="svg_95" fill="#b3b1b1" d="m340.079254,-1405.056641c-45.100037,-45.099976 -105.000046,-70 -168.800003,-70s-123.700108,24.900024 -168.800116,70c-87.000055,87 -93.300119,226 -15.800056,320.200073c-10.699965,21.900024 -23.300009,36.5 -37.600012,43.5c-8.700016,4.299927 -13.599972,13.699951 -12.200012,23.299866c1.5,9.700073 8.900024,17.200073 18.600052,18.700073c5.299988,0.799927 11,1.299927 16.899971,1.299927l0,0c29.300009,0 60.100079,-10.099976 85.800049,-27.799866c34.600063,18.599915 73.500072,28.399841 113.100124,28.399841c63.799957,0 123.699966,-24.799927 168.800003,-69.899841s69.899963,-105.099976 69.899963,-168.800049s-24.799927,-123.799927 -69.899963,-168.900024zm-19.100037,318.500122c-40,40 -93.199936,61.999878 -149.699966,61.999878c-37.800064,0 -74.900085,-10.099976 -107.200104,-29.099976c-2.100033,-1.199951 -4.499992,-1.899902 -6.799984,-1.899902c-2.900024,0 -5.900032,1 -8.299995,2.799927c-30.600056,23.699951 -61.400064,27.199951 -74.900078,27.5c16.099989,-12 29.599997,-30.599976 40.900059,-56.5c2.099976,-4.799927 1.199951,-10.400024 -2.300079,-14.400024c-73.999966,-83.599976 -70.100002,-211 8.900055,-290c40.000027,-40 93.200096,-62 149.700127,-62s109.699966,22 149.699966,62c82.600037,82.700073 82.600037,217.099976 0,299.600098z"/>
     <path id="svg_96" fill="#b3b1b1" d="m271.279205,-1315.056641l-200.000076,0c-7.500027,0 -13.500027,6 -13.500027,13.5s6,13.5 13.500027,13.5l200.000076,0c7.5,0 13.5,-6 13.5,-13.5s-6.099976,-13.5 -13.5,-13.5z"/>
     <path id="svg_97" fill="#b3b1b1" d="m271.279205,-1249.756592l-200.000076,0c-7.500027,0 -13.500027,6 -13.500027,13.5s6,13.5 13.500027,13.5l200.000076,0c7.5,0 13.5,-6 13.5,-13.5s-6.099976,-13.5 -13.5,-13.5z"/>
     <path id="svg_98" fill="#b3b1b1" d="m271.279205,-1184.456543l-200.000076,0c-7.500027,0 -13.500027,6 -13.500027,13.5s6,13.5 13.500027,13.5l200.000076,0c7.5,0 13.5,-6 13.5,-13.5s-6.099976,-13.5 -13.5,-13.5z"/>
    </g>
   </g>
   <g transform="matrix(0.043594, 0, 0, 0.043594, 43.4808, 66.5664)" id="svg_99"/>
   <g transform="matrix(0.043594, 0, 0, 0.043594, 43.4808, 66.5664)" id="svg_100"/>
   <g transform="matrix(0.043594, 0, 0, 0.043594, 43.4808, 66.5664)" id="svg_101"/>
   <g transform="matrix(0.043594, 0, 0, 0.043594, 43.4808, 66.5664)" id="svg_102"/>
   <g transform="matrix(0.043594, 0, 0, 0.043594, 43.4808, 66.5664)" id="svg_103"/>
   <g transform="matrix(0.043594, 0, 0, 0.043594, 43.4808, 66.5664)" id="svg_104"/>
   <g transform="matrix(0.043594, 0, 0, 0.043594, 43.4808, 66.5664)" id="svg_105"/>
   <g transform="matrix(0.043594, 0, 0, 0.043594, 43.4808, 66.5664)" id="svg_106"/>
   <g transform="matrix(0.043594, 0, 0, 0.043594, 43.4808, 66.5664)" id="svg_107"/>
   <g transform="matrix(0.043594, 0, 0, 0.043594, 43.4808, 66.5664)" id="svg_108"/>
   <g transform="matrix(0.043594, 0, 0, 0.043594, 43.4808, 66.5664)" id="svg_109"/>
   <g transform="matrix(0.043594, 0, 0, 0.043594, 43.4808, 66.5664)" id="svg_110"/>
   <g transform="matrix(0.043594, 0, 0, 0.043594, 43.4808, 66.5664)" id="svg_111"/>
   <g transform="matrix(0.043594, 0, 0, 0.043594, 43.4808, 66.5664)" id="svg_112"/>
   <g transform="matrix(0.043594, 0, 0, 0.043594, 43.4808, 66.5664)" id="svg_113"/>
  </g>
  <g fill="none" id="svg_136">
   <g transform="matrix(0.043594, 0, 0, 0.043594, 43.4808, 66.5664)" id="svg_120">
    <g id="svg_119">
     <path id="svg_115" fill="#1b95e0" d="m340.079254,-556.315979c-45.100037,-45.099915 -105.000046,-69.999878 -168.800003,-69.999878s-123.700108,24.899963 -168.800116,69.999878c-87.000055,86.999878 -93.300119,225.999725 -15.800056,320.199738c-10.699965,21.899963 -23.300009,36.499908 -37.600012,43.499908c-8.700016,4.299927 -13.599972,13.699982 -12.200012,23.299896c1.5,9.700073 8.900024,17.200073 18.600052,18.700104c5.299988,0.799927 11,1.299927 16.899971,1.299927l0,0c29.300009,0 60.100079,-10.100006 85.800049,-27.799896c34.600063,18.599915 73.500072,28.399872 113.100124,28.399872c63.799957,0 123.699966,-24.799957 168.800003,-69.899872s69.899963,-105.099854 69.899963,-168.799866s-24.799927,-123.799774 -69.899963,-168.899811zm-19.100037,318.499756c-40,39.999939 -93.199936,61.999847 -149.699966,61.999847c-37.800064,0 -74.900085,-10.100006 -107.200104,-29.099945c-2.100033,-1.199951 -4.499992,-1.899902 -6.799984,-1.899902c-2.900024,0 -5.900032,1 -8.299995,2.799927c-30.600056,23.69989 -61.400064,27.199921 -74.900078,27.499969c16.099989,-12.000031 29.599997,-30.599945 40.900059,-56.499939c2.099976,-4.799957 1.199951,-10.400055 -2.300079,-14.400055c-73.999966,-83.599884 -70.100002,-210.999786 8.900055,-289.999695c40.000027,-39.999878 93.200096,-61.999878 149.700127,-61.999878s109.699966,22 149.699966,61.999878c82.600037,82.699982 82.600037,217.099792 0,299.599792z"/>
     <path id="svg_116" fill="#1b95e0" d="m271.279205,-466.316101l-200.000076,0c-7.500027,0 -13.500027,5.999969 -13.500027,13.499969s6,13.5 13.500027,13.5l200.000076,0c7.5,0 13.5,-6 13.5,-13.5s-6.099976,-13.499969 -13.5,-13.499969z"/>
     <path id="svg_117" fill="#1b95e0" d="m271.279205,-401.016144l-200.000076,0c-7.500027,0 -13.500027,6 -13.500027,13.5s6,13.499969 13.500027,13.499969l200.000076,0c7.5,0 13.5,-5.999939 13.5,-13.499969s-6.099976,-13.5 -13.5,-13.5z"/>
     <path id="svg_118" fill="#1b95e0" d="m271.279205,-335.716156l-200.000076,0c-7.500027,0 -13.500027,6 -13.500027,13.500031s6,13.499939 13.500027,13.499939l200.000076,0c7.5,0 13.5,-6 13.5,-13.499939s-6.099976,-13.500031 -13.5,-13.500031z"/>
    </g>
   </g>
   <g transform="matrix(0.043594, 0, 0, 0.043594, 43.4808, 66.5664)" id="svg_121"/>
   <g transform="matrix(0.043594, 0, 0, 0.043594, 43.4808, 66.5664)" id="svg_122"/>
   <g transform="matrix(0.043594, 0, 0, 0.043594, 43.4808, 66.5664)" id="svg_123"/>
   <g transform="matrix(0.043594, 0, 0, 0.043594, 43.4808, 66.5664)" id="svg_124"/>
   <g transform="matrix(0.043594, 0, 0, 0.043594, 43.4808, 66.5664)" id="svg_125"/>
   <g transform="matrix(0.043594, 0, 0, 0.043594, 43.4808, 66.5664)" id="svg_126"/>
   <g transform="matrix(0.043594, 0, 0, 0.043594, 43.4808, 66.5664)" id="svg_127"/>
   <g transform="matrix(0.043594, 0, 0, 0.043594, 43.4808, 66.5664)" id="svg_128"/>
   <g transform="matrix(0.043594, 0, 0, 0.043594, 43.4808, 66.5664)" id="svg_129"/>
   <g transform="matrix(0.043594, 0, 0, 0.043594, 43.4808, 66.5664)" id="svg_130"/>
   <g transform="matrix(0.043594, 0, 0, 0.043594, 43.4808, 66.5664)" id="svg_131"/>
   <g transform="matrix(0.043594, 0, 0, 0.043594, 43.4808, 66.5664)" id="svg_132"/>
   <g transform="matrix(0.043594, 0, 0, 0.043594, 43.4808, 66.5664)" id="svg_133"/>
   <g transform="matrix(0.043594, 0, 0, 0.043594, 43.4808, 66.5664)" id="svg_134"/>
   <g transform="matrix(0.043594, 0, 0, 0.043594, 43.4808, 66.5664)" id="svg_135"/>
  </g>
 </g>
</svg>