<svg width="20" height="40" xmlns="http://www.w3.org/2000/svg">

 <g>
  <title>background</title>
  <rect fill="none" id="canvas_background" height="402" width="582" y="-1" x="-1"/>
 </g>
 <g>
  <title>Layer 1</title>
  <path id="svg_1" d="m15.397,4.664l-11.07,0c-1.359,0 -2.461,1.102 -2.461,2.461l0,5.743c0,1.359 1.102,2.461 2.461,2.461l11.08,0c1.359,0 2.462,-1.102 2.462,-2.461l0,-5.743c-0.001,-1.359 -1.103,-2.461 -2.463,-2.461m1.349,9.139l-0.251,0.251c-0.138,0.138 -0.362,0.138 -0.5,0l-3.385,-3.543l-2.25,2.25l-0.251,0.251c-0.069,0.069 -0.159,0.103 -0.251,0.103c-0.09,0 -0.181,-0.034 -0.25,-0.103l-0.251,-0.251l-2.136,-2.136l-3.497,3.34c-0.139,0.139 -0.363,0.139 -0.501,0l-0.25,-0.25c-0.139,-0.139 -0.139,-0.362 0,-0.5l3.497,-3.341l-3.122,-3.124c-0.138,-0.139 -0.138,-0.362 0,-0.5l0.25,-0.251c0.139,-0.139 0.363,-0.139 0.501,0l5.76,5.761l5.762,-5.761c0.138,-0.139 0.361,-0.139 0.501,0l0.249,0.251c0.14,0.138 0.14,0.362 0,0.5l-3.01,3.01l3.385,3.543c0.138,0.138 0.138,0.363 0,0.5" fill="#dee7ed"/>
  <path id="svg_2" d="m15.397,24.671l-11.07,0c-1.359,0 -2.461,1.102 -2.461,2.461l0,5.743c0,1.359 1.102,2.462 2.461,2.462l11.08,0c1.359,0 2.462,-1.103 2.462,-2.462l0,-5.743c-0.001,-1.36 -1.103,-2.461 -2.463,-2.461m1.349,9.139l-0.251,0.252c-0.138,0.138 -0.362,0.138 -0.5,0l-3.385,-3.543l-2.25,2.249l-0.251,0.251c-0.069,0.068 -0.159,0.104 -0.251,0.104c-0.09,0 -0.181,-0.035 -0.25,-0.104l-0.251,-0.251l-2.136,-2.136l-3.497,3.34c-0.139,0.139 -0.363,0.139 -0.501,0l-0.25,-0.25c-0.139,-0.139 -0.139,-0.362 0,-0.5l3.497,-3.342l-3.123,-3.123c-0.138,-0.139 -0.138,-0.362 0,-0.5l0.25,-0.252c0.139,-0.139 0.363,-0.139 0.501,0l5.76,5.762l5.762,-5.762c0.138,-0.139 0.361,-0.139 0.501,0l0.249,0.252c0.14,0.138 0.14,0.361 0,0.5l-3.01,3.01l3.385,3.543c0.139,0.138 0.139,0.363 0.001,0.5" fill="#ffffff"/>
 </g>
</svg>