<svg width="60" height="60" xmlns="http://www.w3.org/2000/svg">

 <g>
  <title>background</title>
  <rect fill="none" id="canvas_background" height="402" width="582" y="-1" x="-1"/>
 </g>
 <g>
  <title>Layer 1</title>
  <g stroke="null" id="svg_1">
   <path stroke="null" id="svg_2" fill="#a2abb3" d="m42.480621,25.839792l-20.801033,0c-0.459287,0 -0.832041,0.371922 -0.832041,0.832041s0.372755,0.832041 0.832041,0.832041l20.801033,0c0.459287,0 0.832041,-0.371922 0.832041,-0.832041s-0.372755,-0.832041 -0.832041,-0.832041z"/>
   <path stroke="null" id="svg_3" fill="#a2abb3" d="m21.679588,20.847544l8.320413,0c0.459287,0 0.832041,-0.371922 0.832041,-0.832041s-0.372755,-0.832041 -0.832041,-0.832041l-8.320413,0c-0.459287,0 -0.832041,0.371922 -0.832041,0.832041s0.372755,0.832041 0.832041,0.832041z"/>
   <path stroke="null" id="svg_4" fill="#a2abb3" d="m42.480621,32.496123l-20.801033,0c-0.459287,0 -0.832041,0.371922 -0.832041,0.832041s0.372755,0.832041 0.832041,0.832041l20.801033,0c0.459287,0 0.832041,-0.371922 0.832041,-0.832041s-0.372755,-0.832041 -0.832041,-0.832041z"/>
   <path stroke="null" id="svg_5" fill="#a2abb3" d="m42.480621,39.152453l-20.801033,0c-0.459287,0 -0.832041,0.371922 -0.832041,0.832041s0.372755,0.832041 0.832041,0.832041l20.801033,0c0.459287,0 0.832041,-0.371922 0.832041,-0.832041s-0.372755,-0.832041 -0.832041,-0.832041z"/>
   <path stroke="null" id="svg_6" fill="#a2abb3" d="m42.480621,45.808784l-20.801033,0c-0.459287,0 -0.832041,0.371922 -0.832041,0.832041s0.372755,0.832041 0.832041,0.832041l20.801033,0c0.459287,0 0.832041,-0.371922 0.832041,-0.832041s-0.372755,-0.832041 -0.832041,-0.832041z"/>
   <path stroke="null" id="svg_7" fill="#a2abb3" d="m45.808786,17.174914l0,-12.136155l-35.777777,0l0,45.762273l4.160207,0l0,4.160207l35.777777,0l0,-33.626118l-4.160207,-4.160207zm-7.488372,-5.135359l7.488372,7.488372l1.319618,1.319618l-8.807989,0l0,-8.807989zm-26.625322,37.097394l0,-42.434107l32.449611,0l0,8.807989l-6.311865,-6.311865l-23.641622,0l0,39.937983l-2.496124,0zm4.160207,4.160207l0,-2.496124l0,-39.937983l20.801033,0l0,11.648578l11.648578,0l0,30.785529l-32.449611,0z"/>
  </g>
  <g id="svg_8"/>
  <g id="svg_9"/>
  <g id="svg_10"/>
  <g id="svg_11"/>
  <g id="svg_12"/>
  <g id="svg_13"/>
  <g id="svg_14"/>
  <g id="svg_15"/>
  <g id="svg_16"/>
  <g id="svg_17"/>
  <g id="svg_18"/>
  <g id="svg_19"/>
  <g id="svg_20"/>
  <g id="svg_21"/>
  <g id="svg_22"/>
 </g>
</svg>