<?xml version="1.0" encoding="utf-8"?>
<!-- Svg Vector Icons : http://www.onlinewebfonts.com/icon -->
<!DOCTYPE svg PUBLIC "-//W3C//DTD SVG 1.1//EN" "http://www.w3.org/Graphics/SVG/1.1/DTD/svg11.dtd">
<svg width="18px" height="18px" version="1.1" xmlns="http://www.w3.org/2000/svg" xmlns:xlink="http://www.w3.org/1999/xlink" x="0px" y="0px" viewBox="0 0 1000 1000" enable-background="new 0 0 1000 1000" xml:space="preserve">
<metadata> Svg Vector Icons : http://www.onlinewebfonts.com/icon </metadata>
<g><path fill="#b3b1b1" d="M566.2,305.1L509,364.7l-51.6,53.6c-15.5,16.3-58.9,60.3-69.3,71.3c-10.4,11-17,18.1-19.8,20.9c-6.6,6.9-11.7,13.2-15.2,18.8c-3.6,5.6-6.7,11.8-9.5,18.6c-2.3,4.4-5.4,12.5-9.1,24.2c-3.8,11.8-7.7,24.7-11.7,38.6c-4,13.9-7.8,27.5-11.2,40.6c-3.7,13-5.9,22.9-6.8,29.8c-1.9,12.8-0.7,21.9,3.6,27.2c4.2,5.5,12.7,7.3,25.4,5.9c6.2-1,15.5-3.1,27.9-6.5c12.5-3.5,25.8-7.4,39.6-12.1c13.8-4.7,27.2-9.4,40-14.3c12.8-4.9,22.4-9.1,28.9-12.5c6.6-3,13-6.9,19.1-11.7c6.1-5,11.5-9.6,16.2-14c1.9-1.5,7.8-7.4,17.7-17.8c9.9-10.2,22.4-23.4,37.5-39.3c15-16,62.5-64,81.3-83.1l56.5-59.6l147.5-156L712.7,152.5L566.2,305.1L566.2,305.1L566.2,305.1z M890.2,389.9V610v137.2v-0.9v29.1c0,75.3-61.4,136.6-136.7,136.6H588.2h-0.1H412.1l0,0H246.7c-75.3,0-136.6-61.3-136.6-136.6v-30.7v-0.3V390V250.8v2v-28.3c0-75.3,61.3-136.6,136.6-136.6h165.4h99.9h45.7H581l92.5-77.9h-30.6V10H246.7C131.8,10,37.7,100.7,32.3,214.2h-0.3v10.4v1.8l0,0v549.1v10.3h0.2C37.7,899.3,131.8,990,246.6,990h3.9h499.2h3.8c114.8,0,208.9-90.7,214.3-204.2h0.2v-10.3V313.3L890.2,389.9L890.2,389.9L890.2,389.9z M871.5,40.8c-5.1-1-10-1.4-14.6-1.3h2C863.3,39.7,867.4,40.1,871.5,40.8L871.5,40.8L871.5,40.8z M955.8,140.2c0.6-13.7-3-28.9-10.7-43.3c-5.3-9.9-12.4-19.3-21.2-28c-15.8-15.3-34.5-24.9-52.4-28.1c-4.1-0.8-8.3-1.2-12.6-1.3h-2c-7.9-0.1-16,1.2-24,3.7c-8.6,2.7-17.3,7.5-25.6,14.1c-6.3,5.6-14.4,13-24,22.5c-9.8,9.4-18.2,17.6-25.2,24.3l132.5,134.7c4.1-3.7,8.6-7.9,13.4-12.8c3.9-4.3,8.8-9.1,14.4-14.7c5.7-5.5,11.8-11.9,18.7-19.2c6.5-7.3,11.2-15,14.2-22.9c3-8,4.3-16,4.3-23.9C955.8,143.7,955.8,142,955.8,140.2L955.8,140.2L955.8,140.2z"/></g>
</svg>