<svg width="64" height="64" xmlns="http://www.w3.org/2000/svg">
 <g>
  <title>background</title>
  <rect x="-1" y="-1" width="66" height="66" id="canvas_background" fill="none"/>
 </g>

 <g>
  <title>Layer 1</title>
  <g stroke="null" id="svg_52">
   <g stroke="null" id="svg_35" transform="matrix(0.12097365622475147,0,0,0.12097365622475147,53.87164288302013,127.65858500526268) ">
    <path stroke="null" d="m33.07438,-713.17108c9.79999,-12.5 14.50001,-25.90003 13.90003,-39.70001c-0.60004,-15.20002 -7.40003,-27.10004 -13.00001,-34.40003c6.50001,-16.20001 9.00001,-41.70001 -12.70001,-61.5c-15.90002,-14.5 -42.90002,-21 -80.3,-19.20001c-26.29999,1.20001 -48.3,6.09998 -49.19999,6.30005l-0.10001,0c-5,0.89996 -10.30001,2 -15.70001,3.19995c-0.39999,-6.40002 0.70001,-22.29999 12.5,-58.09998c14.00001,-42.59997 13.20002,-75.20001 -2.6,-96.99994c-16.59998,-22.89978 -43.09998,-24.6997 -50.9,-24.6997c-7.5,0 -14.39999,3.09997 -19.3,8.79992c-11.09999,12.89985 -9.79999,36.69971 -8.4,47.69971c-13.19999,35.39996 -50.20002,122.20001 -81.50012,146.29999c-0.6,0.40002 -1.1,0.90002 -1.6,1.40002c-9.20002,9.69995 -15.4,20.19995 -19.59998,29.40003c-5.90002,-3.20008 -12.60001,-5 -19.80002,-5l-61,0c-23,0 -41.6,18.69995 -41.6,41.59997l0,162.5c0,23 18.70001,41.59998 41.6,41.59998l61,0c8.9,0 17.20001,-2.79999 24,-7.59998l23.5,2.79999c3.60001,0.5 67.60013,8.59998 133.30013,7.29999c11.89999,0.90002 23.1,1.40002 33.5,1.40002c17.9,0 33.5,-1.40002 46.5,-4.20001c30.6,-6.5 51.49999,-19.5 62.10003,-38.59997c8.09997,-14.60004 8.09997,-29.10004 6.79999,-38.29999c19.89996,-18 23.39996,-37.90003 22.70001,-51.90003c-0.40003,-8.09997 -2.20002,-15 -4.10004,-20.09997zm-409.30015,122.19995c-8.09997,0 -14.59997,-6.60004 -14.59997,-14.60004l0,-162.59991c0,-8.10004 6.59997,-14.60004 14.59997,-14.60004l61,0c8.10004,0 14.60004,6.60004 14.60004,14.60004l0,162.49994c0,8.10003 -6.60001,14.60003 -14.60004,14.60003l-61,0l0,0.09998zm383.70018,-133.90003c-4.20002,4.40003 -5,11.10004 -1.79999,16.30005c0,0.09998 4.09998,7.09998 4.59998,16.69995c0.70001,13.10004 -5.59998,24.70002 -18.8,34.60004c-4.70001,3.59998 -6.60003,9.79999 -4.60003,15.40003c0,0.09997 4.30005,13.29992 -2.69995,25.79992c-6.70004,12 -21.60003,20.60004 -44.20003,25.40003c-18.10001,3.90002 -42.69998,4.59997 -72.9,2.20001c-0.40003,0 -0.90003,0 -1.40003,0c-64.29999,1.39996 -129.30009,-7 -130.0001,-7.10004l-0.10001,0l-10.10001,-1.19995c0.60001,-2.80005 0.90003,-5.80005 0.90003,-8.80005l0,-162.59991c0,-4.30005 -0.70002,-8.5 -1.90003,-12.40003c1.79999,-6.70001 6.79999,-21.59997 18.60001,-34.30005c44.90013,-35.59997 88.80012,-155.69995 90.70012,-160.89996c0.80002,-2.10004 1,-4.39996 0.6,-6.70001c-1.70001,-11.19995 -1.1,-24.90003 1.29999,-29c5.30002,0.09997 19.60001,1.59997 28.20001,13.5c10.20002,14.09997 9.79999,39.30005 -1.20001,72.70001c-16.79999,50.89996 -18.19998,77.70001 -4.89999,89.5c6.6,5.89996 15.39999,6.20001 21.80002,3.89996c6.09997,-1.39996 11.89999,-2.59997 17.39999,-3.5c0.4,-0.09997 0.9,-0.19995 1.3,-0.29992c30.70001,-6.70008 85.70003,-10.80005 104.8,6.59997c16.20001,14.79999 4.70001,34.40003 3.40003,36.5c-3.70002,5.59998 -2.60004,12.90003 2.39996,17.40003c0.10004,0.09997 10.60003,10 11.10003,23.29998c0.39997,8.89997 -3.80004,17.99994 -12.49999,26.99994z" fill="#b3b1b1" id="svg_36"/>
   </g>
   <g stroke="null" id="svg_37" transform="matrix(0.12097365622475147,0,0,0.12097365622475147,53.87164288302013,127.65858500526268) "/>
   <g stroke="null" id="svg_38" transform="matrix(0.12097365622475147,0,0,0.12097365622475147,53.87164288302013,127.65858500526268) "/>
   <g stroke="null" id="svg_39" transform="matrix(0.12097365622475147,0,0,0.12097365622475147,53.87164288302013,127.65858500526268) "/>
   <g stroke="null" id="svg_40" transform="matrix(0.12097365622475147,0,0,0.12097365622475147,53.87164288302013,127.65858500526268) "/>
   <g stroke="null" id="svg_41" transform="matrix(0.12097365622475147,0,0,0.12097365622475147,53.87164288302013,127.65858500526268) "/>
   <g stroke="null" id="svg_42" transform="matrix(0.12097365622475147,0,0,0.12097365622475147,53.87164288302013,127.65858500526268) "/>
   <g stroke="null" id="svg_43" transform="matrix(0.12097365622475147,0,0,0.12097365622475147,53.87164288302013,127.65858500526268) "/>
   <g stroke="null" id="svg_44" transform="matrix(0.12097365622475147,0,0,0.12097365622475147,53.87164288302013,127.65858500526268) "/>
   <g stroke="null" id="svg_45" transform="matrix(0.12097365622475147,0,0,0.12097365622475147,53.87164288302013,127.65858500526268) "/>
   <g stroke="null" id="svg_46" transform="matrix(0.12097365622475147,0,0,0.12097365622475147,53.87164288302013,127.65858500526268) "/>
   <g stroke="null" id="svg_47" transform="matrix(0.12097365622475147,0,0,0.12097365622475147,53.87164288302013,127.65858500526268) "/>
   <g stroke="null" id="svg_48" transform="matrix(0.12097365622475147,0,0,0.12097365622475147,53.87164288302013,127.65858500526268) "/>
   <g stroke="null" id="svg_49" transform="matrix(0.12097365622475147,0,0,0.12097365622475147,53.87164288302013,127.65858500526268) "/>
   <g stroke="null" id="svg_50" transform="matrix(0.12097365622475147,0,0,0.12097365622475147,53.87164288302013,127.65858500526268) "/>
   <g stroke="null" id="svg_51" transform="matrix(0.12097365622475147,0,0,0.12097365622475147,53.87164288302013,127.65858500526268) "/>
  </g>
 </g>
</svg>