<?xml version="1.0" encoding="UTF-8"?>
<!DOCTYPE svg PUBLIC "-//W3C//DTD SVG 1.1//EN" "http://www.w3.org/Graphics/SVG/1.1/DTD/svg11.dtd">
<!-- Creator: CorelDRAW 2017 -->
<svg xmlns="http://www.w3.org/2000/svg" xml:space="preserve" width="0.245315in" height="0.311933in" version="1.1" style="shape-rendering:geometricPrecision; text-rendering:geometricPrecision; image-rendering:optimizeQuality; fill-rule:evenodd; clip-rule:evenodd"
viewBox="0 0 245.31 311.93"
 xmlns:xlink="http://www.w3.org/1999/xlink">
 <defs>
  <style type="text/css">
   <![CDATA[
    .fil0 {fill:#1b67b1}
   ]]>
  </style>
 </defs>
 <g id="Layer_x0020_1">
  <metadata id="CorelCorpID_0Corel-Layer"/>
  <path class="fil0" d="M50.08 47.63c12.65,-15.62 30.17,-27.25 50.21,-32.56 0.64,-1.58 1.44,-3.06 2.37,-4.44 1.5,-2.23 3.35,-4.18 5.41,-5.72 2.09,-1.57 4.43,-2.8 6.9,-3.62 2.45,-0.81 5.06,-1.27 7.69,-1.27 2.63,-0.01 5.24,0.46 7.69,1.27 2.52,0.83 4.87,2.07 6.91,3.62 1.89,1.43 3.61,3.19 5.02,5.17 0.85,1.17 1.58,2.43 2.21,3.75 21.28,4.38 39.9,15.86 53.21,31.78 13.63,16.3 21.71,37.35 21.48,60.27l-0.72 70.3 23.76 47.93c1.48,2.99 3.09,7.8 3.09,12.56 0.02,2.7 -0.5,5.47 -1.8,7.98 -1.35,2.61 -3.5,4.9 -6.71,6.48 -2.87,1.41 -6.6,2.28 -11.33,2.28l-206.54 0.02c-3.89,-0.05 -7.14,-0.89 -9.76,-2.23 -3.28,-1.7 -5.62,-4.19 -7.09,-7.02 -1.45,-2.74 -2.07,-5.8 -2.06,-8.72 0.02,-2.94 0.73,-5.83 1.94,-8.19l26.4 -51.16 0.72 -70.28c0.22,-21.97 8.06,-42.2 21,-58.2zm50.19 215.42c0.05,5.91 2.46,11.27 6.35,15.15 3.95,3.92 9.44,6.42 15.51,6.48l0.27 -0.03c6.22,0 11.87,-2.47 15.96,-6.47 3.99,-3.91 6.54,-9.24 6.73,-15.12l27.44 -0.01c-0.26,13.45 -5.96,25.65 -14.95,34.44 -9.11,8.91 -21.64,14.44 -35.37,14.44l-0.49 0c-13.59,-0.17 -25.81,-5.67 -34.63,-14.45 -8.84,-8.83 -14.3,-21.01 -14.3,-34.43l27.47 -0.01zm90.74 -85.81l0.73 -71.44c0.17,-17.05 -6.15,-32.63 -16.68,-44.39 -10.63,-11.92 -25.62,-19.99 -42.56,-21.86l-3.19 -0.35 -1.5 -5.12 -0.83 -1.61c-0.62,-0.98 -1.36,-1.74 -2.14,-2.21 -0.65,-0.4 -1.38,-0.6 -2.17,-0.6 -0.81,0 -1.54,0.21 -2.16,0.59 -0.8,0.51 -1.55,1.28 -2.15,2.22l-0.9 1.79 -0.72 2.35 -0.71 3.02 -3.06 0.55c-16,2.78 -30.14,11.13 -40.25,22.93 -9.94,11.59 -16.02,26.56 -16.18,42.82l-0.73 71.42 -0.52 2.12 -24.13 46.75 183.53 -0.04 -23.2 -46.8 -0.48 -2.11z"/>
 </g>
</svg>
