<?xml version="1.0" encoding="UTF-8"?>
<!DOCTYPE svg PUBLIC "-//W3C//DTD SVG 1.1//EN" "http://www.w3.org/Graphics/SVG/1.1/DTD/svg11.dtd">
<!-- Creator: CorelDRAW X8 -->
<svg xmlns="http://www.w3.org/2000/svg" xml:space="preserve" width="0.128276in" height="0.190583in" version="1.1" style="shape-rendering:geometricPrecision; text-rendering:geometricPrecision; image-rendering:optimizeQuality; fill-rule:evenodd; clip-rule:evenodd"
viewBox="0 0 128 191"
 xmlns:xlink="http://www.w3.org/1999/xlink">
 <defs>
  <style type="text/css">
   <![CDATA[
    .fil0 {fill="#a2acb3";fill-rule:nonzero}
   ]]>
  </style>
 </defs>
 <g id="Layer_x0020_1" fill="#a2acb3">
  <metadata id="CorelCorpID_0Corel-Layer"/>
  <path class="fil0" d="M128 113c0,1 0,2 -1,3 -2,3 -12,7 -23,10 -11,2 -23,4 -33,5l1 53c0,2 0,3 -2,5 -1,1 -2,2 -4,2 -1,0 -2,-1 -2,-1 -1,0 -2,-1 -3,-1 0,-1 -1,-1 -1,-2 0,-1 0,-2 -1,-3l-1 -52c-8,0 -20,-2 -31,-4 -12,-2 -23,-6 -26,-10l0 0c0,0 -1,-1 -1,-2 0,-2 0,-3 0,-4 4,-8 9,-15 15,-21 7,-7 15,-12 20,-15l3 -48c-2,-2 -5,-5 -7,-8 -2,-3 -4,-7 -4,-11 -1,-1 0,-2 0,-3 0,-1 0,-2 1,-2 1,-1 1,-2 2,-2 1,0 2,-1 3,-1l57 -1c1,0 2,0 3,0 1,1 2,1 2,2l0 0c1,1 1,1 2,2 0,1 0,2 0,3 0,0 -1,6 -4,12 -1,3 -4,5 -6,8l5 48c3,1 9,4 15,9 7,5 15,14 21,25 0,1 0,2 0,4zm-7 -1l-2 1c-2,1 -3,2 -5,2 3,-1 6,-2 7,-3zm-105 6c-2,-1 -5,-2 -7,-3l-1 0c2,1 5,2 8,3z"/>
 </g>
</svg>
