<?xml version="1.0" encoding="iso-8859-1"?>
<svg xmlns="http://www.w3.org/2000/svg" xmlns:xlink="http://www.w3.org/1999/xlink" version="1.1" viewBox="0 0 286.25 286.25" enable-background="new 0 0 286.25 286.25" width="20px" height="20px">
  <g>
    <path d="m277.55,90.268l-80.046-80.046c-10.441-12.181-29.582-12.181-41.763,0l-3.48,3.48c-5.22,5.22-8.701,13.921-8.701,20.882 0,6.96 3.48,15.661 8.701,20.882l-69.605,69.605c-26.102-12.181-59.164-6.96-80.046,13.921-3.48,3.48-3.48,8.701 0,12.181l59.164,59.164-52.203,52.204c-3.48,3.48-3.48,8.701 1.77636e-15,12.181 1.74,1.74 3.48,1.74 6.96,1.74s5.22,0 6.96-1.74l51.334-51.334 60.034,60.034c1.74,0 5.22,1.74 6.96,1.74 1.74,0 3.48,0 6.96,0 20.882-20.882 26.102-53.944 13.921-80.046l69.605-69.605c10.441,12.181 29.582,12.181 41.763,0l3.48-3.48c5.22-5.22 8.701-13.921 8.701-20.882 0.001-6.96-3.479-15.66-8.699-20.881zm-12.181,27.843l-3.48,3.48c-3.48,5.22-12.181,5.22-17.401,0l-6.96-6.96c-3.48-3.48-8.701-3.48-12.181,0l-81.786,81.786c-3.48,3.48-3.48,6.96-1.74,10.441 12.181,17.401 10.441,40.023-1.74,57.424l-118.33-118.329c17.401-12.181 40.023-13.921 57.424-1.74 3.48,1.74 6.96,1.74 10.441-1.74l81.786-81.786c3.48-3.48 3.48-8.701 0-12.181l-6.96-6.96c-1.74-1.74-3.48-5.22-3.48-8.701s1.74-6.96 3.48-8.701l3.48-3.48c3.48-5.22 12.181-5.22 17.401,0l80.046,80.046c1.74,1.74 3.48,5.22 3.48,8.701s-1.74,6.959-3.48,8.7z" fill="#a2acb3"/>
  </g>
</svg>
