<?xml version="1.0" encoding="UTF-8"?>
<!DOCTYPE svg PUBLIC "-//W3C//DTD SVG 1.1//EN" "http://www.w3.org/Graphics/SVG/1.1/DTD/svg11.dtd">
<!-- Creator: CorelDRAW X8 -->
<svg xmlns="http://www.w3.org/2000/svg" xml:space="preserve" width="0.242173in" height="0.196772in" version="1.1" style="shape-rendering:geometricPrecision; text-rendering:geometricPrecision; image-rendering:optimizeQuality; fill-rule:evenodd; clip-rule:evenodd"
viewBox="0 0 242 197"
 xmlns:xlink="http://www.w3.org/1999/xlink">
 <defs>
  <style type="text/css">
   <![CDATA[
    .fil0 {fill:#1A1A1A}
   ]]>
  </style>
 </defs>
 <g id="Layer_x0020_1">
  <metadata id="CorelCorpID_0Corel-Layer"/>
  <path class="fil0" d="M0 167l0 -107c0,-7 3,-15 8,-20 6,-5 13,-8 21,-8l38 0 1 -4c2,-8 7,-15 13,-20 6,-5 14,-8 23,-8l35 0c8,0 16,3 22,8 7,5 11,12 13,20l1 4 39 0c7,0 15,3 20,8 5,5 8,13 8,20l0 107c0,8 -3,16 -9,21 -5,5 -13,9 -21,9l-182 0c-8,0 -16,-4 -21,-9 -6,-5 -9,-13 -9,-21zm157 -16c-9,9 -22,15 -36,15 -14,0 -27,-6 -36,-15 -9,-9 -15,-22 -15,-36 0,-14 6,-27 15,-37 9,-9 22,-15 36,-15 14,0 27,6 36,15 10,10 15,23 15,37 0,14 -5,27 -15,36zm-9 -63c-7,-7 -16,-11 -27,-11 -10,0 -20,4 -27,11 -7,7 -11,16 -11,27 0,10 4,20 11,26 7,7 17,12 27,12 11,0 20,-5 27,-12 7,-6 11,-16 11,-26 0,-11 -4,-20 -11,-27zm-101 -24c2,2 3,4 3,6 0,3 -1,5 -3,6 -1,2 -3,3 -6,3 -2,0 -4,-1 -6,-3 -1,-1 -2,-3 -2,-6 0,-2 1,-4 2,-6 2,-1 4,-2 6,-2 3,0 5,1 6,2zm30 -20c-2,1 -3,1 -5,1l-43 0c-5,0 -9,2 -11,5 -3,2 -5,6 -5,10l0 107c0,4 2,9 5,12 3,3 7,5 12,5l182 0c5,0 9,-2 12,-5 3,-3 5,-8 5,-12l0 -107c0,-4 -2,-8 -5,-10 -2,-3 -6,-5 -10,-5l-44 0c-2,0 -3,0 -4,-1 -2,-1 -2,-3 -3,-4l-2 -9c-1,-5 -4,-10 -8,-13 -4,-3 -9,-5 -14,-5l-35 0c-6,0 -11,2 -15,5 -4,3 -7,8 -8,13l-2 9c0,1 -1,3 -2,4z"/>
 </g>
</svg>
