<svg width="700" height="106.78" xmlns="http://www.w3.org/2000/svg">
 <defs>
  <style type="text/css">
   <![CDATA[
    .fil0 {fill:#191919}
   ]]>
  </style>
 </defs>
 <g>
  <title>background</title>
  <rect fill="none" id="canvas_background" height="108.78" width="702" y="-1" x="-1"/>
 </g>
 <g>
  <title>Layer 1</title>
  <g id="Layer_x0020_1">
   <metadata id="CorelCorpID_0Corel-Layer"/>
   <path id="svg_1" d="m99.86,7.81c-10.41,-10.41 -27.35,-10.41 -37.75,-0.01l-48.86,48.75c-1.04,1.04 -1.8,2.31 -2.23,3.71l-10.64,35.03c-0.94,3.1 -0.12,6.48 2.15,8.8c1.7,1.74 4,2.69 6.37,2.69c0.79,0 1.59,-0.11 2.37,-0.32l35.92,-9.95c1.48,-0.41 2.83,-1.2 3.91,-2.28l48.75,-48.66c10.41,-10.41 10.41,-27.34 0,-37.75l0.01,-0.01zm-59.68,72.18l-18.07,5l5.29,-17.41l32.97,-32.89l12.59,12.59l-32.77,32.71l-0.01,0zm47.09,-47.01l-1.72,1.72l-12.59,-12.59l1.72,-1.72c3.47,-3.47 9.11,-3.47 12.58,0c3.47,3.47 3.47,9.12 0.01,12.58l0,0.01z" class="fil0"/>
  </g>
  <defs>
   <style type="text/css">
    <![CDATA[
    .fil0 {fill:#191919}
   ]]>
   </style>
  </defs>
  <g stroke="null" id="svg_10">
   <g stroke="null" transform="matrix(0.7451131474328709,0,0,0.7451131474328709,-3597.6205430324967,-514.4651344908162) " id="svg_6">
    <metadata stroke="null" transform="translate(9.094947017729282e-13,0.036223720759153366) translate(-1.3420780897140503,0) translate(-1.3420780897140503,0) translate(-1.3420780897140503,0) translate(-1.3420780897140503,0) translate(1.3420780897140503,0) translate(1.3420780897140503,0) translate(1.3420780897140503,0) translate(1.3420780897140503,0) translate(1.3420780897140503,0) translate(1.3420780897140503,0) translate(1.3420780897140503,0) translate(1.3420780897140503,0) translate(1.3420780897140503,0) translate(1.3420780897140503,0) translate(1.3420780897140503,0) translate(1.3420780897140503,0) translate(1.3420780897140503,0) translate(1.3420780897140503,0) translate(1.3420780897140503,0) translate(1.3420780897140503,0) translate(1.3420780897140503,0) translate(1.3420780897140503,0) translate(1.3420780897140503,0) translate(1.3420780897140503,0) translate(1.3420780897140503,0) translate(1.3420780897140503,0) translate(1.3420780897140503,0) translate(1.3420780897140503,0) translate(1.3420780897140503,0) translate(1.3420780897140503,0) translate(1.3420780897140503,0) translate(1.3420780897140503,0) translate(1.3420780897140503,0) translate(1.3420780897140503,0) translate(1.3420780897140503,0) translate(1.3420780897140503,0) translate(1.3420780897140503,0) translate(1.3420780897140503,0) translate(1.3420780897140503,0) translate(1.3420780897140503,0) translate(1.3420780897140503,0) translate(1.3420780897140503,0) translate(1.3420780897140503,0) translate(1.3420780897140503,0) translate(1.3420780897140503,0) translate(1.3420780897140503,0) translate(1.3420780897140503,0) translate(1.3420780897140503,0) translate(1.3420780897140503,0) translate(1.3420780897140503,0) translate(1.3420780897140503,0) translate(1.3420780897140503,0) translate(1.3420780897140503,0) translate(1.3420780897140503,0) translate(1.3420780897140503,0) translate(1.3420780897140503,0) translate(1.3420780897140503,0) translate(1.3420780897140503,0) translate(1.3420780897140503,0) translate(1.3420780897140503,0) translate(1.3420780897140503,0) translate(1.3420780897140503,0) translate(1.3420780897140503,0) translate(1.3420780897140503,0) translate(1.3420780897140503,0) translate(1.3420780897140503,0) translate(1.3420780897140503,0) translate(1.3420780897140503,0) translate(1.3420780897140503,0) translate(1.3420780897140503,0) translate(1.3420780897140503,0) translate(1.3420780897140503,0) translate(1.3420780897140503,0) translate(1.3420780897140503,0) translate(-1.3420780897140503,0) translate(-1.3420780897140503,0) translate(-1.3420780897140503,0) translate(-1.3420780897140503,0) translate(-1.3420780897140503,0) translate(1.3420780897140503,0) translate(1.3420780897140503,0) translate(-1.3420780897140503,0) translate(-1.3420780897140503,0) translate(-1.3420780897140503,0) translate(-1.3420780897140503,0) translate(-1.3420780897140503,0) translate(-1.3420780897140503,0) translate(-1.3420780897140503,0) translate(-1.3420780897140503,0) translate(-1.3420780897140503,0) translate(-1.3420780897140503,0) translate(-1.3420780897140503,0) translate(-1.3420780897140503,0) translate(-1.3420780897140503,0) translate(-1.3420780897140503,0) translate(-1.3420780897140503,0) translate(-1.3420780897140503,0) translate(-1.3420780897140503,0) translate(-1.3420780897140503,0) translate(-1.3420780897140503,0) translate(-1.3420780897140503,0) translate(-1.3420780897140503,0) translate(-1.3420780897140503,0) translate(-1.3420780897140503,0) translate(-1.3420780897140503,0) translate(-1.3420780897140503,0) translate(-1.3420780897140503,0) translate(-1.3420780897140503,0) translate(-1.3420780897140503,0) translate(-1.3420780897140503,0) translate(-1.3420780897140503,0) translate(1.3420780897140503,0) translate(1.3420780897140503,0) translate(1.3420780897140503,0) translate(1.3420780897140503,0) translate(1.3420780897140503,0) translate(1.3420780897140503,0) translate(1.3420780897140503,0) translate(1.3420780897140503,0) translate(1.3420780897140503,0) translate(-1.3420780897140503,0) translate(-1.3420780897140503,0) translate(-1.3420780897140503,0) translate(-1.3420780897140503,0) translate(9.094947017729282e-13,-1.3420780897140503) translate(0,1.3294157981872559) translate(0,-1.3294157981872559) translate(0,1.3294157981872559) translate(0,-1.3294157981872559) translate(0,-1.3294157981872559) translate(0,1.3294157981872559) translate(0,1.3294157981872559) translate(0,-1.3294157981872559) translate(0,-1.3294157981872559) translate(0,1.3294157981872559) translate(0,1.3294157981872559) translate(0,-1.3294157981872559) translate(0,1.3294157981872559) translate(39.88247299194336,-1.3294157981872559) translate(-442.0762023925781,-73.35762023925781) translate(5415.02978515625,0) translate(0,766.3651733398438) " id="svg_7"/>
    <path stroke="null" id="svg_9" d="m5201.745023,736.131699l-41.52,-41.52c-3.87,-3.88 -10.65,-3.88 -14.53,0l-5.74,5.74c-4.05,4.06 -5.44,9.95 -3.63,15.38c0.75,2.25 0.18,4.69 -1.5,6.37l-16.82,16.83c-1.39,1.39 -3.23,2.15 -5.19,2.15l-6.88,0c-4.31,0 -8.37,1.68 -11.42,4.73l-2.79,2.78c-1.94,1.94 -3.01,4.52 -3.01,7.26c0,2.74 1.07,5.33 3.01,7.26l16.63,16.63l-42.8,42.74c-2.3,2.29 -2.3,6 -0.01,8.3c1.15,1.15 2.65,1.73 4.16,1.73c1.5,0 3,-0.58 4.15,-1.72l42.8,-42.75l16.58,16.58c1.94,1.94 4.52,3.01 7.26,3.01c2.74,0 5.33,-1.07 7.26,-3.01l2.79,-2.79c3.05,-3.05 4.73,-7.11 4.73,-11.41l0,-6.88c0,-1.93 0.79,-3.82 2.15,-5.19l16.83,-16.83c1.67,-1.68 4.1,-2.26 6.37,-1.5c5.43,1.81 11.32,0.41 15.37,-3.64l5.74,-5.73c4,-4.01 4,-10.52 -0.01,-14.53l0,0l0.02,0.01zm-0.02,-0.01z" class="fil0"/>
   </g>
  </g>
  <defs>
   <style type="text/css">
    <![CDATA[
    .fil0 {fill:#191919}
   ]]>
   </style>
  </defs>
  <g stroke="null" id="svg_19">
   <g stroke="null" transform="matrix(0.8829725218714578,0,0,0.8829725218714578,-3378.842480357601,-456.7974270094294) " id="svg_15">
    <metadata stroke="null" transform="translate(0,0.19108904898166656) translate(-1.132538080215454,0) translate(-1.132538080215454,0) translate(-1.132538080215454,0) translate(1.132538080215454,0) translate(1.132538080215454,0) translate(1.132538080215454,0) translate(1.132538080215454,0) translate(1.132538080215454,0) translate(1.132538080215454,0) translate(1.132538080215454,0) translate(1.132538080215454,0) translate(1.132538080215454,0) translate(1.132538080215454,0) translate(1.132538080215454,0) translate(1.132538080215454,0) translate(1.132538080215454,0) translate(1.132538080215454,0) translate(1.132538080215454,0) translate(1.132538080215454,0) translate(1.132538080215454,0) translate(1.132538080215454,0) translate(1.132538080215454,0) translate(1.132538080215454,0) translate(1.132538080215454,0) translate(1.132538080215454,0) translate(1.132538080215454,0) translate(1.132538080215454,0) translate(1.132538080215454,0) translate(1.132538080215454,0) translate(1.132538080215454,0) translate(1.132538080215454,0) translate(1.132538080215454,0) translate(1.132538080215454,0) translate(1.132538080215454,0) translate(1.132538080215454,0) translate(1.132538080215454,0) translate(1.132538080215454,0) translate(1.132538080215454,0) translate(1.132538080215454,0) translate(1.132538080215454,0) translate(1.132538080215454,0) translate(1.132538080215454,0) translate(1.132538080215454,0) translate(1.132538080215454,0) translate(1.132538080215454,0) translate(1.132538080215454,0) translate(1.132538080215454,0) translate(1.132538080215454,0) translate(1.132538080215454,0) translate(1.132538080215454,0) translate(1.132538080215454,0) translate(1.132538080215454,0) translate(1.132538080215454,0) translate(1.132538080215454,0) translate(1.132538080215454,0) translate(1.132538080215454,0) translate(1.132538080215454,0) translate(1.132538080215454,0) translate(1.132538080215454,0) translate(1.132538080215454,0) translate(1.132538080215454,0) translate(1.132538080215454,0) translate(1.132538080215454,0) translate(1.132538080215454,0) translate(1.132538080215454,0) translate(1.132538080215454,0) translate(1.132538080215454,0) translate(1.132538080215454,0) translate(1.132538080215454,0) translate(1.132538080215454,0) translate(1.132538080215454,0) translate(1.132538080215454,0) translate(1.132538080215454,0) translate(1.132538080215454,0) translate(1.132538080215454,0) translate(1.132538080215454,0) translate(1.132538080215454,0) translate(1.132538080215454,0) translate(1.132538080215454,0) translate(0,-1.132538080215454) translate(0,1.132538080215454) translate(0,1.132538080215454) translate(0,-1.132538080215454) translate(0,22.083629608154297) translate(-100.94700622558594,-100.94700622558594) translate(4241.171875,0) translate(0,597.1141967773438) " id="svg_16"/>
    <path stroke="null" id="svg_18" d="m4292.340149,637.161909l53.83,-111.78c3.59,-7.81 0.44,-7.62 -4.78,-6.09l-118.49,38.24l29.23,33.52l49.45,-32.49l-37.9,45.74l28.66,32.86z" class="fil0"/>
   </g>
  </g>
  <defs>
   <style type="text/css">
    <![CDATA[
    .fil0 {fill:#191919}
   ]]>
   </style>
  </defs>
  <g stroke="null" id="svg_28">
   <g stroke="null" transform="matrix(0.8987398011131352,0,0,0.8987398011131352,-2976.380027194973,-412.66323803436535) " id="svg_24">
    <metadata stroke="null" transform="translate(4.547473508864641e-13,0.1633460372686386) translate(1.1126691102981567,0) translate(1.1126691102981567,0) translate(1.1126691102981567,0) translate(1.1126691102981567,0) translate(1.1126691102981567,0) translate(1.1126691102981567,0) translate(1.1126691102981567,0) translate(1.1126691102981567,0) translate(1.1126691102981567,0) translate(1.1126691102981567,0) translate(1.1126691102981567,0) translate(1.1126691102981567,0) translate(1.1126691102981567,0) translate(1.1126691102981567,0) translate(1.1126691102981567,0) translate(1.1126691102981567,0) translate(1.1126691102981567,0) translate(1.1126691102981567,0) translate(1.1126691102981567,0) translate(1.1126691102981567,0) translate(1.1126691102981567,0) translate(1.1126691102981567,0) translate(1.1126691102981567,0) translate(1.1126691102981567,0) translate(1.1126691102981567,0) translate(1.1126691102981567,0) translate(1.1126691102981567,0) translate(1.1126691102981567,0) translate(1.1126691102981567,0) translate(1.1126691102981567,0) translate(1.1126691102981567,0) translate(1.1126691102981567,0) translate(1.1126691102981567,0) translate(1.1126691102981567,0) translate(1.1126691102981567,0) translate(1.1126691102981567,0) translate(1.1126691102981567,0) translate(1.1126691102981567,0) translate(1.1126691102981567,0) translate(1.1126691102981567,0) translate(1.1126691102981567,0) translate(1.1126691102981567,0) translate(1.1126691102981567,0) translate(1.1126691102981567,0) translate(1.1126691102981567,0) translate(1.1126691102981567,0) translate(1.1126691102981567,0) translate(1.1126691102981567,0) translate(1.1126691102981567,0) translate(1.1126691102981567,0) translate(1.1126691102981567,0) translate(1.1126691102981567,0) translate(1.1126691102981567,0) translate(1.1126691102981567,0) translate(1.1126691102981567,0) translate(1.1126691102981567,0) translate(1.1126691102981567,0) translate(1.1126691102981567,0) translate(1.1126691102981567,0) translate(1.1126691102981567,0) translate(1.1126691102981567,0) translate(1.1126691102981567,0) translate(1.1126691102981567,0) translate(1.1126691102981567,0) translate(1.1126691102981567,0) translate(1.1126691102981567,0) translate(1.1126691102981567,0) translate(1.1126691102981567,0) translate(1.1126691102981567,0) translate(1.1126691102981567,0) translate(1.1126691102981567,0) translate(1.1126691102981567,0) translate(1.1126691102981567,0) translate(1.1126691102981567,0) translate(1.1126691102981567,0) translate(1.1126691102981567,0) translate(1.1126691102981567,0) translate(1.1126691102981567,0) translate(1.1126691102981567,0) translate(1.1126691102981567,0) translate(1.1126691102981567,0) translate(1.1126691102981567,0) translate(1.1126691102981567,0) translate(1.1126691102981567,0) translate(1.1126691102981567,0) translate(1.1126691102981567,0) translate(1.1126691102981567,0) translate(1.1126691102981567,0) translate(1.1126691102981567,0) translate(1.1126691102981567,0) translate(1.1126691102981567,0) translate(1.1126691102981567,0) translate(1.1126691102981567,0) translate(4.547473508864641e-13,1.1126691102981567) translate(4.547473508864641e-13,-1.1126691102981567) translate(4.547473508864641e-13,-1.1126691102981567) translate(4.547473508864641e-13,1.1126691102981567) translate(1.1126691102981567,0) translate(1.1126691102981567,0) translate(1.1126691102981567,0) translate(1.1126691102981567,0) translate(1.1126691102981567,0) translate(1.1126691102981567,0) translate(1.1126691102981567,0) translate(123.50627136230469,-52.295448303222656) translate(3696.516357421875,0) translate(0,512.505859375) " id="svg_25"/>
    <path stroke="null" id="svg_27" d="m3942.44954,563.973757c0,7.03 5.75,12.78 12.78,12.78l42.41,0c7.03,0 12.78,-5.75 12.78,-12.78l3.54,-67.76l-76.65,0l5.14,67.76zm74.35,-95.8l-21.49,0l-6.39,-7.8l-25.2,0l-6.39,7.8l-22.14,0l-3.91,16.57l89.42,0l-3.91,-16.57l0.01,0z" class="fil0"/>
   </g>
  </g>
 </g>
</svg>