<?xml version="1.0" encoding="UTF-8"?>
<!DOCTYPE svg PUBLIC "-//W3C//DTD SVG 1.1//EN" "http://www.w3.org/Graphics/SVG/1.1/DTD/svg11.dtd">
<!-- Creator: CorelDRAW X8 -->
<svg xmlns="http://www.w3.org/2000/svg" xml:space="preserve" width="0.348157in" height="37.108in" version="1.1" style="shape-rendering:geometricPrecision; text-rendering:geometricPrecision; image-rendering:optimizeQuality; fill-rule:evenodd; clip-rule:evenodd"
viewBox="0 0 293 31180"
 xmlns:xlink="http://www.w3.org/1999/xlink"
 enable-background="new 0 0 512 512">
 <defs>
  <style type="text/css">
   <![CDATA[
    .str4 {stroke:#282829;stroke-width:1.16776}
    .str3 {stroke:#5F6368;stroke-width:1.16776}
    .str2 {stroke:black;stroke-width:2.33552}
    .str1 {stroke:#5493FF;stroke-width:2.33552}
    .str0 {stroke:#5F6368;stroke-width:2.33552}
    .str7 {stroke:black;stroke-width:5.83549}
    .str6 {stroke:#5493FF;stroke-width:5.83549}
    .str5 {stroke:#5F6368;stroke-width:5.83549}
    .fil4 {fill:#373435}
    .fil9 {fill:#282829}
    .fil8 {fill:black}
    .fil2 {fill:#5493FF}
    .fil7 {fill:#5493FF}
    .fil0 {fill:#5F6368}
    .fil6 {fill:#5F6368}
    .fil5 {fill:#373435;fill-rule:nonzero}
    .fil3 {fill:#5493FF;fill-rule:nonzero}
    .fil1 {fill:#5F6368;fill-rule:nonzero}
   ]]>
  </style>
 </defs>
 <g id="Layer_x0020_1">
  <metadata id="CorelCorpID_0Corel-Layer"/>
  <path class="fil0" d="M37 4158c-1,4 -5,6 -8,4 -4,-1 -6,-5 -5,-8 5,-14 13,-25 24,-33 3,-2 6,-3 8,-5l0 0c0,-9 4,-16 9,-22 6,-5 13,-9 22,-9 8,0 16,4 21,9 6,6 9,13 9,22 0,8 -3,16 -9,21 -5,6 -13,9 -21,9 -9,0 -16,-3 -22,-9 -2,-2 -4,-4 -5,-7 -1,1 -2,2 -4,2 -8,7 -15,15 -19,26zm62 -54c-3,-3 -8,-5 -12,-5 -5,0 -9,2 -12,5 -3,3 -5,7 -5,12 0,4 2,8 5,11 3,4 7,5 12,5 4,0 9,-1 12,-5 3,-3 5,-7 5,-11 0,-5 -2,-9 -5,-12zm-68 66c9,0 16,3 22,9 5,5 9,13 9,21 0,6 -2,12 -6,17 4,2 7,4 11,6 6,2 13,4 20,4 3,0 7,-1 10,-1l0 0c3,-1 7,-2 10,-3 3,-2 7,0 9,4 1,3 0,7 -4,9 -4,1 -8,2 -12,3l-1 0c-4,1 -8,2 -12,2 -9,0 -17,-2 -25,-5 -6,-3 -11,-6 -16,-10 -4,3 -9,4 -15,4 -8,0 -15,-3 -21,-9 -5,-5 -9,-13 -9,-21 0,-8 4,-16 9,-21 6,-6 13,-9 21,-9zm12 18c-3,-3 -7,-4 -12,-4 -4,0 -8,1 -11,4 -3,3 -5,7 -5,12 0,5 2,9 5,12 3,3 7,4 11,4 5,0 9,-1 12,-4 3,-3 5,-7 5,-12 0,-5 -2,-9 -5,-12zm109 -20c5,1 8,4 11,7 6,5 9,13 9,21 0,9 -3,16 -9,22 -5,5 -13,9 -21,9 -9,0 -16,-4 -22,-9 -5,-6 -9,-13 -9,-22 0,-8 4,-16 9,-21 5,-5 11,-8 18,-9 0,-4 -1,-7 -3,-10 -2,-6 -6,-12 -10,-17 -3,-3 -2,-7 0,-10 3,-2 8,-2 10,1 6,6 10,13 13,21 2,5 4,11 4,17zm2 16c-3,-3 -8,-4 -12,-4 -5,0 -9,1 -12,4 -3,3 -5,8 -5,12 0,5 2,9 5,12 3,3 7,5 12,5 4,0 9,-2 12,-5 3,-3 4,-7 4,-12 0,-4 -1,-9 -4,-12z"/>
  <g id="_1480317202352">
   <path class="fil0" d="M137 56l7 6 -7 5 0 -11zm-116 0l0 11 -6 -5 6 -6zm51 -42c4,-3 10,-3 14,0l4 4 -22 0 4 -4zm-40 11l94 0 0 50 -40 30c-4,3 -9,3 -13,0l-41 -30 0 -50zm114 116c0,6 -5,10 -11,10l-112 0c-6,0 -10,-4 -10,-10l0 -66 56 42c6,5 14,5 21,0l56 -42 0 66zm-9 -100l18 16c1,0 1,1 2,2 0,1 0,2 0,3l0 1 0 79c0,6 -2,11 -6,15 -4,4 -9,6 -15,6l-114 0c-6,0 -11,-2 -15,-6 -3,-4 -6,-9 -6,-15l0 -79 0 -1c0,-1 0,-2 1,-3 0,-1 1,-2 1,-2l18 -15 0 -1 0 -21c0,-2 1,-4 2,-5 2,-1 3,-1 5,-1l27 0 11 -9c4,-3 8,-5 13,-5 5,0 10,2 13,5l11 9 27 0c2,0 3,0 5,1 1,1 2,3 2,5l0 21z"/>
   <path class="fil0" d="M101 56l-44 0c-2,0 -3,2 -3,3 0,2 1,4 3,4l44 0c2,0 3,-2 3,-4 0,-1 -1,-3 -3,-3z"/>
   <path class="fil0" d="M101 72l-44 0c-2,0 -3,1 -3,3 0,2 1,3 3,3l44 0c2,0 4,-1 4,-3 0,-2 -2,-3 -4,-3z"/>
   <path class="fil0" d="M79 40l-22 0c-2,0 -3,2 -3,4 0,1 1,3 3,3l22 0c2,0 4,-2 4,-3 0,-2 -2,-4 -4,-4z"/>
  </g>
  <path class="fil0" d="M88 1390c20,40 5,30 49,36 3,0 6,2 8,4 2,2 3,4 4,6 0,2 0,4 0,6 0,3 -2,6 -4,8 -32,31 -26,14 -19,58 1,3 0,6 -1,9 -1,2 -3,4 -4,5 -2,1 -4,2 -6,2 -3,1 -6,0 -9,-1l-31 -16 0 0 -30 16c-3,1 -6,2 -9,1 -2,0 -4,-1 -6,-2 -2,-1 -3,-3 -4,-5 -2,-3 -2,-6 -2,-9 8,-44 13,-27 -19,-58 -2,-2 -3,-5 -4,-8 0,-2 0,-4 1,-6 1,-2 2,-4 3,-6 2,-2 5,-4 8,-4 44,-6 30,4 49,-36 2,-3 4,-5 7,-6 2,-1 4,-2 6,-2 2,0 5,1 7,2 2,1 4,3 6,6zm3 37l-16 -31 0 0 -15 31c-1,2 -3,4 -5,5 -1,2 -4,3 -6,3l-34 5 0 0 25 24c1,2 3,4 3,6 1,2 1,4 1,7l-6 33 0 1 31 -16c2,-1 4,-2 6,-2 2,0 5,1 7,2l30 16 0 -1 -5 -33c-1,-3 -1,-5 0,-7 1,-2 2,-4 4,-6l24 -24 0 0 -34 -5c-2,0 -4,-1 -6,-3 -2,-1 -3,-3 -4,-5z"/>
  <path class="fil1" d="M40 2702l76 0c2,0 4,1 5,3l37 37c2,1 2,3 2,5l0 81c0,4 -3,7 -7,7l-113 0c-4,0 -7,-3 -7,-7l0 -119c0,-3 3,-7 7,-7zm33 84l45 0 0 7 -45 0 0 -7zm0 -15l45 0 0 7 -45 0 0 -7zm55 73l0 15c0,3 -3,7 -7,7l-113 0c-4,0 -7,-4 -7,-7l0 -119c0,-4 3,-7 7,-7l16 0 0 14 -9 0 0 105 99 0 0 -8 14 0zm18 -88l-35 0c-2,0 -4,-2 -4,-5l0 -35 -60 0 0 105 99 0 0 -65zm-31 -9l28 0 -28 -27 0 27z"/>
  <path class="fil2" d="M37 4611c-1,4 -5,6 -8,5 -4,-2 -6,-5 -5,-9 5,-13 13,-25 24,-33 3,-1 6,-3 8,-4l0 -1c0,-8 4,-16 9,-22 6,-5 13,-9 22,-9 8,0 16,4 21,9 6,6 9,14 9,22 0,8 -3,16 -9,22 -5,5 -13,8 -21,8 -9,0 -16,-3 -22,-8 -2,-3 -4,-5 -5,-8 -1,1 -2,2 -4,3 -8,6 -15,15 -19,25zm62 -54c-3,-3 -8,-5 -12,-5 -5,0 -9,2 -12,5 -3,3 -5,7 -5,12 0,5 2,9 5,12 3,3 7,5 12,5 4,0 9,-2 12,-5 3,-3 5,-7 5,-12 0,-5 -2,-9 -5,-12zm-68 66c9,0 16,3 22,9 5,5 9,13 9,21 0,7 -2,12 -6,17 4,3 7,5 11,6 6,3 13,4 20,4 3,0 7,0 10,-1l0 0c3,-1 7,-2 10,-3 3,-1 7,0 9,4 1,3 0,7 -4,9 -4,1 -8,3 -12,4l-1 0c-4,0 -8,1 -12,1 -9,0 -17,-2 -25,-5 -6,-2 -11,-5 -16,-9 -4,2 -9,4 -15,4 -8,0 -15,-4 -21,-9 -5,-6 -9,-13 -9,-22 0,-8 4,-16 9,-21 6,-6 13,-9 21,-9zm12 19c-3,-3 -7,-5 -12,-5 -4,0 -8,2 -11,5 -3,3 -5,7 -5,11 0,5 2,9 5,12 3,3 7,5 11,5 5,0 9,-2 12,-5 3,-3 5,-7 5,-12 0,-4 -2,-8 -5,-11zm109 -21c5,1 8,4 11,7 6,5 9,13 9,21 0,9 -3,16 -9,22 -5,5 -13,9 -21,9 -9,0 -16,-4 -22,-9 -5,-6 -9,-13 -9,-22 0,-8 4,-16 9,-21 5,-5 11,-8 18,-9 0,-3 -1,-7 -3,-10 -2,-6 -6,-12 -10,-16 -3,-3 -2,-8 0,-10 3,-3 8,-3 10,0 6,6 10,13 13,21 2,5 4,11 4,17zm2 17c-3,-3 -8,-5 -12,-5 -5,0 -9,2 -12,5 -3,3 -5,7 -5,11 0,5 2,9 5,12 3,3 7,5 12,5 4,0 9,-2 12,-5 3,-3 4,-7 4,-12 0,-4 -1,-8 -4,-11z"/>
  <g id="_1480317194448">
   <path class="fil2" d="M137 517l7 6 -7 5 0 -11zm-116 0l0 11 -6 -5 6 -6zm51 -42c4,-4 10,-3 14,0l4 4 -22 0 4 -4zm-40 11l94 0 0 50 -40 30c-4,3 -9,3 -13,0l-41 -30 0 -50zm114 116c0,6 -5,10 -11,10l-112 0c-6,0 -10,-4 -10,-10l0 -66 56 42c6,5 14,5 21,0l56 -42 0 66zm-9 -100l18 16c1,0 1,1 2,2 0,1 0,2 0,3l0 1 0 79c0,6 -2,11 -6,15 -4,3 -9,6 -15,6l-114 0c-6,0 -11,-3 -15,-6 -3,-4 -6,-9 -6,-15l0 -79 0 -1c0,-1 0,-2 1,-3 0,-1 1,-2 1,-2l18 -15 0 -1 0 -21c0,-2 1,-4 2,-5 2,-1 3,-2 5,-2l27 0 11 -8c4,-4 8,-5 13,-5 5,0 10,1 13,5l11 8 27 0c2,0 3,1 5,2 1,1 2,3 2,5l0 21z"/>
   <path class="fil2" d="M101 517l-44 0c-2,0 -3,2 -3,3 0,2 1,3 3,3l44 0c2,0 3,-1 3,-3 0,-1 -1,-3 -3,-3z"/>
   <path class="fil2" d="M101 533l-44 0c-2,0 -3,1 -3,3 0,1 1,3 3,3l44 0c2,0 4,-2 4,-3 0,-2 -2,-3 -4,-3z"/>
   <path class="fil2" d="M79 501l-22 0c-2,0 -3,2 -3,3 0,2 1,3 3,3l22 0c2,0 4,-1 4,-3 0,-1 -2,-3 -4,-3z"/>
  </g>
  <path class="fil2" d="M88 1830c20,40 5,30 49,36 3,0 6,2 8,4 2,2 3,4 4,6 0,2 0,4 0,6 0,3 -2,6 -4,8 -32,31 -26,14 -19,58 1,3 0,6 -1,9 -1,2 -3,4 -4,5 -2,1 -4,2 -6,2 -3,1 -6,0 -9,-1l-31 -16 0 0 -30 16c-3,1 -6,2 -9,1 -2,0 -4,-1 -6,-2 -2,-1 -3,-3 -4,-5 -2,-3 -2,-6 -2,-9 8,-44 13,-27 -19,-58 -2,-2 -3,-5 -4,-8 0,-2 0,-4 1,-6 1,-2 2,-4 3,-6 2,-2 5,-4 8,-4 44,-6 30,4 49,-36 2,-3 4,-5 7,-6 2,-1 4,-2 6,-2 2,0 5,1 7,2 2,1 4,3 6,6zm3 37l-16 -31 0 0 -15 31c-1,2 -3,4 -5,5 -1,2 -4,3 -6,3l-34 5 0 0 25 24c1,2 3,4 3,6 1,2 1,4 1,7l-6 33 0 1 31 -16c2,-1 4,-2 6,-2 2,0 5,1 7,2l30 16 0 -1 -5 -33c-1,-3 -1,-5 0,-7 1,-2 2,-4 4,-6l24 -24 0 0 -34 -5c-2,0 -4,-1 -6,-3 -2,-1 -3,-3 -4,-5z"/>
  <path class="fil3" d="M40 3163l76 0c2,0 4,1 5,3l37 37c2,1 2,3 2,5l0 81c0,3 -3,7 -7,7l-113 0c-4,0 -7,-4 -7,-7l0 -119c0,-4 3,-7 7,-7zm33 84l45 0 0 7 -45 0 0 -7zm0 -15l45 0 0 7 -45 0 0 -7zm55 73l0 14c0,4 -3,7 -7,7l-113 0c-4,0 -7,-3 -7,-7l0 -118c0,-4 3,-7 7,-7l16 0 0 14 -9 0 0 104 99 0 0 -7 14 0zm18 -88l-35 0c-2,0 -4,-2 -4,-5l0 -35 -60 0 0 105 99 0 0 -65zm-31 -9l28 0 -28 -28 0 28z"/>
  <path class="fil4" d="M37 5065c-1,3 -5,5 -8,4 -4,-1 -6,-5 -5,-9 5,-13 13,-24 24,-32 3,-2 6,-4 8,-5l0 -1c0,-8 4,-16 9,-21 6,-6 13,-9 22,-9 8,0 16,3 21,9 6,5 9,13 9,21 0,9 -3,16 -9,22 -5,5 -13,9 -21,9 -9,0 -16,-4 -22,-9 -2,-2 -4,-5 -5,-7 -1,0 -2,1 -4,2 -8,6 -15,15 -19,26zm62 -55c-3,-3 -8,-4 -12,-4 -5,0 -9,1 -12,4 -3,3 -5,8 -5,12 0,5 2,9 5,12 3,3 7,5 12,5 4,0 9,-2 12,-5 3,-3 5,-7 5,-12 0,-4 -2,-9 -5,-12zm-68 66c9,0 16,4 22,9 5,6 9,13 9,22 0,6 -2,12 -6,17 4,2 7,4 11,5 6,3 13,4 20,4 3,0 7,0 10,-1l0 0c3,0 7,-1 10,-3 3,-1 7,1 9,4 1,4 0,8 -4,9 -4,2 -8,3 -12,4l-1 0c-4,1 -8,1 -12,1 -9,0 -17,-2 -25,-5 -6,-2 -11,-5 -16,-9 -4,2 -9,4 -15,4 -8,0 -15,-4 -21,-9 -5,-6 -9,-13 -9,-21 0,-9 4,-16 9,-22 6,-5 13,-9 21,-9zm12 19c-3,-3 -7,-5 -12,-5 -4,0 -8,2 -11,5 -3,3 -5,7 -5,12 0,4 2,8 5,11 3,3 7,5 11,5 5,0 9,-2 12,-5 3,-3 5,-7 5,-11 0,-5 -2,-9 -5,-12zm109 -21c5,2 8,4 11,7 6,6 9,13 9,22 0,8 -3,16 -9,21 -5,6 -13,9 -21,9 -9,0 -16,-3 -22,-9 -5,-5 -9,-13 -9,-21 0,-9 4,-16 9,-22 5,-4 11,-8 18,-8 0,-4 -1,-7 -3,-11 -2,-6 -6,-11 -10,-16 -3,-3 -2,-7 0,-10 3,-3 8,-2 10,0 6,6 10,14 13,21 2,6 4,11 4,17zm2 17c-3,-3 -8,-5 -12,-5 -5,0 -9,2 -12,5 -3,3 -5,7 -5,12 0,4 2,8 5,11 3,3 7,5 12,5 4,0 9,-2 12,-5 3,-3 4,-7 4,-11 0,-5 -1,-9 -4,-12z"/>
  <g id="_1480317198288">
   <path class="fil4" d="M137 978l7 6 -7 5 0 -11zm-116 0l0 11 -6 -6 6 -5zm51 -43c4,-3 10,-3 14,1l4 3 -22 0 4 -4zm-40 11l94 0 0 51 -40 30c-4,3 -9,3 -13,0l-41 -30 0 -51zm114 116c0,6 -5,11 -11,11l-112 0c-6,0 -10,-5 -10,-11l0 -65 56 42c6,5 14,5 21,0l56 -42 0 65zm-9 -99l18 15c1,1 1,2 2,3 0,0 0,1 0,2l0 1 0 80c0,5 -2,11 -6,14 -4,4 -9,7 -15,7l-114 0c-6,0 -11,-3 -15,-7 -3,-3 -6,-9 -6,-14l0 -79 0 -2c0,-1 0,-2 1,-2 0,-1 1,-2 1,-3l18 -15 0 0 0 -22c0,-1 1,-3 2,-4 2,-1 3,-2 5,-2l27 0 11 -9c4,-3 8,-4 13,-4 5,0 10,1 13,4l11 9 27 0c2,0 3,1 5,2 1,1 2,3 2,4l0 22z"/>
   <path class="fil4" d="M101 978l-44 0c-2,0 -3,1 -3,3 0,2 1,3 3,3l44 0c2,0 3,-1 3,-3 0,-2 -1,-3 -3,-3z"/>
   <path class="fil4" d="M101 993l-44 0c-2,0 -3,2 -3,3 0,2 1,4 3,4l44 0c2,0 4,-2 4,-4 0,-1 -2,-3 -4,-3z"/>
   <path class="fil4" d="M79 962l-22 0c-2,0 -3,1 -3,3 0,2 1,3 3,3l22 0c2,0 4,-1 4,-3 0,-2 -2,-3 -4,-3z"/>
  </g>
  <path class="fil4" d="M88 2270c20,40 5,30 49,36 3,0 6,2 8,4 2,2 3,4 4,6 0,2 0,4 0,6 0,3 -2,6 -4,8 -32,31 -26,14 -19,58 1,3 0,6 -1,9 -1,2 -3,4 -4,5 -2,1 -4,2 -6,2 -3,1 -6,1 -9,-1l-31 -16 0 0 -30 16c-3,2 -6,2 -9,1 -2,0 -4,-1 -6,-2 -2,-1 -3,-3 -4,-5 -2,-3 -2,-6 -2,-9 8,-44 13,-27 -19,-58 -2,-2 -3,-5 -4,-8 0,-2 0,-4 1,-6 1,-2 2,-4 3,-6 2,-2 5,-4 8,-4 44,-6 30,4 49,-36 2,-3 4,-5 7,-6 2,-1 4,-2 6,-2 2,0 5,1 7,2 2,1 4,3 6,6zm3 37l-16 -31 0 0 -15 31c-1,2 -3,4 -5,5 -1,2 -4,3 -6,3l-34 5 0 0 25 24c1,2 3,4 3,6 1,2 1,4 1,7l-6 33 0 1 31 -16c2,-1 4,-2 6,-2 2,0 5,1 7,2l30 16 0 -1 -5 -33c-1,-3 -1,-5 0,-7 1,-2 2,-4 4,-6l24 -24 0 0 -34 -5c-2,0 -4,-1 -6,-3 -2,-1 -3,-3 -4,-5z"/>
  <path class="fil5" d="M40 3624l76 0c2,0 4,1 5,2l37 38c2,1 2,3 2,5l0 81c0,3 -3,7 -7,7l-113 0c-4,0 -7,-4 -7,-7l0 -119c0,-4 3,-7 7,-7zm33 84l45 0 0 7 -45 0 0 -7zm0 -15l45 0 0 7 -45 0 0 -7zm55 73l0 14c0,4 -3,7 -7,7l-113 0c-4,0 -7,-3 -7,-7l0 -118c0,-4 3,-7 7,-7l16 0 0 14 -9 0 0 104 99 0 0 -7 14 0zm18 -89l-35 0c-2,0 -4,-1 -4,-4l0 -35 -60 0 0 105 99 0 0 -66zm-31 -8l28 0 -28 -28 0 28z"/>
  <g id="_1480317199632">
   <g>
    <g>
     <path class="fil6" d="M136 5451c-4,-4 -10,-6 -16,-6l-96 0 0 0c-6,0 -12,2 -16,6 -4,3 -7,8 -7,13l0 168c0,4 2,8 5,12 4,4 11,6 18,4 5,-3 10,-6 13,-11l35 -46 35 46c3,5 7,8 13,11 7,2 14,0 18,-4 3,-4 5,-8 5,-12l0 -168c0,-5 -3,-10 -7,-13zm-7 187c0,0 -1,1 -2,1 -1,0 -2,0 -3,0 -3,-2 -6,-4 -8,-7l-39 -52c-1,-1 -1,-1 -2,-2 -3,-1 -6,0 -8,2l-40 52c-1,3 -4,5 -7,7 -1,0 -2,0 -3,0 -1,0 -2,-1 -2,-1 -2,-2 -2,-4 -2,-6l0 -168c0,-5 5,-9 11,-9l48 0 48 0c6,0 11,4 11,9l0 168c0,2 -1,4 -2,6z"/>
    </g>
   </g>
   <g>
   </g>
   <g>
   </g>
   <g>
   </g>
   <g>
   </g>
   <g>
   </g>
   <g>
   </g>
   <g>
   </g>
   <g>
   </g>
   <g>
   </g>
   <g>
   </g>
   <g>
   </g>
   <g>
   </g>
   <g>
   </g>
   <g>
   </g>
   <g>
   </g>
  </g>
  <g id="_1480314714960">
   <g>
    <g>
     <path class="fil7" d="M136 5952c-4,-4 -10,-6 -16,-6l-96 0 0 0c-6,0 -12,2 -16,6 -4,3 -7,8 -7,13l0 168c0,5 2,9 5,12 4,4 11,6 18,4 5,-2 10,-6 13,-10l35 -46 35 46c3,4 7,8 13,10 7,2 14,0 18,-4 3,-3 5,-7 5,-12l0 -168c0,-5 -3,-10 -7,-13zm-7 187c0,0 -1,1 -2,1 -1,0 -2,0 -3,0 -3,-1 -6,-4 -8,-6l-39 -53c-1,0 -1,-1 -2,-1 -3,-2 -6,-1 -8,1l-40 53c-1,2 -4,5 -7,6 -1,0 -2,0 -3,0 -1,0 -2,0 -2,-1 -2,-2 -2,-4 -2,-6l0 -168c0,-5 5,-9 11,-9l48 0 48 0c6,0 11,4 11,9l0 168c0,2 -1,4 -2,6z"/>
    </g>
   </g>
   <g>
   </g>
   <g>
   </g>
   <g>
   </g>
   <g>
   </g>
   <g>
   </g>
   <g>
   </g>
   <g>
   </g>
   <g>
   </g>
   <g>
   </g>
   <g>
   </g>
   <g>
   </g>
   <g>
   </g>
   <g>
   </g>
   <g>
   </g>
   <g>
   </g>
  </g>
  <g id="_1480326410640">
   <g>
    <g>
     <path class="fil8" d="M136 6453c-4,-3 -10,-5 -16,-5l-96 0 0 0c-6,0 -12,2 -16,5 -4,4 -7,9 -7,14l0 168c0,4 2,8 5,11 4,5 11,6 18,4 5,-2 10,-5 13,-10l35 -46 35 46c3,5 7,8 13,10 7,2 14,1 18,-4 3,-3 5,-7 5,-11l0 -168c0,-5 -3,-10 -7,-14zm-7 187c0,1 -1,1 -2,2 -1,0 -2,0 -3,-1 -3,-1 -6,-3 -8,-6l-39 -52c-1,-1 -1,-2 -2,-2 -3,-1 -6,-1 -8,2l-40 52c-1,3 -4,5 -7,6 -1,1 -2,1 -3,1 -1,-1 -2,-1 -2,-2 -2,-1 -2,-3 -2,-5l0 -168c0,-6 5,-10 11,-10l48 0 48 0c6,0 11,4 11,10l0 168c0,2 -1,4 -2,5z"/>
    </g>
   </g>
   <g>
   </g>
   <g>
   </g>
   <g>
   </g>
   <g>
   </g>
   <g>
   </g>
   <g>
   </g>
   <g>
   </g>
   <g>
   </g>
   <g>
   </g>
   <g>
   </g>
   <g>
   </g>
   <g>
   </g>
   <g>
   </g>
   <g>
   </g>
   <g>
   </g>
  </g>
  <g id="_1480326415760">
   <path class="fil6 str0" d="M192 6949l-92 0c-8,0 -15,7 -15,15l0 10 -69 0c-8,0 -15,7 -15,15l0 7c0,2 2,4 4,4 3,0 4,-2 4,-4l0 -7c0,-4 3,-7 7,-7l92 0c4,0 7,3 7,7l0 62c0,4 -3,7 -7,7l-40 0c-1,0 -2,1 -3,1l-14 17 -16 -17c-1,-1 -2,-1 -3,-1l-16 0c-4,0 -7,-3 -7,-7l0 -23c0,-2 -1,-4 -4,-4 -2,0 -4,2 -4,4l0 23c0,8 7,15 15,15l14 0 18 19c1,1 2,1 3,1 0,0 0,0 0,0 1,0 2,0 3,-1l16 -18 0 17c0,8 6,15 15,15l13 0 18 19c1,0 2,1 3,1l0 0c2,0 3,-1 3,-2l17 -18 37 0c8,0 15,-7 15,-15l0 -43 1 0c8,0 15,-6 15,-15l0 -62c0,-8 -7,-15 -15,-15zm-9 135c0,3 -3,7 -7,7l-39 0c-1,0 -2,0 -3,1l-15 17 -16 -17c-1,-1 -2,-1 -3,-1l-15 0c-4,0 -7,-4 -7,-7l0 -18 30 0c8,0 15,-7 15,-15l0 -10 15 0 16 19c1,1 2,2 3,2 0,0 0,0 0,0 1,0 2,-1 3,-2l18 -19 5 0 0 43zm16 -58c0,4 -3,7 -7,7l-16 0c-1,0 -2,1 -2,2l-17 16 -14 -16c-1,-1 -2,-2 -3,-2l-17 0 0 -44c0,-8 -7,-15 -15,-15l-15 0 0 -10c0,-4 3,-7 7,-7l92 0c4,0 7,3 7,7l0 62zm0 0z"/>
   <path class="fil6 str0" d="M4 7016l0 0c1,0 1,0 1,0 2,0 4,-1 4,-3 1,-2 0,-4 -3,-5l0 0c-2,0 -4,1 -5,3 0,2 1,4 3,5l0 0zm0 0z"/>
   <path class="fil6 str0" d="M135 7002l0 0c0,0 1,0 1,0 2,0 3,-1 4,-3 0,-2 -1,-4 -3,-5l0 0c-2,-1 -4,1 -5,3 -1,2 0,4 3,5l0 0zm0 0z"/>
   <path class="fil6 str0" d="M182 6976l-46 0c-2,0 -4,2 -4,4 0,2 2,4 4,4l46 0c3,0 5,-2 5,-4 0,-2 -2,-4 -5,-4zm0 0z"/>
   <path class="fil6 str0" d="M182 6993l-30 0c-2,0 -4,2 -4,4 0,3 2,5 4,5l30 0c3,0 5,-2 5,-5 0,-2 -2,-4 -5,-4zm0 0z"/>
   <path class="fil6 str0" d="M182 7011l-46 0c-2,0 -4,2 -4,4 0,2 2,4 4,4l46 0c3,0 5,-2 5,-4 0,-2 -2,-4 -5,-4zm0 0z"/>
  </g>
  <g id="_1480326417488">
   <path class="fil7 str1" d="M192 7417l-92 0c-8,0 -15,7 -15,15l0 9 -69 0c-8,0 -15,7 -15,16l0 7c0,2 2,4 4,4 3,0 4,-2 4,-4l0 -7c0,-4 3,-7 7,-7l92 0c4,0 7,3 7,7l0 62c0,4 -3,7 -7,7l-40 0c-1,0 -2,0 -3,1l-14 17 -16 -17c-1,-1 -2,-1 -3,-1l-16 0c-4,0 -7,-3 -7,-7l0 -23c0,-2 -1,-4 -4,-4 -2,0 -4,2 -4,4l0 23c0,8 7,15 15,15l14 0 18 19c1,0 2,1 3,1 0,0 0,0 0,0 1,0 2,-1 3,-1l16 -18 0 16c0,9 6,15 15,15l13 0 18 19c1,1 2,2 3,2l0 0c2,0 3,-1 3,-2l17 -19 37 0c8,0 15,-6 15,-15l0 -42 1 0c8,0 15,-7 15,-15l0 -62c0,-8 -7,-15 -15,-15zm-9 134c0,4 -3,7 -7,7l-39 0c-1,0 -2,1 -3,2l-15 16 -16 -16c-1,-1 -2,-2 -3,-2l-15 0c-4,0 -7,-3 -7,-7l0 -17 30 0c8,0 15,-7 15,-15l0 -10 15 0 16 19c1,1 2,1 3,1 0,0 0,0 0,0 1,0 2,0 3,-1l18 -19 5 0 0 42zm16 -57c0,4 -3,7 -7,7l-16 0c-1,0 -2,0 -2,1l-17 17 -14 -17c-1,-1 -2,-1 -3,-1l-17 0 0 -44c0,-9 -7,-16 -15,-16l-15 0 0 -9c0,-4 3,-7 7,-7l92 0c4,0 7,3 7,7l0 62zm0 0z"/>
   <path class="fil7 str1" d="M4 7484l0 0c1,0 1,0 1,0 2,0 4,-1 4,-3 1,-2 0,-4 -3,-5l0 0c-2,-1 -4,1 -5,3 0,2 1,4 3,5l0 0zm0 0z"/>
   <path class="fil7 str1" d="M135 7469l0 0c0,1 1,1 1,1 2,0 3,-2 4,-3 0,-2 -1,-5 -3,-5l0 0c-2,-1 -4,0 -5,2 -1,2 0,5 3,5l0 0zm0 0z"/>
   <path class="fil7 str1" d="M182 7443l-46 0c-2,0 -4,2 -4,5 0,2 2,4 4,4l46 0c3,0 5,-2 5,-4 0,-3 -2,-5 -5,-5zm0 0z"/>
   <path class="fil7 str1" d="M182 7461l-30 0c-2,0 -4,2 -4,4 0,2 2,4 4,4l30 0c3,0 5,-2 5,-4 0,-2 -2,-4 -5,-4zm0 0z"/>
   <path class="fil7 str1" d="M182 7479l-46 0c-2,0 -4,1 -4,4 0,2 2,4 4,4l46 0c3,0 5,-2 5,-4 0,-3 -2,-4 -5,-4zm0 0z"/>
  </g>
  <g id="_1480326420144">
   <path class="fil8 str2" d="M192 7884l-92 0c-8,0 -15,7 -15,16l0 9 -69 0c-8,0 -15,7 -15,15l0 7c0,3 2,5 4,5 3,0 4,-2 4,-5l0 -7c0,-4 3,-7 7,-7l92 0c4,0 7,3 7,7l0 62c0,4 -3,7 -7,7l-40 0c-1,0 -2,1 -3,2l-14 17 -16 -17c-1,-1 -2,-2 -3,-2l-16 0c-4,0 -7,-3 -7,-7l0 -22c0,-3 -1,-5 -4,-5 -2,0 -4,2 -4,5l0 22c0,9 7,15 15,15l14 0 18 19c1,1 2,2 3,2 0,0 0,0 0,0 1,0 2,-1 3,-2l16 -18 0 17c0,8 6,15 15,15l13 0 18 19c1,1 2,1 3,1l0 0c2,0 3,0 3,-1l17 -19 37 0c8,0 15,-7 15,-15l0 -42 1 0c8,0 15,-7 15,-15l0 -62c0,-9 -7,-16 -15,-16zm-9 135c0,4 -3,7 -7,7l-39 0c-1,0 -2,0 -3,1l-15 17 -16 -17c-1,-1 -2,-1 -3,-1l-15 0c-4,0 -7,-3 -7,-7l0 -18 30 0c8,0 15,-6 15,-15l0 -9 15 0 16 19c1,0 2,1 3,1 0,0 0,0 0,0 1,0 2,-1 3,-1l18 -19 5 0 0 42zm16 -57c0,3 -3,7 -7,7l-16 0c-1,0 -2,0 -2,1l-17 17 -14 -17c-1,-1 -2,-1 -3,-1l-17 0 0 -45c0,-8 -7,-15 -15,-15l-15 0 0 -9c0,-4 3,-7 7,-7l92 0c4,0 7,3 7,7l0 62zm0 0z"/>
   <path class="fil8 str2" d="M4 7951l0 0c1,1 1,1 1,1 2,0 4,-2 4,-3 1,-2 0,-5 -3,-5l0 0c-2,-1 -4,0 -5,2 0,2 1,5 3,5l0 0zm0 0z"/>
   <path class="fil8 str2" d="M135 7937l0 0c0,0 1,0 1,0 2,0 3,-1 4,-3 0,-2 -1,-4 -3,-5l0 0c-2,0 -4,1 -5,3 -1,2 0,4 3,5l0 0zm0 0z"/>
   <path class="fil8 str2" d="M182 7911l-46 0c-2,0 -4,2 -4,4 0,2 2,4 4,4l46 0c3,0 5,-2 5,-4 0,-2 -2,-4 -5,-4zm0 0z"/>
   <path class="fil8 str2" d="M182 7929l-30 0c-2,0 -4,2 -4,4 0,2 2,4 4,4l30 0c3,0 5,-2 5,-4 0,-2 -2,-4 -5,-4zm0 0z"/>
   <path class="fil8 str2" d="M182 7946l-46 0c-2,0 -4,2 -4,4 0,3 2,4 4,4l46 0c3,0 5,-1 5,-4 0,-2 -2,-4 -5,-4zm0 0z"/>
  </g>
  <g id="_1480326422352">
   <g>
    <g>
     <path class="fil6 str3" d="M166 8454c-5,-6 -12,-9 -19,-10 -2,-15 -14,-26 -29,-26l-27 0 0 -15c10,-2 17,-11 17,-22 0,-19 -18,-28 -18,-28l-2 -1 -2 1c0,0 -18,9 -18,28 0,11 7,20 17,22l0 15 -26 0c-15,0 -27,11 -29,26 -7,1 -14,4 -19,10 -7,6 -10,14 -10,23l0 9c0,7 4,13 10,16l10 82 135 0 10 -82c6,-3 10,-9 10,-16l0 -9c0,-9 -4,-17 -10,-23zm-92 -73c0,-11 10,-19 14,-21 4,2 14,10 14,21 0,9 -6,15 -14,15 -8,0 -14,-6 -14,-15zm76 196l-19 0 0 -63 -6 0 0 63 -20 0 0 -63 -7 0 0 63 -19 0 0 -63 -7 0 0 63 -20 0 0 -63 -7 0 0 63 -18 0 -9 -74c1,0 1,0 1,0 5,0 10,-2 14,-7 3,5 8,7 14,7 5,0 10,-2 14,-7 3,5 8,7 13,7 6,0 11,-2 14,-7 4,5 9,7 14,7 6,0 11,-2 14,-7 4,5 9,7 14,7 1,0 3,0 4,0 4,-1 8,-3 10,-7 3,4 7,6 11,7 1,0 2,0 3,0 0,0 0,0 0,0l-8 74zm11 -81c0,0 0,0 0,0 0,0 0,0 0,0 -1,0 -1,0 -1,0 0,0 0,0 0,0 0,0 -1,0 -1,0 0,0 0,0 0,0 0,1 0,1 -1,1 -5,0 -10,-5 -10,-11l-7 0c0,6 -5,11 -11,11 -5,0 -10,-5 -10,-11l-7 0c0,6 -5,11 -11,11 -5,0 -10,-5 -10,-11l-7 0c0,6 -5,11 -11,11 -5,0 -10,-5 -10,-11l-7 0c0,6 -5,11 -10,11 -6,0 -11,-5 -11,-11l-7 0c0,6 -5,11 -10,11 -1,0 -1,0 -1,-1 0,0 0,0 0,0 0,0 -1,0 -1,0 0,0 0,0 0,0 0,0 0,0 -1,0 0,0 0,0 0,0 0,0 0,0 0,0 -5,-1 -8,-5 -8,-10l0 -9c0,-7 3,-14 7,-19 5,-4 12,-7 18,-7l1 0 29 0 0 -7 -26 0c2,-11 11,-19 22,-19l59 0c11,0 20,8 22,19l-67 0 0 7 71 0c6,0 13,3 17,7 5,5 8,12 8,19l0 9 0 0c0,5 -3,9 -8,10z"/>
    </g>
   </g>
   <g>
    <g>
     <rect class="fil6 str3" x="38" y="8378" width="20.2547" height="6.89727"/>
    </g>
   </g>
   <g>
    <g>
     <rect class="fil6 str3" x="119" y="8378" width="20.2547" height="6.89727"/>
    </g>
   </g>
   <g>
    <g>
     <rect class="fil6 str3" transform="matrix(0.0300299 -0.0124391 0.0124391 0.0300299 40.7429 8399.14)" width="623" height="212"/>
    </g>
   </g>
   <g>
    <g>
     <rect class="fil6 str3" transform="matrix(0.0300299 -0.0124391 0.0124391 0.0300299 114.835 8364.64)" width="623" height="212"/>
    </g>
   </g>
   <g>
    <g>
     <rect class="fil6 str3" transform="matrix(0.0124391 -0.0300299 0.0300299 0.0124391 114.832 8397.75)" width="212" height="623"/>
    </g>
   </g>
   <g>
    <g>
     <rect class="fil6 str3" transform="matrix(0.0124391 -0.0300299 0.0300299 0.0124391 40.7428 8363.26)" width="212" height="623"/>
    </g>
   </g>
   <g>
   </g>
   <g>
   </g>
   <g>
   </g>
   <g>
   </g>
   <g>
   </g>
   <g>
   </g>
   <g>
   </g>
   <g>
   </g>
   <g>
   </g>
   <g>
   </g>
   <g>
   </g>
   <g>
   </g>
   <g>
   </g>
   <g>
   </g>
   <g>
   </g>
  </g>
  <g id="_1480326429232">
   <g>
    <g>
     <path class="fil7 str1" d="M166 8984c-5,-6 -12,-9 -19,-10 -2,-15 -14,-26 -29,-26l-27 0 0 -16c10,-1 17,-10 17,-21 0,-19 -18,-28 -18,-28l-2 -1 -2 1c0,0 -18,9 -18,28 0,11 7,20 17,21l0 16 -26 0c-15,0 -27,11 -29,26 -7,1 -14,4 -19,10 -7,6 -10,14 -10,22l0 10c0,7 4,13 10,16l10 82 135 0 10 -82c6,-3 10,-9 10,-16l0 -10c0,-8 -4,-16 -10,-22zm-92 -73c0,-11 10,-19 14,-21 4,2 14,9 14,21 0,9 -6,15 -14,15 -8,0 -14,-6 -14,-15zm76 196l-19 0 0 -63 -6 0 0 63 -20 0 0 -63 -7 0 0 63 -19 0 0 -63 -7 0 0 63 -20 0 0 -63 -7 0 0 63 -18 0 -9 -74c1,0 1,0 1,0 5,0 10,-2 14,-7 3,5 8,7 14,7 5,0 10,-2 14,-7 3,5 8,7 13,7 6,0 11,-2 14,-7 4,5 9,7 14,7 6,0 11,-2 14,-7 4,5 9,7 14,7 1,0 3,0 4,0 4,-1 8,-3 10,-7 3,4 7,6 11,7 1,0 2,0 3,0 0,0 0,0 0,0l-8 74zm11 -81c0,0 0,0 0,0 0,0 0,0 0,0 -1,0 -1,0 -1,0 0,0 0,0 0,0 0,0 -1,0 -1,0 0,0 0,0 0,0 0,0 0,0 -1,0 -5,0 -10,-4 -10,-10l-7 0c0,6 -5,10 -11,10 -5,0 -10,-4 -10,-10l-7 0c0,6 -5,10 -11,10 -5,0 -10,-4 -10,-10l-7 0c0,6 -5,10 -11,10 -5,0 -10,-4 -10,-10l-7 0c0,6 -5,10 -10,10 -6,0 -11,-4 -11,-10l-7 0c0,6 -5,10 -10,10 -1,0 -1,0 -1,0 0,0 0,0 0,0 0,0 -1,0 -1,0 0,0 0,0 0,0 0,0 0,0 -1,0 0,0 0,0 0,0 0,0 0,0 0,0 -5,-1 -8,-5 -8,-10l0 -10c0,-6 3,-13 7,-18 5,-5 12,-7 18,-7l1 -1 29 0 0 -6 -26 0c2,-11 11,-19 22,-19l59 0c11,0 20,8 22,19l-67 0 0 7 71 0c6,0 13,2 17,7 5,5 8,12 8,18l0 10 0 0c0,5 -3,9 -8,10z"/>
    </g>
   </g>
   <g>
    <g>
     <rect class="fil7 str1" x="38" y="8908" width="20.2547" height="6.89727"/>
    </g>
   </g>
   <g>
    <g>
     <rect class="fil7 str1" x="119" y="8908" width="20.2547" height="6.89727"/>
    </g>
   </g>
   <g>
    <g>
     <rect class="fil7 str1" transform="matrix(0.0300299 -0.0124391 0.0124391 0.0300299 40.7429 8929.1)" width="623" height="212"/>
    </g>
   </g>
   <g>
    <g>
     <rect class="fil7 str1" transform="matrix(0.0300299 -0.0124391 0.0124391 0.0300299 114.835 8894.6)" width="623" height="212"/>
    </g>
   </g>
   <g>
    <g>
     <rect class="fil7 str1" transform="matrix(0.0124391 -0.0300299 0.0300299 0.0124391 114.832 8927.71)" width="212" height="623"/>
    </g>
   </g>
   <g>
    <g>
     <rect class="fil7 str1" transform="matrix(0.0124391 -0.0300299 0.0300299 0.0124391 40.7428 8893.22)" width="212" height="623"/>
    </g>
   </g>
   <g>
   </g>
   <g>
   </g>
   <g>
   </g>
   <g>
   </g>
   <g>
   </g>
   <g>
   </g>
   <g>
   </g>
   <g>
   </g>
   <g>
   </g>
   <g>
   </g>
   <g>
   </g>
   <g>
   </g>
   <g>
   </g>
   <g>
   </g>
   <g>
   </g>
  </g>
  <g id="_1480326439888">
   <g>
    <g>
     <path class="fil8 str4" d="M166 9513c-5,-5 -12,-8 -19,-9 -2,-15 -14,-26 -29,-26l-27 0 0 -16c10,-1 17,-10 17,-21 0,-19 -18,-28 -18,-28l-2 -1 -2 1c0,0 -18,9 -18,28 0,11 7,20 17,21l0 16 -26 0c-15,0 -27,11 -29,26 -7,1 -14,4 -19,9 -7,7 -10,15 -10,23l0 10c0,7 4,13 10,16l10 82 135 0 10 -82c6,-3 10,-9 10,-16l0 -10c0,-8 -4,-16 -10,-23zm-92 -72c0,-12 10,-19 14,-21 4,2 14,9 14,21 0,9 -6,15 -14,15 -8,0 -14,-6 -14,-15zm76 196l-19 0 0 -63 -6 0 0 63 -20 0 0 -63 -7 0 0 63 -19 0 0 -63 -7 0 0 63 -20 0 0 -63 -7 0 0 63 -18 0 -9 -74c1,0 1,0 1,0 5,0 10,-2 14,-7 3,5 8,7 14,7 5,0 10,-2 14,-7 3,5 8,7 13,7 6,0 11,-2 14,-7 4,5 9,7 14,7 6,0 11,-2 14,-7 4,5 9,7 14,7 1,0 3,0 4,0 4,-1 8,-3 10,-7 3,4 7,6 11,7 1,0 2,0 3,0 0,0 0,0 0,0l-8 74zm11 -81c0,0 0,0 0,0 0,0 0,0 0,0 -1,0 -1,0 -1,0 0,0 0,0 0,0 0,0 -1,0 -1,0 0,0 0,0 0,0 0,0 0,0 -1,0 -5,0 -10,-4 -10,-10l-7 0c0,6 -5,10 -11,10 -5,0 -10,-4 -10,-10l-7 0c0,6 -5,10 -11,10 -5,0 -10,-4 -10,-10l-7 0c0,6 -5,10 -11,10 -5,0 -10,-4 -10,-10l-7 0c0,6 -5,10 -10,10 -6,0 -11,-4 -11,-10l-7 0c0,6 -5,10 -10,10 -1,0 -1,0 -1,0 0,0 0,0 0,0 0,0 -1,0 -1,0 0,0 0,0 0,0 0,0 0,0 -1,0 0,0 0,0 0,0 0,0 0,0 0,0 -5,-1 -8,-5 -8,-10l0 -10c0,-6 3,-13 7,-18 5,-5 12,-7 18,-8l1 0 29 0 0 -6 -26 0c2,-11 11,-19 22,-19l59 0c11,0 20,8 22,19l-67 0 0 6 71 0c6,1 13,3 17,8 5,5 8,12 8,18l0 10 0 0c0,5 -3,9 -8,10z"/>
    </g>
   </g>
   <g>
    <g>
     <rect class="fil8 str4" x="38" y="9438" width="20.2547" height="6.89727"/>
    </g>
   </g>
   <g>
    <g>
     <rect class="fil8 str4" x="119" y="9438" width="20.2547" height="6.89727"/>
    </g>
   </g>
   <g>
    <g>
     <rect class="fil8 str4" transform="matrix(0.0300299 -0.0124391 0.0124391 0.0300299 40.7429 9459.06)" width="623" height="212"/>
    </g>
   </g>
   <g>
    <g>
     <rect class="fil8 str4" transform="matrix(0.0300299 -0.0124391 0.0124391 0.0300299 114.835 9424.56)" width="623" height="212"/>
    </g>
   </g>
   <g>
    <g>
     <rect class="fil8 str4" transform="matrix(0.0124391 -0.0300299 0.0300299 0.0124391 114.832 9457.67)" width="212" height="623"/>
    </g>
   </g>
   <g>
    <g>
     <rect class="fil8 str4" transform="matrix(0.0124391 -0.0300299 0.0300299 0.0124391 40.7428 9423.18)" width="212" height="623"/>
    </g>
   </g>
   <g>
   </g>
   <g>
   </g>
   <g>
   </g>
   <g>
   </g>
   <g>
   </g>
   <g>
   </g>
   <g>
   </g>
   <g>
   </g>
   <g>
   </g>
   <g>
   </g>
   <g>
   </g>
   <g>
   </g>
   <g>
   </g>
   <g>
   </g>
   <g>
   </g>
  </g>
  <g id="_1480326448080">
   <path class="fil6" d="M42 10024c-2,0 -4,2 -4,5 0,2 2,4 4,4 3,0 5,-2 5,-4 0,-3 -2,-5 -5,-5zm0 0z"/>
   <path class="fil6" d="M170 10078c-1,-1 -2,-1 -4,-1 0,0 -1,0 -3,1l-3 4 -10 -11c23,-32 19,-77 -9,-105 -32,-32 -84,-32 -116,0 -32,32 -32,84 0,116 28,28 73,31 105,8l11 11 -3 3c-2,2 -2,5 0,6l57 58c9,9 23,9 32,0 9,-9 9,-23 0,-32l-57 -58zm-23 16l-10 -9c2,-1 3,-2 4,-3 1,-2 2,-3 3,-4l10 10 -7 6zm-115 -19c-29,-28 -29,-74 0,-103 28,-28 74,-28 102,0 29,29 29,75 0,103 -28,29 -74,28 -102,0zm134 13l13 13 -19 19 -13 -13 19 -19zm55 73c-6,6 -14,6 -20,0l-35 -34 20 -20 35 35c5,6 5,14 0,19l0 0zm0 0z"/>
   <path class="fil6" d="M128 9979c-25,-25 -65,-25 -90,0 -25,25 -25,65 0,90 25,25 65,25 90,0 25,-25 25,-65 0,-90l0 0zm-6 83c-22,22 -56,22 -78,0 -21,-21 -21,-56 0,-77 22,-21 56,-21 78,0 21,21 21,56 0,77l0 0zm0 0z"/>
   <path class="fil6" d="M83 9978c-12,0 -24,5 -32,14 -5,5 -9,10 -11,17 -1,2 0,5 3,6 2,1 5,-1 6,-3 1,-5 4,-10 8,-14 7,-7 16,-11 26,-11 2,0 5,-2 5,-4 0,-3 -3,-5 -5,-5l0 0zm0 0z"/>
  </g>
  <g id="_1480326450416">
   <path class="fil7" d="M42 10555c-2,0 -4,2 -4,4 0,3 2,5 4,5 3,0 5,-2 5,-5 0,-2 -2,-4 -5,-4zm0 0z"/>
   <path class="fil7" d="M170 10609c-1,-1 -2,-2 -4,-2 0,0 -1,0 -3,2l-3 3 -10 -10c23,-33 19,-77 -9,-106 -32,-32 -84,-32 -116,0 -32,32 -32,84 0,116 28,28 73,32 105,9l11 10 -3 3c-2,2 -2,5 0,7l57 57c9,9 23,9 32,0 9,-9 9,-23 0,-32l-57 -57zm-23 16l-10 -10c2,-1 3,-2 4,-3 1,-1 2,-2 3,-3l10 9 -7 7zm-115 -19c-29,-29 -29,-75 0,-103 28,-29 74,-29 102,0 29,28 29,74 0,103 -28,28 -74,28 -102,0zm134 12l13 13 -19 20 -13 -13 19 -20zm55 74c-6,5 -14,5 -20,0l-35 -35 20 -19 35 35c5,5 5,14 0,19l0 0zm0 0z"/>
   <path class="fil7" d="M128 10509c-25,-25 -65,-25 -90,0 -25,25 -25,65 0,90 25,25 65,25 90,0 25,-25 25,-65 0,-90l0 0zm-6 84c-22,21 -56,21 -78,0 -21,-22 -21,-56 0,-77 22,-22 56,-22 78,0 21,21 21,55 0,77l0 0zm0 0z"/>
   <path class="fil7" d="M83 10509c-12,0 -24,4 -32,13 -5,5 -9,11 -11,18 -1,2 0,4 3,5 2,1 5,0 6,-3 1,-5 4,-10 8,-14 7,-6 16,-10 26,-10 2,0 5,-2 5,-5 0,-2 -3,-4 -5,-4l0 0zm0 0z"/>
  </g>
  <g id="_1480326450000">
   <path class="fil8" d="M42 11085c-2,0 -4,2 -4,4 0,3 2,5 4,5 3,0 5,-2 5,-5 0,-2 -2,-4 -5,-4zm0 0z"/>
   <path class="fil8" d="M170 11139c-1,-1 -2,-1 -4,-1 0,0 -1,0 -3,1l-3 3 -10 -10c23,-32 19,-77 -9,-105 -32,-32 -84,-32 -116,0 -32,32 -32,83 0,115 28,29 73,32 105,9l11 11 -3 3c-2,2 -2,5 0,6l57 58c9,9 23,9 32,0 9,-9 9,-23 0,-32l-57 -58zm-23 16l-10 -9c2,-1 3,-2 4,-4 1,-1 2,-2 3,-3l10 10 -7 6zm-115 -19c-29,-28 -29,-74 0,-103 28,-28 74,-28 102,0 29,29 29,75 0,103 -28,29 -74,28 -102,0zm134 13l13 13 -19 19 -13 -13 19 -19zm55 73c-6,6 -14,6 -20,0l-35 -35 20 -19 35 35c5,5 5,14 0,19l0 0zm0 0z"/>
   <path class="fil8" d="M128 11040c-25,-25 -65,-25 -90,0 -25,24 -25,65 0,90 25,24 65,24 90,0 25,-25 25,-66 0,-90l0 0zm-6 83c-22,21 -56,21 -78,0 -21,-21 -21,-56 0,-77 22,-21 56,-21 78,0 21,21 21,56 0,77l0 0zm0 0z"/>
   <path class="fil8" d="M83 11039c-12,0 -24,5 -32,14 -5,4 -9,10 -11,17 -1,2 0,5 3,6 2,1 5,-1 6,-3 1,-5 4,-10 8,-14 7,-7 16,-11 26,-11 2,0 5,-2 5,-4 0,-3 -3,-5 -5,-5l0 0zm0 0z"/>
  </g>
  <g id="_1480326453104">
   <g>
    <g>
     <path class="fil6" d="M170 11708l0 -5c2,-1 3,-2 4,-3 10,-11 16,-24 17,-38 9,-1 17,-6 22,-13 7,-10 8,-25 2,-43 -1,-1 -1,-2 -2,-3l-3 -1c0,-17 -5,-33 -16,-46 -14,-15 -34,-23 -61,-23 -28,0 -48,8 -62,23 -10,13 -16,29 -16,45l-2 2c-1,1 -2,2 -2,3 -6,18 -6,33 1,43 6,7 13,12 22,13 2,14 8,27 17,38 1,1 3,2 4,3l0 5c-19,4 -95,21 -94,72 0,3 2,5 5,5l253 0c3,0 5,-2 5,-5 1,-51 -75,-68 -94,-72zm-99 -57c-4,-2 -8,-4 -11,-8l1 0c-5,-7 -6,-18 -1,-33l3 -2c2,-1 3,-3 3,-5 -1,-14 4,-29 13,-41 11,-12 29,-19 54,-19 24,0 42,7 53,19 10,12 15,27 14,41 0,2 0,4 2,5l4 2c4,15 4,26 -1,33 -3,4 -7,7 -11,8 6,-7 9,-16 8,-25 -1,-5 -4,-10 -8,-14 -2,-50 -37,-55 -52,-55 -3,0 -6,0 -9,1 -4,-1 -7,-1 -10,-1 -15,0 -50,5 -52,55 -4,4 -7,9 -8,14 -1,9 2,18 8,25zm113 -41c-21,1 -41,-4 -59,-15 -2,-1 -5,-1 -7,1 -10,11 -28,13 -37,14 3,-36 24,-43 42,-43 3,0 6,0 9,0 1,1 1,1 2,0 3,0 6,0 8,0 18,0 40,8 42,43l0 0zm-101 42l0 0c0,-1 0,-3 -1,-3 -7,-8 -10,-15 -9,-21 0,-3 2,-6 5,-9 6,0 29,-1 44,-14 17,10 36,15 56,15 3,0 6,0 10,0 2,2 4,5 4,8 1,6 -2,13 -9,21 -1,0 -1,2 -1,3 0,0 0,1 0,2l-29 16c-6,-5 -15,-5 -20,1 -6,5 -5,14 0,20 6,5 15,5 21,-1 2,-2 3,-6 3,-10 1,0 1,0 0,-1l23 -12c-2,10 -6,19 -13,26 -9,9 -21,13 -33,12l-2 0c-13,1 -25,-3 -33,-12 -16,-16 -16,-41 -16,-41zm65 28c0,3 -2,5 -5,5 -2,0 -4,-2 -4,-5 0,-2 2,-4 4,-4 3,0 5,2 5,4zm-20 95l-117 0c4,-37 65,-53 84,-57l0 9c0,11 14,20 33,21l0 27zm-23 -48l0 0 0 -17c8,4 17,5 26,5l3 0c9,0 18,-1 26,-5l0 17c0,5 -11,11 -27,11 -17,0 -28,-6 -28,-11zm33 48l0 -27c18,-1 32,-10 32,-21l0 -9c19,4 80,20 84,57l-116 0z"/>
    </g>
   </g>
   <g>
   </g>
   <g>
   </g>
   <g>
   </g>
   <g>
   </g>
   <g>
   </g>
   <g>
   </g>
   <g>
   </g>
   <g>
   </g>
   <g>
   </g>
   <g>
   </g>
   <g>
   </g>
   <g>
   </g>
   <g>
   </g>
   <g>
   </g>
   <g>
   </g>
  </g>
  <g id="_1480326457232">
   <g>
    <g>
     <path class="fil7" d="M170 12258l0 -5c2,-1 3,-2 4,-3 10,-11 16,-24 17,-38 9,-1 17,-6 22,-13 7,-10 8,-25 2,-43 -1,-1 -1,-2 -2,-3l-3 -2c0,-16 -5,-33 -16,-45 -14,-15 -34,-23 -61,-23 -28,0 -48,8 -62,23 -10,12 -16,28 -16,45l-2 2c-1,1 -2,1 -2,2 -6,19 -6,34 1,44 6,7 13,11 22,13 2,14 8,27 17,38 1,1 3,2 4,3l0 5c-19,3 -95,21 -94,72 0,3 2,5 5,5l253 0c3,0 5,-2 5,-5 1,-51 -75,-69 -94,-72zm-99 -57c-4,-2 -8,-4 -11,-8l1 0c-5,-7 -6,-18 -1,-33l3 -2c2,-1 3,-3 3,-5 -1,-15 4,-29 13,-41 11,-13 29,-19 54,-19 24,0 42,6 53,19 10,12 15,26 14,41 0,2 0,4 2,5l4 2c4,15 4,26 -1,33 -3,4 -7,6 -11,8 6,-7 9,-16 8,-25 -1,-6 -4,-11 -8,-14 -2,-50 -37,-55 -52,-55 -3,0 -6,0 -9,0 -4,0 -7,0 -10,0 -15,0 -50,5 -52,55 -4,3 -7,8 -8,14 -1,9 2,18 8,25zm113 -41c-21,1 -41,-4 -59,-15 -2,-1 -5,-1 -7,1 -10,10 -28,13 -37,13 3,-35 24,-43 42,-43 3,0 6,1 9,1 1,0 1,0 2,0 3,0 6,-1 8,-1 18,0 40,8 42,44l0 0zm-101 42l0 0c0,-2 0,-3 -1,-4 -7,-7 -10,-15 -9,-20 0,-4 2,-7 5,-9 6,0 29,-1 44,-14 17,10 36,15 56,15 3,0 6,0 10,-1 2,2 4,5 4,9 1,5 -2,13 -9,20 -1,1 -1,2 -1,4 0,0 0,1 0,2l-29 16c-6,-6 -15,-5 -20,0 -6,6 -5,15 0,21 6,5 15,5 21,-1 2,-3 3,-6 3,-10 1,0 1,-1 0,-1l23 -12c-2,9 -6,18 -13,26 -9,8 -21,13 -33,12l-2 0c-13,1 -25,-4 -33,-12 -16,-16 -16,-41 -16,-41zm65 28c0,3 -2,5 -5,5 -2,0 -4,-2 -4,-5 0,-2 2,-4 4,-4 3,0 5,2 5,4zm-20 95l-117 0c4,-38 65,-53 84,-57l0 9c0,11 14,20 33,21l0 27zm-23 -48l0 -1 0 -17c8,4 17,6 26,6l3 0c9,0 18,-2 26,-6l0 18c0,4 -11,11 -27,11 -17,0 -28,-7 -28,-11zm33 48l0 -27c18,-1 32,-10 32,-21l0 -9c19,4 80,19 84,57l-116 0z"/>
    </g>
   </g>
   <g>
   </g>
   <g>
   </g>
   <g>
   </g>
   <g>
   </g>
   <g>
   </g>
   <g>
   </g>
   <g>
   </g>
   <g>
   </g>
   <g>
   </g>
   <g>
   </g>
   <g>
   </g>
   <g>
   </g>
   <g>
   </g>
   <g>
   </g>
   <g>
   </g>
  </g>
  <g id="_1480326462800">
   <g>
    <g>
     <path class="fil8" d="M170 12807l0 -4c2,-1 3,-2 4,-4 10,-10 16,-23 17,-37 9,-2 17,-6 22,-13 7,-10 8,-25 2,-44 -1,-1 -1,-2 -2,-2l-3 -2c0,-17 -5,-33 -16,-45 -14,-16 -34,-23 -61,-23 -28,0 -48,7 -62,22 -10,13 -16,29 -16,46l-2 2c-1,0 -2,1 -2,2 -6,19 -6,33 1,44 6,6 13,11 22,13 2,14 8,27 17,37 1,2 3,3 4,4l0 4c-19,4 -95,22 -94,73 0,2 2,5 5,5l253 0c3,0 5,-3 5,-5 1,-51 -75,-69 -94,-73zm-99 -57c-4,-1 -8,-4 -11,-7l1 0c-5,-8 -6,-19 -1,-33l3 -2c2,-1 3,-3 3,-5 -1,-15 4,-30 13,-41 11,-13 29,-19 54,-19 24,0 42,6 53,19 10,11 15,26 14,41 0,2 0,4 2,5l4 2c4,14 4,25 -1,33 -3,3 -7,6 -11,7 6,-6 9,-15 8,-24 -1,-6 -4,-11 -8,-14 -2,-50 -37,-56 -52,-56 -3,0 -6,1 -9,1 -4,0 -7,-1 -10,-1 -15,0 -50,6 -52,56 -4,3 -7,8 -8,14 -1,9 2,18 8,24zm113 -40c-21,1 -41,-4 -59,-15 -2,-2 -5,-1 -7,0 -10,11 -28,14 -37,14 3,-35 24,-43 42,-43 3,0 6,0 9,1 1,0 1,0 2,0 3,-1 6,-1 8,-1 18,0 40,8 42,44l0 0zm-101 41l0 0c0,-1 0,-2 -1,-3 -7,-8 -10,-15 -9,-21 0,-3 2,-6 5,-8 6,0 29,-1 44,-14 17,9 36,15 56,15 3,0 6,0 10,-1 2,2 4,5 4,8 1,6 -2,13 -9,21 -1,1 -1,2 -1,3 0,0 0,1 0,3l-29 16c-6,-6 -15,-6 -20,0 -6,6 -5,15 0,20 6,6 15,6 21,0 2,-3 3,-6 3,-10 1,-1 1,-1 0,-1l23 -13c-2,10 -6,19 -13,27 -9,8 -21,13 -33,12l-2 0c-13,1 -25,-4 -33,-12 -16,-16 -16,-41 -16,-42zm65 29c0,2 -2,4 -5,4 -2,0 -4,-2 -4,-4 0,-3 2,-5 4,-5 3,0 5,2 5,5zm-20 94l-117 0c4,-37 65,-53 84,-57l0 9c0,12 14,20 33,22l0 26zm-23 -48l0 0 0 -17c8,4 17,6 26,6l3 0c9,0 18,-2 26,-6l0 17c0,5 -11,12 -27,12 -17,0 -28,-7 -28,-12zm33 49l0 -27c18,-2 32,-10 32,-22l0 -8c19,4 80,19 84,57l-116 0z"/>
    </g>
   </g>
   <g>
   </g>
   <g>
   </g>
   <g>
   </g>
   <g>
   </g>
   <g>
   </g>
   <g>
   </g>
   <g>
   </g>
   <g>
   </g>
   <g>
   </g>
   <g>
   </g>
   <g>
   </g>
   <g>
   </g>
   <g>
   </g>
   <g>
   </g>
   <g>
   </g>
  </g>
  <g id="_1480326469200">
   <g>
    <g>
     <g>
      <path class="fil6" d="M225 13211c-4,-5 -11,-8 -18,-8l-37 0 0 0c0,-6 -2,-11 -6,-15 -3,-3 -8,-5 -14,-5l-66 0c-6,0 -11,2 -15,5 -3,4 -5,9 -5,15l0 0 -37 0c-7,0 -13,3 -18,8 -5,5 -8,11 -8,18l0 110c0,7 3,14 8,18 5,5 11,8 18,8l180 0c7,0 14,-3 18,-8 5,-4 8,-11 8,-18l0 -110c0,-7 -3,-13 -8,-18zm-3 128l-1 0c0,4 -1,8 -4,10 -2,3 -6,4 -10,4l-180 0c-4,0 -7,-1 -10,-4 -3,-2 -4,-6 -4,-10l0 -110c0,-4 1,-7 4,-10 3,-3 6,-4 10,-4l43 0c3,0 6,-3 6,-6l0 -6c0,-3 1,-5 2,-7 2,-1 4,-2 6,-2l66 0c3,0 5,1 6,2 2,2 3,4 3,7l0 6c0,3 2,6 6,6l42 0c4,0 8,1 10,4 3,3 5,6 5,10l0 110z"/>
      <path class="fil6" d="M117 13230c-15,0 -29,6 -38,16 -10,10 -16,23 -16,38 0,15 6,29 16,38 10,10 23,16 38,16 15,0 29,-6 38,-16 10,-9 16,-23 16,-38 0,-15 -6,-29 -16,-38 -9,-10 -23,-16 -38,-16zm30 84c-8,8 -18,13 -30,13 -12,0 -22,-5 -30,-13 -8,-7 -12,-18 -12,-30 0,-11 5,-22 12,-30 8,-7 18,-12 30,-12 12,0 22,5 30,12 8,8 12,19 12,30 1,12 -4,23 -12,30z"/>
      <circle class="fil6" cx="196" cy="13241" r="11"/>
     </g>
    </g>
   </g>
   <g>
   </g>
   <g>
   </g>
   <g>
   </g>
   <g>
   </g>
   <g>
   </g>
   <g>
   </g>
   <g>
   </g>
   <g>
   </g>
   <g>
   </g>
   <g>
   </g>
   <g>
   </g>
   <g>
   </g>
   <g>
   </g>
   <g>
   </g>
   <g>
   </g>
  </g>
  <g id="_1480323432416">
   <g>
    <g>
     <g>
      <path class="fil7" d="M225 13691c-4,-5 -11,-7 -18,-7l-37 0 0 -1c0,-5 -2,-11 -6,-14 -3,-4 -8,-6 -14,-6l-66 0c-6,0 -11,2 -15,6 -3,4 -5,9 -5,14l0 1 -37 0c-7,0 -13,2 -18,7 -5,5 -8,12 -8,19l0 109c0,8 3,14 8,19 5,4 11,7 18,7l180 0c7,0 14,-3 18,-7 5,-5 8,-12 8,-19l0 -109c0,-8 -3,-14 -8,-19zm-3 128l-1 0c0,4 -1,8 -4,10 -2,3 -6,5 -10,5l-180 0c-4,0 -7,-2 -10,-5 -3,-2 -4,-6 -4,-10l0 -109c0,-4 1,-8 4,-11 3,-2 6,-4 10,-4l43 0c3,0 6,-2 6,-6l0 -6c0,-3 1,-5 2,-6 2,-2 4,-3 6,-3l66 0c3,0 5,1 6,3 2,1 3,3 3,6l0 6c0,4 2,6 6,6l42 0c4,0 8,2 10,4 3,3 5,7 5,11l0 109z"/>
      <path class="fil7" d="M117 13710c-15,0 -29,6 -38,16 -10,10 -16,23 -16,38 0,15 6,29 16,39 10,10 23,16 38,16 15,0 29,-6 38,-16 10,-10 16,-24 16,-39 0,-15 -6,-28 -16,-38 -9,-10 -23,-16 -38,-16zm30 85c-8,7 -18,12 -30,12 -12,0 -22,-5 -30,-12 -8,-8 -12,-19 -12,-30 0,-12 5,-23 12,-30 8,-8 18,-13 30,-13 12,0 22,5 30,13 8,7 12,18 12,30 1,11 -4,22 -12,30z"/>
      <circle class="fil7" cx="196" cy="13721" r="11"/>
     </g>
    </g>
   </g>
   <g>
   </g>
   <g>
   </g>
   <g>
   </g>
   <g>
   </g>
   <g>
   </g>
   <g>
   </g>
   <g>
   </g>
   <g>
   </g>
   <g>
   </g>
   <g>
   </g>
   <g>
   </g>
   <g>
   </g>
   <g>
   </g>
   <g>
   </g>
   <g>
   </g>
  </g>
  <g id="_1480323438272">
   <g>
    <g>
     <g>
      <path class="fil8" d="M225 14172c-4,-5 -11,-8 -18,-8l-37 0 0 -1c0,-5 -2,-10 -6,-14 -3,-4 -8,-6 -14,-6l-66 0c-6,0 -11,2 -15,6 -3,4 -5,9 -5,14l0 1 -37 0c-7,0 -13,3 -18,8 -5,4 -8,11 -8,18l0 110c0,7 3,13 8,18 5,5 11,8 18,8l180 0c7,0 14,-3 18,-8 5,-5 8,-11 8,-18l0 -110c0,-7 -3,-14 -8,-18zm-3 128l-1 0c0,4 -1,7 -4,10 -2,2 -6,4 -10,4l-180 0c-4,0 -7,-2 -10,-4 -3,-3 -4,-6 -4,-10l0 -110c0,-4 1,-8 4,-10 3,-3 6,-4 10,-4l43 0c3,0 6,-3 6,-6l0 -7c0,-2 1,-4 2,-6 2,-2 4,-2 6,-2l66 0c3,0 5,0 6,2 2,2 3,4 3,6l0 7c0,3 2,6 6,6l42 0c4,0 8,1 10,4 3,2 5,6 5,10l0 110z"/>
      <path class="fil8" d="M117 14191c-15,0 -29,6 -38,15 -10,10 -16,24 -16,39 0,15 6,28 16,38 10,10 23,16 38,16 15,0 29,-6 38,-16 10,-10 16,-23 16,-38 0,-15 -6,-29 -16,-39 -9,-9 -23,-15 -38,-15zm30 84c-8,7 -18,12 -30,12 -12,0 -22,-5 -30,-12 -8,-8 -12,-18 -12,-30 0,-12 5,-22 12,-30 8,-8 18,-12 30,-12 12,0 22,5 30,12 8,8 12,18 12,30 1,12 -4,22 -12,30z"/>
      <circle class="fil8" cx="196" cy="14201" r="11"/>
     </g>
    </g>
   </g>
   <g>
   </g>
   <g>
   </g>
   <g>
   </g>
   <g>
   </g>
   <g>
   </g>
   <g>
   </g>
   <g>
   </g>
   <g>
   </g>
   <g>
   </g>
   <g>
   </g>
   <g>
   </g>
   <g>
   </g>
   <g>
   </g>
   <g>
   </g>
   <g>
   </g>
  </g>
  <g id="_1480323444480">
   <g>
    <g>
     <path class="fil6" d="M242 14623l-230 0c-6,0 -11,5 -11,12l0 185c0,6 5,11 11,11l230 0c6,0 11,-5 11,-11l0 -185c0,-7 -5,-12 -11,-12zm0 197l-230 0c0,0 0,0 0,0l0 -185 230 0 0 185z"/>
    </g>
   </g>
   <g>
    <g>
     <path class="fil6" d="M221 14650l-188 0c-3,0 -5,2 -5,5l0 123c0,3 2,6 5,6l188 0c3,0 5,-3 5,-6l0 -123c0,-3 -2,-5 -5,-5zm-182 11l176 0 0 94 -35 -35c-2,-2 -5,-2 -8,0l-21 21 -49 -49c-2,-2 -6,-2 -8,0l-55 56 0 -87 0 0zm0 112l0 -9 59 -60 69 69 -128 0zm176 0l-33 0 0 0 -23 -24 17 -17 38 37c0,1 1,1 1,1l0 3 0 0z"/>
    </g>
   </g>
   <g>
    <g>
     <path class="fil6" d="M151 14672c-12,0 -21,9 -21,20 0,12 9,21 21,21 11,0 21,-9 21,-21 0,-11 -10,-20 -21,-20zm0 30c-6,0 -10,-4 -10,-10 0,-5 4,-9 10,-9 5,0 10,4 10,9 0,6 -5,10 -10,10z"/>
    </g>
   </g>
   <g>
    <g>
     <path class="fil6" d="M81 14796l-48 0c-3,0 -5,3 -5,6 0,3 2,5 5,5l48 0c3,0 6,-2 6,-5 0,-3 -3,-6 -6,-6z"/>
    </g>
   </g>
   <g>
    <g>
     <path class="fil6" d="M119 14796l-12 0c-3,0 -6,3 -6,6 0,3 3,5 6,5l12 0c3,0 6,-2 6,-5 0,-3 -3,-6 -6,-6z"/>
    </g>
   </g>
   <g>
   </g>
   <g>
   </g>
   <g>
   </g>
   <g>
   </g>
   <g>
   </g>
   <g>
   </g>
   <g>
   </g>
   <g>
   </g>
   <g>
   </g>
   <g>
   </g>
   <g>
   </g>
   <g>
   </g>
   <g>
   </g>
   <g>
   </g>
   <g>
   </g>
  </g>
  <g id="_1480323452064">
   <g>
    <g>
     <path class="fil7" d="M242 15129l-230 0c-6,0 -11,5 -11,11l0 185c0,6 5,11 11,11l230 0c6,0 11,-5 11,-11l0 -185c0,-6 -5,-11 -11,-11zm0 196l-230 0c0,0 0,0 0,0l0 -185 230 0 0 185z"/>
    </g>
   </g>
   <g>
    <g>
     <path class="fil7" d="M221 15155l-188 0c-3,0 -5,3 -5,6l0 122c0,4 2,6 5,6l188 0c3,0 5,-2 5,-6l0 -122c0,-3 -2,-6 -5,-6zm-182 11l176 0 0 94 -35 -35c-2,-2 -5,-2 -8,0l-21 22 -49 -49c-2,-2 -6,-2 -8,0l-55 55 0 -87 0 0zm0 112l0 -9 59 -60 69 69 -128 0zm176 0l-33 0 0 0 -23 -24 17 -17 38 38c0,0 1,0 1,1l0 2 0 0z"/>
    </g>
   </g>
   <g>
    <g>
     <path class="fil7" d="M151 15177c-12,0 -21,9 -21,21 0,11 9,21 21,21 11,0 21,-10 21,-21 0,-12 -10,-21 -21,-21zm0 31c-6,0 -10,-5 -10,-10 0,-6 4,-10 10,-10 5,0 10,4 10,10 0,5 -5,10 -10,10z"/>
    </g>
   </g>
   <g>
    <g>
     <path class="fil7" d="M81 15302l-48 0c-3,0 -5,2 -5,5 0,3 2,6 5,6l48 0c3,0 6,-3 6,-6 0,-3 -3,-5 -6,-5z"/>
    </g>
   </g>
   <g>
    <g>
     <path class="fil7" d="M119 15302l-12 0c-3,0 -6,2 -6,5 0,3 3,6 6,6l12 0c3,0 6,-3 6,-6 0,-3 -3,-5 -6,-5z"/>
    </g>
   </g>
   <g>
   </g>
   <g>
   </g>
   <g>
   </g>
   <g>
   </g>
   <g>
   </g>
   <g>
   </g>
   <g>
   </g>
   <g>
   </g>
   <g>
   </g>
   <g>
   </g>
   <g>
   </g>
   <g>
   </g>
   <g>
   </g>
   <g>
   </g>
   <g>
   </g>
  </g>
  <g id="_1480323458496">
   <g>
    <g>
     <path class="fil8" d="M242 15634l-230 0c-6,0 -11,5 -11,11l0 185c0,7 5,12 11,12l230 0c6,0 11,-5 11,-12l0 -185c0,-6 -5,-11 -11,-11zm0 196l-230 0c0,0 0,0 0,0l0 -185 230 0 0 185z"/>
    </g>
   </g>
   <g>
    <g>
     <path class="fil8" d="M221 15660l-188 0c-3,0 -5,3 -5,6l0 123c0,3 2,5 5,5l188 0c3,0 5,-2 5,-5l0 -123c0,-3 -2,-6 -5,-6zm-182 12l176 0 0 94 -35 -35c-2,-3 -5,-3 -8,0l-21 21 -49 -49c-2,-2 -6,-2 -8,0l-55 56 0 -87 0 0zm0 111l0 -9 59 -59 69 68 -128 0zm176 0l-33 0 0 0 -23 -23 17 -18 38 38c0,0 1,1 1,1l0 2 0 0z"/>
    </g>
   </g>
   <g>
    <g>
     <path class="fil8" d="M151 15682c-12,0 -21,10 -21,21 0,12 9,21 21,21 11,0 21,-9 21,-21 0,-11 -10,-21 -21,-21zm0 31c-6,0 -10,-4 -10,-10 0,-5 4,-10 10,-10 5,0 10,5 10,10 0,6 -5,10 -10,10z"/>
    </g>
   </g>
   <g>
    <g>
     <path class="fil8" d="M81 15807l-48 0c-3,0 -5,2 -5,5 0,3 2,6 5,6l48 0c3,0 6,-3 6,-6 0,-3 -3,-5 -6,-5z"/>
    </g>
   </g>
   <g>
    <g>
     <path class="fil8" d="M119 15807l-12 0c-3,0 -6,2 -6,5 0,3 3,6 6,6l12 0c3,0 6,-3 6,-6 0,-3 -3,-5 -6,-5z"/>
    </g>
   </g>
   <g>
   </g>
   <g>
   </g>
   <g>
   </g>
   <g>
   </g>
   <g>
   </g>
   <g>
   </g>
   <g>
   </g>
   <g>
   </g>
   <g>
   </g>
   <g>
   </g>
   <g>
   </g>
   <g>
   </g>
   <g>
   </g>
   <g>
   </g>
   <g>
   </g>
  </g>
  <g id="_1480327611888">
   <g>
    <path class="fil6" d="M218 16299c-31,0 -57,26 -57,57 0,31 26,56 57,56 31,0 56,-25 56,-56 0,-31 -25,-57 -56,-57zm0 104c-26,0 -47,-21 -47,-47 0,-26 21,-47 47,-47 26,0 47,21 47,47 0,26 -21,47 -47,47z"/>
    <path class="fil6" d="M246 16351l-24 0 0 -23c0,-3 -2,-5 -4,-5 -3,0 -5,2 -5,5l0 28c0,3 2,5 5,5l28 0c3,0 5,-2 5,-5 0,-3 -2,-5 -5,-5z"/>
    <path class="fil6" d="M128 16238l-9 0 -33 0 -9 0 -43 0 0 43 0 9 0 33 0 9 0 43 43 0 9 0 42 0 0 -43 0 -9 0 -33 33 0 10 0 42 0 0 -52 -42 0 -10 0 -33 0zm43 10l33 0 0 33 -33 0 0 -33zm-85 0l33 0 0 33 -33 0 0 -33zm-42 0l33 0 0 33 -33 0 0 -33zm0 42l33 0 0 33 -33 0 0 -33zm33 75l-33 0 0 -33 33 0 0 33zm42 0l-33 0 0 -33 33 0 0 33zm0 -42l-33 0 0 -33 33 0 0 33zm42 -42l-33 0 0 -33 33 0 0 33z"/>
    <path class="fil6" d="M157 16398l-146 0 0 -183 226 0 0 61c0,3 2,5 4,5 3,0 5,-2 5,-5l0 -66 0 -47c0,-3 -2,-5 -5,-5l-23 0 0 -14c0,-3 -2,-5 -5,-5l-33 0c-2,0 -5,2 -5,5l0 14 -103 0 0 -14c0,-3 -2,-5 -5,-5l-33 0c-2,0 -5,2 -5,5l0 14 -23 0c-3,0 -5,2 -5,5l0 47 0 193c0,3 2,5 5,5l151 0c2,0 4,-2 4,-5 0,-3 -2,-5 -4,-5zm28 -249l23 0 0 14 0 14 -23 0 0 -14 0 -14zm-146 0l23 0 0 14 0 14 -23 0 0 -14 0 -14zm-28 19l18 0 0 14c0,2 3,4 5,4l33 0c3,0 5,-2 5,-4l0 -14 103 0 0 14c0,2 3,4 5,4l33 0c3,0 5,-2 5,-4l0 -14 19 0 0 37 -226 0 0 -37z"/>
   </g>
   <g>
   </g>
   <g>
   </g>
   <g>
   </g>
   <g>
   </g>
   <g>
   </g>
   <g>
   </g>
   <g>
   </g>
   <g>
   </g>
   <g>
   </g>
   <g>
   </g>
   <g>
   </g>
   <g>
   </g>
   <g>
   </g>
   <g>
   </g>
   <g>
   </g>
  </g>
  <g id="_1480327618320">
   <g>
    <path class="fil7" d="M218 16870c-31,0 -57,26 -57,57 0,31 26,56 57,56 31,0 56,-25 56,-56 0,-31 -25,-57 -56,-57zm0 104c-26,0 -47,-21 -47,-47 0,-26 21,-47 47,-47 26,0 47,21 47,47 0,26 -21,47 -47,47z"/>
    <path class="fil7" d="M246 16922l-24 0 0 -23c0,-3 -2,-5 -4,-5 -3,0 -5,2 -5,5l0 28c0,2 2,5 5,5l28 0c3,0 5,-3 5,-5 0,-3 -2,-5 -5,-5z"/>
    <path class="fil7" d="M128 16809l-9 0 -33 0 -9 0 -43 0 0 43 0 9 0 33 0 9 0 43 43 0 9 0 42 0 0 -43 0 -9 0 -33 33 0 10 0 42 0 0 -52 -42 0 -10 0 -33 0zm43 10l33 0 0 33 -33 0 0 -33zm-85 0l33 0 0 33 -33 0 0 -33zm-42 0l33 0 0 33 -33 0 0 -33zm0 42l33 0 0 33 -33 0 0 -33zm33 75l-33 0 0 -33 33 0 0 33zm42 0l-33 0 0 -33 33 0 0 33zm0 -42l-33 0 0 -33 33 0 0 33zm42 -42l-33 0 0 -33 33 0 0 33z"/>
    <path class="fil7" d="M157 16969l-146 0 0 -183 226 0 0 61c0,2 2,5 4,5 3,0 5,-3 5,-5l0 -66 0 -47c0,-3 -2,-5 -5,-5l-23 0 0 -14c0,-3 -2,-5 -5,-5l-33 0c-2,0 -5,2 -5,5l0 14 -103 0 0 -14c0,-3 -2,-5 -5,-5l-33 0c-2,0 -5,2 -5,5l0 14 -23 0c-3,0 -5,2 -5,5l0 47 0 193c0,3 2,5 5,5l151 0c2,0 4,-2 4,-5 0,-3 -2,-5 -4,-5zm28 -249l23 0 0 14 0 14 -23 0 0 -14 0 -14zm-146 0l23 0 0 14 0 14 -23 0 0 -14 0 -14zm-28 19l18 0 0 14c0,2 3,4 5,4l33 0c3,0 5,-2 5,-4l0 -14 103 0 0 14c0,2 3,4 5,4l33 0c3,0 5,-2 5,-4l0 -14 19 0 0 37 -226 0 0 -37z"/>
   </g>
   <g>
   </g>
   <g>
   </g>
   <g>
   </g>
   <g>
   </g>
   <g>
   </g>
   <g>
   </g>
   <g>
   </g>
   <g>
   </g>
   <g>
   </g>
   <g>
   </g>
   <g>
   </g>
   <g>
   </g>
   <g>
   </g>
   <g>
   </g>
   <g>
   </g>
  </g>
  <g id="_1480327623536">
   <g>
    <path class="fil8" d="M218 17441c-31,0 -57,26 -57,57 0,31 26,56 57,56 31,0 56,-25 56,-56 0,-31 -25,-57 -56,-57zm0 104c-26,0 -47,-21 -47,-47 0,-26 21,-47 47,-47 26,0 47,21 47,47 0,26 -21,47 -47,47z"/>
    <path class="fil8" d="M246 17493l-24 0 0 -23c0,-3 -2,-5 -4,-5 -3,0 -5,2 -5,5l0 28c0,2 2,5 5,5l28 0c3,0 5,-3 5,-5 0,-3 -2,-5 -5,-5z"/>
    <path class="fil8" d="M128 17380l-9 0 -33 0 -9 0 -43 0 0 42 0 10 0 33 0 9 0 43 43 0 9 0 42 0 0 -43 0 -9 0 -33 33 0 10 0 42 0 0 -52 -42 0 -10 0 -33 0zm43 10l33 0 0 32 -33 0 0 -32zm-85 0l33 0 0 32 -33 0 0 -32zm-42 0l33 0 0 32 -33 0 0 -32zm0 42l33 0 0 33 -33 0 0 -33zm33 75l-33 0 0 -33 33 0 0 33zm42 0l-33 0 0 -33 33 0 0 33zm0 -42l-33 0 0 -33 33 0 0 33zm42 -43l-33 0 0 -32 33 0 0 32z"/>
    <path class="fil8" d="M157 17540l-146 0 0 -183 226 0 0 61c0,2 2,4 4,4 3,0 5,-2 5,-4l0 -66 0 -47c0,-3 -2,-5 -5,-5l-23 0 0 -14c0,-3 -2,-5 -5,-5l-33 0c-2,0 -5,2 -5,5l0 14 -103 0 0 -14c0,-3 -2,-5 -5,-5l-33 0c-2,0 -5,2 -5,5l0 14 -23 0c-3,0 -5,2 -5,5l0 47 0 193c0,3 2,5 5,5l151 0c2,0 4,-2 4,-5 0,-3 -2,-5 -4,-5zm28 -249l23 0 0 14 0 14 -23 0 0 -14 0 -14zm-146 0l23 0 0 14 0 14 -23 0 0 -14 0 -14zm-28 18l18 0 0 15c0,2 3,4 5,4l33 0c3,0 5,-2 5,-4l0 -15 103 0 0 15c0,2 3,4 5,4l33 0c3,0 5,-2 5,-4l0 -15 19 0 0 38 -226 0 0 -38z"/>
   </g>
   <g>
   </g>
   <g>
   </g>
   <g>
   </g>
   <g>
   </g>
   <g>
   </g>
   <g>
   </g>
   <g>
   </g>
   <g>
   </g>
   <g>
   </g>
   <g>
   </g>
   <g>
   </g>
   <g>
   </g>
   <g>
   </g>
   <g>
   </g>
   <g>
   </g>
  </g>
  <g id="_1480327630416">
   <path class="fil6" d="M241 18160c3,0 5,-3 5,-5l0 -230c0,-9 -6,-15 -15,-15l-5 0 0 -14c0,-8 -7,-15 -15,-15l-22 0c-3,0 -5,2 -5,5 0,3 2,5 5,5l22 0c3,0 5,2 5,5l0 258c0,3 -2,5 -5,5l-195 0c-2,0 -5,-2 -5,-5l0 -20c0,-3 -2,-5 -5,-5 -3,0 -5,2 -5,5l0 20c0,9 7,15 15,15l5 0 0 14c0,8 7,15 16,15l194 0c9,0 15,-7 15,-15l0 -7c0,-2 -2,-5 -5,-5 -2,0 -5,3 -5,5l0 7c0,3 -2,5 -5,5l-194 0c-3,0 -5,-2 -5,-5l0 -14 179 0c8,0 15,-6 15,-15l0 -234 5 0c3,0 5,2 5,5l0 230c0,2 3,5 5,5l0 0z"/>
   <path class="fil6" d="M6 18116c3,0 5,-2 5,-5l0 -215c0,-3 3,-5 5,-5l10 0 0 17c0,5 4,10 9,10l59 0c5,0 9,-5 9,-10l0 -17 64 0c3,0 5,-2 5,-5 0,-3 -2,-5 -5,-5l-65 0c-3,-5 -8,-9 -14,-9l-4 0 0 -6c0,-8 -6,-14 -13,-14l-13 0c-7,0 -13,6 -13,14l0 6 -4 0c-6,0 -11,4 -14,9l-11 0c-8,0 -15,7 -15,15l0 215c0,3 2,5 5,5l0 0zm49 -250c0,-2 1,-4 3,-4l13 0c2,0 3,2 3,4l0 6 -19 0 0 -6 0 0zm-14 17l47 0c3,0 5,2 5,5l0 20 -57 0 0 -20c0,-3 2,-5 5,-5l0 0z"/>
   <path class="fil6" d="M187 17965l-81 0c-3,0 -5,2 -5,5 0,3 2,5 5,5l81 0c3,0 5,-2 5,-5 0,-3 -2,-5 -5,-5l0 0z"/>
   <path class="fil6" d="M187 17987l-81 0c-3,0 -5,2 -5,5 0,2 2,5 5,5l81 0c3,0 5,-3 5,-5 0,-3 -2,-5 -5,-5z"/>
   <path class="fil6" d="M187 18031l-81 0c-3,0 -5,2 -5,5 0,2 2,5 5,5l81 0c3,0 5,-3 5,-5 0,-3 -2,-5 -5,-5l0 0z"/>
   <path class="fil6" d="M187 18052l-81 0c-3,0 -5,2 -5,5 0,3 2,5 5,5l81 0c3,0 5,-2 5,-5 0,-3 -2,-5 -5,-5z"/>
   <path class="fil6" d="M187 18096l-81 0c-3,0 -5,2 -5,5 0,3 2,5 5,5l81 0c3,0 5,-2 5,-5 0,-3 -2,-5 -5,-5l0 0z"/>
   <path class="fil6" d="M187 18118l-81 0c-3,0 -5,2 -5,5 0,3 2,5 5,5l81 0c3,0 5,-2 5,-5 0,-3 -2,-5 -5,-5z"/>
   <path class="fil6" d="M97 17958c-2,-2 -5,-3 -7,-1l-5 4c-1,-2 -4,-4 -7,-4l-35 0c-4,0 -8,3 -8,8l0 35c0,4 4,8 8,8l35 0c4,0 8,-4 8,-8l0 -26 10 -9c2,-2 3,-5 1,-7l0 0zm-21 39l-31 0 0 -30 31 0 0 2 -10 9 -5 -6c-2,-2 -5,-2 -7,0 -2,2 -2,5 0,7l8 9c1,1 2,2 3,2 2,0 3,-1 4,-2l7 -6 0 15 0 0z"/>
   <path class="fil6" d="M97 18024c-2,-2 -5,-3 -7,-1l-5 4c-1,-3 -4,-5 -7,-5l-35 0c-4,0 -8,4 -8,8l0 35c0,5 4,8 8,8l35 0c4,0 8,-3 8,-8l0 -25 10 -9c2,-2 3,-5 1,-7zm-21 39l-31 0 0 -30 31 0 0 2 -10 9 -5 -6c-2,-2 -5,-2 -7,0 -2,2 -2,5 0,7l8 9c1,1 2,2 3,2 2,0 3,-1 4,-2l7 -6 0 15 0 0z"/>
   <path class="fil6" d="M90 18090l-4 3c-1,-3 -4,-5 -8,-5l-35 0c-4,0 -8,3 -8,8l0 35c0,4 4,8 8,8l35 0c4,0 8,-4 8,-8l0 -25 10 -8c2,-2 3,-5 1,-8 -2,-2 -5,-2 -7,0l0 0zm-14 39l-31 0 0 -31 31 0 0 4 -10 8 -5 -5c-2,-2 -5,-2 -7,0 -2,2 -2,5 0,7l8 9c1,1 2,1 3,1 2,0 3,0 4,-1l7 -6 0 14 0 0z"/>
  </g>
  <g id="_1480327633808">
   <path class="fil7" d="M241 18804c3,0 5,-3 5,-5l0 -230c0,-9 -6,-16 -15,-16l-5 0 0 -13c0,-8 -7,-15 -15,-15l-22 0c-3,0 -5,2 -5,5 0,3 2,5 5,5l22 0c3,0 5,2 5,5l0 258c0,3 -2,5 -5,5l-195 0c-2,0 -5,-2 -5,-5l0 -21c0,-2 -2,-5 -5,-5 -3,0 -5,3 -5,5l0 21c0,8 7,15 15,15l5 0 0 14c0,8 7,15 16,15l194 0c9,0 15,-7 15,-15l0 -7c0,-3 -2,-5 -5,-5 -2,0 -5,2 -5,5l0 7c0,3 -2,5 -5,5l-194 0c-3,0 -5,-2 -5,-5l0 -14 179 0c8,0 15,-7 15,-15l0 -234 5 0c3,0 5,2 5,5l0 230c0,2 3,5 5,5l0 0z"/>
   <path class="fil7" d="M6 18760c3,0 5,-2 5,-5l0 -215c0,-3 3,-5 5,-5l10 0 0 17c0,5 4,10 9,10l59 0c5,0 9,-5 9,-10l0 -17 64 0c3,0 5,-2 5,-5 0,-3 -2,-5 -5,-5l-65 0c-3,-5 -8,-9 -14,-9l-4 0 0 -6c0,-8 -6,-14 -13,-14l-13 0c-7,0 -13,6 -13,14l0 6 -4 0c-6,0 -11,4 -14,9l-11 0c-8,0 -15,7 -15,15l0 215c0,3 2,5 5,5l0 0zm49 -250c0,-2 1,-4 3,-4l13 0c2,0 3,2 3,4l0 6 -19 0 0 -6 0 0zm-14 16l47 0c3,0 5,3 5,5l0 20 -57 0 0 -20c0,-2 2,-5 5,-5l0 0z"/>
   <path class="fil7" d="M187 18609l-81 0c-3,0 -5,2 -5,5 0,3 2,5 5,5l81 0c3,0 5,-2 5,-5 0,-3 -2,-5 -5,-5l0 0z"/>
   <path class="fil7" d="M187 18630l-81 0c-3,0 -5,3 -5,6 0,2 2,5 5,5l81 0c3,0 5,-3 5,-5 0,-3 -2,-6 -5,-6z"/>
   <path class="fil7" d="M187 18674l-81 0c-3,0 -5,3 -5,5 0,3 2,6 5,6l81 0c3,0 5,-3 5,-6 0,-2 -2,-5 -5,-5l0 0z"/>
   <path class="fil7" d="M187 18696l-81 0c-3,0 -5,2 -5,5 0,3 2,5 5,5l81 0c3,0 5,-2 5,-5 0,-3 -2,-5 -5,-5z"/>
   <path class="fil7" d="M187 18740l-81 0c-3,0 -5,2 -5,5 0,3 2,5 5,5l81 0c3,0 5,-2 5,-5 0,-3 -2,-5 -5,-5l0 0z"/>
   <path class="fil7" d="M187 18762l-81 0c-3,0 -5,2 -5,5 0,2 2,5 5,5l81 0c3,0 5,-3 5,-5 0,-3 -2,-5 -5,-5z"/>
   <path class="fil7" d="M97 18601c-2,-2 -5,-2 -7,0l-5 4c-1,-3 -4,-4 -7,-4l-35 0c-4,0 -8,3 -8,7l0 36c0,4 4,7 8,7l35 0c4,0 8,-3 8,-7l0 -27 10 -8c2,-2 3,-5 1,-8l0 0zm-21 40l-31 0 0 -30 31 0 0 2 -10 8 -5 -5c-2,-2 -5,-2 -7,0 -2,2 -2,5 0,7l8 9c1,1 2,1 3,1 2,0 3,0 4,-1l7 -6 0 15 0 0z"/>
   <path class="fil7" d="M97 18668c-2,-3 -5,-3 -7,-1l-5 4c-1,-3 -4,-5 -7,-5l-35 0c-4,0 -8,4 -8,8l0 35c0,4 4,8 8,8l35 0c4,0 8,-4 8,-8l0 -25 10 -9c2,-2 3,-5 1,-7zm-21 39l-31 0 0 -31 31 0 0 3 -10 8 -5 -5c-2,-2 -5,-2 -7,0 -2,2 -2,5 0,7l8 9c1,1 2,2 3,2 2,0 3,-1 4,-2l7 -6 0 15 0 0z"/>
   <path class="fil7" d="M90 18734l-4 3c-1,-3 -4,-5 -8,-5l-35 0c-4,0 -8,3 -8,8l0 35c0,4 4,8 8,8l35 0c4,0 8,-4 8,-8l0 -25 10 -9c2,-1 3,-5 1,-7 -2,-2 -5,-2 -7,0l0 0zm-14 38l-31 0 0 -30 31 0 0 4 -10 8 -5 -5c-2,-2 -5,-2 -7,0 -2,2 -2,5 0,7l8 9c1,1 2,1 3,1 2,0 3,0 4,-1l7 -6 0 13 0 0z"/>
  </g>
  <g id="_1480327635856">
   <path class="fil9" d="M241 19447c3,0 5,-2 5,-5l0 -230c0,-8 -6,-15 -15,-15l-5 0 0 -13c0,-9 -7,-15 -15,-15l-22 0c-3,0 -5,2 -5,5 0,2 2,5 5,5l22 0c3,0 5,2 5,5l0 258c0,3 -2,5 -5,5l-195 0c-2,0 -5,-2 -5,-5l0 -21c0,-3 -2,-5 -5,-5 -3,0 -5,2 -5,5l0 21c0,8 7,15 15,15l5 0 0 14c0,8 7,15 16,15l194 0c9,0 15,-7 15,-15l0 -7c0,-3 -2,-5 -5,-5 -2,0 -5,2 -5,5l0 7c0,2 -2,5 -5,5l-194 0c-3,0 -5,-3 -5,-5l0 -14 179 0c8,0 15,-7 15,-15l0 -235 5 0c3,0 5,3 5,5l0 230c0,3 3,5 5,5l0 0z"/>
   <path class="fil9" d="M6 19404c3,0 5,-2 5,-5l0 -215c0,-3 3,-5 5,-5l10 0 0 17c0,5 4,9 9,9l59 0c5,0 9,-4 9,-9l0 -17 64 0c3,0 5,-3 5,-5 0,-3 -2,-5 -5,-5l-65 0c-3,-5 -8,-9 -14,-9l-4 0 0 -7c0,-7 -6,-13 -13,-13l-13 0c-7,0 -13,6 -13,13l0 7 -4 0c-6,0 -11,4 -14,9l-11 0c-8,0 -15,6 -15,15l0 215c0,3 2,5 5,5l0 0zm49 -251c0,-2 1,-3 3,-3l13 0c2,0 3,1 3,3l0 7 -19 0 0 -7 0 0zm-14 17l47 0c3,0 5,2 5,5l0 20 -57 0 0 -20c0,-3 2,-5 5,-5l0 0z"/>
   <path class="fil9" d="M187 19253l-81 0c-3,0 -5,2 -5,5 0,3 2,5 5,5l81 0c3,0 5,-2 5,-5 0,-3 -2,-5 -5,-5l0 0z"/>
   <path class="fil9" d="M187 19274l-81 0c-3,0 -5,3 -5,5 0,3 2,5 5,5l81 0c3,0 5,-2 5,-5 0,-2 -2,-5 -5,-5z"/>
   <path class="fil9" d="M187 19318l-81 0c-3,0 -5,2 -5,5 0,3 2,5 5,5l81 0c3,0 5,-2 5,-5 0,-3 -2,-5 -5,-5l0 0z"/>
   <path class="fil9" d="M187 19340l-81 0c-3,0 -5,2 -5,5 0,3 2,5 5,5l81 0c3,0 5,-2 5,-5 0,-3 -2,-5 -5,-5z"/>
   <path class="fil9" d="M187 19384l-81 0c-3,0 -5,2 -5,5 0,3 2,5 5,5l81 0c3,0 5,-2 5,-5 0,-3 -2,-5 -5,-5l0 0z"/>
   <path class="fil9" d="M187 19405l-81 0c-3,0 -5,3 -5,5 0,3 2,6 5,6l81 0c3,0 5,-3 5,-6 0,-2 -2,-5 -5,-5z"/>
   <path class="fil9" d="M97 19245c-2,-2 -5,-2 -7,0l-5 4c-1,-3 -4,-4 -7,-4l-35 0c-4,0 -8,3 -8,7l0 35c0,5 4,8 8,8l35 0c4,0 8,-3 8,-8l0 -26 10 -9c2,-1 3,-5 1,-7l0 0zm-21 40l-31 0 0 -30 31 0 0 2 -10 8 -5 -5c-2,-2 -5,-2 -7,0 -2,2 -2,5 0,7l8 9c1,1 2,1 3,1 2,0 3,0 4,-1l7 -6 0 15 0 0z"/>
   <path class="fil9" d="M97 19311c-2,-2 -5,-2 -7,0l-5 4c-1,-3 -4,-5 -7,-5l-35 0c-4,0 -8,4 -8,8l0 35c0,4 4,8 8,8l35 0c4,0 8,-4 8,-8l0 -26 10 -9c2,-1 3,-5 1,-7zm-21 40l-31 0 0 -31 31 0 0 3 -10 8 -5 -5c-2,-2 -5,-2 -7,0 -2,2 -2,5 0,7l8 9c1,1 2,1 3,1 2,0 3,0 4,-1l7 -6 0 15 0 0z"/>
   <path class="fil9" d="M90 19378l-4 3c-1,-3 -4,-5 -8,-5l-35 0c-4,0 -8,3 -8,7l0 36c0,4 4,7 8,7l35 0c4,0 8,-3 8,-7l0 -25 10 -9c2,-2 3,-5 1,-7 -2,-2 -5,-2 -7,0l0 0zm-14 38l-31 0 0 -30 31 0 0 3 -10 9 -5 -5c-2,-2 -5,-2 -7,0 -2,1 -2,5 0,7l8 8c1,2 2,2 3,2 2,0 3,0 4,-1l7 -6 0 13 0 0z"/>
  </g>
  <g id="_1480327641072">
   <path class="fil6" d="M122 19811c0,5 -4,9 -9,9 -5,0 -9,-4 -9,-9 0,-5 4,-9 9,-9 5,0 9,4 9,9zm0 0z"/>
   <path class="fil6" d="M207 19829l-64 0 0 -16c0,-16 -14,-29 -30,-29 -16,0 -30,13 -30,29l0 16 -64 0c-10,0 -18,8 -18,18l0 250c0,9 8,18 18,18l188 0c10,0 18,-9 18,-18l0 -100c0,-3 -2,-5 -5,-5 -3,0 -5,2 -5,5l0 100c0,4 -3,8 -8,8l-188 0c-4,0 -8,-4 -8,-8l0 -250c0,-4 4,-8 8,-8l188 0c5,0 8,4 8,8l0 127c0,3 2,5 5,5 3,0 5,-2 5,-5l0 -127c0,-10 -8,-18 -18,-18zm-114 -16c0,-11 9,-20 20,-20 11,0 20,9 20,20l0 16 -40 0 0 -16zm0 0z"/>
   <path class="fil6" d="M157 19878l-88 0c-3,0 -5,2 -5,5 0,2 2,4 5,4l88 0c3,0 5,-2 5,-4 0,-3 -2,-5 -5,-5zm0 0z"/>
   <path class="fil6" d="M27 19933c-3,0 -5,3 -5,5l0 151c0,2 2,5 5,5l172 0c3,0 5,-3 5,-5l0 -234c0,-3 -2,-5 -5,-5l-172 0c-3,0 -5,2 -5,5l0 61c0,2 2,4 5,4 3,0 5,-2 5,-4l0 -56 162 0 0 224 -162 0 0 -146c0,-2 -2,-5 -5,-5zm0 0z"/>
   <path class="fil6" d="M46 19916l0 27c0,2 2,4 5,4l27 0c3,0 5,-2 5,-4l0 -27c0,-2 -2,-4 -5,-4l-27 0c-3,0 -5,2 -5,4zm10 5l17 0 0 17 -17 0 0 -17zm0 0z"/>
   <path class="fil6" d="M175 19912l-80 0c-2,0 -4,2 -4,5 0,3 2,5 4,5l80 0c3,0 5,-2 5,-5 0,-3 -2,-5 -5,-5zm0 0z"/>
   <path class="fil6" d="M95 19947l47 0c3,0 5,-2 5,-4 0,-3 -2,-5 -5,-5l-47 0c-2,0 -4,2 -4,5 0,2 2,4 4,4zm0 0z"/>
   <path class="fil6" d="M46 20001c0,2 2,5 5,5l27 0c3,0 5,-3 5,-5l0 -26c0,-3 -2,-5 -5,-5l-27 0c-3,0 -5,2 -5,5l0 26zm10 -22l17 0 0 17 -17 0 0 -17zm0 0z"/>
   <path class="fil6" d="M175 19970l-80 0c-2,0 -4,2 -4,5 0,3 2,5 4,5l80 0c3,0 5,-2 5,-5 0,-3 -2,-5 -5,-5zm0 0z"/>
   <path class="fil6" d="M95 20006l47 0c3,0 5,-3 5,-5 0,-3 -2,-5 -5,-5l-47 0c-2,0 -4,2 -4,5 0,2 2,5 4,5zm0 0z"/>
   <path class="fil6" d="M46 20059c0,2 2,5 5,5l27 0c3,0 5,-3 5,-5l0 -26c0,-3 -2,-5 -5,-5l-27 0c-3,0 -5,2 -5,5l0 26zm10 -21l17 0 0 16 -17 0 0 -16zm0 0z"/>
   <path class="fil6" d="M180 20033c0,-2 -2,-5 -5,-5l-80 0c-2,0 -4,3 -4,5 0,3 2,5 4,5l80 0c3,0 5,-2 5,-5zm0 0z"/>
   <path class="fil6" d="M95 20054c-2,0 -4,2 -4,5 0,2 2,5 4,5l47 0c3,0 5,-3 5,-5 0,-3 -2,-5 -5,-5l-47 0zm0 0z"/>
   <path class="fil6" d="M277 19829l-20 0c-8,0 -14,7 -14,15l0 218c0,1 0,2 1,3l19 24c1,1 3,2 4,2 2,0 3,-1 4,-2l20 -24c0,-1 1,-2 1,-3l0 -143c0,-3 -3,-5 -5,-5 -3,0 -5,2 -5,5l0 141 -15 18 -15 -18 0 -184 10 0 0 186c0,3 2,5 5,5 3,0 5,-2 5,-5l0 -186 10 0 0 20c0,3 2,5 5,5 2,0 5,-2 5,-5l0 -52c0,-8 -7,-15 -15,-15l0 0zm-25 38l0 -23c0,-3 3,-5 5,-5l20 0c3,0 5,2 5,5l0 23 -30 0zm0 0z"/>
  </g>
  <g id="_1480327644752">
   <path class="fil7" d="M122 20440c0,5 -4,9 -9,9 -5,0 -9,-4 -9,-9 0,-5 4,-9 9,-9 5,0 9,4 9,9zm0 0z"/>
   <path class="fil7" d="M207 20458l-64 0 0 -16c0,-16 -14,-30 -30,-30 -16,0 -30,14 -30,30l0 16 -64 0c-10,0 -18,8 -18,18l0 249c0,10 8,18 18,18l188 0c10,0 18,-8 18,-18l0 -99c0,-3 -2,-5 -5,-5 -3,0 -5,2 -5,5l0 99c0,5 -3,9 -8,9l-188 0c-4,0 -8,-4 -8,-9l0 -249c0,-4 4,-8 8,-8l188 0c5,0 8,4 8,8l0 127c0,3 2,5 5,5 3,0 5,-2 5,-5l0 -127c0,-10 -8,-18 -18,-18zm-114 -16c0,-11 9,-20 20,-20 11,0 20,9 20,20l0 16 -40 0 0 -16zm0 0z"/>
   <path class="fil7" d="M157 20506l-88 0c-3,0 -5,3 -5,5 0,3 2,5 5,5l88 0c3,0 5,-2 5,-5 0,-2 -2,-5 -5,-5zm0 0z"/>
   <path class="fil7" d="M27 20562c-3,0 -5,2 -5,5l0 151c0,2 2,4 5,4l172 0c3,0 5,-2 5,-4l0 -234c0,-3 -2,-5 -5,-5l-172 0c-3,0 -5,2 -5,5l0 60c0,3 2,5 5,5 3,0 5,-2 5,-5l0 -55 162 0 0 224 -162 0 0 -146c0,-3 -2,-5 -5,-5zm0 0z"/>
   <path class="fil7" d="M46 20545l0 26c0,3 2,5 5,5l27 0c3,0 5,-2 5,-5l0 -26c0,-3 -2,-5 -5,-5l-27 0c-3,0 -5,2 -5,5zm10 5l17 0 0 16 -17 0 0 -16zm0 0z"/>
   <path class="fil7" d="M175 20541l-80 0c-2,0 -4,2 -4,5 0,3 2,5 4,5l80 0c3,0 5,-2 5,-5 0,-3 -2,-5 -5,-5zm0 0z"/>
   <path class="fil7" d="M95 20576l47 0c3,0 5,-2 5,-5 0,-2 -2,-5 -5,-5l-47 0c-2,0 -4,3 -4,5 0,3 2,5 4,5zm0 0z"/>
   <path class="fil7" d="M46 20629c0,3 2,5 5,5l27 0c3,0 5,-2 5,-5l0 -26c0,-2 -2,-5 -5,-5l-27 0c-3,0 -5,3 -5,5l0 26zm10 -21l17 0 0 17 -17 0 0 -17zm0 0z"/>
   <path class="fil7" d="M175 20599l-80 0c-2,0 -4,2 -4,5 0,3 2,5 4,5l80 0c3,0 5,-2 5,-5 0,-3 -2,-5 -5,-5zm0 0z"/>
   <path class="fil7" d="M95 20634l47 0c3,0 5,-2 5,-5 0,-2 -2,-4 -5,-4l-47 0c-2,0 -4,2 -4,4 0,3 2,5 4,5zm0 0z"/>
   <path class="fil7" d="M46 20687c0,3 2,5 5,5l27 0c3,0 5,-2 5,-5l0 -26c0,-2 -2,-5 -5,-5l-27 0c-3,0 -5,3 -5,5l0 26zm10 -21l17 0 0 17 -17 0 0 -17zm0 0z"/>
   <path class="fil7" d="M180 20662c0,-3 -2,-5 -5,-5l-80 0c-2,0 -4,2 -4,5 0,3 2,5 4,5l80 0c3,0 5,-2 5,-5zm0 0z"/>
   <path class="fil7" d="M95 20683c-2,0 -4,2 -4,4 0,3 2,5 4,5l47 0c3,0 5,-2 5,-5 0,-2 -2,-4 -5,-4l-47 0zm0 0z"/>
   <path class="fil7" d="M277 20458l-20 0c-8,0 -14,7 -14,15l0 218c0,1 0,2 1,3l19 24c1,1 3,2 4,2 2,0 3,-1 4,-2l20 -24c0,-1 1,-2 1,-3l0 -144c0,-2 -3,-4 -5,-4 -3,0 -5,2 -5,4l0 142 -15 18 -15 -18 0 -184 10 0 0 186c0,2 2,5 5,5 3,0 5,-3 5,-5l0 -186 10 0 0 20c0,2 2,5 5,5 2,0 5,-3 5,-5l0 -52c0,-8 -7,-15 -15,-15l0 0zm-25 37l0 -22c0,-3 3,-5 5,-5l20 0c3,0 5,2 5,5l0 22 -30 0zm0 0z"/>
  </g>
  <g id="_1480327649296">
   <path class="fil8" d="M122 21069c0,5 -4,9 -9,9 -5,0 -9,-4 -9,-9 0,-5 4,-9 9,-9 5,0 9,4 9,9zm0 0z"/>
   <path class="fil8" d="M207 21087l-64 0 0 -16c0,-17 -14,-30 -30,-30 -16,0 -30,13 -30,30l0 16 -64 0c-10,0 -18,8 -18,18l0 249c0,10 8,18 18,18l188 0c10,0 18,-8 18,-18l0 -99c0,-3 -2,-5 -5,-5 -3,0 -5,2 -5,5l0 99c0,5 -3,8 -8,8l-188 0c-4,0 -8,-3 -8,-8l0 -249c0,-5 4,-8 8,-8l188 0c5,0 8,3 8,8l0 127c0,2 2,5 5,5 3,0 5,-3 5,-5l0 -127c0,-10 -8,-18 -18,-18zm-114 -16c0,-11 9,-20 20,-20 11,0 20,9 20,20l0 16 -40 0 0 -16zm0 0z"/>
   <path class="fil8" d="M157 21135l-88 0c-3,0 -5,2 -5,5 0,3 2,5 5,5l88 0c3,0 5,-2 5,-5 0,-3 -2,-5 -5,-5zm0 0z"/>
   <path class="fil8" d="M27 21191c-3,0 -5,2 -5,5l0 150c0,3 2,5 5,5l172 0c3,0 5,-2 5,-5l0 -233c0,-3 -2,-5 -5,-5l-172 0c-3,0 -5,2 -5,5l0 60c0,3 2,5 5,5 3,0 5,-2 5,-5l0 -56 162 0 0 224 -162 0 0 -145c0,-3 -2,-5 -5,-5zm0 0z"/>
   <path class="fil8" d="M46 21174l0 26c0,3 2,5 5,5l27 0c3,0 5,-2 5,-5l0 -26c0,-3 -2,-5 -5,-5l-27 0c-3,0 -5,2 -5,5zm10 5l17 0 0 16 -17 0 0 -16zm0 0z"/>
   <path class="fil8" d="M175 21170l-80 0c-2,0 -4,2 -4,5 0,2 2,4 4,4l80 0c3,0 5,-2 5,-4 0,-3 -2,-5 -5,-5zm0 0z"/>
   <path class="fil8" d="M95 21205l47 0c3,0 5,-2 5,-5 0,-3 -2,-5 -5,-5l-47 0c-2,0 -4,2 -4,5 0,3 2,5 4,5zm0 0z"/>
   <path class="fil8" d="M46 21258c0,3 2,5 5,5l27 0c3,0 5,-2 5,-5l0 -26c0,-3 -2,-5 -5,-5l-27 0c-3,0 -5,2 -5,5l0 26zm10 -21l17 0 0 16 -17 0 0 -16zm0 0z"/>
   <path class="fil8" d="M175 21228l-80 0c-2,0 -4,2 -4,5 0,2 2,5 4,5l80 0c3,0 5,-3 5,-5 0,-3 -2,-5 -5,-5zm0 0z"/>
   <path class="fil8" d="M95 21263l47 0c3,0 5,-2 5,-5 0,-3 -2,-5 -5,-5l-47 0c-2,0 -4,2 -4,5 0,3 2,5 4,5zm0 0z"/>
   <path class="fil8" d="M46 21316c0,3 2,5 5,5l27 0c3,0 5,-2 5,-5l0 -26c0,-3 -2,-5 -5,-5l-27 0c-3,0 -5,2 -5,5l0 26zm10 -21l17 0 0 16 -17 0 0 -16zm0 0z"/>
   <path class="fil8" d="M180 21291c0,-3 -2,-5 -5,-5l-80 0c-2,0 -4,2 -4,5 0,2 2,5 4,5l80 0c3,0 5,-3 5,-5zm0 0z"/>
   <path class="fil8" d="M95 21311c-2,0 -4,3 -4,5 0,3 2,5 4,5l47 0c3,0 5,-2 5,-5 0,-2 -2,-5 -5,-5l-47 0zm0 0z"/>
   <path class="fil8" d="M277 21087l-20 0c-8,0 -14,6 -14,14l0 219c0,1 0,2 1,3l19 24c1,1 3,2 4,2 2,0 3,-1 4,-2l20 -24c0,-1 1,-2 1,-3l0 -144c0,-2 -3,-5 -5,-5 -3,0 -5,3 -5,5l0 142 -15 18 -15 -18 0 -184 10 0 0 186c0,2 2,4 5,4 3,0 5,-2 5,-4l0 -186 10 0 0 19c0,3 2,5 5,5 2,0 5,-2 5,-5l0 -52c0,-8 -7,-14 -15,-14l0 0zm-25 37l0 -23c0,-2 3,-4 5,-4l20 0c3,0 5,2 5,4l0 23 -30 0zm0 0z"/>
  </g>
  <g id="_1480327653072">
   <path class="fil6" d="M241 21993c3,0 5,-2 5,-5l0 -230c0,-8 -6,-15 -15,-15l-5 0 0 -14c0,-8 -7,-15 -15,-15l-22 0c-3,0 -5,2 -5,5 0,3 2,5 5,5l22 0c3,0 5,2 5,5l0 258c0,3 -2,5 -5,5l-195 0c-2,0 -5,-2 -5,-5l0 -20c0,-3 -2,-5 -5,-5 -3,0 -5,2 -5,5l0 20c0,9 7,16 15,16l5 0 0 13c0,8 7,15 16,15l194 0c9,0 15,-7 15,-15l0 -6c0,-3 -2,-5 -5,-5 -2,0 -5,2 -5,5l0 6c0,3 -2,5 -5,5l-194 0c-3,0 -5,-2 -5,-5l0 -13 179 0c8,0 15,-7 15,-16l0 -234 5 0c3,0 5,2 5,5l0 230c0,3 3,5 5,5l0 0z"/>
   <path class="fil6" d="M123 21698c0,5 -4,9 -9,9 -5,0 -9,-4 -9,-9 0,-5 4,-10 9,-10 5,0 9,5 9,10zm0 0z"/>
   <path class="fil6" d="M208 21716l-64 0 0 -16c0,-17 -14,-30 -30,-30 -16,0 -30,13 -30,30l0 16 -64 0c-10,0 -18,8 -18,18l0 249c0,10 8,18 18,18l188 0c10,0 18,-8 18,-18l0 -100c0,-2 -2,-5 -5,-5 -3,0 -5,3 -5,5l0 100c0,4 -4,8 -8,8l-188 0c-5,0 -8,-4 -8,-8l0 -249c0,-5 3,-9 8,-9l188 0c4,0 8,4 8,9l0 127c0,2 2,4 5,4 3,0 5,-2 5,-4l0 -127c0,-10 -8,-18 -18,-18zm-114 -16c0,-11 9,-20 20,-20 11,0 20,9 20,20l0 16 -40 0 0 -16zm0 0z"/>
   <path class="fil6" d="M158 21764l-88 0c-3,0 -5,2 -5,5 0,2 2,5 5,5l88 0c3,0 5,-3 5,-5 0,-3 -2,-5 -5,-5zm0 0z"/>
   <path class="fil6" d="M28 21820c-3,0 -5,2 -5,5l0 150c0,3 2,5 5,5l172 0c3,0 5,-2 5,-5l0 -234c0,-2 -2,-5 -5,-5l-172 0c-3,0 -5,3 -5,5l0 61c0,2 2,5 5,5 2,0 5,-3 5,-5l0 -56 162 0 0 224 -162 0 0 -145c0,-3 -3,-5 -5,-5zm0 0z"/>
   <path class="fil6" d="M47 21803l0 26c0,3 2,5 5,5l27 0c2,0 5,-2 5,-5l0 -26c0,-3 -3,-5 -5,-5l-27 0c-3,0 -5,2 -5,5zm10 5l17 0 0 16 -17 0 0 -16zm0 0z"/>
   <path class="fil6" d="M176 21798l-80 0c-2,0 -5,3 -5,5 0,3 3,5 5,5l80 0c3,0 5,-2 5,-5 0,-2 -2,-5 -5,-5zm0 0z"/>
   <path class="fil6" d="M96 21834l47 0c3,0 5,-2 5,-5 0,-3 -2,-5 -5,-5l-47 0c-2,0 -5,2 -5,5 0,3 3,5 5,5zm0 0z"/>
   <path class="fil6" d="M47 21887c0,3 2,5 5,5l27 0c2,0 5,-2 5,-5l0 -26c0,-3 -3,-5 -5,-5l-27 0c-3,0 -5,2 -5,5l0 26zm10 -21l17 0 0 16 -17 0 0 -16zm0 0z"/>
   <path class="fil6" d="M176 21857l-80 0c-2,0 -5,2 -5,4 0,3 3,5 5,5l80 0c3,0 5,-2 5,-5 0,-2 -2,-4 -5,-4zm0 0z"/>
   <path class="fil6" d="M96 21892l47 0c3,0 5,-2 5,-5 0,-3 -2,-5 -5,-5l-47 0c-2,0 -5,2 -5,5 0,3 3,5 5,5zm0 0z"/>
   <path class="fil6" d="M47 21945c0,3 2,5 5,5l27 0c2,0 5,-2 5,-5l0 -26c0,-3 -3,-5 -5,-5l-27 0c-3,0 -5,2 -5,5l0 26zm10 -21l17 0 0 16 -17 0 0 -16zm0 0z"/>
   <path class="fil6" d="M181 21920c0,-3 -2,-5 -5,-5l-80 0c-2,0 -5,2 -5,5 0,2 3,4 5,4l80 0c3,0 5,-2 5,-4zm0 0z"/>
   <path class="fil6" d="M96 21940c-2,0 -5,2 -5,5 0,3 3,5 5,5l47 0c3,0 5,-2 5,-5 0,-3 -2,-5 -5,-5l-47 0zm0 0z"/>
  </g>
  <g id="_1480327657136">
   <path class="fil7" d="M241 22652c3,0 5,-2 5,-5l0 -230c0,-8 -6,-15 -15,-15l-5 0 0 -14c0,-8 -7,-15 -15,-15l-22 0c-3,0 -5,3 -5,5 0,3 2,5 5,5l22 0c3,0 5,3 5,6l0 258c0,2 -2,5 -5,5l-195 0c-2,0 -5,-3 -5,-5l0 -21c0,-3 -2,-5 -5,-5 -3,0 -5,2 -5,5l0 21c0,8 7,15 15,15l5 0 0 13c0,9 7,16 16,16l194 0c9,0 15,-7 15,-16l0 -6c0,-3 -2,-5 -5,-5 -2,0 -5,2 -5,5l0 6c0,3 -2,5 -5,5l-194 0c-3,0 -5,-2 -5,-5l0 -13 179 0c8,0 15,-7 15,-15l0 -235 5 0c3,0 5,2 5,5l0 230c0,3 3,5 5,5l0 0z"/>
   <path class="fil7" d="M123 22357c0,5 -4,9 -9,9 -5,0 -9,-4 -9,-9 0,-5 4,-9 9,-9 5,0 9,4 9,9zm0 0z"/>
   <path class="fil7" d="M208 22375l-64 0 0 -16c0,-17 -14,-30 -30,-30 -16,0 -30,13 -30,30l0 16 -64 0c-10,0 -18,8 -18,18l0 249c0,10 8,18 18,18l188 0c10,0 18,-8 18,-18l0 -99c0,-3 -2,-5 -5,-5 -3,0 -5,2 -5,5l0 99c0,5 -4,8 -8,8l-188 0c-5,0 -8,-3 -8,-8l0 -249c0,-5 3,-8 8,-8l188 0c4,0 8,3 8,8l0 127c0,3 2,5 5,5 3,0 5,-2 5,-5l0 -127c0,-10 -8,-18 -18,-18zm-114 -16c0,-11 9,-20 20,-20 11,0 20,9 20,20l0 16 -40 0 0 -16zm0 0z"/>
   <path class="fil7" d="M158 22423l-88 0c-3,0 -5,2 -5,5 0,3 2,5 5,5l88 0c3,0 5,-2 5,-5 0,-3 -2,-5 -5,-5zm0 0z"/>
   <path class="fil7" d="M28 22479c-3,0 -5,2 -5,5l0 150c0,3 2,5 5,5l172 0c3,0 5,-2 5,-5l0 -233c0,-3 -2,-5 -5,-5l-172 0c-3,0 -5,2 -5,5l0 60c0,3 2,5 5,5 2,0 5,-2 5,-5l0 -55 162 0 0 223 -162 0 0 -145c0,-3 -3,-5 -5,-5zm0 0z"/>
   <path class="fil7" d="M47 22462l0 26c0,3 2,5 5,5l27 0c2,0 5,-2 5,-5l0 -26c0,-3 -3,-5 -5,-5l-27 0c-3,0 -5,2 -5,5zm10 5l17 0 0 16 -17 0 0 -16zm0 0z"/>
   <path class="fil7" d="M176 22458l-80 0c-2,0 -5,2 -5,5 0,2 3,5 5,5l80 0c3,0 5,-3 5,-5 0,-3 -2,-5 -5,-5zm0 0z"/>
   <path class="fil7" d="M96 22493l47 0c3,0 5,-2 5,-5 0,-3 -2,-5 -5,-5l-47 0c-2,0 -5,2 -5,5 0,3 3,5 5,5zm0 0z"/>
   <path class="fil7" d="M47 22546c0,3 2,5 5,5l27 0c2,0 5,-2 5,-5l0 -26c0,-3 -3,-5 -5,-5l-27 0c-3,0 -5,2 -5,5l0 26zm10 -21l17 0 0 16 -17 0 0 -16zm0 0z"/>
   <path class="fil7" d="M176 22516l-80 0c-2,0 -5,2 -5,5 0,2 3,5 5,5l80 0c3,0 5,-3 5,-5 0,-3 -2,-5 -5,-5zm0 0z"/>
   <path class="fil7" d="M96 22551l47 0c3,0 5,-2 5,-5 0,-3 -2,-5 -5,-5l-47 0c-2,0 -5,2 -5,5 0,3 3,5 5,5zm0 0z"/>
   <path class="fil7" d="M47 22604c0,3 2,5 5,5l27 0c2,0 5,-2 5,-5l0 -26c0,-3 -3,-5 -5,-5l-27 0c-3,0 -5,2 -5,5l0 26zm10 -21l17 0 0 16 -17 0 0 -16zm0 0z"/>
   <path class="fil7" d="M181 22579c0,-3 -2,-5 -5,-5l-80 0c-2,0 -5,2 -5,5 0,3 3,5 5,5l80 0c3,0 5,-2 5,-5zm0 0z"/>
   <path class="fil7" d="M96 22599c-2,0 -5,3 -5,5 0,3 3,5 5,5l47 0c3,0 5,-2 5,-5 0,-2 -2,-5 -5,-5l-47 0zm0 0z"/>
  </g>
  <g id="_1480327660016">
   <path class="fil9" d="M241 23311c3,0 5,-2 5,-5l0 -230c0,-8 -6,-15 -15,-15l-5 0 0 -13c0,-9 -7,-15 -15,-15l-22 0c-3,0 -5,2 -5,5 0,2 2,5 5,5l22 0c3,0 5,2 5,5l0 258c0,3 -2,5 -5,5l-195 0c-2,0 -5,-2 -5,-5l0 -21c0,-2 -2,-5 -5,-5 -3,0 -5,3 -5,5l0 21c0,8 7,15 15,15l5 0 0 14c0,8 7,15 16,15l194 0c9,0 15,-7 15,-15l0 -7c0,-3 -2,-5 -5,-5 -2,0 -5,2 -5,5l0 7c0,2 -2,5 -5,5l-194 0c-3,0 -5,-3 -5,-5l0 -14 179 0c8,0 15,-7 15,-15l0 -235 5 0c3,0 5,3 5,5l0 230c0,3 3,5 5,5l0 0z"/>
   <path class="fil9" d="M123 23016c0,5 -4,9 -9,9 -5,0 -9,-4 -9,-9 0,-5 4,-9 9,-9 5,0 9,4 9,9zm0 0z"/>
   <path class="fil9" d="M208 23034l-64 0 0 -16c0,-16 -14,-30 -30,-30 -16,0 -30,14 -30,30l0 16 -64 0c-10,0 -18,8 -18,18l0 249c0,10 8,18 18,18l188 0c10,0 18,-8 18,-18l0 -99c0,-3 -2,-5 -5,-5 -3,0 -5,2 -5,5l0 99c0,5 -4,9 -8,9l-188 0c-5,0 -8,-4 -8,-9l0 -249c0,-4 3,-8 8,-8l188 0c4,0 8,4 8,8l0 127c0,3 2,5 5,5 3,0 5,-2 5,-5l0 -127c0,-10 -8,-18 -18,-18zm-114 -16c0,-11 9,-20 20,-20 11,0 20,9 20,20l0 16 -40 0 0 -16zm0 0z"/>
   <path class="fil9" d="M158 23082l-88 0c-3,0 -5,3 -5,5 0,3 2,5 5,5l88 0c3,0 5,-2 5,-5 0,-2 -2,-5 -5,-5zm0 0z"/>
   <path class="fil9" d="M28 23138c-3,0 -5,2 -5,5l0 151c0,2 2,4 5,4l172 0c3,0 5,-2 5,-4l0 -234c0,-3 -2,-5 -5,-5l-172 0c-3,0 -5,2 -5,5l0 60c0,3 2,5 5,5 2,0 5,-2 5,-5l0 -55 162 0 0 224 -162 0 0 -146c0,-3 -3,-5 -5,-5zm0 0z"/>
   <path class="fil9" d="M47 23121l0 26c0,3 2,5 5,5l27 0c2,0 5,-2 5,-5l0 -26c0,-2 -3,-5 -5,-5l-27 0c-3,0 -5,3 -5,5zm10 5l17 0 0 16 -17 0 0 -16zm0 0z"/>
   <path class="fil9" d="M176 23117l-80 0c-2,0 -5,2 -5,5 0,3 3,5 5,5l80 0c3,0 5,-2 5,-5 0,-3 -2,-5 -5,-5zm0 0z"/>
   <path class="fil9" d="M96 23152l47 0c3,0 5,-2 5,-5 0,-2 -2,-5 -5,-5l-47 0c-2,0 -5,3 -5,5 0,3 3,5 5,5zm0 0z"/>
   <path class="fil9" d="M47 23205c0,3 2,5 5,5l27 0c2,0 5,-2 5,-5l0 -26c0,-2 -3,-5 -5,-5l-27 0c-3,0 -5,3 -5,5l0 26zm10 -21l17 0 0 17 -17 0 0 -17zm0 0z"/>
   <path class="fil9" d="M176 23175l-80 0c-2,0 -5,2 -5,5 0,3 3,5 5,5l80 0c3,0 5,-2 5,-5 0,-3 -2,-5 -5,-5zm0 0z"/>
   <path class="fil9" d="M96 23210l47 0c3,0 5,-2 5,-5 0,-2 -2,-4 -5,-4l-47 0c-2,0 -5,2 -5,4 0,3 3,5 5,5zm0 0z"/>
   <path class="fil9" d="M47 23264c0,2 2,4 5,4l27 0c2,0 5,-2 5,-4l0 -27c0,-2 -3,-4 -5,-4l-27 0c-3,0 -5,2 -5,4l0 27zm10 -22l17 0 0 17 -17 0 0 -17zm0 0z"/>
   <path class="fil9" d="M181 23238c0,-3 -2,-5 -5,-5l-80 0c-2,0 -5,2 -5,5 0,3 3,5 5,5l80 0c3,0 5,-2 5,-5zm0 0z"/>
   <path class="fil9" d="M96 23259c-2,0 -5,2 -5,5 0,2 3,4 5,4l47 0c3,0 5,-2 5,-4 0,-3 -2,-5 -5,-5l-47 0zm0 0z"/>
  </g>
  <g id="_1480327665648">
   <g>
    <g>
     <path class="fil6" d="M1 23761l0 72c0,16 16,28 32,28l146 0c17,0 29,-12 29,-28l0 -1 53 26c1,1 2,1 3,1 11,0 18,-8 18,-19l0 -93c0,-10 -7,-19 -17,-19 -2,0 -2,0 -3,1l-53 27c-3,-14 -14,-24 -29,-25 15,-11 25,-28 25,-48 0,-33 -27,-60 -60,-60 -27,0 -50,18 -57,43 -8,-9 -20,-14 -32,-14 -25,0 -46,20 -46,45 0,14 6,27 15,35 -13,3 -24,15 -24,29zm264 -18c2,0 3,2 3,4l0 93c0,2 -1,4 -3,5l-57 -29 0 -45 57 -28zm-169 -27c4,5 9,10 14,14l-24 0c4,-4 8,-9 10,-14zm4 -33c0,-25 20,-46 45,-46 25,0 46,21 46,46 0,25 -21,46 -46,46 -21,0 -39,-15 -44,-35 0,-3 -1,-5 -1,-7 0,-2 0,-3 0,-4zm-44 -17c14,0 26,10 30,23 0,2 0,5 1,7 0,1 0,1 0,1 0,18 -14,32 -31,32 -17,0 -31,-14 -31,-32 0,-17 14,-31 31,-31zm137 165c0,9 -7,16 -16,16l-146 0c-8,0 -16,-7 -16,-16l0 -71c0,-9 8,-16 16,-16l146 0c9,0 16,7 16,16l0 71z"/>
    </g>
   </g>
   <g>
   </g>
   <g>
   </g>
   <g>
   </g>
   <g>
   </g>
   <g>
   </g>
   <g>
   </g>
   <g>
   </g>
   <g>
   </g>
   <g>
   </g>
   <g>
   </g>
   <g>
   </g>
   <g>
   </g>
   <g>
   </g>
   <g>
   </g>
   <g>
   </g>
  </g>
  <g id="_1480327668208">
   <g>
    <g>
     <path class="fil7" d="M1 24326l0 71c0,17 16,29 32,29l146 0c17,0 29,-12 29,-29l0 -1 53 27c1,0 2,0 3,0 11,0 18,-8 18,-19l0 -92c0,-11 -7,-20 -17,-20 -2,0 -2,1 -3,1l-53 27c-3,-13 -14,-24 -29,-24 15,-11 25,-29 25,-49 0,-33 -27,-60 -60,-60 -27,0 -50,18 -57,43 -8,-8 -20,-13 -32,-13 -25,0 -46,20 -46,45 0,14 6,26 15,34 -13,3 -24,15 -24,30zm264 -19c2,1 3,3 3,5l0 92c0,2 -1,4 -3,5l-57 -29 0 -44 57 -29zm-169 -26c4,5 9,10 14,13l-24 0c4,-3 8,-8 10,-13zm4 -34c0,-25 20,-45 45,-45 25,0 46,20 46,45 0,26 -21,46 -46,46 -21,0 -39,-15 -44,-35 0,-2 -1,-5 -1,-7 0,-1 0,-2 0,-4zm-44 -16c14,0 26,9 30,22 0,3 0,5 1,7 0,1 0,1 0,2 0,17 -14,31 -31,31 -17,0 -31,-14 -31,-31 0,-17 14,-31 31,-31zm137 165c0,8 -7,16 -16,16l-146 0c-8,0 -16,-8 -16,-16l0 -72c0,-8 8,-16 16,-16l146 0c9,0 16,8 16,16l0 72z"/>
    </g>
   </g>
   <g>
   </g>
   <g>
   </g>
   <g>
   </g>
   <g>
   </g>
   <g>
   </g>
   <g>
   </g>
   <g>
   </g>
   <g>
   </g>
   <g>
   </g>
   <g>
   </g>
   <g>
   </g>
   <g>
   </g>
   <g>
   </g>
   <g>
   </g>
   <g>
   </g>
  </g>
  <g id="_1480330556672">
   <g>
    <g>
     <path class="fil8" d="M1 24890l0 71c0,17 16,29 32,29l146 0c17,0 29,-12 29,-29l0 -1 53 27c1,1 2,1 3,1 11,0 18,-9 18,-20l0 -92c0,-11 -7,-19 -17,-19 -2,0 -2,0 -3,1l-53 26c-3,-13 -14,-23 -29,-24 15,-11 25,-28 25,-48 0,-33 -27,-60 -60,-60 -27,0 -50,18 -57,42 -8,-8 -20,-13 -32,-13 -25,0 -46,20 -46,45 0,14 6,26 15,35 -13,3 -24,15 -24,29zm264 -19c2,1 3,3 3,5l0 92c0,3 -1,5 -3,5l-57 -29 0 -44 57 -29zm-169 -26c4,5 9,10 14,14l-24 0c4,-4 8,-9 10,-14zm4 -33c0,-25 20,-46 45,-46 25,0 46,21 46,46 0,25 -21,45 -46,45 -21,0 -39,-14 -44,-34 0,-3 -1,-5 -1,-8 0,-1 0,-2 0,-3zm-44 -17c14,0 26,10 30,23 0,2 0,4 1,7 0,0 0,1 0,1 0,17 -14,31 -31,31 -17,0 -31,-14 -31,-31 0,-17 14,-31 31,-31zm137 165c0,9 -7,16 -16,16l-146 0c-8,0 -16,-7 -16,-16l0 -71c0,-9 8,-16 16,-16l146 0c9,0 16,7 16,16l0 71z"/>
    </g>
   </g>
   <g>
   </g>
   <g>
   </g>
   <g>
   </g>
   <g>
   </g>
   <g>
   </g>
   <g>
   </g>
   <g>
   </g>
   <g>
   </g>
   <g>
   </g>
   <g>
   </g>
   <g>
   </g>
   <g>
   </g>
   <g>
   </g>
   <g>
   </g>
   <g>
   </g>
  </g>
  <g id="_1480330563104">
   <g>
    <path class="fil6" d="M258 25316l-42 0 -41 0 -42 0 -42 0 -42 0 -42 0c-3,0 -6,3 -6,6l0 35 0 121 0 35c0,4 3,6 6,6l42 0 42 0 42 0 42 0 41 0 42 0c4,0 6,-2 6,-6l0 -35 0 -121 0 -35c0,-3 -2,-6 -6,-6zm-42 156l-41 0 -42 0 -42 0 -42 0 -36 0 0 -109 36 0 42 0 42 0 42 0 41 0 37 0 0 109 -37 0 0 0zm37 -121l-30 0 0 -23 30 0 0 23zm-42 0l-31 0 0 -23 30 0 0 23 1 0zm-42 0l-30 0 0 -23 30 0 0 23 0 0zm-42 0l-30 0 0 -23 30 0 0 23 0 0zm-42 0l-30 0 0 -23 30 0 0 23zm-72 -23l30 0 0 23 -30 0 0 -23zm0 156l30 0 0 23 -30 0 0 -23zm42 0l30 0 0 23 -30 0 0 -23 0 0zm42 0l30 0 0 23 -30 0 0 -23 0 0zm42 0l30 0 0 23 -30 0 0 -23zm41 0l30 0 0 23 -30 0 0 -23zm73 23l-30 0 0 -23 30 0 0 23zm-88 -95l-49 -29c-2,-1 -5,-1 -6,0 -2,1 -3,3 -3,5l0 58c0,2 1,4 3,5 1,0 2,0 3,0 1,0 2,0 3,0l49 -29c2,-1 3,-3 3,-5 0,-2 -1,-4 -3,-5zm-47 24l0 -37 32 18 -32 19z"/>
   </g>
   <g>
   </g>
   <g>
   </g>
   <g>
   </g>
   <g>
   </g>
   <g>
   </g>
   <g>
   </g>
   <g>
   </g>
   <g>
   </g>
   <g>
   </g>
   <g>
   </g>
   <g>
   </g>
   <g>
   </g>
   <g>
   </g>
   <g>
   </g>
   <g>
   </g>
  </g>
  <g id="_1480330566080">
   <g>
    <path class="fil7" d="M258 25881l-42 0 -41 0 -42 0 -42 0 -42 0 -42 0c-3,0 -6,2 -6,5l0 35 0 122 0 35c0,3 3,5 6,5l42 0 42 0 42 0 42 0 41 0 42 0c4,0 6,-2 6,-5l0 -35 0 -122 0 -35c0,-3 -2,-5 -6,-5zm-42 156l-41 0 -42 0 -42 0 -42 0 -36 0 0 -110 36 0 42 0 42 0 42 0 41 0 37 0 0 110 -37 0 0 0zm37 -122l-30 0 0 -23 30 0 0 23zm-42 0l-31 0 0 -23 30 0 0 23 1 0zm-42 0l-30 0 0 -23 30 0 0 23 0 0zm-42 0l-30 0 0 -23 30 0 0 23 0 0zm-42 0l-30 0 0 -23 30 0 0 23zm-72 -23l30 0 0 24 -30 0 0 -24zm0 156l30 0 0 24 -30 0 0 -24zm42 0l30 0 0 24 -30 0 0 -24 0 0zm42 0l30 0 0 24 -30 0 0 -24 0 0zm42 0l30 0 0 24 -30 0 0 -24zm41 0l30 0 0 24 -30 0 0 -24zm73 24l-30 0 0 -24 30 0 0 24zm-88 -96l-49 -28c-2,-1 -5,-1 -6,0 -2,1 -3,3 -3,5l0 57c0,2 1,4 3,5 1,1 2,1 3,1 1,0 2,-1 3,-1l49 -29c2,-1 3,-2 3,-5 0,-1 -1,-3 -3,-5zm-47 24l0 -37 32 19 -32 18z"/>
   </g>
   <g>
   </g>
   <g>
   </g>
   <g>
   </g>
   <g>
   </g>
   <g>
   </g>
   <g>
   </g>
   <g>
   </g>
   <g>
   </g>
   <g>
   </g>
   <g>
   </g>
   <g>
   </g>
   <g>
   </g>
   <g>
   </g>
   <g>
   </g>
   <g>
   </g>
  </g>
  <g id="_1480330572800">
   <g>
    <path class="fil8" d="M258 26445l-42 0 -41 0 -42 0 -42 0 -42 0 -42 0c-3,0 -6,3 -6,6l0 35 0 121 0 35c0,3 3,6 6,6l42 0 42 0 42 0 42 0 41 0 42 0c4,0 6,-3 6,-6l0 -35 0 -121 0 -35c0,-3 -2,-6 -6,-6zm-42 156l-41 0 -42 0 -42 0 -42 0 -36 0 0 -109 36 0 42 0 42 0 42 0 41 0 37 0 0 109 -37 0 0 0zm37 -121l-30 0 0 -23 30 0 0 23zm-42 0l-31 0 0 -23 30 0 0 23 1 0zm-42 0l-30 0 0 -23 30 0 0 23 0 0zm-42 0l-30 0 0 -23 30 0 0 23 0 0zm-42 0l-30 0 0 -23 30 0 0 23zm-72 -23l30 0 0 23 -30 0 0 -23zm0 156l30 0 0 23 -30 0 0 -23zm42 0l30 0 0 23 -30 0 0 -23 0 0zm42 0l30 0 0 23 -30 0 0 -23 0 0zm42 0l30 0 0 23 -30 0 0 -23zm41 0l30 0 0 23 -30 0 0 -23zm73 23l-30 0 0 -23 30 0 0 23zm-88 -95l-49 -29c-2,-1 -5,-1 -6,0 -2,1 -3,3 -3,5l0 57c0,3 1,5 3,6 1,0 2,0 3,0 1,0 2,0 3,0l49 -29c2,-1 3,-3 3,-5 0,-2 -1,-4 -3,-5zm-47 24l0 -37 32 18 -32 19z"/>
   </g>
   <g>
   </g>
   <g>
   </g>
   <g>
   </g>
   <g>
   </g>
   <g>
   </g>
   <g>
   </g>
   <g>
   </g>
   <g>
   </g>
   <g>
   </g>
   <g>
   </g>
   <g>
   </g>
   <g>
   </g>
   <g>
   </g>
   <g>
   </g>
   <g>
   </g>
  </g>
  <g id="_1480330580064">
   <g>
    <g>
     <path class="fil6" d="M152 27248l-116 0c-11,0 -19,9 -19,20l0 166c0,11 8,20 19,20l116 0c11,0 20,-9 20,-20l0 -166c0,-11 -9,-20 -20,-20zm6 186c0,3 -3,6 -6,6l-116 0c-3,0 -6,-3 -6,-6l0 -166c0,-4 3,-6 6,-6l116 0c3,0 6,2 6,6l0 166z"/>
     <path class="fil6" d="M196 27204l-115 0c-11,0 -20,9 -20,20 0,4 3,7 7,7 4,0 7,-3 7,-7 0,-3 2,-6 6,-6l115 0c4,0 6,3 6,6l0 166c0,4 -2,6 -6,6 -3,0 -6,3 -6,7 0,4 3,7 6,7 11,0 20,-9 20,-20l0 -166c0,-11 -9,-20 -20,-20z"/>
    </g>
   </g>
   <g>
   </g>
   <g>
   </g>
   <g>
   </g>
   <g>
   </g>
   <g>
   </g>
   <g>
   </g>
   <g>
   </g>
   <g>
   </g>
   <g>
   </g>
   <g>
   </g>
   <g>
   </g>
   <g>
   </g>
   <g>
   </g>
   <g>
   </g>
   <g>
   </g>
  </g>
  <g id="_1480330584192">
   <g>
    <g>
     <path class="fil7" d="M152 27988l-116 0c-11,0 -19,9 -19,20l0 166c0,11 8,20 19,20l116 0c11,0 20,-9 20,-20l0 -166c0,-11 -9,-20 -20,-20zm6 186c0,3 -3,6 -6,6l-116 0c-3,0 -6,-3 -6,-6l0 -166c0,-4 3,-6 6,-6l116 0c3,0 6,2 6,6l0 166z"/>
     <path class="fil7" d="M196 27944l-115 0c-11,0 -20,9 -20,20 0,4 3,7 7,7 4,0 7,-3 7,-7 0,-3 2,-6 6,-6l115 0c4,0 6,3 6,6l0 166c0,4 -2,6 -6,6 -3,0 -6,3 -6,7 0,4 3,7 6,7 11,0 20,-9 20,-20l0 -166c0,-11 -9,-20 -20,-20z"/>
    </g>
   </g>
   <g>
   </g>
   <g>
   </g>
   <g>
   </g>
   <g>
   </g>
   <g>
   </g>
   <g>
   </g>
   <g>
   </g>
   <g>
   </g>
   <g>
   </g>
   <g>
   </g>
   <g>
   </g>
   <g>
   </g>
   <g>
   </g>
   <g>
   </g>
   <g>
   </g>
  </g>
  <g id="_1480330588544">
   <g>
    <g>
     <path class="fil9" d="M152 28728l-116 0c-11,0 -19,9 -19,20l0 166c0,11 8,20 19,20l116 0c11,0 20,-9 20,-20l0 -166c0,-11 -9,-20 -20,-20zm6 186c0,3 -3,6 -6,6l-116 0c-3,0 -6,-3 -6,-6l0 -166c0,-4 3,-6 6,-6l116 0c3,0 6,2 6,6l0 166z"/>
     <path class="fil9" d="M196 28684l-115 0c-11,0 -20,9 -20,20 0,4 3,7 7,7 4,0 7,-3 7,-7 0,-3 2,-6 6,-6l115 0c4,0 6,3 6,6l0 166c0,4 -2,6 -6,6 -3,0 -6,3 -6,7 0,4 3,7 6,7 11,0 20,-9 20,-20l0 -166c0,-11 -9,-20 -20,-20z"/>
    </g>
   </g>
   <g>
   </g>
   <g>
   </g>
   <g>
   </g>
   <g>
   </g>
   <g>
   </g>
   <g>
   </g>
   <g>
   </g>
   <g>
   </g>
   <g>
   </g>
   <g>
   </g>
   <g>
   </g>
   <g>
   </g>
   <g>
   </g>
   <g>
   </g>
   <g>
   </g>
  </g>
  <path class="fil6 str5" d="M217 29428c-5,-5 -14,-5 -20,0 -5,6 -5,15 0,20l4 4 -77 77 -43 0c-5,0 -9,2 -13,6 -7,7 -7,18 0,25l33 33 -65 65c-10,9 -16,21 -19,34 -1,1 0,3 1,4 1,1 3,2 4,1 13,-3 24,-10 34,-19l65 -65 33 32c7,8 18,8 25,0 4,-3 6,-8 6,-12l0 -43 77 -77 3 4c6,5 15,5 20,0 6,-6 6,-15 0,-20l-68 -69zm-168 244c-6,6 -13,11 -21,14 3,-8 8,-15 14,-21l65 -66 8 7 -66 66zm230 -162c-2,2 -5,2 -7,0l-7 -7c-2,-1 -5,-1 -6,0l-82 82c-1,1 -1,2 -1,3l0 45c0,2 -1,4 -3,6 -4,3 -9,3 -13,0l-85 -85c-4,-4 -4,-9 0,-13 2,-2 4,-3 6,-3l45 0c1,0 2,0 3,-1l82 -82c1,-2 1,-4 0,-6l-7 -7c-2,-2 -2,-5 0,-7 2,-2 5,-2 7,0l68 68c2,2 2,5 0,7zm0 0z"/>
  <path class="fil7 str6" d="M217 30168c-5,-5 -14,-5 -20,0 -5,6 -5,15 0,20l4 4 -77 77 -43 0c-5,0 -9,2 -13,6 -7,7 -7,18 0,25l33 33 -65 65c-10,9 -16,21 -19,34 -1,1 0,3 1,4 1,1 3,2 4,1 13,-3 24,-10 34,-19l65 -65 33 32c7,8 18,8 25,0 4,-3 6,-8 6,-12l0 -43 77 -77 3 4c6,5 15,5 20,0 6,-6 6,-15 0,-20l-68 -69zm-168 244c-6,6 -13,11 -21,14 3,-8 8,-15 14,-21l65 -66 8 7 -66 66zm230 -162c-2,2 -5,2 -7,0l-7 -7c-2,-1 -5,-1 -6,0l-82 82c-1,1 -1,2 -1,3l0 45c0,2 -1,4 -3,6 -4,3 -9,3 -13,0l-85 -85c-4,-4 -4,-9 0,-13 2,-2 4,-3 6,-3l45 0c1,0 2,0 3,-1l82 -82c1,-2 1,-4 0,-6l-7 -7c-2,-2 -2,-5 0,-7 2,-2 5,-2 7,0l68 68c2,2 2,5 0,7zm0 0z"/>
  <path class="fil9 str7" d="M217 30908c-5,-5 -14,-5 -20,0 -5,6 -5,15 0,20l4 4 -77 77 -43 0c-5,0 -9,2 -13,6 -7,7 -7,18 0,25l33 33 -65 65c-10,9 -16,21 -19,34 -1,1 0,3 1,4 1,1 3,2 4,1 13,-3 24,-10 34,-19l65 -65 33 32c7,8 18,8 25,0 4,-3 6,-8 6,-12l0 -43 77 -77 3 4c6,5 15,5 20,0 6,-6 6,-15 0,-20l-68 -69zm-168 244c-6,6 -13,11 -21,14 3,-8 8,-15 14,-21l65 -66 8 7 -66 66zm230 -162c-2,2 -5,2 -7,0l-7 -7c-2,-1 -5,-1 -6,0l-82 82c-1,1 -1,2 -1,3l0 45c0,2 -1,4 -3,6 -4,3 -9,3 -13,0l-85 -85c-4,-4 -4,-9 0,-13 2,-2 4,-3 6,-3l45 0c1,0 2,0 3,-1l82 -82c1,-2 1,-4 0,-6l-7 -7c-2,-2 -2,-5 0,-7 2,-2 5,-2 7,0l68 68c2,2 2,5 0,7zm0 0z"/>
 </g>
</svg>
