<?xml version="1.0" encoding="UTF-8"?>
<!DOCTYPE svg PUBLIC "-//W3C//DTD SVG 1.1//EN" "http://www.w3.org/Graphics/SVG/1.1/DTD/svg11.dtd">
<!-- Creator: CorelDRAW X8 -->
<svg xmlns="http://www.w3.org/2000/svg" xml:space="preserve" width="0.329701in" height="0.247067in" version="1.1" style="shape-rendering:geometricPrecision; text-rendering:geometricPrecision; image-rendering:optimizeQuality; fill-rule:evenodd; clip-rule:evenodd"
viewBox="0 0 330 247"
 xmlns:xlink="http://www.w3.org/1999/xlink">
 <defs>
  <style type="text/css">
   <![CDATA[
    .fil0 {fill:white}
   ]]>
  </style>
 </defs>
 <g id="Layer_x0020_1">
  <metadata id="CorelCorpID_0Corel-Layer"/>
  <path class="fil0" d="M296 0l-262 0c-10,0 -18,4 -24,10 -6,5 -10,13 -10,22l0 183c0,9 4,17 10,23 6,5 14,9 24,9l262 0c9,0 18,-4 24,-9 6,-6 10,-14 10,-23l0 -183c0,-9 -4,-17 -10,-22 -6,-6 -15,-10 -24,-10zm0 226l-262 0c-3,0 -6,-1 -9,-2 -3,-2 -4,-6 -4,-9l0 -159c0,-3 3,-7 7,-7 1,0 3,1 4,2l119 100c3,3 9,5 14,5 5,0 11,-2 14,-5l119 -100c3,-2 7,-2 9,1 1,1 2,3 2,4l0 159c0,3 -2,7 -5,9 -2,1 -5,2 -8,2zm-136 -96l-115 -97c-3,-3 -3,-7 -1,-10 2,-1 4,-2 6,-2l230 0c4,0 7,3 7,7 0,2 -1,4 -3,5l-115 98c-2,2 -6,2 -9,-1z"/>
 </g>
</svg>
