<?xml version="1.0" encoding="UTF-8"?>
<!DOCTYPE svg PUBLIC "-//W3C//DTD SVG 1.1//EN" "http://www.w3.org/Graphics/SVG/1.1/DTD/svg11.dtd">
<!-- Creator: CorelDRAW X8 -->
<svg xmlns="http://www.w3.org/2000/svg" xml:space="preserve" width="0.302484in" height="0.287067in" version="1.1" style="shape-rendering:geometricPrecision; text-rendering:geometricPrecision; image-rendering:optimizeQuality; fill-rule:evenodd; clip-rule:evenodd"
viewBox="0 0 302 287"
 xmlns:xlink="http://www.w3.org/1999/xlink">
 <defs>
  <style type="text/css">
   <![CDATA[
    .fil0 {fill:#FEFEFE}
   ]]>
  </style>
 </defs>
 <g id="Layer_x0020_1">
  <metadata id="CorelCorpID_0Corel-Layer"/>
  <path class="fil0" d="M28 273c0,4 -2,8 -4,10 -3,3 -6,4 -10,4 -4,0 -8,-2 -10,-4 -3,-3 -4,-6 -4,-10 0,-11 2,-21 4,-31 3,-10 7,-19 12,-28 5,-9 12,-17 19,-25 7,-7 15,-13 24,-19 3,-2 6,-3 10,-5l6 -3 -2 -2c-4,-4 -8,-9 -11,-15 -3,-5 -5,-10 -7,-16 -2,-8 -2,-17 -2,-27 2,-12 6,-22 12,-31l0 0 0 0 0 0 0 -1 0 0 1 0 0 0 0 -1 0 0 0 0 1 0 0 -1 1 -1 0 0 0 0 0 0 0 -1 1 0 0 0 0 0 0 -1 1 0 0 0 0 0 0 -1 0 0 0 0 1 0 0 0 0 -1 0 0 0 0 1 0 0 0 0 -1 0 0 0 0 1 0 1 -2 0 0c5,-4 10,-8 16,-11l0 0 0 -1 0 0c7,-4 15,-6 23,-7l4 0 6 -1 6 1 5 0c2,-5 4,-10 8,-15 3,-5 7,-9 12,-13 6,-4 12,-7 18,-10 7,-2 14,-3 21,-3 8,0 16,2 24,5 7,3 14,8 20,13 6,6 11,13 14,21 3,7 5,15 5,24 0,8 -2,17 -5,24 -3,8 -8,15 -14,20l-5 5 7 3c4,2 7,4 10,6 8,4 15,10 22,16 6,7 12,14 16,22 5,8 9,16 11,25 3,9 4,18 4,27 1,3 -1,6 -3,9 -2,2 -5,3 -8,3 -3,0 -6,-1 -9,-3 -2,-2 -3,-5 -4,-8 0,-7 -1,-14 -3,-21 -2,-7 -5,-14 -8,-20 -4,-6 -8,-12 -13,-17 -5,-5 -11,-9 -17,-13 -4,-2 -9,-5 -14,-6 -5,-2 -9,-4 -14,-5 -4,0 -7,-1 -10,-1 -3,0 -5,0 -8,0 -2,6 -4,11 -7,16 -3,6 -7,11 -11,15l-3 3 6 2c3,2 6,4 9,5 9,5 17,12 24,19 7,7 13,15 19,24 5,9 9,18 12,28 2,9 4,19 4,30 1,4 -1,7 -3,10 -3,2 -6,4 -10,4 -4,0 -8,-1 -10,-4 -3,-2 -4,-6 -5,-9 0,-8 -1,-16 -3,-23 -2,-8 -6,-15 -10,-22 -4,-7 -8,-13 -14,-18 -5,-6 -11,-11 -18,-15 -7,-4 -15,-7 -22,-9 -8,-3 -16,-4 -24,-4l-5 0c-8,0 -16,1 -24,3 -8,3 -15,6 -22,10 -7,4 -14,9 -19,15 -6,6 -10,12 -14,19 -4,7 -7,14 -10,22 -2,7 -3,15 -3,23zm93 -120l4 0c5,-1 10,-2 15,-4 5,-2 9,-5 13,-9 3,-2 5,-6 7,-9 2,-4 4,-8 4,-12l0 -2 1 -3 0 -3c0,-6 -1,-12 -3,-17 -2,-5 -5,-9 -9,-13 -4,-4 -9,-7 -14,-9 -5,-2 -10,-4 -16,-4 -6,0 -11,2 -16,4 -5,2 -10,5 -14,9 -4,4 -7,8 -9,13 -2,5 -3,11 -3,17l0 3c0,1 1,1 1,2 0,1 0,2 0,3 1,4 2,8 4,12 2,3 4,7 7,9 7,8 17,12 28,13zm35 -104c3,1 6,3 8,5 3,2 6,4 9,7 5,6 10,12 14,19 3,7 5,14 6,22 5,0 10,-1 14,-3 5,-2 10,-5 13,-9 7,-7 11,-16 11,-27 0,-5 -1,-10 -2,-15 -2,-5 -5,-9 -9,-13 -7,-7 -17,-11 -27,-11 -5,0 -9,1 -13,2 -4,1 -8,4 -11,6 -3,2 -6,5 -8,8 -2,3 -3,6 -5,9z"/>
 </g>
</svg>
