<svg width="20" height="40" xmlns="http://www.w3.org/2000/svg">

 <g>
  <title>background</title>
  <rect fill="none" id="canvas_background" height="402" width="582" y="-1" x="-1"/>
 </g>
 <g>
  <title>Layer 1</title>
  <g id="svg_1" fill="#c3cacf">
   <path fill="#eaeaea" id="svg_2" d="m7.282,16.064c0.369,1.124 1.427,1.936 2.675,1.936c1.248,0 2.305,-0.812 2.674,-1.936l-2.674,0l-2.675,0z"/>
   <path fill="#eaeaea" id="svg_3" d="m14.312,6.919c-0.157,-1.095 -0.052,-0.27 -0.124,-1.414c-0.149,-2.332 -1.895,-3.494 -4.23,-3.494s-4.082,1.163 -4.23,3.494c-0.074,1.144 0.032,0.319 -0.126,1.414c-0.399,2.776 -2.976,4.297 -2.976,7.283c0,0.292 0.018,0.58 0.051,0.862l4.589,0l2.691,0l2.689,0l4.591,0c0.033,-0.282 0.051,-0.57 0.051,-0.862c0,-2.986 -2.578,-4.507 -2.976,-7.283"/>
  </g>
  <g id="svg_4" fill="#5b646a">
   <path fill="#ffffff" id="svg_5" d="m7.282,36.05c0.369,1.125 1.427,1.937 2.675,1.937c1.248,0 2.305,-0.812 2.674,-1.937l-2.674,0l-2.675,0"/>
   <path fill="#ffffff" id="svg_6" d="m14.312,26.908c-0.157,-1.096 -0.052,-0.27 -0.124,-1.414c-0.15,-2.332 -1.895,-3.494 -4.231,-3.494s-4.082,1.162 -4.23,3.494c-0.073,1.145 0.033,0.318 -0.125,1.414c-0.399,2.775 -2.976,4.297 -2.976,7.283c0,0.291 0.018,0.58 0.051,0.861l4.589,0l2.691,0l2.689,0l4.591,0c0.033,-0.281 0.051,-0.57 0.051,-0.861c0,-2.986 -2.578,-4.507 -2.976,-7.283"/>
  </g>
 </g>
</svg>