<?xml version="1.0" encoding="UTF-8"?>
<!DOCTYPE svg PUBLIC "-//W3C//DTD SVG 1.1//EN" "http://www.w3.org/Graphics/SVG/1.1/DTD/svg11.dtd">
<!-- Creator: CorelDRAW 2017 -->
<svg xmlns="http://www.w3.org/2000/svg" xml:space="preserve" width="8.5in" height="8.48343in" version="1.1" style="shape-rendering:geometricPrecision; text-rendering:geometricPrecision; image-rendering:optimizeQuality; fill-rule:evenodd; clip-rule:evenodd"
viewBox="0 0 8500 8483.43"
 xmlns:xlink="http://www.w3.org/1999/xlink">
 <defs>
  <style type="text/css">
   <![CDATA[
    .fil0 {fill:white}
   ]]>
  </style>
 </defs>
 <g id="Layer_x0020_1">
  <metadata id="CorelCorpID_0Corel-Layer"/>
  <g id="_2949025309392">
   <g>
    <path class="fil0" d="M2223.41 2478.15l-302.11 0c45.46,-336.43 231.46,-353.31 317.06,-361.12 85.5,-7.79 150.98,-79.47 150.98,-165.33l0 -496.8c0,-45.65 -18.79,-89.28 -51.96,-120.64 -33.19,-31.36 -77.71,-47.55 -123.38,-45.11 -524.76,29.52 -1150.32,294.48 -1150.32,1389.15l0 863.94c0,144.22 117.32,261.54 261.56,261.54l898.19 0c144.22,0 261.54,-117.32 261.54,-261.54l0 -802.55c0,-144.22 -117.32,-261.54 -261.54,-261.54zm-70.51 993.59l-757.21 0 0 -793.46c0,-763.84 339.69,-977.15 661.61,-1037.38l0 174.57c-222.33,67.67 -478.19,267.5 -478.19,828.67 0,91.69 74.34,166.02 166.02,166.02l407.78 0 0 661.59z"/>
   </g>
  </g>
  <g id="_2949025312048">
   <g>
    <path class="fil0" d="M7383.94 4241.67l-808.37 0c-138.94,0 -252,113.04 -252,252l0 722.3c0,138.96 113.06,252 252,252l252.96 0c-42.27,271.29 -190.67,284.8 -267.93,291.84 -85.5,7.79 -150.98,79.47 -150.98,165.33l0 447.13c0,45.65 18.79,89.28 51.98,120.64 30.89,29.22 71.74,45.37 114.04,45.37 3.11,0 6.21,-0.08 9.33,-0.26 479.44,-26.98 1050.96,-268.65 1050.96,-1266.81l0 -777.54c0,-138.95 -113.06,-252 -251.99,-252zm-80.04 1029.53c0,659.11 -284.9,854.7 -562.23,913.27l0 -124.41 -0.02 0c202.65,-65.61 430.36,-252 430.36,-758.11 0,-91.69 -74.34,-166.02 -166.02,-166.02l-350.39 0 0 -562.23 648.29 0 0 697.5z"/>
   </g>
  </g>
  <g id="_2949025310352">
   <g>
    <path class="fil0" d="M5842.41 4241.67l-808.36 0c-138.96,0 -252,113.04 -252,252l0 722.3c0,138.96 113.06,252 252,252l252.97 0c-42.25,271.27 -190.65,284.8 -267.93,291.84 -85.5,7.79 -150.98,79.47 -150.98,165.33l0 447.13c0,45.65 18.79,89.28 51.96,120.64 30.91,29.22 71.75,45.37 114.05,45.37 3.11,0 6.21,-0.08 9.33,-0.26 479.44,-26.98 1050.94,-268.65 1050.94,-1266.81l0 -777.54c0,-138.95 -113.06,-252 -251.99,-252zm-80.04 1029.53c0,659.11 -284.88,854.7 -562.21,913.27l0 -124.43c202.65,-65.63 430.36,-252.01 430.36,-758.11 0,-91.69 -74.34,-166.02 -166.02,-166.02l-350.41 0 0 -562.21 648.28 0 0 697.5z"/>
   </g>
  </g>
  <g id="_2949025311824">
   <g>
    <path class="fil0" d="M7509.43 3154.3l-529.69 0c-91.67,0 -166.02,74.33 -166.02,166.02 0,91.69 74.34,166.02 166.02,166.02l529.69 0c363.11,0 658.54,295.41 658.54,658.54l0 2468.11c0,363.11 -295.43,658.54 -658.54,658.54l-1278.32 -0.01c-44.03,0 -86.24,17.5 -117.39,48.63l-596.48 596.48 0 -479.11c0,-91.69 -74.34,-166.02 -166.02,-166.02l-442.7 0c-363.11,0 -658.54,-295.41 -658.54,-658.54l0 -2468.1c0,-363.11 295.43,-658.54 658.54,-658.54l619.78 0c91.67,0 166.02,-74.33 166.02,-166.02 0,-91.69 -74.34,-166.02 -166.02,-166.02l-619.78 0c-286.74,0 -545.28,122.59 -726.33,317.95l0 -732.59c0,-144.22 -117.32,-261.54 -261.54,-261.54l-302.1 0c45.44,-336.4 231.44,-353.3 317.06,-361.08 85.5,-7.79 150.98,-79.47 150.98,-165.33l0 -496.79c0,-45.65 -18.79,-89.28 -51.96,-120.64 -33.19,-31.36 -77.89,-47.6 -123.38,-45.11 -524.78,29.52 -1150.32,294.5 -1150.32,1389.15l0 863.94c0,144.22 117.32,261.54 261.56,261.54l898.19 0c20.95,0 41.24,-2.74 60.78,-7.42 -40.92,108.48 -63.47,225.88 -63.47,348.5l0 2468.11c0,546.19 444.37,990.57 990.57,990.57l276.68 -0 0 713.87c0,67.14 40.46,127.68 102.48,153.38 20.54,8.52 42.12,12.65 63.5,12.65 43.21,0 85.67,-16.88 117.42,-48.63l831.26 -831.26 1209.54 0c546.19,0 990.57,-444.36 990.57,-990.57l0 -2468.14c0,-546.19 -444.37,-990.55 -990.57,-990.55zm-3659.26 317.44l-757.22 0 0 -793.46c0,-763.82 339.69,-977.15 661.61,-1037.38l0 174.58c-222.33,67.65 -478.19,267.48 -478.19,828.65 0,91.69 74.34,166.02 166.02,166.02l407.79 0 0 661.59z"/>
   </g>
  </g>
  <g id="_2949025311536">
   <g>
    <path class="fil0" d="M6409.35 3202.94c-30.86,-30.88 -73.69,-48.64 -117.36,-48.64 -43.67,0 -86.5,17.76 -117.37,48.64 -30.88,30.88 -48.64,73.71 -48.64,117.37 0,43.66 17.75,86.5 48.64,117.37 30.89,30.88 73.71,48.64 117.37,48.64 43.66,0 86.5,-17.76 117.36,-48.64 30.88,-30.88 48.66,-73.71 48.66,-117.37 0,-43.66 -17.76,-86.5 -48.66,-117.37z"/>
   </g>
  </g>
  <g id="_2949025312336">
   <g>
    <path class="fil0" d="M5197.43 2616.41c-30.86,-31.04 -73.53,-48.64 -117.36,-48.64 -43.66,0 -86.5,17.6 -117.37,48.64 -30.88,30.71 -48.64,73.54 -48.64,117.37 0,43.66 17.75,86.5 48.64,117.37 30.89,30.88 73.71,48.64 117.37,48.64 43.83,0 86.5,-17.76 117.36,-48.64 30.88,-30.88 48.66,-73.71 48.66,-117.37 0,-43.83 -17.76,-86.66 -48.66,-117.37z"/>
   </g>
  </g>
  <g id="_2949025315024">
   <g>
    <path class="fil0" d="M4126.7 0l-3007.31 0c-617.25,0 -1119.39,502.15 -1119.39,1119.39l0 2853.74c0,617.25 502.15,1119.39 1119.39,1119.39l350.59 0 968.75 968.74c31.76,31.78 74.22,48.64 117.42,48.64 21.38,0 42.96,-4.15 63.5,-12.65 62.02,-25.7 102.48,-86.23 102.48,-153.38l0 -851.35 581.57 0c91.67,0 166.02,-74.33 166.02,-166.02 0,-91.69 -74.34,-166.02 -166.02,-166.02l-747.59 0c-91.67,0 -166.02,74.33 -166.02,166.02l0 616.57 -733.96 -733.96c-31.15,-31.13 -73.36,-48.63 -117.39,-48.63l-419.37 0c-434.17,0 -787.36,-353.22 -787.36,-787.36l0 -2853.74c0,-434.15 353.2,-787.36 787.36,-787.36l3007.31 0c434.17,0 787.36,353.22 787.36,787.36l0 983.46c0,91.69 74.34,166.02 166.02,166.02 91.67,0 166.02,-74.33 166.02,-166.02l0 -983.46c0,-617.24 -502.15,-1119.39 -1119.39,-1119.39z"/>
   </g>
  </g>
  <g id="_2949025314160">
  </g>
  <g id="_2949025315472">
  </g>
  <g id="_2949025314512">
  </g>
  <g id="_2949025314832">
  </g>
  <g id="_2949025315248">
  </g>
  <g id="_2949025316912">
  </g>
  <g id="_2949025317136">
  </g>
  <g id="_2949025316880">
  </g>
  <g id="_2949025317232">
  </g>
  <g id="_2949025316560">
  </g>
  <g id="_2949025316272">
  </g>
  <g id="_2949025318096">
  </g>
  <g id="_2949025318384">
  </g>
  <g id="_2949025318544">
  </g>
  <g id="_2949025319760">
  </g>
 </g>
</svg>
