<?xml version="1.0" encoding="UTF-8"?>
<!DOCTYPE svg PUBLIC "-//W3C//DTD SVG 1.1//EN" "http://www.w3.org/Graphics/SVG/1.1/DTD/svg11.dtd">
<!-- Creator: CorelDRAW 2017 -->
<svg xmlns="http://www.w3.org/2000/svg" xml:space="preserve" width="8.5in" height="7.28929in" version="1.1" style="shape-rendering:geometricPrecision; text-rendering:geometricPrecision; image-rendering:optimizeQuality; fill-rule:evenodd; clip-rule:evenodd"
viewBox="0 0 8500 7289.29"
 xmlns:xlink="http://www.w3.org/1999/xlink">
 <defs>
  <style type="text/css">
   <![CDATA[
    .fil0 {fill:white}
   ]]>
  </style>
 </defs>
 <g id="Layer_x0020_1">
  <metadata id="CorelCorpID_0Corel-Layer"/>
  <g id="_2949020302352">
   <g>
    <circle class="fil0" cx="4249.94" cy="5645.35" r="392.97"/>
    <path class="fil0" d="M4197.15 4625.61c119.45,0 216.39,-96.94 216.39,-216.39l0 -2055.73c0,-119.45 -96.94,-216.39 -216.39,-216.39 -119.45,0 -216.39,96.94 -216.39,216.39l0 2055.73c0,119.45 96.94,216.39 216.39,216.39z"/>
    <path class="fil0" d="M5038.7 643.44l-9.85 -15.26c-200.38,-308.79 -407.47,-628.19 -778.91,-628.19 -387.13,0 -589.67,323.94 -785.5,637.38 -0.97,1.52 -7.03,11.25 -8.01,12.87l-3426.35 5805.92c-19.69,33.33 -30.08,50.74 -30.08,89.37 0,421.53 339.2,743.74 756.07,743.74l6987.85 0c416.99,0 756.07,-322.31 756.07,-743.74 0,-38.63 -10.39,-66.43 -29.97,-99.65l-3431.33 -5802.45zm2705.23 6213.06l-6987.85 0c-158.07,0 -293.97,-102.89 -319.18,-259.02l3394.55 -5741c168.14,-269.08 278.28,-428.78 418.5,-428.78 136.44,0 265.84,202.33 415.8,433.43l3397.25 5735.15c-25.11,156.02 -161,260.21 -319.07,260.21z"/>
   </g>
  </g>
  <g id="_2949020302384">
  </g>
  <g id="_2949020302992">
  </g>
  <g id="_2949020301904">
  </g>
  <g id="_2949020307376">
  </g>
  <g id="_2949020307248">
  </g>
  <g id="_2949020305840">
  </g>
  <g id="_2949020306320">
  </g>
  <g id="_2949020307568">
  </g>
  <g id="_2949020306800">
  </g>
  <g id="_2949020300688">
  </g>
  <g id="_2949020300912">
  </g>
  <g id="_2949020301072">
  </g>
  <g id="_2949020300592">
  </g>
  <g id="_2949025486064">
  </g>
  <g id="_2949025486160">
  </g>
 </g>
</svg>
