<?xml version="1.0" encoding="UTF-8"?>
<!DOCTYPE svg PUBLIC "-//W3C//DTD SVG 1.1//EN" "http://www.w3.org/Graphics/SVG/1.1/DTD/svg11.dtd">
<!-- Creator: CorelDRAW X8 -->
<svg xmlns="http://www.w3.org/2000/svg" xml:space="preserve" width="0.20861in" height="0.0422165in" version="1.1" style="shape-rendering:geometricPrecision; text-rendering:geometricPrecision; image-rendering:optimizeQuality; fill-rule:evenodd; clip-rule:evenodd"
viewBox="0 0 209 42"
 xmlns:xlink="http://www.w3.org/1999/xlink">
 <defs>
  <style type="text/css">
   <![CDATA[
    .fil0 {fill:#8F9098}
   ]]>
  </style>
 </defs>
 <g id="Layer_x0020_1">
  <metadata id="CorelCorpID_0Corel-Layer"/>
  <path class="fil0" d="M21 0c12,0 21,9 21,21 0,12 -9,21 -21,21 -12,0 -21,-9 -21,-21 0,-12 9,-21 21,-21zm167 0c11,0 21,9 21,21 0,12 -10,21 -21,21 -12,0 -22,-9 -22,-21 0,-12 10,-21 22,-21zm-84 0c12,0 21,9 21,21 0,12 -9,21 -21,21 -11,0 -21,-9 -21,-21 0,-12 10,-21 21,-21z"/>
 </g>
</svg>
