<?xml version="1.0" encoding="UTF-8"?>
<!DOCTYPE svg PUBLIC "-//W3C//DTD SVG 1.1//EN" "http://www.w3.org/Graphics/SVG/1.1/DTD/svg11.dtd">
<!-- Creator: CorelDRAW X8 -->
<svg xmlns="http://www.w3.org/2000/svg" xml:space="preserve" width="0.250768in" height="0.212114in" version="1.1" style="shape-rendering:geometricPrecision; text-rendering:geometricPrecision; image-rendering:optimizeQuality; fill-rule:evenodd; clip-rule:evenodd"
viewBox="0 0 251 212"
 xmlns:xlink="http://www.w3.org/1999/xlink">
 <defs>
  <style type="text/css">
   <![CDATA[
    .str0 {stroke:gray;stroke-width:18.9531}
    .fil0 {fill:none}
   ]]>
  </style>
 </defs>
 <g id="Layer_x0020_1">
  <metadata id="CorelCorpID_0Corel-Layer"/>
  <path class="fil0 str0" d="M28 28c6,-6 13,-11 20,-14 8,-3 16,-5 24,-5 8,0 17,2 24,5 8,3 14,8 20,14l9 9 9 -9c6,-6 13,-11 21,-14 7,-3 15,-5 24,-5 8,0 16,2 24,5 7,3 14,8 20,14 12,12 18,28 18,44 0,16 -6,32 -18,44l-71 72c-16,16 -30,22 -51,2l-73 -74c-12,-12 -19,-28 -19,-44 0,-16 7,-32 19,-44z"/>
 </g>
</svg>
