<?xml version="1.0" encoding="UTF-8"?>
<!DOCTYPE svg PUBLIC "-//W3C//DTD SVG 1.1//EN" "http://www.w3.org/Graphics/SVG/1.1/DTD/svg11.dtd">
<!-- Creator: CorelDRAW X8 -->
<svg xmlns="http://www.w3.org/2000/svg" xml:space="preserve" width="0.245701in" height="0.204736in" version="1.1" style="shape-rendering:geometricPrecision; text-rendering:geometricPrecision; image-rendering:optimizeQuality; fill-rule:evenodd; clip-rule:evenodd"
viewBox="0 0 246 205"
 xmlns:xlink="http://www.w3.org/1999/xlink">
 <defs>
  <style type="text/css">
   <![CDATA[
    .fil0 {fill:#F51353}
   ]]>
  </style>
 </defs>
 <g id="Layer_x0020_1">
  <metadata id="CorelCorpID_0Corel-Layer"/>
  <path class="fil0" d="M19 19c7,-6 14,-11 22,-14 8,-3 16,-5 25,-5 9,0 18,2 26,5 8,3 15,8 21,14l10 10 9 -10c7,-6 14,-11 22,-14 8,-3 17,-5 25,-5 9,0 18,2 26,5 8,3 15,8 21,14 13,13 20,30 20,47 0,17 -7,34 -20,47l-75 76c-17,17 -32,24 -54,2l-78 -78c-13,-13 -19,-30 -19,-47 0,-17 6,-34 19,-47z"/>
 </g>
</svg>
