<?xml version="1.0" encoding="UTF-8"?>
<!DOCTYPE svg PUBLIC "-//W3C//DTD SVG 1.1//EN" "http://www.w3.org/Graphics/SVG/1.1/DTD/svg11.dtd">
<!-- Creator: CorelDRAW X8 -->
<svg xmlns="http://www.w3.org/2000/svg" xml:space="preserve" width="0.226583in" height="0.230295in" version="1.1" style="shape-rendering:geometricPrecision; text-rendering:geometricPrecision; image-rendering:optimizeQuality; fill-rule:evenodd; clip-rule:evenodd"
viewBox="0 0 227 230"
 xmlns:xlink="http://www.w3.org/1999/xlink">
 <defs>
  <style type="text/css">
   <![CDATA[
    .fil0 {fill:white}
   ]]>
  </style>
 </defs>
 <g id="Layer_x0020_1">
  <metadata id="CorelCorpID_0Corel-Layer"/>
  <path class="fil0" d="M162 50c8,18 9,41 9,61 0,22 10,41 21,54l-157 0c10,-13 21,-32 21,-54 0,-20 1,-43 9,-61 9,-21 24,-30 48,-30 25,0 40,9 49,30zm-49 160c-15,0 -28,-11 -31,-25l63 0c-3,14 -16,25 -32,25zm-28 -206c-6,2 -10,5 -15,8 -10,7 -18,17 -24,30 -9,21 -10,47 -10,69 0,32 -31,55 -32,56 -3,2 -5,7 -4,11 2,4 6,7 10,7l51 0c4,26 26,45 52,45 27,0 49,-19 53,-45l51 0c4,0 8,-3 9,-7 1,-4 0,-9 -4,-11 0,0 -8,-6 -16,-16 -10,-13 -15,-27 -15,-40 0,-22 -2,-48 -11,-69 -5,-13 -13,-23 -24,-30 -4,-3 -9,-6 -14,-8 -9,-2 -19,-4 -29,-4 -10,0 -20,2 -28,4z"/>
 </g>
</svg>
