<?xml version="1.0" encoding="UTF-8"?>
<!DOCTYPE svg PUBLIC "-//W3C//DTD SVG 1.1//EN" "http://www.w3.org/Graphics/SVG/1.1/DTD/svg11.dtd">
<!-- Creator: CorelDRAW X8 -->
<svg xmlns="http://www.w3.org/2000/svg" xml:space="preserve" width="0.262949in" height="0.262846in" version="1.1" style="shape-rendering:geometricPrecision; text-rendering:geometricPrecision; image-rendering:optimizeQuality; fill-rule:evenodd; clip-rule:evenodd"
viewBox="0 0 263 263"
 xmlns:xlink="http://www.w3.org/1999/xlink">
 <defs>
  <style type="text/css">
   <![CDATA[
    .fil0 {fill:white}
   ]]>
  </style>
 </defs>
 <g id="Layer_x0020_1">
  <metadata id="CorelCorpID_0Corel-Layer"/>
  <path class="fil0" d="M259 240c-21,-21 -44,-46 -67,-65 15,-19 23,-42 23,-67 0,-30 -12,-57 -31,-76 -20,-20 -47,-32 -76,-32 -30,0 -57,12 -76,32 -20,19 -32,46 -32,76 0,29 12,56 32,76 19,19 46,31 76,31 25,0 48,-8 67,-23 19,23 44,46 65,67 3,3 6,4 10,4 3,0 7,-1 9,-4l0 0c3,-3 4,-6 4,-9 0,-4 -1,-7 -4,-10zm-152 -47c-24,0 -45,-9 -61,-25 -15,-16 -25,-37 -25,-61 0,-24 10,-45 25,-61 16,-16 37,-25 61,-25 24,0 46,9 61,25 16,16 25,37 25,61 0,24 -9,45 -25,61l0 0c-15,16 -37,25 -61,25z"/>
 </g>
</svg>
