<svg width="512" height="512" xmlns="http://www.w3.org/2000/svg">

 <g>
  <title>background</title>
  <rect fill="none" id="canvas_background" height="402" width="582" y="-1" x="-1"/>
 </g>
 <g>
  <title>Layer 1</title>
  <g id="svg_1">
   <g id="svg_2">
    <path id="svg_3" fill="#a2acb3" d="m174.618,245.394c-5.857,-5.858 -15.355,-5.858 -21.213,0l-49.394,49.394l-19.394,-19.394c-5.857,-5.858 -15.355,-5.858 -21.213,0c-5.858,5.858 -5.858,15.355 0,21.213l30.002,30c2.929,2.929 6.768,4.393 10.606,4.393s7.678,-1.464 10.606,-4.393l60,-60c5.858,-5.858 5.858,-15.355 0,-21.213z"/>
   </g>
  </g>
  <g id="svg_4">
   <g id="svg_5">
    <path id="svg_6" fill="#a2acb3" d="m174.618,365.394c-5.857,-5.858 -15.355,-5.858 -21.213,0l-49.394,49.394l-19.394,-19.394c-5.857,-5.858 -15.355,-5.858 -21.213,0c-5.858,5.858 -5.858,15.355 0,21.213l30.002,30c2.929,2.929 6.768,4.393 10.606,4.393s7.678,-1.464 10.606,-4.393l60,-60c5.858,-5.858 5.858,-15.355 0,-21.213z"/>
   </g>
  </g>
  <g id="svg_7">
   <g id="svg_8">
    <path id="svg_9" fill="#a2acb3" d="m159.62,185.394l-19.394,-19.394l19.393,-19.393c5.858,-5.858 5.858,-15.355 0,-21.213c-5.857,-5.858 -15.355,-5.858 -21.213,0l-19.394,19.394l-19.394,-19.394c-5.857,-5.858 -15.355,-5.858 -21.213,0c-5.858,5.858 -5.858,15.355 0,21.213l19.394,19.393l-19.393,19.393c-5.858,5.858 -5.858,15.356 0,21.214c5.857,5.857 15.355,5.858 21.213,0l19.394,-19.394l19.394,19.394c5.857,5.857 15.355,5.858 21.213,0c5.858,-5.858 5.858,-15.355 0,-21.213z"/>
   </g>
  </g>
  <g id="svg_10">
   <g id="svg_11">
    <path id="svg_12" fill="#a2acb3" d="m362.013,75c0,-24.81 -20.19,-45 -45,-45l-47.58,0c-6.19,-17.46 -22.87,-30 -42.42,-30l-92,0c-19.55,0 -36.23,12.54 -42.42,30l-47.58,0c-24.81,0 -45,20.19 -45,45l0,392c0,24.81 20.19,45 45,45l272,0c24.81,0 45,-20.19 45,-45l0,-116.92l0,-275.08zm-227.001,-45l92,0c8.27,0 15,6.73 15,15s-6.73,15 -15,15l-92,0c-8.27,0 -15,-6.73 -15,-15s6.73,-15 15,-15zm197.001,437c0,8.27 -6.73,15 -15,15l-272,0c-8.27,0 -15,-6.73 -15,-15l0,-392c0,-8.27 6.73,-15 15,-15l47.58,0c6.19,17.46 22.87,30 42.42,30l92,0c19.55,0 36.23,-12.54 42.42,-30l47.58,0c8.27,0 15,6.73 15,15l0,177.8l0,127.28l0,86.92z"/>
   </g>
  </g>
  <g id="svg_13"/>
  <g id="svg_14"/>
  <g id="svg_15"/>
  <g id="svg_16"/>
  <g id="svg_17"/>
  <g id="svg_18"/>
  <g id="svg_19"/>
  <g id="svg_20"/>
  <g id="svg_21"/>
  <g id="svg_22"/>
  <g id="svg_23"/>
  <g id="svg_24"/>
  <g id="svg_25"/>
  <g id="svg_26"/>
  <g id="svg_27"/>
  <g stroke="null" id="svg_30">
   <g stroke="null" id="svg_29">
    <path stroke="null" id="svg_28" fill="#a2acb3" d="m435.10386,311.244798l-43.743706,-43.743714l43.741455,-43.741455c13.212884,-13.212884 13.212884,-34.63364 0,-47.846517c-13.210625,-13.212884 -34.633633,-13.212884 -47.846517,0l-43.743714,45.220074l-43.743714,-45.220074c-13.210625,-13.212884 -34.633633,-13.212884 -47.846517,0c-13.212884,13.212877 -13.212884,34.633633 0,47.846517l44.481897,43.003271l-44.479639,44.479639c-13.212884,13.212884 -13.212884,34.635892 0,47.848776c13.210625,13.210625 34.633633,13.212884 47.846517,0l43.743714,-43.743714l43.743706,43.743714c13.210632,13.210625 34.63364,13.212884 47.846517,0c13.212884,-13.212884 13.212884,-34.63364 0,-47.846517z"/>
   </g>
  </g>
 </g>
</svg>