<?xml version="1.0" encoding="iso-8859-1"?>
<!-- Generator: Adobe Illustrator 18.1.1, SVG Export Plug-In . SVG Version: 6.00 Build 0)  -->
<svg xmlns="http://www.w3.org/2000/svg" xmlns:xlink="http://www.w3.org/1999/xlink" version="1.1" id="Capa_1" x="0px" y="0px" viewBox="0 0 1024.489 1024.489" style="enable-background:new 0 0 1024.489 1024.489;" xml:space="preserve" width="512px" height="512px">
<g>
	<path d="M293.216,683.842l-74.106,42.79c-23.368,13.505-50.597,17.091-76.641,10.091c-26.068-6.984-47.843-23.698-61.34-47.066   l-7.36-12.759C45.92,628.662,62.5,566.758,110.735,538.917l331.784-191.56c48.243-27.849,110.124-11.245,137.981,36.975   l7.36,12.759c13.497,23.368,17.075,50.589,10.099,76.649c-6.984,26.06-23.698,47.843-47.066,61.34l-29.355,16.949   c-14.415,8.318-19.351,26.742-11.025,41.157c8.325,14.423,26.734,19.374,41.157,11.025l29.355-16.942   c77.01-44.461,103.493-143.293,59.025-220.311l-7.368-12.759c-44.453-77.002-143.27-103.478-220.295-59.032L80.603,486.726   C3.593,531.187-22.891,630.012,21.578,707.03l7.36,12.759c21.54,37.304,56.317,63.992,97.93,75.142   c13.897,3.719,27.99,5.563,41.997,5.563c27.943,0,55.525-7.329,80.376-21.673l74.106-42.781   c14.415-8.325,19.351-26.75,11.033-41.165C326.056,680.483,307.654,675.54,293.216,683.842z" fill="#a2acb3"/>
	<path d="M1002.808,317.46l-7.361-12.759c-21.54-37.304-56.318-63.992-97.93-75.142c-41.628-11.143-85.069-5.438-122.373,16.11   l-74.107,42.781c-14.415,8.326-19.351,26.75-11.033,41.165c8.325,14.415,26.75,19.358,41.165,11.033l74.107-42.79   c23.376-13.481,50.621-17.059,76.641-10.091c26.067,6.984,47.843,23.698,61.339,47.066l7.361,12.759   c27.857,48.235,11.268,110.132-36.967,137.981l-331.785,191.56c-48.227,27.841-110.132,11.245-137.98-36.975l-7.361-12.759   c-13.497-23.368-17.075-50.589-10.099-76.649c6.984-26.06,23.698-47.843,47.066-61.34l29.355-16.949   c14.415-8.318,19.351-26.742,11.025-41.157c-8.31-14.399-26.719-19.358-41.157-11.025l-29.355,16.942   c-77.01,44.461-103.493,143.293-59.025,220.311l7.368,12.759c29.834,51.68,84.151,80.604,139.935,80.604   c27.339,0,55.031-6.952,80.361-21.571l331.785-191.56c37.304-21.532,63.992-56.318,75.142-97.922   C1030.076,398.229,1024.348,354.764,1002.808,317.46z" fill="#a2acb3"/>
</g>
<g>
</g>
<g>
</g>
<g>
</g>
<g>
</g>
<g>
</g>
<g>
</g>
<g>
</g>
<g>
</g>
<g>
</g>
<g>
</g>
<g>
</g>
<g>
</g>
<g>
</g>
<g>
</g>
<g>
</g>
</svg>
