<svg width="20" height="20" xmlns="http://www.w3.org/2000/svg">
 <metadata>Svg Vector Icons : http://www.onlinewebfonts.com/icon</metadata>

 <g>
  <title>background</title>
  <rect fill="none" id="canvas_background" height="22" width="22" y="-1" x="-1"/>
 </g>
 <g>
  <title>Layer 1</title>
  <g stroke="null" id="svg_1">
   <path fill="#ffffff" stroke="null" id="svg_2" d="m18.676341,16.261673l-3.278349,-3.272894c0.747311,-1.181878 1.178242,-2.58195 1.178242,-4.082026c0.001818,-4.227488 -3.429265,-7.656753 -7.662208,-7.656753c-4.232943,0 -7.664026,3.429265 -7.664026,7.656753c0,4.227488 3.431084,7.656753 7.664026,7.656753c1.490985,0 2.885601,-0.429113 4.062025,-1.165514l3.281985,3.278349c0.523663,0.523663 1.372797,0.523663 1.89646,0l0.521845,-0.518208c0.523663,-0.525481 0.523663,-1.372797 0,-1.89646zm-9.762315,-1.816456c-3.061974,0 -5.5421,-2.480126 -5.5421,-5.536645c0,-3.058337 2.481944,-5.538464 5.5421,-5.538464c3.060156,0 5.5421,2.480126 5.5421,5.538464c0,3.054701 -2.481944,5.536645 -5.5421,5.536645z"/>
  </g>
 </g>
</svg>