<?xml version="1.0" encoding="UTF-8"?>
<!DOCTYPE svg PUBLIC "-//W3C//DTD SVG 1.1//EN" "http://www.w3.org/Graphics/SVG/1.1/DTD/svg11.dtd">
<!-- Creator: CorelDRAW 2017 -->
<svg xmlns="http://www.w3.org/2000/svg" xml:space="preserve" width="0.112024in" height="0.106799in" version="1.1" style="shape-rendering:geometricPrecision; text-rendering:geometricPrecision; image-rendering:optimizeQuality; fill-rule:evenodd; clip-rule:evenodd"
viewBox="0 0 23.14 22.06"
 xmlns:xlink="http://www.w3.org/1999/xlink">
 <defs>
  <style type="text/css">
   <![CDATA[
    .fil0 {fill:#8C8D8F}
   ]]>
  </style>
 </defs>
 <g id="Layer_x0020_1">
  <metadata id="CorelCorpID_0Corel-Layer"/>
  <g id="_1771956009488">
   <path class="fil0" d="M11.39 10.46l0.51 0c0.66,-0.03 1.3,-0.18 1.88,-0.44 0.6,-0.26 1.14,-0.64 1.6,-1.09 0.36,-0.36 0.67,-0.77 0.91,-1.23 0.23,-0.43 0.41,-0.91 0.51,-1.41l0.01 -0.32 0.08 -0.31 0.02 -0.43c-0,-0.71 -0.14,-1.39 -0.4,-2.01 -0.26,-0.64 -0.65,-1.21 -1.14,-1.69 -0.48,-0.48 -1.06,-0.87 -1.7,-1.14 -0.61,-0.26 -1.29,-0.4 -2,-0.4 -0.71,0 -1.39,0.14 -2.01,0.39 -0.64,0.26 -1.22,0.65 -1.7,1.13 -0.48,0.49 -0.87,1.07 -1.14,1.71 -0.25,0.61 -0.39,1.29 -0.39,2l0.01 0.37c0.05,0.11 0.08,0.23 0.1,0.35 0.02,0.12 0.02,0.25 0,0.37 0.1,0.49 0.28,0.95 0.51,1.38 0.24,0.45 0.55,0.86 0.91,1.22 0.88,0.88 2.08,1.45 3.42,1.52z"/>
   <path class="fil0" d="M23.14 22.06c-0.08,-0.53 -0.19,-1.05 -0.34,-1.56 -0.27,-0.93 -0.66,-1.83 -1.15,-2.66 -0.49,-0.83 -1.08,-1.61 -1.77,-2.29 -0.67,-0.68 -1.44,-1.28 -2.28,-1.79 -0.87,-0.52 -1.79,-0.92 -2.74,-1.2 -0.97,-0.28 -1.97,-0.44 -2.96,-0.47l-0.56 -0c-1.01,0.02 -2.03,0.17 -3.01,0.45 -0.96,0.28 -1.9,0.68 -2.79,1.22 -0.86,0.51 -1.63,1.13 -2.31,1.82 -0.69,0.71 -1.3,1.5 -1.79,2.35 -0.49,0.85 -0.88,1.77 -1.14,2.72 -0.13,0.46 -0.23,0.93 -0.3,1.41l23.14 0z"/>
  </g>
 </g>
</svg>
