<svg width="612" height="612" xmlns="http://www.w3.org/2000/svg" style="vector-effect: non-scaling-stroke;" stroke="null">
 <g stroke="null">
  <title stroke="null">background</title>
  <rect stroke="null" x="-1" y="-1" width="614" height="614" id="canvas_background" fill="none"/>
 </g>

 <g stroke="null">
  <title stroke="null">Layer 1</title>
  <ellipse stroke="#5e5e5e" fill="#000000" stroke-width="35" fill-opacity="0" cx="305.999991" cy="306.000006" id="svg_12" rx="288.198764" ry="286.997968"/>
  <g stroke="null" id="svg_11">
   <path stroke="#5e5e5e" stroke-width="6" fill="#5e5e5e" d="m381.363178,410.705586l-51.708445,0c-4.084952,0 -7.388083,3.352415 -7.388083,7.47994l0,52.35417l-162.51883,0l0,-329.079399l221.615358,0l0,59.83411l14.776154,0l0,-59.83411c0,-8.249582 -6.627893,-14.957158 -14.776154,-14.957158l-221.615358,0c-8.148249,0 -14.773454,6.707576 -14.773454,14.957158l0,329.079399c0,8.249582 6.625205,14.957158 14.773454,14.957158l192.06845,0c1.964019,0 3.841477,-0.786065 5.221152,-2.191119l36.937702,-37.394267c1.387797,-1.399588 2.164208,-3.305869 2.164208,-5.288833l0,-44.874207l-14.776154,0l0,14.957158zm0,26.822092l-32.606564,33.012018l-11.71651,0l0,-44.874219l44.323074,0l0,11.862201z" id="svg_1"/>
   <path stroke="#5e5e5e" stroke-width="6" fill="#5e5e5e" d="m351.816275,216.251569l0,-22.437109c0,-4.127524 -3.303131,-7.479951 -7.388083,-7.479951l-147.742664,0c-4.084952,0 -7.388083,3.352427 -7.388083,7.479951l0,89.748438c0,4.127524 3.303131,7.47994 7.388083,7.47994l96.031508,0l0,-14.959891l-88.646136,0l0,-74.788535l132.96921,0l0,14.957158l14.776165,0zm0,0" id="svg_2"/>
   <path stroke="#5e5e5e" stroke-width="6" fill="#5e5e5e" d="m189.297445,320.957152l73.872682,0l0,14.959903l-73.872682,0l0,-14.959903zm0,0" id="svg_3"/>
   <path stroke="#5e5e5e" stroke-width="6" fill="#5e5e5e" d="m277.943581,320.957152l14.773454,0l0,14.959903l-14.773454,0l0,-14.959903zm0,0" id="svg_4"/>
   <path stroke="#5e5e5e" stroke-width="6" fill="#5e5e5e" d="m189.297445,365.831371l44.323074,0l0,14.959903l-44.323074,0l0,-14.959903zm0,0" id="svg_5"/>
   <path stroke="#5e5e5e" stroke-width="6" fill="#5e5e5e" d="m248.393973,365.831371l73.872682,0l0,14.959903l-73.872682,0l0,-14.959903zm0,0" id="svg_6"/>
   <path stroke="#5e5e5e" stroke-width="6" fill="#5e5e5e" d="m189.297445,410.70559l73.872682,0l0,14.959891l-73.872682,0l0,-14.959891zm0,0" id="svg_7"/>
   <path stroke="#5e5e5e" stroke-width="6" fill="#5e5e5e" d="m277.943581,410.70559l29.54962,0l0,14.959891l-29.54962,0l0,-14.959891zm0,0" id="svg_8"/>
   <path stroke="#5e5e5e" stroke-width="6" fill="#5e5e5e" d="m520.667584,267.235072l-3.797414,0c-6.861256,0 -9.560369,-5.253065 -10.237164,-6.86438c-0.664646,-1.611333 -2.455954,-7.234668 2.391108,-12.088969l2.691007,-2.701808c2.079041,-2.087403 3.250277,-4.911269 3.250277,-7.865368c0,-2.945943 -1.159069,-5.777965 -3.242171,-7.86535l-31.295133,-31.432944c-4.328304,-4.345677 -11.311148,-4.345677 -15.63539,-0.012199l-2.703175,2.709947c-4.834894,4.8665 -10.447917,3.088356 -12.060896,2.412904c-1.592724,-0.655115 -6.82885,-3.369122 -6.82885,-10.257917l0,-3.808578c0,-6.136037 -4.948359,-11.112414 -11.067972,-11.112414l-44.263834,0c-6.119613,0 -11.067989,4.976377 -11.067989,11.112414l0,3.808578c0,6.888795 -5.236109,9.602802 -6.828832,10.266055c-1.612997,0.667314 -7.201702,2.469873 -12.073064,-2.421042l-2.691007,-2.697748c-4.32426,-4.333478 -11.307104,-4.333478 -15.635408,0.008138l-31.295116,31.432944c-2.083102,2.091463 -3.242188,4.911269 -3.242188,7.869428c0,2.954081 1.159086,5.777965 3.250294,7.86535l2.67884,2.689609c4.847062,4.8665 3.055753,10.497973 2.403258,12.101168c-0.676796,1.599116 -3.375909,6.852181 -10.237164,6.852181l-3.797414,0c-6.119613,0 -11.063928,4.980437 -11.063928,11.112396l0,44.445577c0,6.131977 4.944315,11.108336 11.063928,11.108336l3.797414,0c6.861256,0 9.560369,5.257143 10.237164,6.868458c0.664646,1.611333 2.455954,7.234668 -2.39109,12.088969l-2.691007,2.69773c-2.079058,2.091481 -3.250294,4.911287 -3.250294,7.869428c0,2.941882 1.159086,5.777983 3.242171,7.865368l31.295133,31.432926c4.328304,4.345695 11.311148,4.345695 15.635408,0.012216l2.703157,-2.709947c4.847062,-4.870577 10.456023,-3.068019 12.060914,-2.412904c1.592706,0.655097 6.828832,3.365044 6.828832,10.253839l0,3.812656c0,6.131959 4.948377,11.112414 11.067989,11.112414l44.263834,0c6.119613,0 11.067972,-4.980455 11.067972,-11.112414l0,-3.812656c0,-6.888795 5.236126,-9.598742 6.82885,-10.266038c1.592724,-0.667331 7.201684,-2.465812 12.073064,2.425103l2.691007,2.697748c4.324243,4.333478 11.307086,4.333478 15.63539,-0.012199l31.295133,-31.432961c2.083102,-2.087385 3.242171,-4.911269 3.242171,-7.86535c0,-2.954081 -1.159069,-5.777965 -3.250277,-7.86535l-2.678857,-2.689609c-4.847045,-4.8665 -3.055753,-10.502051 -2.403258,-12.101168c0.676796,-1.599116 3.375909,-6.856259 10.237164,-6.856259l3.797414,0c6.119613,0 11.063928,-4.976359 11.063928,-11.108336l0,-44.44556c0,-6.131977 -4.944315,-11.112414 -11.063928,-11.112414zm-11.067989,45.210534c-10.48034,2.26643 -19.132905,9.435991 -23.404468,19.811906c-4.283731,10.379993 -3.221915,21.565652 2.597781,30.623217l-16.729629,16.800857c-9.021355,-5.834934 -20.154191,-6.925427 -30.512943,-2.612286c-10.334452,4.300907 -17.463184,12.967864 -19.720553,23.498408l-23.671944,0c-2.25737,-10.522406 -9.394224,-19.197501 -19.720553,-23.498408c-10.326329,-4.300925 -21.491589,-3.222648 -30.508882,2.612286l-16.733709,-16.800857c5.819713,-9.045366 6.881529,-20.243224 2.60186,-30.623199c-4.283731,-10.375933 -12.928189,-17.545494 -23.408529,-19.811924l0,-23.762897c10.48034,-2.270491 19.136949,-9.435991 23.408529,-19.811906c4.279669,-10.379993 3.217853,-21.565652 -2.60186,-30.623217l16.733709,-16.800857c9.005126,5.834934 20.150129,6.91321 30.508882,2.612286c10.338496,-4.300907 17.463184,-12.967864 19.720553,-23.498408l23.671944,0c2.25737,10.522406 9.394207,19.197501 19.720553,23.498408c10.338496,4.309063 21.503739,3.234847 30.512943,-2.612286l16.729629,16.800857c-5.819696,9.045366 -6.881512,20.243224 -2.597781,30.623217c4.279669,10.375915 12.924127,17.541416 23.404468,19.811906l0,23.762897zm0,0" id="svg_9"/>
   <path stroke="#5e5e5e" stroke-width="6" fill="#5e5e5e" d="m415.059084,266.247893c-20.365241,0 -36.934991,16.77579 -36.934991,37.394267c0,20.62121 16.56975,37.397001 36.934991,37.397001s36.93498,-16.77579 36.93498,-37.397001c0,-20.618477 -16.56975,-37.394267 -36.93498,-37.394267zm0,59.831365c-12.219692,0 -22.161537,-10.065469 -22.161537,-22.437109c0,-12.368883 9.941845,-22.437098 22.161537,-22.437098s22.161525,10.068214 22.161525,22.437098c0,12.37164 -9.941845,22.437109 -22.161525,22.437109zm0,0" id="svg_10"/>
   <path stroke="#5e5e5e" id="svg_13" d="m242.683559,279.950893" opacity="0.5" stroke-width="6" fill="#5e5e5e"/>
  </g>
 </g>
</svg>