<svg width="56" height="56" xmlns="http://www.w3.org/2000/svg">

 <g>
  <title>background</title>
  <rect fill="none" id="canvas_background" height="402" width="582" y="-1" x="-1"/>
 </g>
 <g>
  <title>Layer 1</title>
  <g id="svg_1">
   <path id="svg_2" fill="#E9E9E0" d="m36.985,0l-29.022,0c-0.808,0 -1.463,0.655 -1.463,1.926l0,53.074c0,0.345 0.655,1 1.463,1l40.074,0c0.808,0 1.463,-0.655 1.463,-1l0,-42.022c0,-0.696 -0.093,-0.92 -0.257,-1.085l-11.636,-11.636c-0.165,-0.164 -0.389,-0.257 -0.622,-0.257z"/>
   <polygon id="svg_3" fill="#D9D7CA" points="37.5,0.151 37.5,12 49.349,12  "/>
   <circle id="svg_4" fill="#F3D55B" r="4.569" cy="14.431" cx="18.931"/>
   <polygon id="svg_5" fill="#26B99A" points="6.5,39 17.5,39 49.5,39 49.5,28 39.5,18.5 29,30 23.517,24.517  "/>
   <path id="svg_6" fill="#14A085" d="m48.037,56l-40.074,0c-0.808,0 -1.463,-0.655 -1.463,-1.463l0,-15.537l43,0l0,15.537c0,0.808 -0.655,1.463 -1.463,1.463z"/>
   <text font-weight="normal" stroke="#ffffff" transform="matrix(0.5594751620101529,0,0,0.5594751620101529,5.8521732867653595,22.151783809961966) " xml:space="preserve" text-anchor="start" font-family="'Trebuchet MS', Gadget, sans-serif" font-size="24" id="svg_26" y="53.353642" x="6.271972" stroke-width="0" fill="#ffffff">IMAGE</text>
  </g>
  <g id="svg_11"/>
  <g id="svg_12"/>
  <g id="svg_13"/>
  <g id="svg_14"/>
  <g id="svg_15"/>
  <g id="svg_16"/>
  <g id="svg_17"/>
  <g id="svg_18"/>
  <g id="svg_19"/>
  <g id="svg_20"/>
  <g id="svg_21"/>
  <g id="svg_22"/>
  <g id="svg_23"/>
  <g id="svg_24"/>
  <g id="svg_25"/>
 </g>
</svg>