<?xml version="1.0" encoding="iso-8859-1"?>
<!-- Generator: Adobe Illustrator 19.0.0, SVG Export Plug-In . SVG Version: 6.00 Build 0)  -->
<svg version="1.1" id="Layer_1" xmlns="http://www.w3.org/2000/svg" xmlns:xlink="http://www.w3.org/1999/xlink" x="0px" y="0px"
	 viewBox="0 0 455 455" style="enable-background:new 0 0 455 455;" xml:space="preserve">
<g>
	<polygon style="fill:#46F8FF;" points="285.784,111.716 285.784,0 227.5,0 227.5,277.5 397.5,277.5 397.5,111.716 	"/>
	<rect x="57.5" style="fill:#9BFBFF;" width="170" height="277.5"/>
	<path style="fill:#FFDA44;" d="M57.5,277.5V455h170V277.5H57.5z M214.226,398.2h-12.24v-6.3c-4.86,4.5-10.471,6.75-16.83,6.75
		c-4.2,0-8.161-0.795-11.88-2.386c-3.721-1.589-6.975-3.824-9.765-6.705c-2.79-2.88-4.995-6.345-6.615-10.395
		c-1.62-4.05-2.43-8.505-2.43-13.365c0-4.379,0.81-8.519,2.43-12.42c1.62-3.899,3.854-7.29,6.705-10.17
		c2.849-2.88,6.224-5.159,10.125-6.84c3.9-1.68,8.1-2.521,12.6-2.521c5.94,0,11.129,1.246,15.57,3.735
		c4.439,2.49,7.77,5.895,9.99,10.215l-10.98,8.28c-1.44-2.88-3.525-5.114-6.255-6.705c-2.731-1.589-5.686-2.385-8.865-2.385
		c-2.461,0-4.695,0.495-6.705,1.484c-2.011,0.99-3.735,2.371-5.175,4.141c-1.44,1.771-2.551,3.825-3.33,6.165
		c-0.78,2.34-1.17,4.859-1.17,7.56c0,2.761,0.419,5.311,1.26,7.65c0.839,2.34,2.009,4.364,3.51,6.075
		c1.499,1.71,3.285,3.046,5.355,4.005c2.07,0.96,4.365,1.439,6.885,1.439c5.76,0,10.949-2.669,15.57-8.01v-1.98h-12.42v-10.71h24.66
		V398.2z"/>
	<path style="fill:#FFCD00;" d="M227.5,455h170V277.5h-170V455z M259.944,334.3h43.38v12.96h-28.62v13.771h23.58V373h-23.58v25.2
		h-14.76V334.3z M228.445,334.3h14.76v63.9h-14.76V334.3z"/>
	<polygon style="fill:#00D7DF;" points="397.5,111.716 285.784,0 285.784,111.716 	"/>
	<path style="fill:#005ECE;" d="M189.566,375.52h12.42v1.98c-4.621,5.341-9.81,8.01-15.57,8.01c-2.52,0-4.815-0.479-6.885-1.439
		c-2.07-0.959-3.856-2.295-5.355-4.005c-1.5-1.711-2.67-3.735-3.51-6.075c-0.841-2.34-1.26-4.89-1.26-7.65
		c0-2.7,0.39-5.22,1.17-7.56c0.779-2.34,1.89-4.395,3.33-6.165c1.44-1.77,3.164-3.15,5.175-4.141
		c2.01-0.989,4.244-1.484,6.705-1.484c3.18,0,6.134,0.796,8.865,2.385c2.729,1.591,4.815,3.825,6.255,6.705l10.98-8.28
		c-2.22-4.32-5.55-7.725-9.99-10.215c-4.441-2.489-9.63-3.735-15.57-3.735c-4.5,0-8.7,0.841-12.6,2.521
		c-3.901,1.681-7.276,3.96-10.125,6.84c-2.85,2.88-5.085,6.271-6.705,10.17c-1.62,3.901-2.43,8.041-2.43,12.42
		c0,4.86,0.81,9.315,2.43,13.365c1.62,4.05,3.825,7.515,6.615,10.395c2.79,2.881,6.044,5.116,9.765,6.705
		c3.719,1.591,7.68,2.386,11.88,2.386c6.359,0,11.97-2.25,16.83-6.75v6.3h12.24V364.81h-24.66V375.52z"/>
	<rect x="228.445" y="334.3" style="fill:#005ECE;" width="14.76" height="63.9"/>
	<polygon style="fill:#005ECE;" points="274.704,373 298.284,373 298.284,361.03 274.704,361.03 274.704,347.26 303.324,347.26 
		303.324,334.3 259.944,334.3 259.944,398.2 274.704,398.2 	"/>
</g>
<g>
</g>
<g>
</g>
<g>
</g>
<g>
</g>
<g>
</g>
<g>
</g>
<g>
</g>
<g>
</g>
<g>
</g>
<g>
</g>
<g>
</g>
<g>
</g>
<g>
</g>
<g>
</g>
<g>
</g>
</svg>
