<svg width="20" height="20" xmlns="http://www.w3.org/2000/svg">

 <g>
  <title>background</title>
  <rect fill="none" id="canvas_background" height="402" width="582" y="-1" x="-1"/>
 </g>
 <g>
  <title>Layer 1</title>
  <g id="svg_1">
   <path id="svg_2" d="m10,19c-4.962,0 -9,-4.038 -9,-9s4.038,-9 9,-9s9,4.038 9,9s-4.038,9 -9,9zm0,-17c-4.411,0 -8,3.589 -8,8s3.589,8 8,8s8,-3.589 8,-8s-3.589,-8 -8,-8z" fill="#A2ACB3"/>
  </g>
  <g stroke="null" id="svg_12">
   <g stroke="null" id="svg_9">
    <path stroke="null" id="svg_8" d="m12.021138,14.5335c0.183862,-0.195 0.183862,-0.512 0,-0.707l-4.000656,-4.243c-0.183862,-0.195 -0.482757,-0.195 -0.666619,0l0,0c-0.183862,0.195 -0.183862,0.512 0,0.707l4.000656,4.243c0.183862,0.196 0.482757,0.196 0.666619,0l0,0z" fill="#A2ACB3"/>
   </g>
   <g stroke="null" id="svg_11">
    <path stroke="null" id="svg_10" d="m12.021138,5.3415c-0.183862,-0.195 -0.482757,-0.195 -0.666619,0l-4.000656,4.243c-0.183862,0.195 -0.183862,0.512 0,0.707l0,0c0.183862,0.195 0.482757,0.195 0.666619,0l4.000656,-4.243c0.183862,-0.195 0.183862,-0.512 0,-0.707l0,0z" fill="#A2ACB3"/>
   </g>
  </g>
 </g>
</svg>