<?xml version="1.0" encoding="UTF-8"?>
<!DOCTYPE svg PUBLIC "-//W3C//DTD SVG 1.1//EN" "http://www.w3.org/Graphics/SVG/1.1/DTD/svg11.dtd">
<!-- Creator: CorelDRAW X8 -->
<svg xmlns="http://www.w3.org/2000/svg" xml:space="preserve" width="3.35748in" height="3.35748in" version="1.1" style="shape-rendering:geometricPrecision; text-rendering:geometricPrecision; image-rendering:optimizeQuality; fill-rule:evenodd; clip-rule:evenodd"
viewBox="0 0 3357 3357"
 xmlns:xlink="http://www.w3.org/1999/xlink">
 <defs>
  <style type="text/css">
   <![CDATA[
    .fil0 {fill:#A2ACB3}
   ]]>
  </style>
 </defs>
 <g id="Layer_x0020_1">
  <metadata id="CorelCorpID_0Corel-Layer"/>
  <path class="fil0" d="M489 489c313,-301 726,-489 1190,-489 463,0 889,188 1190,489 301,313 488,726 488,1190 0,463 -187,889 -488,1190 -301,301 -727,488 -1190,488 -464,0 -877,-187 -1190,-488 -301,-301 -489,-727 -489,-1190 0,-464 188,-877 489,-1190zm1691 2004c-150,75 -326,125 -501,125 -25,0 -38,0 -63,0 -25,0 -37,0 -63,-12 -150,-13 -300,-63 -425,-151 -138,-75 -251,-187 -326,-313l-13 -25 176 -113 12 13c63,100 163,188 263,263 101,63 226,100 339,113 162,25 313,-13 451,-75 137,-63 263,-163 350,-301l13 -13 175 113 0 25c-100,151 -238,263 -388,351l0 0zm175 -1127c-25,-26 -62,-38 -113,-38 -37,0 -75,12 -112,38 -25,25 -38,62 -38,112l0 13 -225 0 0 -13c0,-100 50,-200 112,-263 76,-75 163,-113 263,-113 113,0 201,38 276,113 63,63 100,163 100,263l0 13 -213 0 0 -13c0,-50 -25,-87 -50,-112l0 0zm-1127 0c-38,-26 -75,-38 -113,-38 -50,0 -88,12 -113,38 -25,25 -50,62 -50,112l0 13 -213 0 0 -13c0,-100 38,-200 113,-263 63,-75 150,-113 263,-113 100,0 200,38 263,113 63,63 113,163 113,263l0 13 -226 0 0 -13c0,-50 -12,-87 -37,-112zm-100 1666c162,75 350,113 551,113 401,0 764,-163 1027,-439 276,-263 438,-626 438,-1027 0,-113 -12,-213 -37,-326 -25,-100 -63,-213 -113,-301 -37,-87 -88,-162 -138,-238 -62,-75 -112,-150 -188,-213 -125,-112 -288,-213 -463,-288 -163,-62 -338,-100 -526,-100 -401,0 -764,175 -1028,438 -263,264 -438,627 -438,1028 0,125 25,238 50,351 25,112 63,225 125,325 25,63 75,126 113,188 50,63 100,125 150,176 138,125 289,238 477,313z"/>
 </g>
</svg>
