<?xml version="1.0" encoding="iso-8859-1"?>
<!-- Generator: Adobe Illustrator 19.0.0, SVG Export Plug-In . SVG Version: 6.00 Build 0)  -->
<svg version="1.1" id="Capa_1" xmlns="http://www.w3.org/2000/svg" xmlns:xlink="http://www.w3.org/1999/xlink" x="0px" y="0px"
	 viewBox="0 0 368 368" style="enable-background:new 0 0 368 368;" xml:space="preserve">
<g>
	<g>
		<g>
			<path d="M352,288H16c-8.824,0-16,7.176-16,16v48c0,8.824,7.176,16,16,16h336c8.824,0,16-7.176,16-16v-48
				C368,295.176,360.824,288,352,288z M352,352H16v-48l336-0.008V352z"/>
			<path d="M178.128,253.424c1.504,1.64,3.64,2.576,5.872,2.576s4.368-0.936,5.872-2.576l96-104c2.16-2.336,2.728-5.72,1.456-8.632
				C286.056,137.88,283.176,136,280,136h-56V16c0-8.824-7.176-16-16.008-16h-48C151.168,0,144,7.176,144,16v120H88
				c-3.176,0-6.056,1.88-7.328,4.792c-1.272,2.912-0.704,6.296,1.456,8.632L178.128,253.424z M152,152c4.424,0,8-3.584,8-8
				l-0.008-128h48L208,144c0,4.416,3.576,8,8,8h45.728L184,236.208L106.272,152H152z"/>
		</g>
	</g>
</g>
<g>
</g>
<g>
</g>
<g>
</g>
<g>
</g>
<g>
</g>
<g>
</g>
<g>
</g>
<g>
</g>
<g>
</g>
<g>
</g>
<g>
</g>
<g>
</g>
<g>
</g>
<g>
</g>
<g>
</g>
</svg>
