<svg xmlns="http://www.w3.org/2000/svg" version="1" width="48" height="48" viewBox="0 0 24 24">
    <path d="M 10.3125 -0.03125 C 8.5883427 -0.03125 7.1652192 1.3159726 7 3 L 2 3 L 2 5 L 6.96875 5 L 6.96875 5.03125 L 8 5.03125 L 16 5.03125 L 17.03125 5.03125 L 17.03125 5 L 22 5 L 22 3 L 17 3 C 16.842281 1.3159726 15.48441 -0.03125 13.8125 -0.03125 L 10.3125 -0.03125 z M 10.3125 2.03125 L 13.8125 2.03125 C 14.32076 2.03125 14.69526 2.4303155 14.84375 2.96875 L 9.15625 2.96875 C 9.2978354 2.4303155 9.6862512 2.03125 10.3125 2.03125 z M 4 6 L 4 22.5 C 4 23.3 4.7 24 5.5 24 L 18.59375 24 C 19.39375 24 20.09375 23.3 20.09375 22.5 L 20.09375 6 L 4 6 z M 7 9 L 8 9 L 8 22 L 7 22 L 7 9 z M 10 9 L 11 9 L 11 22 L 10 22 L 10 9 z M 13 9 L 14 9 L 14 22 L 13 22 L 13 9 z M 16 9 L 17 9 L 17 22 L 16 22 L 16 9 z"/>
</svg>